%TF.GenerationSoftware,KiCad,Pcbnew,10.0.6*%
%TF.CreationDate,2026-09-27T08:23:23-04:00*%
%TF.ProjectId,iwand,6977616e-642e-46b6-9963-61645f706362,rev?*%
%TF.SameCoordinates,Original*%
%TF.FileFunction,Soldermask,Top*%
%TF.FilePolarity,Negative*%
%FSLAX46Y46*%
G04 Gerber Fmt 4.6, Leading zero omitted, Abs format (unit mm)*
G04 Created by KiCad (PCBNEW 10.0.6) date 2026-09-27 08:23:23*
%MOMM*%
%LPD*%
G01*
G04 APERTURE LIST*
G04 Aperture macros list*
%AMRoundRect*
0 Rectangle with rounded corners*
0 $1 Rounding radius*
0 $2 $3 $4 $5 $6 $7 $8 $9 X,Y pos of 4 corners*
0 Add a 4 corners polygon primitive as box body*
4,1,4,$2,$3,$4,$5,$6,$7,$8,$9,$2,$3,0*
0 Add four circle primitives for the rounded corners*
1,1,$1+$1,$2,$3*
1,1,$1+$1,$4,$5*
1,1,$1+$1,$6,$7*
1,1,$1+$1,$8,$9*
0 Add four rect primitives between the rounded corners*
20,1,$1+$1,$2,$3,$4,$5,0*
20,1,$1+$1,$4,$5,$6,$7,0*
20,1,$1+$1,$6,$7,$8,$9,0*
20,1,$1+$1,$8,$9,$2,$3,0*%
G04 Aperture macros list end*
%ADD10RoundRect,0.250000X-0.625000X0.350000X-0.625000X-0.350000X0.625000X-0.350000X0.625000X0.350000X0*%
%ADD11O,1.750000X1.200000*%
%ADD12C,1.600000*%
%ADD13O,2.200000X3.500000*%
%ADD14R,1.500000X2.500000*%
%ADD15O,1.500000X2.500000*%
%ADD16RoundRect,0.250000X0.625000X-0.350000X0.625000X0.350000X-0.625000X0.350000X-0.625000X-0.350000X0*%
%ADD17R,1.600000X1.600000*%
%ADD18R,1.700000X1.700000*%
%ADD19C,1.700000*%
G04 APERTURE END LIST*
D10*
%TO.C,J2*%
X106790000Y-110000000D03*
D11*
X106790000Y-112000000D03*
%TD*%
D12*
%TO.C,R4*%
X113490000Y-112800000D03*
X121110000Y-112800000D03*
%TD*%
D10*
%TO.C,J3*%
X106790000Y-117250000D03*
D11*
X106790000Y-119250000D03*
%TD*%
D12*
%TO.C,R1*%
X113490000Y-103500000D03*
X121110000Y-103500000D03*
%TD*%
%TO.C,R6*%
X113490000Y-119000000D03*
X121110000Y-119000000D03*
%TD*%
D13*
%TO.C,SW2*%
X129400000Y-119600000D03*
X137600000Y-119600000D03*
D14*
X131500000Y-119600000D03*
D15*
X133500000Y-119600000D03*
X135500000Y-119600000D03*
%TD*%
D16*
%TO.C,J1*%
X169140000Y-114000000D03*
D11*
X169140000Y-112000000D03*
X169140000Y-110000000D03*
X169140000Y-108000000D03*
%TD*%
D17*
%TO.C,U3*%
X147340000Y-120017000D03*
D12*
X149880000Y-120017000D03*
X152420000Y-120017000D03*
X154960000Y-120017000D03*
X157500000Y-120017000D03*
X160040000Y-120017000D03*
X162580000Y-120017000D03*
X165120000Y-120017000D03*
X165120000Y-101983000D03*
X162580000Y-101983000D03*
X160040000Y-101983000D03*
X157500000Y-101983000D03*
X154960000Y-101983000D03*
X152420000Y-101983000D03*
X149880000Y-101983000D03*
X147340000Y-101983000D03*
%TD*%
%TO.C,R5*%
X113490000Y-115900000D03*
X121110000Y-115900000D03*
%TD*%
D17*
%TO.C,Q1*%
X143400000Y-109340000D03*
D12*
X140860000Y-109340000D03*
X138320000Y-109340000D03*
%TD*%
D18*
%TO.C,J5*%
X129600000Y-114000000D03*
D19*
X132140000Y-114000000D03*
%TD*%
D12*
%TO.C,R3*%
X113490000Y-109700000D03*
X121110000Y-109700000D03*
%TD*%
D10*
%TO.C,J4*%
X106790000Y-102750000D03*
D11*
X106790000Y-104750000D03*
%TD*%
D17*
%TO.C,Q2*%
X134600000Y-109340000D03*
D12*
X132060000Y-109340000D03*
X129520000Y-109340000D03*
%TD*%
%TO.C,C1*%
X141200000Y-115000000D03*
X143700000Y-115000000D03*
%TD*%
D17*
%TO.C,U1*%
X125820000Y-119120000D03*
D12*
X125820000Y-116580000D03*
X125820000Y-114040000D03*
X125820000Y-111500000D03*
X125820000Y-108960000D03*
X125820000Y-106420000D03*
X125820000Y-103880000D03*
X110580000Y-103880000D03*
X110580000Y-106420000D03*
X110580000Y-108960000D03*
X110580000Y-111500000D03*
X110580000Y-114040000D03*
X110580000Y-116580000D03*
X110580000Y-119120000D03*
%TD*%
%TO.C,R2*%
X113490000Y-106600000D03*
X121110000Y-106600000D03*
%TD*%
M02*
