%TF.GenerationSoftware,KiCad,Pcbnew,10.0.6*%
%TF.CreationDate,2026-09-27T08:23:23-04:00*%
%TF.ProjectId,iwand,6977616e-642e-46b6-9963-61645f706362,rev?*%
%TF.SameCoordinates,Original*%
%TF.FileFunction,Copper,L2,Bot*%
%TF.FilePolarity,Positive*%
%FSLAX46Y46*%
G04 Gerber Fmt 4.6, Leading zero omitted, Abs format (unit mm)*
G04 Created by KiCad (PCBNEW 10.0.6) date 2026-09-27 08:23:23*
%MOMM*%
%LPD*%
G01*
G04 APERTURE LIST*
G04 Aperture macros list*
%AMRoundRect*
0 Rectangle with rounded corners*
0 $1 Rounding radius*
0 $2 $3 $4 $5 $6 $7 $8 $9 X,Y pos of 4 corners*
0 Add a 4 corners polygon primitive as box body*
4,1,4,$2,$3,$4,$5,$6,$7,$8,$9,$2,$3,0*
0 Add four circle primitives for the rounded corners*
1,1,$1+$1,$2,$3*
1,1,$1+$1,$4,$5*
1,1,$1+$1,$6,$7*
1,1,$1+$1,$8,$9*
0 Add four rect primitives between the rounded corners*
20,1,$1+$1,$2,$3,$4,$5,0*
20,1,$1+$1,$4,$5,$6,$7,0*
20,1,$1+$1,$6,$7,$8,$9,0*
20,1,$1+$1,$8,$9,$2,$3,0*%
G04 Aperture macros list end*
%TA.AperFunction,ComponentPad*%
%ADD10RoundRect,0.250000X-0.625000X0.350000X-0.625000X-0.350000X0.625000X-0.350000X0.625000X0.350000X0*%
%TD*%
%TA.AperFunction,ComponentPad*%
%ADD11O,1.750000X1.200000*%
%TD*%
%TA.AperFunction,ComponentPad*%
%ADD12C,1.600000*%
%TD*%
%TA.AperFunction,ComponentPad*%
%ADD13O,2.200000X3.500000*%
%TD*%
%TA.AperFunction,ComponentPad*%
%ADD14R,1.500000X2.500000*%
%TD*%
%TA.AperFunction,ComponentPad*%
%ADD15O,1.500000X2.500000*%
%TD*%
%TA.AperFunction,ComponentPad*%
%ADD16RoundRect,0.250000X0.625000X-0.350000X0.625000X0.350000X-0.625000X0.350000X-0.625000X-0.350000X0*%
%TD*%
%TA.AperFunction,ComponentPad*%
%ADD17R,1.600000X1.600000*%
%TD*%
%TA.AperFunction,ComponentPad*%
%ADD18R,1.700000X1.700000*%
%TD*%
%TA.AperFunction,ComponentPad*%
%ADD19C,1.700000*%
%TD*%
%TA.AperFunction,ViaPad*%
%ADD20C,0.600000*%
%TD*%
%TA.AperFunction,ViaPad*%
%ADD21C,0.800000*%
%TD*%
%TA.AperFunction,Conductor*%
%ADD22C,0.250000*%
%TD*%
%TA.AperFunction,Conductor*%
%ADD23C,0.500000*%
%TD*%
G04 APERTURE END LIST*
D10*
%TO.P,J2,1,Pin_1_1*%
%TO.N,/SPK1*%
X106790000Y-110000000D03*
D11*
%TO.P,J2,2,Pin_2_2*%
%TO.N,/SPK2*%
X106790000Y-112000000D03*
%TD*%
D12*
%TO.P,R4,1*%
%TO.N,/Q2_GATE*%
X113490000Y-112800000D03*
%TO.P,R4,2*%
%TO.N,/GND*%
X121110000Y-112800000D03*
%TD*%
D10*
%TO.P,J3,1,Pin_1_1*%
%TO.N,/D3_BTN*%
X106790000Y-117250000D03*
D11*
%TO.P,J3,2,Pin_2_2*%
%TO.N,/GND*%
X106790000Y-119250000D03*
%TD*%
D12*
%TO.P,R1,1*%
%TO.N,/D0*%
X113490000Y-103500000D03*
%TO.P,R1,2*%
%TO.N,/Q1_GATE*%
X121110000Y-103500000D03*
%TD*%
%TO.P,R6,1*%
%TO.N,/VBAT_SENSE*%
X113490000Y-119000000D03*
%TO.P,R6,2*%
%TO.N,/GND*%
X121110000Y-119000000D03*
%TD*%
D13*
%TO.P,SW2,*%
%TO.N,*%
X129400000Y-119600000D03*
X137600000Y-119600000D03*
D14*
%TO.P,SW2,1*%
%TO.N,/VBAT*%
X131500000Y-119600000D03*
D15*
%TO.P,SW2,2*%
%TO.N,/BAT_IN*%
X133500000Y-119600000D03*
%TO.P,SW2,3*%
%TO.N,unconnected-(SW2-C-Pad3)*%
X135500000Y-119600000D03*
%TD*%
D16*
%TO.P,J1,1,Pin_1_1*%
%TO.N,/SENSOR_GND*%
X169140000Y-114000000D03*
D11*
%TO.P,J1,2,Pin_2_2*%
%TO.N,/GY33_DR*%
X169140000Y-112000000D03*
%TO.P,J1,3,Pin_3_3*%
%TO.N,/GY33_CT*%
X169140000Y-110000000D03*
%TO.P,J1,4,Pin_4_4*%
%TO.N,/VBAT*%
X169140000Y-108000000D03*
%TD*%
D17*
%TO.P,U3,1*%
%TO.N,/VBAT*%
X147340000Y-120017000D03*
D12*
%TO.P,U3,2*%
%TO.N,/UART_TX*%
X149880000Y-120017000D03*
%TO.P,U3,3*%
%TO.N,/UART_RX*%
X152420000Y-120017000D03*
%TO.P,U3,4*%
%TO.N,unconnected-(U3-DAC_R-Pad4)*%
X154960000Y-120017000D03*
%TO.P,U3,5*%
%TO.N,unconnected-(U3-DAC_L-Pad5)*%
X157500000Y-120017000D03*
%TO.P,U3,6*%
%TO.N,/SPK1*%
X160040000Y-120017000D03*
%TO.P,U3,7*%
%TO.N,/AUDIO_GND*%
X162580000Y-120017000D03*
%TO.P,U3,8*%
%TO.N,/SPK2*%
X165120000Y-120017000D03*
%TO.P,U3,9*%
%TO.N,unconnected-(U3-IO1-Pad9)*%
X165120000Y-101983000D03*
%TO.P,U3,10*%
%TO.N,/AUDIO_GND*%
X162580000Y-101983000D03*
%TO.P,U3,11*%
%TO.N,unconnected-(U3-IO2-Pad11)*%
X160040000Y-101983000D03*
%TO.P,U3,12*%
%TO.N,unconnected-(U3-ADKEY1-Pad12)*%
X157500000Y-101983000D03*
%TO.P,U3,13*%
%TO.N,unconnected-(U3-ADKEY2-Pad13)*%
X154960000Y-101983000D03*
%TO.P,U3,14*%
%TO.N,unconnected-(U3-USB+-Pad14)*%
X152420000Y-101983000D03*
%TO.P,U3,15*%
%TO.N,unconnected-(U3-USB--Pad15)*%
X149880000Y-101983000D03*
%TO.P,U3,16*%
%TO.N,unconnected-(U3-BUSY-Pad16)*%
X147340000Y-101983000D03*
%TD*%
%TO.P,R5,1*%
%TO.N,/VBAT*%
X113490000Y-115900000D03*
%TO.P,R5,2*%
%TO.N,/VBAT_SENSE*%
X121110000Y-115900000D03*
%TD*%
D17*
%TO.P,Q1,1*%
%TO.N,/Q1_GATE*%
X143400000Y-109340000D03*
D12*
%TO.P,Q1,2*%
%TO.N,/SENSOR_GND*%
X140860000Y-109340000D03*
%TO.P,Q1,3*%
%TO.N,/GND*%
X138320000Y-109340000D03*
%TD*%
D18*
%TO.P,J5,1,Pin_1_1*%
%TO.N,/VBAT*%
X129600000Y-114000000D03*
D19*
%TO.P,J5,2,Pin_2_2*%
%TO.N,/GND*%
X132140000Y-114000000D03*
%TD*%
D12*
%TO.P,R3,1*%
%TO.N,/D1*%
X113490000Y-109700000D03*
%TO.P,R3,2*%
%TO.N,/Q2_GATE*%
X121110000Y-109700000D03*
%TD*%
D10*
%TO.P,J4,1,Pin_1_1*%
%TO.N,/BAT_IN*%
X106790000Y-102750000D03*
D11*
%TO.P,J4,2,Pin_2_2*%
%TO.N,/GND*%
X106790000Y-104750000D03*
%TD*%
D17*
%TO.P,Q2,1*%
%TO.N,/Q2_GATE*%
X134600000Y-109340000D03*
D12*
%TO.P,Q2,2*%
%TO.N,/AUDIO_GND*%
X132060000Y-109340000D03*
%TO.P,Q2,3*%
%TO.N,/GND*%
X129520000Y-109340000D03*
%TD*%
%TO.P,C1,1*%
%TO.N,/VBAT_SENSE*%
X141200000Y-115000000D03*
%TO.P,C1,2*%
%TO.N,/GND*%
X143700000Y-115000000D03*
%TD*%
D17*
%TO.P,U1,1*%
%TO.N,/D0*%
X125820000Y-119120000D03*
D12*
%TO.P,U1,2*%
%TO.N,/D1*%
X125820000Y-116580000D03*
%TO.P,U1,3*%
%TO.N,unconnected-(U1-D2-Pad3)*%
X125820000Y-114040000D03*
%TO.P,U1,4*%
%TO.N,/D3_BTN*%
X125820000Y-111500000D03*
%TO.P,U1,5*%
%TO.N,/UART_RX*%
X125820000Y-108960000D03*
%TO.P,U1,6*%
%TO.N,/UART_TX*%
X125820000Y-106420000D03*
%TO.P,U1,7*%
%TO.N,unconnected-(U1-D6-Pad7)*%
X125820000Y-103880000D03*
%TO.P,U1,8*%
%TO.N,unconnected-(U1-D7-Pad8)*%
X110580000Y-103880000D03*
%TO.P,U1,9*%
%TO.N,/GY33_DR*%
X110580000Y-106420000D03*
%TO.P,U1,10*%
%TO.N,/GY33_CT*%
X110580000Y-108960000D03*
%TO.P,U1,11*%
%TO.N,/VBAT_SENSE*%
X110580000Y-111500000D03*
%TO.P,U1,12*%
%TO.N,unconnected-(U1-3V3-Pad12)*%
X110580000Y-114040000D03*
%TO.P,U1,13*%
%TO.N,/GND*%
X110580000Y-116580000D03*
%TO.P,U1,14*%
%TO.N,unconnected-(U1-5V-Pad14)*%
X110580000Y-119120000D03*
%TD*%
%TO.P,R2,1*%
%TO.N,/Q1_GATE*%
X113490000Y-106600000D03*
%TO.P,R2,2*%
%TO.N,/GND*%
X121110000Y-106600000D03*
%TD*%
D20*
%TO.N,/GND*%
X170993000Y-113970000D03*
X105207000Y-118414999D03*
X114859000Y-110668000D03*
X145974000Y-106223000D03*
X161468000Y-105969000D03*
X153975000Y-118414999D03*
X150038000Y-110033000D03*
X141275000Y-113208000D03*
X174041000Y-118033999D03*
X170866000Y-110287000D03*
X158039000Y-105969000D03*
X174041000Y-105969000D03*
X174041000Y-102032000D03*
X141402000Y-106477000D03*
X137973000Y-113970000D03*
X134798000Y-111049000D03*
X146355000Y-110033000D03*
X174041000Y-113970000D03*
X165531999Y-110541000D03*
X119050000Y-106985000D03*
X102032000Y-113970000D03*
X169977000Y-118033999D03*
X134036000Y-106223000D03*
D21*
X127178000Y-116002000D03*
D20*
X161468000Y-112954000D03*
X122733000Y-106858000D03*
X166293999Y-105715000D03*
X154483000Y-109525000D03*
X102032000Y-102032000D03*
X102032000Y-118033999D03*
X118033999Y-118795999D03*
X118033999Y-110033000D03*
X169977000Y-105969000D03*
X150418999Y-105461000D03*
X133781999Y-114351000D03*
X158547000Y-110541000D03*
X102032000Y-110033000D03*
X105969000Y-113970000D03*
X174041000Y-110033000D03*
X129972000Y-106223000D03*
X169977000Y-102032000D03*
X102032000Y-105969000D03*
X166802000Y-102032000D03*
X118542000Y-113081000D03*
X166040000Y-118033999D03*
X137973000Y-106223000D03*
X122733000Y-118795999D03*
X153975000Y-105969000D03*
X122352000Y-117018000D03*
%TO.N,/D0*%
X124130000Y-117018000D03*
X122352000Y-112192000D03*
%TO.N,/Q1_GATE*%
X128829000Y-107747000D03*
X118288000Y-106096000D03*
X123495000Y-105969000D03*
%TO.N,/VBAT_SENSE*%
X106858000Y-108128000D03*
D21*
%TO.N,/VBAT*%
X128193999Y-116383000D03*
X142926000Y-116256000D03*
%TO.N,/SENSOR_GND*%
X154737000Y-114097000D03*
D20*
%TO.N,/GY33_DR*%
X163627000Y-107112000D03*
X149149000Y-107112000D03*
%TO.N,/GY33_CT*%
X108255000Y-104064000D03*
%TO.N,/UART_TX*%
X133655000Y-111557000D03*
X141021000Y-118923000D03*
%TO.N,/UART_RX*%
X128067000Y-109906000D03*
X139116000Y-118161000D03*
D21*
%TO.N,/AUDIO_GND*%
X162611000Y-117652999D03*
D20*
%TO.N,/D1*%
X121209000Y-108255000D03*
X123114000Y-109779000D03*
X124638000Y-113335000D03*
%TD*%
%TO.N,/Q2_GATE*%
D22*
X105969000Y-101397000D02*
X137846000Y-101397000D01*
X144704000Y-108255000D02*
X144704000Y-110414000D01*
X105461000Y-105715000D02*
X105461000Y-101905000D01*
X113490000Y-112800000D02*
X113208000Y-112065000D01*
X111303000Y-110160000D02*
X109906000Y-110160000D01*
X144577000Y-110541000D02*
X136067999Y-110541000D01*
X144704000Y-110414000D02*
X144577000Y-110541000D01*
X137846000Y-101397000D02*
X144704000Y-108255000D01*
X136067999Y-110541000D02*
X135305999Y-109779000D01*
X113208000Y-112065000D02*
X111303000Y-110160000D01*
X135305999Y-109779000D02*
X134600000Y-109340000D01*
X109906000Y-110160000D02*
X105461000Y-105715000D01*
X105461000Y-101905000D02*
X105969000Y-101397000D01*
%TO.N,/GND*%
D23*
X127051000Y-120447000D02*
X127178000Y-120320000D01*
X109906000Y-116890999D02*
X107620000Y-119176999D01*
X121844000Y-119304000D02*
X122987000Y-120447000D01*
D22*
X121082000Y-118288000D02*
X121110000Y-119000000D01*
D23*
X110580000Y-116580000D02*
X109906000Y-116890999D01*
X122987000Y-120447000D02*
X127051000Y-120447000D01*
X127178000Y-120320000D02*
X127178000Y-116002000D01*
X121110000Y-119000000D02*
X121844000Y-119304000D01*
D22*
X122352000Y-117018000D02*
X121082000Y-118288000D01*
D23*
X107620000Y-119176999D02*
X106790000Y-119250000D01*
%TO.N,/D3_BTN*%
D22*
X109144000Y-115240000D02*
X112319000Y-115240000D01*
X113462000Y-114097000D02*
X122860000Y-114097000D01*
X122860000Y-114097000D02*
X125146000Y-111811000D01*
X106790000Y-117250000D02*
X107620000Y-116764000D01*
X125146000Y-111811000D02*
X125820000Y-111500000D01*
X107620000Y-116764000D02*
X109144000Y-115240000D01*
X112319000Y-115240000D02*
X113462000Y-114097000D01*
%TO.N,/D0*%
X113716000Y-104191000D02*
X121082000Y-111557000D01*
X121082000Y-111557000D02*
X121717000Y-111557000D01*
X113490000Y-103500000D02*
X113716000Y-104191000D01*
X124130000Y-117018000D02*
X125527000Y-118414999D01*
X121717000Y-111557000D02*
X122352000Y-112192000D01*
X125527000Y-118414999D02*
X125820000Y-119120000D01*
%TO.N,/Q1_GATE*%
X142672000Y-108890000D02*
X143400000Y-109340000D01*
X120447000Y-103937000D02*
X118288000Y-106096000D01*
X121590000Y-104064000D02*
X123495000Y-105969000D01*
X141529000Y-107747000D02*
X142672000Y-108890000D01*
X121110000Y-103500000D02*
X121590000Y-104064000D01*
X128829000Y-107747000D02*
X141529000Y-107747000D01*
X121110000Y-103500000D02*
X120447000Y-103937000D01*
%TO.N,/VBAT_SENSE*%
X106858000Y-108128000D02*
X104826000Y-106096000D01*
X105715000Y-100762000D02*
X138100000Y-100762000D01*
X145339000Y-110668000D02*
X141656000Y-114351000D01*
X120320000Y-116002000D02*
X117018000Y-116002000D01*
X138100000Y-100762000D02*
X145339000Y-108001000D01*
X141656000Y-114351000D02*
X141200000Y-115000000D01*
X114224000Y-118795999D02*
X113490000Y-119000000D01*
X117018000Y-116002000D02*
X114224000Y-118795999D01*
X145339000Y-108001000D02*
X145339000Y-110668000D01*
X121110000Y-115900000D02*
X120320000Y-116002000D01*
X104826000Y-101651000D02*
X105715000Y-100762000D01*
X104826000Y-106096000D02*
X104826000Y-101651000D01*
%TO.N,/VBAT*%
D23*
X168326000Y-108255000D02*
X169140000Y-108000000D01*
X142926000Y-116256000D02*
X146609000Y-119939000D01*
X129336999Y-116383000D02*
X128193999Y-116383000D01*
X148133000Y-119304000D02*
X159182000Y-108255000D01*
X146609000Y-119939000D02*
X147340000Y-120017000D01*
X131500000Y-119600000D02*
X130988000Y-118414999D01*
X159182000Y-108255000D02*
X168326000Y-108255000D01*
X130988000Y-118414999D02*
X130988000Y-118033999D01*
X147340000Y-120017000D02*
X148133000Y-119304000D01*
X130988000Y-118033999D02*
X129336999Y-116383000D01*
%TO.N,/BAT_IN*%
X126162000Y-102159000D02*
X107620000Y-102159000D01*
X133500000Y-119600000D02*
X133274000Y-118414999D01*
X133274000Y-118414999D02*
X130353000Y-115494000D01*
X107620000Y-102159000D02*
X106790000Y-102750000D01*
X130353000Y-115494000D02*
X128448000Y-115494000D01*
X128448000Y-115494000D02*
X127178000Y-114224000D01*
X127178000Y-114224000D02*
X127178000Y-103175000D01*
X127178000Y-103175000D02*
X126162000Y-102159000D01*
%TO.N,/SENSOR_GND*%
X169140000Y-114000000D02*
X168326000Y-114097000D01*
X168326000Y-114097000D02*
X154737000Y-114097000D01*
%TO.N,/GY33_DR*%
D22*
X163627000Y-107112000D02*
X149149000Y-107112000D01*
%TO.N,/GY33_CT*%
X108255000Y-106223000D02*
X110287000Y-108255000D01*
X108255000Y-104064000D02*
X108255000Y-106223000D01*
X110287000Y-108255000D02*
X110580000Y-108960000D01*
%TO.N,/UART_TX*%
X141021000Y-118923000D02*
X133655000Y-111557000D01*
%TO.N,/UART_RX*%
X128702000Y-110541000D02*
X128067000Y-109906000D01*
X139116000Y-118161000D02*
X131496000Y-110541000D01*
X131496000Y-110541000D02*
X128702000Y-110541000D01*
%TO.N,/AUDIO_GND*%
D23*
X162611000Y-119304000D02*
X162580000Y-120017000D01*
X162611000Y-117652999D02*
X162611000Y-119304000D01*
%TO.N,/D1*%
D22*
X121590000Y-108255000D02*
X123114000Y-109779000D01*
X124511000Y-113462000D02*
X124511000Y-114859000D01*
X124638000Y-113335000D02*
X124511000Y-113462000D01*
X121209000Y-108255000D02*
X121590000Y-108255000D01*
X124511000Y-114859000D02*
X125527000Y-115875000D01*
X125527000Y-115875000D02*
X125820000Y-116580000D01*
%TD*%
%TA.AperFunction,Conductor*%
%TO.N,/GND*%
G36*
X105142429Y-100520185D02*
G01*
X105188184Y-100572989D01*
X105198128Y-100642147D01*
X105169103Y-100705703D01*
X105163071Y-100712181D01*
X104485517Y-101389734D01*
X104485513Y-101389740D01*
X104429498Y-101486760D01*
X104429497Y-101486763D01*
X104400500Y-101594982D01*
X104400500Y-106039982D01*
X104400500Y-106152018D01*
X104429497Y-106260237D01*
X104485515Y-106357263D01*
X104485517Y-106357265D01*
X106221181Y-108092929D01*
X106254666Y-108154252D01*
X106257500Y-108180610D01*
X106257500Y-108207057D01*
X106297604Y-108356725D01*
X106298423Y-108359783D01*
X106298426Y-108359790D01*
X106377475Y-108496709D01*
X106377479Y-108496714D01*
X106377480Y-108496716D01*
X106489284Y-108608520D01*
X106489286Y-108608521D01*
X106489290Y-108608524D01*
X106520596Y-108626598D01*
X106626216Y-108687577D01*
X106778943Y-108728500D01*
X106778945Y-108728500D01*
X106937055Y-108728500D01*
X106937057Y-108728500D01*
X107089784Y-108687577D01*
X107226716Y-108608520D01*
X107338520Y-108496716D01*
X107368424Y-108444919D01*
X107418990Y-108396705D01*
X107487597Y-108383481D01*
X107552462Y-108409449D01*
X107563492Y-108419239D01*
X109561174Y-110416921D01*
X109561184Y-110416932D01*
X109565514Y-110421262D01*
X109565515Y-110421263D01*
X109644737Y-110500485D01*
X109718062Y-110542819D01*
X109744706Y-110558202D01*
X109792922Y-110608769D01*
X109806145Y-110677376D01*
X109780177Y-110742241D01*
X109770389Y-110753269D01*
X109740586Y-110783072D01*
X109638768Y-110923211D01*
X109560128Y-111077552D01*
X109506597Y-111242302D01*
X109479500Y-111413389D01*
X109479500Y-111586610D01*
X109501671Y-111726598D01*
X109506598Y-111757701D01*
X109560127Y-111922445D01*
X109638768Y-112076788D01*
X109740586Y-112216928D01*
X109863072Y-112339414D01*
X110003212Y-112441232D01*
X110157555Y-112519873D01*
X110322299Y-112573402D01*
X110493389Y-112600500D01*
X110493390Y-112600500D01*
X110666610Y-112600500D01*
X110666611Y-112600500D01*
X110837701Y-112573402D01*
X111002445Y-112519873D01*
X111156788Y-112441232D01*
X111296928Y-112339414D01*
X111419414Y-112216928D01*
X111521232Y-112076788D01*
X111599873Y-111922445D01*
X111653402Y-111757701D01*
X111680500Y-111586611D01*
X111680500Y-111438610D01*
X111700185Y-111371571D01*
X111752989Y-111325816D01*
X111822147Y-111315872D01*
X111885703Y-111344897D01*
X111892181Y-111350929D01*
X112564647Y-112023395D01*
X112598132Y-112084718D01*
X112593148Y-112154410D01*
X112577286Y-112183959D01*
X112548769Y-112223210D01*
X112470128Y-112377552D01*
X112470127Y-112377554D01*
X112470127Y-112377555D01*
X112455106Y-112423784D01*
X112416597Y-112542302D01*
X112390765Y-112705402D01*
X112389500Y-112713389D01*
X112389500Y-112886611D01*
X112390717Y-112894297D01*
X112415527Y-113050943D01*
X112416598Y-113057701D01*
X112470127Y-113222445D01*
X112548768Y-113376788D01*
X112650586Y-113516928D01*
X112773072Y-113639414D01*
X112913212Y-113741232D01*
X112957432Y-113763763D01*
X112961740Y-113765958D01*
X113012536Y-113813932D01*
X113029331Y-113881753D01*
X113006794Y-113947888D01*
X112993126Y-113964124D01*
X112179071Y-114778181D01*
X112117748Y-114811666D01*
X112091390Y-114814500D01*
X111620950Y-114814500D01*
X111553911Y-114794815D01*
X111508156Y-114742011D01*
X111498212Y-114672853D01*
X111519161Y-114621235D01*
X111518686Y-114620944D01*
X111520444Y-114618074D01*
X111520630Y-114617617D01*
X111520845Y-114617320D01*
X111521232Y-114616788D01*
X111599873Y-114462445D01*
X111653402Y-114297701D01*
X111680500Y-114126611D01*
X111680500Y-113953389D01*
X111653402Y-113782299D01*
X111599873Y-113617555D01*
X111521232Y-113463212D01*
X111419414Y-113323072D01*
X111296928Y-113200586D01*
X111156788Y-113098768D01*
X111002445Y-113020127D01*
X110837701Y-112966598D01*
X110837699Y-112966597D01*
X110837698Y-112966597D01*
X110706271Y-112945781D01*
X110666611Y-112939500D01*
X110493389Y-112939500D01*
X110453728Y-112945781D01*
X110322302Y-112966597D01*
X110157552Y-113020128D01*
X110003211Y-113098768D01*
X109952214Y-113135820D01*
X109863072Y-113200586D01*
X109863070Y-113200588D01*
X109863069Y-113200588D01*
X109740588Y-113323069D01*
X109740588Y-113323070D01*
X109740586Y-113323072D01*
X109701751Y-113376524D01*
X109638768Y-113463211D01*
X109560128Y-113617552D01*
X109560127Y-113617554D01*
X109560127Y-113617555D01*
X109553025Y-113639414D01*
X109506597Y-113782302D01*
X109496497Y-113846073D01*
X109479500Y-113953389D01*
X109479500Y-114126611D01*
X109484881Y-114160586D01*
X109504280Y-114283070D01*
X109506598Y-114297701D01*
X109556915Y-114452561D01*
X109560128Y-114462447D01*
X109638769Y-114616790D01*
X109639370Y-114617617D01*
X109639502Y-114617987D01*
X109641314Y-114620944D01*
X109640692Y-114621324D01*
X109662848Y-114683424D01*
X109647021Y-114751477D01*
X109596914Y-114800171D01*
X109539050Y-114814500D01*
X109087979Y-114814500D01*
X109042830Y-114826597D01*
X109042831Y-114826598D01*
X108979761Y-114843497D01*
X108979760Y-114843498D01*
X108882740Y-114899513D01*
X108882734Y-114899517D01*
X107469071Y-116313181D01*
X107407748Y-116346666D01*
X107381390Y-116349500D01*
X106121898Y-116349500D01*
X106082853Y-116354188D01*
X106033438Y-116360122D01*
X105892656Y-116415639D01*
X105772077Y-116507077D01*
X105680639Y-116627656D01*
X105625122Y-116768438D01*
X105621319Y-116800111D01*
X105614500Y-116856898D01*
X105614500Y-117643102D01*
X105618496Y-117676377D01*
X105625122Y-117731561D01*
X105680639Y-117872343D01*
X105772077Y-117992922D01*
X105892656Y-118084360D01*
X105892657Y-118084360D01*
X105892658Y-118084361D01*
X106033436Y-118139877D01*
X106121898Y-118150500D01*
X106121903Y-118150500D01*
X106194224Y-118150500D01*
X106261263Y-118170185D01*
X106307018Y-118222989D01*
X106316962Y-118292147D01*
X106287937Y-118355703D01*
X106241676Y-118389061D01*
X106088696Y-118452426D01*
X106088683Y-118452433D01*
X105941283Y-118550923D01*
X105941279Y-118550926D01*
X105815926Y-118676279D01*
X105815923Y-118676283D01*
X105717433Y-118823683D01*
X105717428Y-118823693D01*
X105649587Y-118987476D01*
X105649584Y-118987483D01*
X105647096Y-119000000D01*
X106509670Y-119000000D01*
X106489925Y-119019745D01*
X106440556Y-119105255D01*
X106415000Y-119200630D01*
X106415000Y-119299370D01*
X106440556Y-119394745D01*
X106489925Y-119480255D01*
X106509670Y-119500000D01*
X105647096Y-119500000D01*
X105649584Y-119512516D01*
X105649587Y-119512523D01*
X105717428Y-119676306D01*
X105717433Y-119676316D01*
X105815923Y-119823716D01*
X105815926Y-119823720D01*
X105941279Y-119949073D01*
X105941283Y-119949076D01*
X106088683Y-120047566D01*
X106088692Y-120047571D01*
X106252479Y-120115413D01*
X106252487Y-120115415D01*
X106426353Y-120149999D01*
X106426357Y-120150000D01*
X106540000Y-120150000D01*
X106540000Y-119530330D01*
X106559745Y-119550075D01*
X106645255Y-119599444D01*
X106740630Y-119625000D01*
X106839370Y-119625000D01*
X106934745Y-119599444D01*
X107020255Y-119550075D01*
X107040000Y-119530330D01*
X107040000Y-120150000D01*
X107153643Y-120150000D01*
X107153646Y-120149999D01*
X107327512Y-120115415D01*
X107327520Y-120115413D01*
X107491307Y-120047571D01*
X107491316Y-120047566D01*
X107638716Y-119949076D01*
X107638720Y-119949073D01*
X107764073Y-119823720D01*
X107764076Y-119823716D01*
X107862566Y-119676316D01*
X107862571Y-119676306D01*
X107930412Y-119512523D01*
X107930415Y-119512516D01*
X107932904Y-119500000D01*
X107070330Y-119500000D01*
X107090075Y-119480255D01*
X107139444Y-119394745D01*
X107165000Y-119299370D01*
X107165000Y-119200630D01*
X107139444Y-119105255D01*
X107097952Y-119033389D01*
X109479500Y-119033389D01*
X109479500Y-119206610D01*
X109494191Y-119299370D01*
X109506598Y-119377701D01*
X109553971Y-119523500D01*
X109560128Y-119542447D01*
X109611515Y-119643301D01*
X109638768Y-119696788D01*
X109740586Y-119836928D01*
X109863072Y-119959414D01*
X110003212Y-120061232D01*
X110157555Y-120139873D01*
X110322299Y-120193402D01*
X110493389Y-120220500D01*
X110493390Y-120220500D01*
X110666610Y-120220500D01*
X110666611Y-120220500D01*
X110837701Y-120193402D01*
X111002445Y-120139873D01*
X111156788Y-120061232D01*
X111296928Y-119959414D01*
X111419414Y-119836928D01*
X111521232Y-119696788D01*
X111599873Y-119542445D01*
X111653402Y-119377701D01*
X111680500Y-119206611D01*
X111680500Y-119033389D01*
X111680161Y-119031247D01*
X111663795Y-118927914D01*
X111661494Y-118913389D01*
X112389500Y-118913389D01*
X112389500Y-119086610D01*
X112400297Y-119154784D01*
X112416598Y-119257701D01*
X112470127Y-119422445D01*
X112548768Y-119576788D01*
X112650586Y-119716928D01*
X112773072Y-119839414D01*
X112913212Y-119941232D01*
X113067555Y-120019873D01*
X113232299Y-120073402D01*
X113403389Y-120100500D01*
X113403390Y-120100500D01*
X113576610Y-120100500D01*
X113576611Y-120100500D01*
X113747701Y-120073402D01*
X113912445Y-120019873D01*
X114066788Y-119941232D01*
X114206928Y-119839414D01*
X114329414Y-119716928D01*
X114431232Y-119576788D01*
X114509873Y-119422445D01*
X114563402Y-119257701D01*
X114590500Y-119086611D01*
X114590500Y-119082609D01*
X114599144Y-119053168D01*
X114605668Y-119023182D01*
X114609422Y-119018166D01*
X114610185Y-119015570D01*
X114626819Y-118994928D01*
X114708319Y-118913428D01*
X120010000Y-118913428D01*
X120010000Y-119086571D01*
X120037085Y-119257584D01*
X120090592Y-119422259D01*
X120169196Y-119576525D01*
X120173709Y-119582736D01*
X120173709Y-119582737D01*
X120710000Y-119046446D01*
X120710000Y-119052661D01*
X120737259Y-119154394D01*
X120789920Y-119245606D01*
X120864394Y-119320080D01*
X120955606Y-119372741D01*
X121057339Y-119400000D01*
X121063553Y-119400000D01*
X120527261Y-119936289D01*
X120527262Y-119936290D01*
X120533471Y-119940801D01*
X120687742Y-120019408D01*
X120852415Y-120072914D01*
X121023429Y-120100000D01*
X121196571Y-120100000D01*
X121367584Y-120072914D01*
X121532257Y-120019408D01*
X121686525Y-119940803D01*
X121692736Y-119936289D01*
X121692737Y-119936289D01*
X121156448Y-119400000D01*
X121162661Y-119400000D01*
X121264394Y-119372741D01*
X121355606Y-119320080D01*
X121430080Y-119245606D01*
X121482741Y-119154394D01*
X121510000Y-119052661D01*
X121510000Y-119046447D01*
X122046289Y-119582736D01*
X122050803Y-119576525D01*
X122129408Y-119422257D01*
X122182914Y-119257584D01*
X122210000Y-119086571D01*
X122210000Y-118913428D01*
X122182914Y-118742415D01*
X122129408Y-118577742D01*
X122050801Y-118423471D01*
X122046290Y-118417262D01*
X122046289Y-118417261D01*
X121510000Y-118953551D01*
X121510000Y-118947339D01*
X121482741Y-118845606D01*
X121430080Y-118754394D01*
X121355606Y-118679920D01*
X121264394Y-118627259D01*
X121162661Y-118600000D01*
X121156447Y-118600000D01*
X121692737Y-118063709D01*
X121686525Y-118059196D01*
X121532259Y-117980592D01*
X121367584Y-117927085D01*
X121196571Y-117900000D01*
X121023429Y-117900000D01*
X120852415Y-117927085D01*
X120687740Y-117980592D01*
X120533480Y-118059193D01*
X120533463Y-118059203D01*
X120527261Y-118063708D01*
X120527261Y-118063709D01*
X121063554Y-118600000D01*
X121057339Y-118600000D01*
X120955606Y-118627259D01*
X120864394Y-118679920D01*
X120789920Y-118754394D01*
X120737259Y-118845606D01*
X120710000Y-118947339D01*
X120710000Y-118953552D01*
X120173709Y-118417261D01*
X120173708Y-118417261D01*
X120169203Y-118423463D01*
X120169193Y-118423480D01*
X120090592Y-118577740D01*
X120037085Y-118742415D01*
X120010000Y-118913428D01*
X114708319Y-118913428D01*
X115598462Y-118023285D01*
X115899754Y-117721994D01*
X117157929Y-116463819D01*
X117219252Y-116430334D01*
X117245610Y-116427500D01*
X120069777Y-116427500D01*
X120136816Y-116447185D01*
X120170093Y-116478613D01*
X120270586Y-116616928D01*
X120393072Y-116739414D01*
X120533212Y-116841232D01*
X120687555Y-116919873D01*
X120852299Y-116973402D01*
X121023389Y-117000500D01*
X121023390Y-117000500D01*
X121196610Y-117000500D01*
X121196611Y-117000500D01*
X121367701Y-116973402D01*
X121532445Y-116919873D01*
X121686788Y-116841232D01*
X121826928Y-116739414D01*
X121949414Y-116616928D01*
X122051232Y-116476788D01*
X122129873Y-116322445D01*
X122183402Y-116157701D01*
X122210500Y-115986611D01*
X122210500Y-115813389D01*
X122183402Y-115642299D01*
X122129873Y-115477555D01*
X122051232Y-115323212D01*
X121949414Y-115183072D01*
X121826928Y-115060586D01*
X121686788Y-114958768D01*
X121570496Y-114899515D01*
X121532447Y-114880128D01*
X121532446Y-114880127D01*
X121532445Y-114880127D01*
X121367701Y-114826598D01*
X121367699Y-114826597D01*
X121367698Y-114826597D01*
X121218595Y-114802982D01*
X121196611Y-114799500D01*
X121023389Y-114799500D01*
X121001405Y-114802982D01*
X120852302Y-114826597D01*
X120687552Y-114880128D01*
X120533211Y-114958768D01*
X120476461Y-115000000D01*
X120393072Y-115060586D01*
X120393070Y-115060588D01*
X120393069Y-115060588D01*
X120270588Y-115183069D01*
X120270588Y-115183070D01*
X120270586Y-115183072D01*
X120247015Y-115215515D01*
X120168768Y-115323211D01*
X120090127Y-115477552D01*
X120085817Y-115490820D01*
X120046378Y-115548495D01*
X119982019Y-115575692D01*
X119967886Y-115576500D01*
X116961982Y-115576500D01*
X116853763Y-115605497D01*
X116853760Y-115605498D01*
X116756740Y-115661513D01*
X116756734Y-115661517D01*
X114311200Y-118107049D01*
X114249877Y-118140534D01*
X114180185Y-118135550D01*
X114150637Y-118119688D01*
X114066788Y-118058768D01*
X113912445Y-117980127D01*
X113747701Y-117926598D01*
X113747699Y-117926597D01*
X113747698Y-117926597D01*
X113616271Y-117905781D01*
X113576611Y-117899500D01*
X113403389Y-117899500D01*
X113363728Y-117905781D01*
X113232302Y-117926597D01*
X113067552Y-117980128D01*
X112913211Y-118058768D01*
X112870248Y-118089983D01*
X112773072Y-118160586D01*
X112773070Y-118160588D01*
X112773069Y-118160588D01*
X112650588Y-118283069D01*
X112650588Y-118283070D01*
X112650586Y-118283072D01*
X112636242Y-118302815D01*
X112548768Y-118423211D01*
X112470128Y-118577552D01*
X112416597Y-118742302D01*
X112389500Y-118913389D01*
X111661494Y-118913389D01*
X111656234Y-118880181D01*
X111653402Y-118862299D01*
X111599873Y-118697555D01*
X111521232Y-118543212D01*
X111419414Y-118403072D01*
X111296928Y-118280586D01*
X111156788Y-118178768D01*
X111002445Y-118100127D01*
X110837701Y-118046598D01*
X110837699Y-118046597D01*
X110837698Y-118046597D01*
X110706271Y-118025781D01*
X110666611Y-118019500D01*
X110493389Y-118019500D01*
X110453728Y-118025781D01*
X110322302Y-118046597D01*
X110157552Y-118100128D01*
X110003211Y-118178768D01*
X109951997Y-118215978D01*
X109863072Y-118280586D01*
X109863070Y-118280588D01*
X109863069Y-118280588D01*
X109740588Y-118403069D01*
X109740588Y-118403070D01*
X109740586Y-118403072D01*
X109711954Y-118442481D01*
X109638768Y-118543211D01*
X109560128Y-118697552D01*
X109506597Y-118862302D01*
X109479500Y-119033389D01*
X107097952Y-119033389D01*
X107090075Y-119019745D01*
X107070330Y-119000000D01*
X107932904Y-119000000D01*
X107930415Y-118987485D01*
X107930412Y-118987476D01*
X107862571Y-118823693D01*
X107862566Y-118823683D01*
X107764076Y-118676283D01*
X107764073Y-118676279D01*
X107638720Y-118550926D01*
X107638716Y-118550923D01*
X107491316Y-118452433D01*
X107491303Y-118452426D01*
X107338324Y-118389061D01*
X107283920Y-118345220D01*
X107261855Y-118278926D01*
X107279134Y-118211227D01*
X107330271Y-118163616D01*
X107385776Y-118150500D01*
X107458097Y-118150500D01*
X107458102Y-118150500D01*
X107546564Y-118139877D01*
X107687342Y-118084361D01*
X107807922Y-117992922D01*
X107899361Y-117872342D01*
X107954877Y-117731564D01*
X107965500Y-117643102D01*
X107965500Y-117071610D01*
X107985185Y-117004571D01*
X108001819Y-116983929D01*
X109283929Y-115701819D01*
X109345252Y-115668334D01*
X109371610Y-115665500D01*
X109967691Y-115665500D01*
X110034730Y-115685185D01*
X110055372Y-115701819D01*
X110450591Y-116097037D01*
X110387007Y-116114075D01*
X110272993Y-116179901D01*
X110179901Y-116272993D01*
X110114075Y-116387007D01*
X110097037Y-116450590D01*
X109643709Y-115997261D01*
X109643708Y-115997261D01*
X109639203Y-116003463D01*
X109639193Y-116003480D01*
X109560592Y-116157740D01*
X109507085Y-116322415D01*
X109480000Y-116493428D01*
X109480000Y-116666571D01*
X109507085Y-116837584D01*
X109560592Y-117002259D01*
X109639196Y-117156525D01*
X109643709Y-117162736D01*
X109643709Y-117162737D01*
X110097037Y-116709409D01*
X110114075Y-116772993D01*
X110179901Y-116887007D01*
X110272993Y-116980099D01*
X110387007Y-117045925D01*
X110450589Y-117062962D01*
X109997261Y-117516289D01*
X109997262Y-117516290D01*
X110003471Y-117520801D01*
X110157742Y-117599408D01*
X110322415Y-117652914D01*
X110493429Y-117680000D01*
X110666571Y-117680000D01*
X110837584Y-117652914D01*
X111002257Y-117599408D01*
X111156525Y-117520803D01*
X111162736Y-117516289D01*
X111162737Y-117516289D01*
X110709410Y-117062962D01*
X110772993Y-117045925D01*
X110887007Y-116980099D01*
X110980099Y-116887007D01*
X111045925Y-116772993D01*
X111062962Y-116709410D01*
X111516289Y-117162737D01*
X111516289Y-117162736D01*
X111520803Y-117156525D01*
X111599408Y-117002257D01*
X111652914Y-116837584D01*
X111680000Y-116666571D01*
X111680000Y-116493428D01*
X111652914Y-116322415D01*
X111599408Y-116157742D01*
X111520801Y-116003471D01*
X111516290Y-115997262D01*
X111516289Y-115997261D01*
X111062962Y-116450589D01*
X111045925Y-116387007D01*
X110980099Y-116272993D01*
X110887007Y-116179901D01*
X110772993Y-116114075D01*
X110709408Y-116097037D01*
X111104628Y-115701819D01*
X111165951Y-115668334D01*
X111192309Y-115665500D01*
X112267737Y-115665500D01*
X112334776Y-115685185D01*
X112380531Y-115737989D01*
X112390475Y-115807147D01*
X112390211Y-115808892D01*
X112389500Y-115813382D01*
X112389500Y-115813389D01*
X112389500Y-115986611D01*
X112416598Y-116157701D01*
X112470127Y-116322445D01*
X112548768Y-116476788D01*
X112650586Y-116616928D01*
X112773072Y-116739414D01*
X112913212Y-116841232D01*
X113067555Y-116919873D01*
X113232299Y-116973402D01*
X113403389Y-117000500D01*
X113403390Y-117000500D01*
X113576610Y-117000500D01*
X113576611Y-117000500D01*
X113747701Y-116973402D01*
X113912445Y-116919873D01*
X114066788Y-116841232D01*
X114206928Y-116739414D01*
X114329414Y-116616928D01*
X114431232Y-116476788D01*
X114509873Y-116322445D01*
X114563402Y-116157701D01*
X114590500Y-115986611D01*
X114590500Y-115813389D01*
X114563402Y-115642299D01*
X114509873Y-115477555D01*
X114431232Y-115323212D01*
X114329414Y-115183072D01*
X114206928Y-115060586D01*
X114066788Y-114958768D01*
X113950496Y-114899515D01*
X113912447Y-114880128D01*
X113912446Y-114880127D01*
X113912445Y-114880127D01*
X113747701Y-114826598D01*
X113747699Y-114826597D01*
X113747698Y-114826597D01*
X113653301Y-114811646D01*
X113631059Y-114808123D01*
X113567926Y-114778195D01*
X113530994Y-114718884D01*
X113531992Y-114649021D01*
X113562776Y-114597970D01*
X113601930Y-114558818D01*
X113663253Y-114525333D01*
X113689610Y-114522500D01*
X122916016Y-114522500D01*
X122916018Y-114522500D01*
X123024237Y-114493503D01*
X123121263Y-114437485D01*
X123873819Y-113684927D01*
X123935142Y-113651443D01*
X124004833Y-113656427D01*
X124060767Y-113698299D01*
X124085184Y-113763763D01*
X124085500Y-113772609D01*
X124085500Y-114802982D01*
X124085500Y-114915018D01*
X124108271Y-114999999D01*
X124114497Y-115023236D01*
X124114498Y-115023239D01*
X124130284Y-115050581D01*
X124170515Y-115120263D01*
X124170517Y-115120265D01*
X124877394Y-115827142D01*
X124910879Y-115888465D01*
X124905895Y-115958157D01*
X124890034Y-115987704D01*
X124878770Y-116003208D01*
X124800128Y-116157552D01*
X124746597Y-116322302D01*
X124721354Y-116481681D01*
X124691425Y-116544816D01*
X124632113Y-116581747D01*
X124562251Y-116580749D01*
X124511200Y-116549964D01*
X124498717Y-116537481D01*
X124498709Y-116537475D01*
X124361790Y-116458426D01*
X124361786Y-116458424D01*
X124361784Y-116458423D01*
X124209057Y-116417500D01*
X124050943Y-116417500D01*
X123898216Y-116458423D01*
X123898209Y-116458426D01*
X123761290Y-116537475D01*
X123761282Y-116537481D01*
X123649481Y-116649282D01*
X123649475Y-116649290D01*
X123570426Y-116786209D01*
X123570423Y-116786216D01*
X123529500Y-116938943D01*
X123529500Y-117097057D01*
X123545435Y-117156525D01*
X123570423Y-117249783D01*
X123570426Y-117249790D01*
X123649475Y-117386709D01*
X123649479Y-117386714D01*
X123649480Y-117386716D01*
X123761284Y-117498520D01*
X123761286Y-117498521D01*
X123761290Y-117498524D01*
X123898209Y-117577573D01*
X123898216Y-117577577D01*
X124050943Y-117618500D01*
X124077390Y-117618500D01*
X124144429Y-117638185D01*
X124165071Y-117654819D01*
X124683945Y-118173692D01*
X124717430Y-118235015D01*
X124719236Y-118271525D01*
X124719707Y-118271553D01*
X124719500Y-118275137D01*
X124719500Y-119964856D01*
X124719502Y-119964882D01*
X124722413Y-119989987D01*
X124722415Y-119989991D01*
X124767793Y-120092764D01*
X124767794Y-120092765D01*
X124847235Y-120172206D01*
X124950009Y-120217585D01*
X124975135Y-120220500D01*
X126664864Y-120220499D01*
X126664879Y-120220497D01*
X126664882Y-120220497D01*
X126689987Y-120217586D01*
X126689988Y-120217585D01*
X126689991Y-120217585D01*
X126792765Y-120172206D01*
X126872206Y-120092765D01*
X126917585Y-119989991D01*
X126920500Y-119964865D01*
X126920499Y-118275136D01*
X126920497Y-118275117D01*
X126917586Y-118250012D01*
X126917585Y-118250010D01*
X126917585Y-118250009D01*
X126872206Y-118147235D01*
X126792765Y-118067794D01*
X126773308Y-118059203D01*
X126689992Y-118022415D01*
X126664868Y-118019500D01*
X126664865Y-118019500D01*
X125784611Y-118019500D01*
X125717572Y-117999815D01*
X125696930Y-117983181D01*
X125600280Y-117886531D01*
X125566795Y-117825208D01*
X125571779Y-117755516D01*
X125613651Y-117699583D01*
X125679115Y-117675166D01*
X125707356Y-117676376D01*
X125733389Y-117680500D01*
X125733390Y-117680500D01*
X125906610Y-117680500D01*
X125906611Y-117680500D01*
X126077701Y-117653402D01*
X126242445Y-117599873D01*
X126396788Y-117521232D01*
X126536928Y-117419414D01*
X126659414Y-117296928D01*
X126761232Y-117156788D01*
X126839873Y-117002445D01*
X126893402Y-116837701D01*
X126920500Y-116666611D01*
X126920500Y-116493389D01*
X126893402Y-116322299D01*
X126839873Y-116157555D01*
X126761232Y-116003212D01*
X126659414Y-115863072D01*
X126536928Y-115740586D01*
X126396788Y-115638768D01*
X126242445Y-115560127D01*
X126077701Y-115506598D01*
X126077699Y-115506597D01*
X126077698Y-115506597D01*
X125946271Y-115485781D01*
X125906611Y-115479500D01*
X125784610Y-115479500D01*
X125717571Y-115459815D01*
X125696929Y-115443181D01*
X125600278Y-115346530D01*
X125566793Y-115285207D01*
X125571777Y-115215515D01*
X125613649Y-115159582D01*
X125679113Y-115135165D01*
X125707347Y-115136375D01*
X125733389Y-115140500D01*
X125733394Y-115140500D01*
X125906610Y-115140500D01*
X125906611Y-115140500D01*
X126077701Y-115113402D01*
X126242445Y-115059873D01*
X126396788Y-114981232D01*
X126536928Y-114879414D01*
X126659414Y-114756928D01*
X126688952Y-114716271D01*
X126744281Y-114673606D01*
X126813895Y-114667627D01*
X126875690Y-114700232D01*
X126876951Y-114701476D01*
X127800614Y-115625139D01*
X127834099Y-115686462D01*
X127829115Y-115756154D01*
X127787243Y-115812087D01*
X127781824Y-115815922D01*
X127747457Y-115838885D01*
X127747453Y-115838888D01*
X127649887Y-115936454D01*
X127649884Y-115936458D01*
X127573227Y-116051182D01*
X127573220Y-116051195D01*
X127520420Y-116178667D01*
X127520417Y-116178677D01*
X127493499Y-116314004D01*
X127493499Y-116314007D01*
X127493499Y-116451993D01*
X127493499Y-116451995D01*
X127493498Y-116451995D01*
X127520417Y-116587322D01*
X127520420Y-116587332D01*
X127573220Y-116714804D01*
X127573227Y-116714817D01*
X127649884Y-116829541D01*
X127649887Y-116829545D01*
X127747453Y-116927111D01*
X127747457Y-116927114D01*
X127862181Y-117003771D01*
X127862194Y-117003778D01*
X127930870Y-117032224D01*
X127989671Y-117056580D01*
X127989675Y-117056580D01*
X127989676Y-117056581D01*
X128125003Y-117083500D01*
X128125006Y-117083500D01*
X128262994Y-117083500D01*
X128354040Y-117065389D01*
X128398327Y-117056580D01*
X128496923Y-117015740D01*
X128525803Y-117003778D01*
X128525803Y-117003777D01*
X128525810Y-117003775D01*
X128599708Y-116954398D01*
X128666385Y-116933520D01*
X128668599Y-116933500D01*
X129057612Y-116933500D01*
X129124651Y-116953185D01*
X129145293Y-116969819D01*
X129425264Y-117249790D01*
X129513294Y-117337819D01*
X129546779Y-117399142D01*
X129541795Y-117468833D01*
X129499924Y-117524767D01*
X129434459Y-117549184D01*
X129425613Y-117549500D01*
X129289778Y-117549500D01*
X129217201Y-117560995D01*
X129072047Y-117583985D01*
X128862396Y-117652103D01*
X128862393Y-117652104D01*
X128665974Y-117752187D01*
X128487641Y-117881752D01*
X128487636Y-117881756D01*
X128331756Y-118037636D01*
X128331752Y-118037641D01*
X128202187Y-118215974D01*
X128102104Y-118412393D01*
X128102103Y-118412396D01*
X128033985Y-118622047D01*
X127999500Y-118839778D01*
X127999500Y-120360221D01*
X128033985Y-120577952D01*
X128102103Y-120787603D01*
X128102104Y-120787606D01*
X128202187Y-120984025D01*
X128331752Y-121162358D01*
X128331756Y-121162363D01*
X128457212Y-121287819D01*
X128490697Y-121349142D01*
X128485713Y-121418834D01*
X128443841Y-121474767D01*
X128378377Y-121499184D01*
X128369531Y-121499500D01*
X101006960Y-121499500D01*
X100993077Y-121498720D01*
X100902734Y-121488541D01*
X100891361Y-121484561D01*
X100882897Y-121484648D01*
X100875662Y-121482362D01*
X100796464Y-121454649D01*
X100771447Y-121442602D01*
X100700395Y-121397957D01*
X100678686Y-121380644D01*
X100619355Y-121321313D01*
X100602042Y-121299604D01*
X100557395Y-121228549D01*
X100545351Y-121203539D01*
X100517636Y-121124333D01*
X100511458Y-121097268D01*
X100501280Y-121006922D01*
X100500500Y-120993040D01*
X100500500Y-109606898D01*
X105614500Y-109606898D01*
X105614500Y-110393102D01*
X105619842Y-110437584D01*
X105625122Y-110481561D01*
X105680639Y-110622343D01*
X105772077Y-110742922D01*
X105892656Y-110834360D01*
X105892657Y-110834360D01*
X105892658Y-110834361D01*
X106033436Y-110889877D01*
X106121898Y-110900500D01*
X106121903Y-110900500D01*
X106192920Y-110900500D01*
X106259959Y-110920185D01*
X106305714Y-110972989D01*
X106315658Y-111042147D01*
X106286633Y-111105703D01*
X106240372Y-111139060D01*
X106224134Y-111145786D01*
X106088458Y-111201983D01*
X106088446Y-111201990D01*
X105940965Y-111300535D01*
X105940961Y-111300538D01*
X105815538Y-111425961D01*
X105815535Y-111425965D01*
X105716990Y-111573446D01*
X105716983Y-111573459D01*
X105649106Y-111737332D01*
X105649103Y-111737341D01*
X105614500Y-111911304D01*
X105614500Y-112088695D01*
X105649103Y-112262658D01*
X105649106Y-112262667D01*
X105716983Y-112426540D01*
X105716990Y-112426553D01*
X105815535Y-112574034D01*
X105815538Y-112574038D01*
X105940961Y-112699461D01*
X105940965Y-112699464D01*
X106088446Y-112798009D01*
X106088459Y-112798016D01*
X106211363Y-112848923D01*
X106252334Y-112865894D01*
X106252336Y-112865894D01*
X106252341Y-112865896D01*
X106426304Y-112900499D01*
X106426307Y-112900500D01*
X106426309Y-112900500D01*
X107153693Y-112900500D01*
X107153694Y-112900499D01*
X107223515Y-112886611D01*
X107327658Y-112865896D01*
X107327661Y-112865894D01*
X107327666Y-112865894D01*
X107491547Y-112798013D01*
X107639035Y-112699464D01*
X107764464Y-112574035D01*
X107863013Y-112426547D01*
X107864158Y-112423784D01*
X107899104Y-112339414D01*
X107930894Y-112262666D01*
X107938743Y-112223210D01*
X107953964Y-112146682D01*
X107965500Y-112088691D01*
X107965500Y-111911309D01*
X107965500Y-111911306D01*
X107965499Y-111911304D01*
X107930896Y-111737341D01*
X107930893Y-111737332D01*
X107863016Y-111573459D01*
X107863009Y-111573446D01*
X107764464Y-111425965D01*
X107764461Y-111425961D01*
X107639038Y-111300538D01*
X107639034Y-111300535D01*
X107491553Y-111201990D01*
X107491541Y-111201983D01*
X107359718Y-111147382D01*
X107339627Y-111139060D01*
X107285224Y-111095221D01*
X107263159Y-111028927D01*
X107280438Y-110961227D01*
X107331575Y-110913617D01*
X107387080Y-110900500D01*
X107458097Y-110900500D01*
X107458102Y-110900500D01*
X107546564Y-110889877D01*
X107687342Y-110834361D01*
X107807922Y-110742922D01*
X107899361Y-110622342D01*
X107954877Y-110481564D01*
X107965500Y-110393102D01*
X107965500Y-109606898D01*
X107954877Y-109518436D01*
X107899361Y-109377658D01*
X107899360Y-109377657D01*
X107899360Y-109377656D01*
X107807922Y-109257077D01*
X107687343Y-109165639D01*
X107579753Y-109123211D01*
X107546564Y-109110123D01*
X107546563Y-109110122D01*
X107546561Y-109110122D01*
X107500926Y-109104642D01*
X107458102Y-109099500D01*
X106121898Y-109099500D01*
X106082853Y-109104188D01*
X106033438Y-109110122D01*
X105892656Y-109165639D01*
X105772077Y-109257077D01*
X105680639Y-109377656D01*
X105625122Y-109518438D01*
X105621667Y-109547216D01*
X105614500Y-109606898D01*
X100500500Y-109606898D01*
X100500500Y-101006959D01*
X100501280Y-100993077D01*
X100504654Y-100963127D01*
X100511458Y-100902732D01*
X100515437Y-100891362D01*
X100515351Y-100882897D01*
X100517629Y-100875684D01*
X100545353Y-100796457D01*
X100557393Y-100771453D01*
X100602046Y-100700389D01*
X100619351Y-100678690D01*
X100678690Y-100619351D01*
X100700389Y-100602046D01*
X100771453Y-100557393D01*
X100796457Y-100545353D01*
X100875668Y-100517635D01*
X100902729Y-100511459D01*
X100978753Y-100502893D01*
X100993078Y-100501280D01*
X101006960Y-100500500D01*
X101065892Y-100500500D01*
X105075390Y-100500500D01*
X105142429Y-100520185D01*
G37*
%TD.AperFunction*%
%TA.AperFunction,Conductor*%
G36*
X168406905Y-108807286D02*
G01*
X168462871Y-108808596D01*
X168472612Y-108812162D01*
X168602334Y-108865894D01*
X168622594Y-108869924D01*
X168665118Y-108878383D01*
X168727028Y-108910768D01*
X168761603Y-108971484D01*
X168757863Y-109041253D01*
X168716996Y-109097925D01*
X168665118Y-109121617D01*
X168602340Y-109134104D01*
X168602332Y-109134106D01*
X168438459Y-109201983D01*
X168438446Y-109201990D01*
X168290965Y-109300535D01*
X168290961Y-109300538D01*
X168165538Y-109425961D01*
X168165535Y-109425965D01*
X168066990Y-109573446D01*
X168066983Y-109573459D01*
X167999106Y-109737332D01*
X167999103Y-109737341D01*
X167964500Y-109911304D01*
X167964500Y-110088695D01*
X167999103Y-110262658D01*
X167999106Y-110262667D01*
X168066983Y-110426540D01*
X168066990Y-110426553D01*
X168165535Y-110574034D01*
X168165538Y-110574038D01*
X168290961Y-110699461D01*
X168290965Y-110699464D01*
X168438446Y-110798009D01*
X168438459Y-110798016D01*
X168561363Y-110848923D01*
X168602334Y-110865894D01*
X168622594Y-110869924D01*
X168665118Y-110878383D01*
X168727028Y-110910768D01*
X168761603Y-110971484D01*
X168757863Y-111041253D01*
X168716996Y-111097925D01*
X168665118Y-111121617D01*
X168602340Y-111134104D01*
X168602332Y-111134106D01*
X168438459Y-111201983D01*
X168438446Y-111201990D01*
X168290965Y-111300535D01*
X168290961Y-111300538D01*
X168165538Y-111425961D01*
X168165535Y-111425965D01*
X168066990Y-111573446D01*
X168066983Y-111573459D01*
X167999106Y-111737332D01*
X167999103Y-111737341D01*
X167964500Y-111911304D01*
X167964500Y-112088695D01*
X167999103Y-112262658D01*
X167999106Y-112262667D01*
X168066983Y-112426540D01*
X168066990Y-112426553D01*
X168165535Y-112574034D01*
X168165538Y-112574038D01*
X168290961Y-112699461D01*
X168290965Y-112699464D01*
X168438446Y-112798009D01*
X168438458Y-112798016D01*
X168560134Y-112848414D01*
X168590372Y-112860939D01*
X168644776Y-112904779D01*
X168666841Y-112971073D01*
X168649562Y-113038773D01*
X168598425Y-113086383D01*
X168542920Y-113099500D01*
X168471898Y-113099500D01*
X168432853Y-113104188D01*
X168383438Y-113110122D01*
X168242656Y-113165639D01*
X168122077Y-113257077D01*
X168030639Y-113377656D01*
X168029137Y-113381466D01*
X167995015Y-113467991D01*
X167952111Y-113523134D01*
X167886203Y-113546327D01*
X167879662Y-113546500D01*
X155211600Y-113546500D01*
X155144561Y-113526815D01*
X155142709Y-113525602D01*
X155068816Y-113476228D01*
X155068805Y-113476221D01*
X155007263Y-113450731D01*
X154952859Y-113406891D01*
X154930794Y-113340597D01*
X154948073Y-113272897D01*
X154967030Y-113248493D01*
X159373705Y-108841819D01*
X159435028Y-108808334D01*
X159461386Y-108805500D01*
X168251497Y-108805500D01*
X168268479Y-108807375D01*
X168268484Y-108807324D01*
X168276577Y-108808046D01*
X168276579Y-108808045D01*
X168276584Y-108808047D01*
X168334920Y-108805608D01*
X168340099Y-108805500D01*
X168398475Y-108805500D01*
X168406531Y-108804439D01*
X168406905Y-108807286D01*
G37*
%TD.AperFunction*%
%TA.AperFunction,Conductor*%
G36*
X174906922Y-100501280D02*
G01*
X174923878Y-100503190D01*
X174997268Y-100511458D01*
X175024333Y-100517636D01*
X175103536Y-100545351D01*
X175113736Y-100551759D01*
X175122007Y-100553559D01*
X175128542Y-100557391D01*
X175199606Y-100602043D01*
X175221313Y-100619355D01*
X175280644Y-100678686D01*
X175297957Y-100700395D01*
X175342602Y-100771447D01*
X175354649Y-100796464D01*
X175382362Y-100875662D01*
X175388541Y-100902734D01*
X175398720Y-100993076D01*
X175399500Y-101006959D01*
X175399500Y-120993040D01*
X175398720Y-121006923D01*
X175388541Y-121097265D01*
X175384561Y-121108637D01*
X175384648Y-121117102D01*
X175382362Y-121124337D01*
X175354649Y-121203535D01*
X175342602Y-121228552D01*
X175297957Y-121299604D01*
X175280644Y-121321313D01*
X175221313Y-121380644D01*
X175199604Y-121397957D01*
X175128552Y-121442602D01*
X175103535Y-121454649D01*
X175024337Y-121482362D01*
X174997265Y-121488541D01*
X174906923Y-121498720D01*
X174893040Y-121499500D01*
X138630469Y-121499500D01*
X138563430Y-121479815D01*
X138517675Y-121427011D01*
X138507731Y-121357853D01*
X138536756Y-121294297D01*
X138542788Y-121287819D01*
X138602055Y-121228552D01*
X138668242Y-121162365D01*
X138797815Y-120984022D01*
X138897895Y-120787606D01*
X138966015Y-120577951D01*
X139000500Y-120360222D01*
X139000500Y-118885500D01*
X139020185Y-118818461D01*
X139072989Y-118772706D01*
X139124500Y-118761500D01*
X139195055Y-118761500D01*
X139195057Y-118761500D01*
X139347784Y-118720577D01*
X139484716Y-118641520D01*
X139596520Y-118529716D01*
X139672910Y-118397402D01*
X139723474Y-118349190D01*
X139792080Y-118335966D01*
X139856946Y-118361934D01*
X139867976Y-118371724D01*
X140384181Y-118887929D01*
X140417666Y-118949252D01*
X140420500Y-118975610D01*
X140420500Y-119002057D01*
X140443146Y-119086571D01*
X140461423Y-119154783D01*
X140461426Y-119154790D01*
X140540475Y-119291709D01*
X140540479Y-119291714D01*
X140540480Y-119291716D01*
X140652284Y-119403520D01*
X140652286Y-119403521D01*
X140652290Y-119403524D01*
X140785194Y-119480255D01*
X140789216Y-119482577D01*
X140941943Y-119523500D01*
X140941945Y-119523500D01*
X141100055Y-119523500D01*
X141100057Y-119523500D01*
X141252784Y-119482577D01*
X141389716Y-119403520D01*
X141501520Y-119291716D01*
X141580577Y-119154784D01*
X141621500Y-119002057D01*
X141621500Y-118843943D01*
X141580577Y-118691216D01*
X141525753Y-118596257D01*
X141501524Y-118554290D01*
X141501518Y-118554282D01*
X141389717Y-118442481D01*
X141389709Y-118442475D01*
X141252790Y-118363426D01*
X141252786Y-118363424D01*
X141252784Y-118363423D01*
X141100057Y-118322500D01*
X141100056Y-118322500D01*
X141073610Y-118322500D01*
X141006571Y-118302815D01*
X140985929Y-118286181D01*
X139024743Y-116324995D01*
X142225499Y-116324995D01*
X142252418Y-116460322D01*
X142252421Y-116460332D01*
X142305221Y-116587804D01*
X142305228Y-116587817D01*
X142381885Y-116702541D01*
X142381888Y-116702545D01*
X142479454Y-116800111D01*
X142479458Y-116800114D01*
X142594182Y-116876771D01*
X142594195Y-116876778D01*
X142721667Y-116929578D01*
X142721672Y-116929580D01*
X142808842Y-116946919D01*
X142870749Y-116979302D01*
X142872329Y-116980854D01*
X146194361Y-120302885D01*
X146203163Y-120312675D01*
X146211987Y-120323606D01*
X146238778Y-120388133D01*
X146239500Y-120401492D01*
X146239500Y-120861856D01*
X146239502Y-120861882D01*
X146242413Y-120886987D01*
X146242415Y-120886991D01*
X146287793Y-120989764D01*
X146287794Y-120989765D01*
X146367235Y-121069206D01*
X146470009Y-121114585D01*
X146495135Y-121117500D01*
X148184864Y-121117499D01*
X148184879Y-121117497D01*
X148184882Y-121117497D01*
X148209987Y-121114586D01*
X148209988Y-121114585D01*
X148209991Y-121114585D01*
X148312765Y-121069206D01*
X148392206Y-120989765D01*
X148437585Y-120886991D01*
X148440500Y-120861865D01*
X148440499Y-119826387D01*
X148460183Y-119759349D01*
X148476811Y-119738713D01*
X148509637Y-119705886D01*
X148514378Y-119701392D01*
X148554957Y-119664908D01*
X148554957Y-119664907D01*
X148554959Y-119664906D01*
X148555948Y-119663383D01*
X148572217Y-119643306D01*
X148610018Y-119605505D01*
X148671339Y-119572022D01*
X148741031Y-119577006D01*
X148796964Y-119618878D01*
X148821381Y-119684342D01*
X148815629Y-119731503D01*
X148806597Y-119759300D01*
X148806597Y-119759301D01*
X148779500Y-119930389D01*
X148779500Y-120103610D01*
X148797551Y-120217584D01*
X148806598Y-120274701D01*
X148860127Y-120439445D01*
X148938768Y-120593788D01*
X149040586Y-120733928D01*
X149163072Y-120856414D01*
X149303212Y-120958232D01*
X149457555Y-121036873D01*
X149622299Y-121090402D01*
X149793389Y-121117500D01*
X149793390Y-121117500D01*
X149966610Y-121117500D01*
X149966611Y-121117500D01*
X150137701Y-121090402D01*
X150302445Y-121036873D01*
X150456788Y-120958232D01*
X150596928Y-120856414D01*
X150719414Y-120733928D01*
X150821232Y-120593788D01*
X150899873Y-120439445D01*
X150953402Y-120274701D01*
X150980500Y-120103611D01*
X150980500Y-119930389D01*
X151319500Y-119930389D01*
X151319500Y-120103610D01*
X151337551Y-120217584D01*
X151346598Y-120274701D01*
X151400127Y-120439445D01*
X151478768Y-120593788D01*
X151580586Y-120733928D01*
X151703072Y-120856414D01*
X151843212Y-120958232D01*
X151997555Y-121036873D01*
X152162299Y-121090402D01*
X152333389Y-121117500D01*
X152333390Y-121117500D01*
X152506610Y-121117500D01*
X152506611Y-121117500D01*
X152677701Y-121090402D01*
X152842445Y-121036873D01*
X152996788Y-120958232D01*
X153136928Y-120856414D01*
X153259414Y-120733928D01*
X153361232Y-120593788D01*
X153439873Y-120439445D01*
X153493402Y-120274701D01*
X153520500Y-120103611D01*
X153520500Y-119930389D01*
X153859500Y-119930389D01*
X153859500Y-120103610D01*
X153877551Y-120217584D01*
X153886598Y-120274701D01*
X153940127Y-120439445D01*
X154018768Y-120593788D01*
X154120586Y-120733928D01*
X154243072Y-120856414D01*
X154383212Y-120958232D01*
X154537555Y-121036873D01*
X154702299Y-121090402D01*
X154873389Y-121117500D01*
X154873390Y-121117500D01*
X155046610Y-121117500D01*
X155046611Y-121117500D01*
X155217701Y-121090402D01*
X155382445Y-121036873D01*
X155536788Y-120958232D01*
X155676928Y-120856414D01*
X155799414Y-120733928D01*
X155901232Y-120593788D01*
X155979873Y-120439445D01*
X156033402Y-120274701D01*
X156060500Y-120103611D01*
X156060500Y-119930389D01*
X156399500Y-119930389D01*
X156399500Y-120103610D01*
X156417551Y-120217584D01*
X156426598Y-120274701D01*
X156480127Y-120439445D01*
X156558768Y-120593788D01*
X156660586Y-120733928D01*
X156783072Y-120856414D01*
X156923212Y-120958232D01*
X157077555Y-121036873D01*
X157242299Y-121090402D01*
X157413389Y-121117500D01*
X157413390Y-121117500D01*
X157586610Y-121117500D01*
X157586611Y-121117500D01*
X157757701Y-121090402D01*
X157922445Y-121036873D01*
X158076788Y-120958232D01*
X158216928Y-120856414D01*
X158339414Y-120733928D01*
X158441232Y-120593788D01*
X158519873Y-120439445D01*
X158573402Y-120274701D01*
X158600500Y-120103611D01*
X158600500Y-119930389D01*
X158939500Y-119930389D01*
X158939500Y-120103610D01*
X158957551Y-120217584D01*
X158966598Y-120274701D01*
X159020127Y-120439445D01*
X159098768Y-120593788D01*
X159200586Y-120733928D01*
X159323072Y-120856414D01*
X159463212Y-120958232D01*
X159617555Y-121036873D01*
X159782299Y-121090402D01*
X159953389Y-121117500D01*
X159953390Y-121117500D01*
X160126610Y-121117500D01*
X160126611Y-121117500D01*
X160297701Y-121090402D01*
X160462445Y-121036873D01*
X160616788Y-120958232D01*
X160756928Y-120856414D01*
X160879414Y-120733928D01*
X160981232Y-120593788D01*
X161059873Y-120439445D01*
X161113402Y-120274701D01*
X161140500Y-120103611D01*
X161140500Y-119930389D01*
X161479500Y-119930389D01*
X161479500Y-120103610D01*
X161497551Y-120217584D01*
X161506598Y-120274701D01*
X161560127Y-120439445D01*
X161638768Y-120593788D01*
X161740586Y-120733928D01*
X161863072Y-120856414D01*
X162003212Y-120958232D01*
X162157555Y-121036873D01*
X162322299Y-121090402D01*
X162493389Y-121117500D01*
X162493390Y-121117500D01*
X162666610Y-121117500D01*
X162666611Y-121117500D01*
X162837701Y-121090402D01*
X163002445Y-121036873D01*
X163156788Y-120958232D01*
X163296928Y-120856414D01*
X163419414Y-120733928D01*
X163521232Y-120593788D01*
X163599873Y-120439445D01*
X163653402Y-120274701D01*
X163680500Y-120103611D01*
X163680500Y-119930389D01*
X164019500Y-119930389D01*
X164019500Y-120103610D01*
X164037551Y-120217584D01*
X164046598Y-120274701D01*
X164100127Y-120439445D01*
X164178768Y-120593788D01*
X164280586Y-120733928D01*
X164403072Y-120856414D01*
X164543212Y-120958232D01*
X164697555Y-121036873D01*
X164862299Y-121090402D01*
X165033389Y-121117500D01*
X165033390Y-121117500D01*
X165206610Y-121117500D01*
X165206611Y-121117500D01*
X165377701Y-121090402D01*
X165542445Y-121036873D01*
X165696788Y-120958232D01*
X165836928Y-120856414D01*
X165959414Y-120733928D01*
X166061232Y-120593788D01*
X166139873Y-120439445D01*
X166193402Y-120274701D01*
X166220500Y-120103611D01*
X166220500Y-119930389D01*
X166193402Y-119759299D01*
X166139873Y-119594555D01*
X166061232Y-119440212D01*
X165959414Y-119300072D01*
X165836928Y-119177586D01*
X165696788Y-119075768D01*
X165542445Y-118997127D01*
X165377701Y-118943598D01*
X165377699Y-118943597D01*
X165377698Y-118943597D01*
X165240478Y-118921864D01*
X165206611Y-118916500D01*
X165033389Y-118916500D01*
X164999522Y-118921864D01*
X164862302Y-118943597D01*
X164862299Y-118943598D01*
X164727258Y-118987476D01*
X164697552Y-118997128D01*
X164543211Y-119075768D01*
X164487386Y-119116328D01*
X164403072Y-119177586D01*
X164403070Y-119177588D01*
X164403069Y-119177588D01*
X164280588Y-119300069D01*
X164280588Y-119300070D01*
X164280586Y-119300072D01*
X164241730Y-119353553D01*
X164178768Y-119440211D01*
X164100128Y-119594552D01*
X164046597Y-119759302D01*
X164019500Y-119930389D01*
X163680500Y-119930389D01*
X163653402Y-119759299D01*
X163599873Y-119594555D01*
X163521232Y-119440212D01*
X163419414Y-119300072D01*
X163296928Y-119177586D01*
X163212613Y-119116327D01*
X163169949Y-119060997D01*
X163161500Y-119016010D01*
X163161500Y-118127598D01*
X163181185Y-118060559D01*
X163182398Y-118058707D01*
X163190489Y-118046598D01*
X163231775Y-117984810D01*
X163284580Y-117857327D01*
X163305494Y-117752185D01*
X163311500Y-117721994D01*
X163311500Y-117584003D01*
X163284581Y-117448676D01*
X163284580Y-117448675D01*
X163284580Y-117448671D01*
X163284578Y-117448666D01*
X163231778Y-117321194D01*
X163231771Y-117321181D01*
X163155114Y-117206457D01*
X163155111Y-117206453D01*
X163057545Y-117108887D01*
X163057541Y-117108884D01*
X162942817Y-117032227D01*
X162942804Y-117032220D01*
X162815332Y-116979420D01*
X162815322Y-116979417D01*
X162679995Y-116952499D01*
X162679993Y-116952499D01*
X162542007Y-116952499D01*
X162542005Y-116952499D01*
X162406677Y-116979417D01*
X162406667Y-116979420D01*
X162279195Y-117032220D01*
X162279182Y-117032227D01*
X162164458Y-117108884D01*
X162164454Y-117108887D01*
X162066888Y-117206453D01*
X162066885Y-117206457D01*
X161990228Y-117321181D01*
X161990221Y-117321194D01*
X161937421Y-117448666D01*
X161937418Y-117448676D01*
X161910500Y-117584003D01*
X161910500Y-117584006D01*
X161910500Y-117721992D01*
X161910500Y-117721994D01*
X161910499Y-117721994D01*
X161937418Y-117857321D01*
X161937421Y-117857331D01*
X161990222Y-117984805D01*
X161990223Y-117984806D01*
X161990225Y-117984810D01*
X162031510Y-118046597D01*
X162039602Y-118058707D01*
X162060480Y-118125384D01*
X162060500Y-118127598D01*
X162060500Y-118971218D01*
X162040815Y-119038257D01*
X162006434Y-119071913D01*
X162007154Y-119072904D01*
X162003212Y-119075767D01*
X162003212Y-119075768D01*
X161863072Y-119177586D01*
X161863070Y-119177588D01*
X161863069Y-119177588D01*
X161740588Y-119300069D01*
X161740588Y-119300070D01*
X161740586Y-119300072D01*
X161701730Y-119353553D01*
X161638768Y-119440211D01*
X161560128Y-119594552D01*
X161506597Y-119759302D01*
X161479500Y-119930389D01*
X161140500Y-119930389D01*
X161113402Y-119759299D01*
X161059873Y-119594555D01*
X160981232Y-119440212D01*
X160879414Y-119300072D01*
X160756928Y-119177586D01*
X160616788Y-119075768D01*
X160462445Y-118997127D01*
X160297701Y-118943598D01*
X160297699Y-118943597D01*
X160297698Y-118943597D01*
X160160478Y-118921864D01*
X160126611Y-118916500D01*
X159953389Y-118916500D01*
X159919522Y-118921864D01*
X159782302Y-118943597D01*
X159782299Y-118943598D01*
X159647258Y-118987476D01*
X159617552Y-118997128D01*
X159463211Y-119075768D01*
X159407386Y-119116328D01*
X159323072Y-119177586D01*
X159323070Y-119177588D01*
X159323069Y-119177588D01*
X159200588Y-119300069D01*
X159200588Y-119300070D01*
X159200586Y-119300072D01*
X159161730Y-119353553D01*
X159098768Y-119440211D01*
X159020128Y-119594552D01*
X158966597Y-119759302D01*
X158939500Y-119930389D01*
X158600500Y-119930389D01*
X158573402Y-119759299D01*
X158519873Y-119594555D01*
X158441232Y-119440212D01*
X158339414Y-119300072D01*
X158216928Y-119177586D01*
X158076788Y-119075768D01*
X157922445Y-118997127D01*
X157757701Y-118943598D01*
X157757699Y-118943597D01*
X157757698Y-118943597D01*
X157620478Y-118921864D01*
X157586611Y-118916500D01*
X157413389Y-118916500D01*
X157379522Y-118921864D01*
X157242302Y-118943597D01*
X157242299Y-118943598D01*
X157107258Y-118987476D01*
X157077552Y-118997128D01*
X156923211Y-119075768D01*
X156867386Y-119116328D01*
X156783072Y-119177586D01*
X156783070Y-119177588D01*
X156783069Y-119177588D01*
X156660588Y-119300069D01*
X156660588Y-119300070D01*
X156660586Y-119300072D01*
X156621730Y-119353553D01*
X156558768Y-119440211D01*
X156480128Y-119594552D01*
X156426597Y-119759302D01*
X156399500Y-119930389D01*
X156060500Y-119930389D01*
X156033402Y-119759299D01*
X155979873Y-119594555D01*
X155901232Y-119440212D01*
X155799414Y-119300072D01*
X155676928Y-119177586D01*
X155536788Y-119075768D01*
X155382445Y-118997127D01*
X155217701Y-118943598D01*
X155217699Y-118943597D01*
X155217698Y-118943597D01*
X155080478Y-118921864D01*
X155046611Y-118916500D01*
X154873389Y-118916500D01*
X154839522Y-118921864D01*
X154702302Y-118943597D01*
X154702299Y-118943598D01*
X154567258Y-118987476D01*
X154537552Y-118997128D01*
X154383211Y-119075768D01*
X154327386Y-119116328D01*
X154243072Y-119177586D01*
X154243070Y-119177588D01*
X154243069Y-119177588D01*
X154120588Y-119300069D01*
X154120588Y-119300070D01*
X154120586Y-119300072D01*
X154081730Y-119353553D01*
X154018768Y-119440211D01*
X153940128Y-119594552D01*
X153886597Y-119759302D01*
X153859500Y-119930389D01*
X153520500Y-119930389D01*
X153493402Y-119759299D01*
X153439873Y-119594555D01*
X153361232Y-119440212D01*
X153259414Y-119300072D01*
X153136928Y-119177586D01*
X152996788Y-119075768D01*
X152842445Y-118997127D01*
X152677701Y-118943598D01*
X152677699Y-118943597D01*
X152677698Y-118943597D01*
X152540478Y-118921864D01*
X152506611Y-118916500D01*
X152333389Y-118916500D01*
X152299522Y-118921864D01*
X152162302Y-118943597D01*
X152162299Y-118943598D01*
X152027258Y-118987476D01*
X151997552Y-118997128D01*
X151843211Y-119075768D01*
X151787386Y-119116328D01*
X151703072Y-119177586D01*
X151703070Y-119177588D01*
X151703069Y-119177588D01*
X151580588Y-119300069D01*
X151580588Y-119300070D01*
X151580586Y-119300072D01*
X151541730Y-119353553D01*
X151478768Y-119440211D01*
X151400128Y-119594552D01*
X151346597Y-119759302D01*
X151319500Y-119930389D01*
X150980500Y-119930389D01*
X150953402Y-119759299D01*
X150899873Y-119594555D01*
X150821232Y-119440212D01*
X150719414Y-119300072D01*
X150596928Y-119177586D01*
X150456788Y-119075768D01*
X150302445Y-118997127D01*
X150137701Y-118943598D01*
X150137699Y-118943597D01*
X150137698Y-118943597D01*
X150000478Y-118921864D01*
X149966611Y-118916500D01*
X149793389Y-118916500D01*
X149761192Y-118921599D01*
X149622301Y-118943597D01*
X149622300Y-118943597D01*
X149594503Y-118952629D01*
X149524662Y-118954622D01*
X149464830Y-118918541D01*
X149434004Y-118855839D01*
X149441970Y-118786425D01*
X149468504Y-118747019D01*
X153888491Y-114327032D01*
X153949812Y-114293549D01*
X154019504Y-114298533D01*
X154075437Y-114340405D01*
X154090731Y-114367263D01*
X154116221Y-114428805D01*
X154116228Y-114428817D01*
X154192885Y-114543541D01*
X154192888Y-114543545D01*
X154290454Y-114641111D01*
X154290458Y-114641114D01*
X154405182Y-114717771D01*
X154405195Y-114717778D01*
X154532667Y-114770578D01*
X154532672Y-114770580D01*
X154532676Y-114770580D01*
X154532677Y-114770581D01*
X154668004Y-114797500D01*
X154668007Y-114797500D01*
X154805995Y-114797500D01*
X154903115Y-114778181D01*
X154941328Y-114770580D01*
X155068811Y-114717775D01*
X155142709Y-114668398D01*
X155209386Y-114647520D01*
X155211600Y-114647500D01*
X167988128Y-114647500D01*
X168055167Y-114667185D01*
X168086932Y-114696575D01*
X168122077Y-114742922D01*
X168242656Y-114834360D01*
X168242657Y-114834360D01*
X168242658Y-114834361D01*
X168383436Y-114889877D01*
X168471898Y-114900500D01*
X168471903Y-114900500D01*
X169808097Y-114900500D01*
X169808102Y-114900500D01*
X169896564Y-114889877D01*
X170037342Y-114834361D01*
X170157922Y-114742922D01*
X170249361Y-114622342D01*
X170304877Y-114481564D01*
X170315500Y-114393102D01*
X170315500Y-113606898D01*
X170304877Y-113518436D01*
X170249361Y-113377658D01*
X170249360Y-113377657D01*
X170249360Y-113377656D01*
X170157922Y-113257077D01*
X170037343Y-113165639D01*
X169896561Y-113110122D01*
X169850926Y-113104642D01*
X169808102Y-113099500D01*
X169737080Y-113099500D01*
X169670041Y-113079815D01*
X169624286Y-113027011D01*
X169614342Y-112957853D01*
X169643367Y-112894297D01*
X169689627Y-112860939D01*
X169736663Y-112841456D01*
X169841541Y-112798016D01*
X169841544Y-112798014D01*
X169841547Y-112798013D01*
X169989035Y-112699464D01*
X170114464Y-112574035D01*
X170213013Y-112426547D01*
X170214158Y-112423784D01*
X170249104Y-112339414D01*
X170280894Y-112262666D01*
X170288743Y-112223210D01*
X170303964Y-112146682D01*
X170315500Y-112088691D01*
X170315500Y-111911309D01*
X170315500Y-111911306D01*
X170315499Y-111911304D01*
X170280896Y-111737341D01*
X170280893Y-111737332D01*
X170213016Y-111573459D01*
X170213009Y-111573446D01*
X170114464Y-111425965D01*
X170114461Y-111425961D01*
X169989038Y-111300538D01*
X169989034Y-111300535D01*
X169841553Y-111201990D01*
X169841540Y-111201983D01*
X169677667Y-111134106D01*
X169677658Y-111134103D01*
X169614882Y-111121617D01*
X169552971Y-111089232D01*
X169518397Y-111028517D01*
X169522136Y-110958747D01*
X169563003Y-110902075D01*
X169614882Y-110878383D01*
X169677658Y-110865896D01*
X169677661Y-110865894D01*
X169677666Y-110865894D01*
X169817535Y-110807958D01*
X169841540Y-110798016D01*
X169841540Y-110798015D01*
X169841547Y-110798013D01*
X169989035Y-110699464D01*
X170114464Y-110574035D01*
X170213013Y-110426547D01*
X170216997Y-110416930D01*
X170249451Y-110338576D01*
X170280894Y-110262666D01*
X170281521Y-110259518D01*
X170315499Y-110088695D01*
X170315500Y-110088693D01*
X170315500Y-109911306D01*
X170315499Y-109911304D01*
X170280896Y-109737341D01*
X170280893Y-109737332D01*
X170213016Y-109573459D01*
X170213009Y-109573446D01*
X170114464Y-109425965D01*
X170114461Y-109425961D01*
X169989038Y-109300538D01*
X169989034Y-109300535D01*
X169841553Y-109201990D01*
X169841540Y-109201983D01*
X169677667Y-109134106D01*
X169677658Y-109134103D01*
X169614882Y-109121617D01*
X169552971Y-109089232D01*
X169518397Y-109028517D01*
X169522136Y-108958747D01*
X169563003Y-108902075D01*
X169614882Y-108878383D01*
X169677658Y-108865896D01*
X169677661Y-108865894D01*
X169677666Y-108865894D01*
X169841547Y-108798013D01*
X169989035Y-108699464D01*
X170114464Y-108574035D01*
X170213013Y-108426547D01*
X170280894Y-108262666D01*
X170284411Y-108244989D01*
X170315499Y-108088695D01*
X170315500Y-108088693D01*
X170315500Y-107911306D01*
X170315499Y-107911304D01*
X170280896Y-107737341D01*
X170280893Y-107737332D01*
X170280388Y-107736114D01*
X170253657Y-107671577D01*
X170213016Y-107573459D01*
X170213009Y-107573446D01*
X170114464Y-107425965D01*
X170114461Y-107425961D01*
X169989038Y-107300538D01*
X169989034Y-107300535D01*
X169841553Y-107201990D01*
X169841540Y-107201983D01*
X169677667Y-107134106D01*
X169677658Y-107134103D01*
X169503694Y-107099500D01*
X169503691Y-107099500D01*
X168776309Y-107099500D01*
X168776306Y-107099500D01*
X168602341Y-107134103D01*
X168602332Y-107134106D01*
X168438459Y-107201983D01*
X168438446Y-107201990D01*
X168290965Y-107300535D01*
X168290961Y-107300538D01*
X168165538Y-107425961D01*
X168165535Y-107425965D01*
X168066990Y-107573446D01*
X168066986Y-107573453D01*
X168053102Y-107606974D01*
X168044412Y-107627952D01*
X168000573Y-107682355D01*
X167934279Y-107704421D01*
X167929852Y-107704500D01*
X164183098Y-107704500D01*
X164116059Y-107684815D01*
X164070304Y-107632011D01*
X164060360Y-107562853D01*
X164089385Y-107499297D01*
X164095417Y-107492819D01*
X164107520Y-107480716D01*
X164186577Y-107343784D01*
X164227500Y-107191057D01*
X164227500Y-107032943D01*
X164186577Y-106880216D01*
X164164770Y-106842445D01*
X164107524Y-106743290D01*
X164107518Y-106743282D01*
X163995717Y-106631481D01*
X163995709Y-106631475D01*
X163858790Y-106552426D01*
X163858786Y-106552424D01*
X163858784Y-106552423D01*
X163706057Y-106511500D01*
X163547943Y-106511500D01*
X163395216Y-106552423D01*
X163395209Y-106552426D01*
X163258290Y-106631475D01*
X163258282Y-106631481D01*
X163239583Y-106650181D01*
X163178260Y-106683666D01*
X163151902Y-106686500D01*
X149624098Y-106686500D01*
X149557059Y-106666815D01*
X149536417Y-106650181D01*
X149517717Y-106631481D01*
X149517709Y-106631475D01*
X149380790Y-106552426D01*
X149380786Y-106552424D01*
X149380784Y-106552423D01*
X149228057Y-106511500D01*
X149069943Y-106511500D01*
X148917216Y-106552423D01*
X148917209Y-106552426D01*
X148780290Y-106631475D01*
X148780282Y-106631481D01*
X148668481Y-106743282D01*
X148668475Y-106743290D01*
X148589426Y-106880209D01*
X148589423Y-106880216D01*
X148548500Y-107032943D01*
X148548500Y-107191057D01*
X148585462Y-107328999D01*
X148589423Y-107343783D01*
X148589426Y-107343790D01*
X148668475Y-107480709D01*
X148668479Y-107480714D01*
X148668480Y-107480716D01*
X148780284Y-107592520D01*
X148780286Y-107592521D01*
X148780290Y-107592524D01*
X148848685Y-107632011D01*
X148917216Y-107671577D01*
X149069943Y-107712500D01*
X149069945Y-107712500D01*
X149228055Y-107712500D01*
X149228057Y-107712500D01*
X149380784Y-107671577D01*
X149517716Y-107592520D01*
X149536417Y-107573819D01*
X149597740Y-107540334D01*
X149624098Y-107537500D01*
X158860972Y-107537500D01*
X158928011Y-107557185D01*
X158973766Y-107609989D01*
X158983710Y-107679147D01*
X158954685Y-107742703D01*
X158922972Y-107768887D01*
X158843989Y-107814487D01*
X158843984Y-107814491D01*
X147778292Y-118880181D01*
X147716969Y-118913666D01*
X147690611Y-118916500D01*
X146495143Y-118916500D01*
X146495119Y-118916502D01*
X146470014Y-118919413D01*
X146461008Y-118921864D01*
X146460114Y-118918578D01*
X146407550Y-118925428D01*
X146344384Y-118895564D01*
X146339139Y-118890615D01*
X143753156Y-116304631D01*
X143719671Y-116243308D01*
X143724655Y-116173616D01*
X143766527Y-116117683D01*
X143821439Y-116094477D01*
X143957585Y-116072913D01*
X144122257Y-116019408D01*
X144276525Y-115940803D01*
X144282736Y-115936289D01*
X143746446Y-115400000D01*
X143752661Y-115400000D01*
X143854394Y-115372741D01*
X143945606Y-115320080D01*
X144020080Y-115245606D01*
X144072741Y-115154394D01*
X144100000Y-115052661D01*
X144100000Y-115046447D01*
X144636289Y-115582736D01*
X144640803Y-115576525D01*
X144719408Y-115422257D01*
X144772914Y-115257584D01*
X144800000Y-115086571D01*
X144800000Y-114913428D01*
X144772914Y-114742415D01*
X144719408Y-114577742D01*
X144640801Y-114423471D01*
X144636290Y-114417262D01*
X144636289Y-114417261D01*
X144100000Y-114953551D01*
X144100000Y-114947339D01*
X144072741Y-114845606D01*
X144020080Y-114754394D01*
X143945606Y-114679920D01*
X143854394Y-114627259D01*
X143752661Y-114600000D01*
X143746447Y-114600000D01*
X144282737Y-114063709D01*
X144276525Y-114059196D01*
X144122259Y-113980592D01*
X143957584Y-113927085D01*
X143786571Y-113900000D01*
X143613429Y-113900000D01*
X143442415Y-113927085D01*
X143277740Y-113980592D01*
X143123480Y-114059193D01*
X143123463Y-114059203D01*
X143117261Y-114063708D01*
X143117261Y-114063709D01*
X143653554Y-114600000D01*
X143647339Y-114600000D01*
X143545606Y-114627259D01*
X143454394Y-114679920D01*
X143379920Y-114754394D01*
X143327259Y-114845606D01*
X143300000Y-114947339D01*
X143300000Y-114953553D01*
X142763709Y-114417261D01*
X142763708Y-114417261D01*
X142759203Y-114423463D01*
X142759193Y-114423480D01*
X142680592Y-114577740D01*
X142627085Y-114742415D01*
X142600000Y-114913428D01*
X142600000Y-115086571D01*
X142627085Y-115257584D01*
X142680593Y-115422263D01*
X142694236Y-115449038D01*
X142707132Y-115517707D01*
X142680855Y-115582447D01*
X142631205Y-115619891D01*
X142594197Y-115635220D01*
X142594182Y-115635228D01*
X142479458Y-115711885D01*
X142479454Y-115711888D01*
X142381888Y-115809454D01*
X142381885Y-115809458D01*
X142305228Y-115924182D01*
X142305221Y-115924195D01*
X142252421Y-116051667D01*
X142252418Y-116051677D01*
X142225500Y-116187004D01*
X142225500Y-116187007D01*
X142225500Y-116324993D01*
X142225500Y-116324995D01*
X142225499Y-116324995D01*
X139024743Y-116324995D01*
X134291819Y-111592071D01*
X134258334Y-111530748D01*
X134255500Y-111504390D01*
X134255500Y-111477945D01*
X134255500Y-111477943D01*
X134214577Y-111325216D01*
X134166707Y-111242302D01*
X134135524Y-111188290D01*
X134135518Y-111188282D01*
X134023717Y-111076481D01*
X134023709Y-111076475D01*
X133886790Y-110997426D01*
X133886786Y-110997424D01*
X133886784Y-110997423D01*
X133734057Y-110956500D01*
X133575943Y-110956500D01*
X133423216Y-110997423D01*
X133423209Y-110997426D01*
X133286290Y-111076475D01*
X133286282Y-111076481D01*
X133174481Y-111188282D01*
X133174477Y-111188287D01*
X133098091Y-111320594D01*
X133047524Y-111368809D01*
X132978917Y-111382033D01*
X132914053Y-111356065D01*
X132903023Y-111346275D01*
X132189753Y-110633005D01*
X132156268Y-110571682D01*
X132161252Y-110501990D01*
X132203124Y-110446057D01*
X132258031Y-110422852D01*
X132317701Y-110413402D01*
X132482445Y-110359873D01*
X132636788Y-110281232D01*
X132776928Y-110179414D01*
X132899414Y-110056928D01*
X133001232Y-109916788D01*
X133079873Y-109762445D01*
X133133402Y-109597701D01*
X133160500Y-109426611D01*
X133160500Y-109253389D01*
X133133402Y-109082299D01*
X133079873Y-108917555D01*
X133001232Y-108763212D01*
X132899414Y-108623072D01*
X132776928Y-108500586D01*
X132636788Y-108398768D01*
X132636787Y-108398767D01*
X132634104Y-108396818D01*
X132591439Y-108341488D01*
X132585460Y-108271874D01*
X132618066Y-108210079D01*
X132678905Y-108175722D01*
X132706990Y-108172500D01*
X133445946Y-108172500D01*
X133512985Y-108192185D01*
X133558740Y-108244989D01*
X133568684Y-108314147D01*
X133552136Y-108356593D01*
X133552435Y-108356725D01*
X133549450Y-108363484D01*
X133548244Y-108366579D01*
X133547793Y-108367236D01*
X133502415Y-108470006D01*
X133502415Y-108470008D01*
X133499500Y-108495131D01*
X133499500Y-110184856D01*
X133499502Y-110184882D01*
X133502413Y-110209987D01*
X133502415Y-110209991D01*
X133547793Y-110312764D01*
X133547794Y-110312765D01*
X133627235Y-110392206D01*
X133730009Y-110437585D01*
X133755135Y-110440500D01*
X135314388Y-110440499D01*
X135381427Y-110460184D01*
X135402069Y-110476818D01*
X135727514Y-110802263D01*
X135806736Y-110881485D01*
X135903762Y-110937503D01*
X136011981Y-110966500D01*
X144139390Y-110966500D01*
X144206429Y-110986185D01*
X144252184Y-111038989D01*
X144262128Y-111108147D01*
X144233103Y-111171703D01*
X144227071Y-111178181D01*
X141520463Y-113884787D01*
X141459140Y-113918272D01*
X141413384Y-113919578D01*
X141286611Y-113899500D01*
X141113389Y-113899500D01*
X141073728Y-113905781D01*
X140942302Y-113926597D01*
X140777552Y-113980128D01*
X140623211Y-114058768D01*
X140543256Y-114116859D01*
X140483072Y-114160586D01*
X140483070Y-114160588D01*
X140483069Y-114160588D01*
X140360588Y-114283069D01*
X140360588Y-114283070D01*
X140360586Y-114283072D01*
X140343196Y-114307007D01*
X140258768Y-114423211D01*
X140180128Y-114577552D01*
X140126597Y-114742302D01*
X140099500Y-114913389D01*
X140099500Y-115086610D01*
X140114777Y-115183070D01*
X140126598Y-115257701D01*
X140180127Y-115422445D01*
X140258768Y-115576788D01*
X140360586Y-115716928D01*
X140483072Y-115839414D01*
X140623212Y-115941232D01*
X140777555Y-116019873D01*
X140942299Y-116073402D01*
X141113389Y-116100500D01*
X141113390Y-116100500D01*
X141286610Y-116100500D01*
X141286611Y-116100500D01*
X141457701Y-116073402D01*
X141622445Y-116019873D01*
X141776788Y-115941232D01*
X141916928Y-115839414D01*
X142039414Y-115716928D01*
X142141232Y-115576788D01*
X142219873Y-115422445D01*
X142273402Y-115257701D01*
X142300500Y-115086611D01*
X142300500Y-114913389D01*
X142273402Y-114742299D01*
X142219873Y-114577555D01*
X142210326Y-114558818D01*
X142197086Y-114532831D01*
X142184190Y-114464162D01*
X142210467Y-114399422D01*
X142219881Y-114388865D01*
X145679485Y-110929263D01*
X145735503Y-110832237D01*
X145764500Y-110724018D01*
X145764500Y-110611981D01*
X145764500Y-107944982D01*
X145735503Y-107836763D01*
X145679485Y-107739737D01*
X145600263Y-107660515D01*
X139836137Y-101896389D01*
X146239500Y-101896389D01*
X146239500Y-102069611D01*
X146266598Y-102240701D01*
X146320127Y-102405445D01*
X146398768Y-102559788D01*
X146500586Y-102699928D01*
X146623072Y-102822414D01*
X146763212Y-102924232D01*
X146917555Y-103002873D01*
X147082299Y-103056402D01*
X147253389Y-103083500D01*
X147253390Y-103083500D01*
X147426610Y-103083500D01*
X147426611Y-103083500D01*
X147597701Y-103056402D01*
X147762445Y-103002873D01*
X147916788Y-102924232D01*
X148056928Y-102822414D01*
X148179414Y-102699928D01*
X148281232Y-102559788D01*
X148359873Y-102405445D01*
X148413402Y-102240701D01*
X148440500Y-102069611D01*
X148440500Y-101896389D01*
X148779500Y-101896389D01*
X148779500Y-102069611D01*
X148806598Y-102240701D01*
X148860127Y-102405445D01*
X148938768Y-102559788D01*
X149040586Y-102699928D01*
X149163072Y-102822414D01*
X149303212Y-102924232D01*
X149457555Y-103002873D01*
X149622299Y-103056402D01*
X149793389Y-103083500D01*
X149793390Y-103083500D01*
X149966610Y-103083500D01*
X149966611Y-103083500D01*
X150137701Y-103056402D01*
X150302445Y-103002873D01*
X150456788Y-102924232D01*
X150596928Y-102822414D01*
X150719414Y-102699928D01*
X150821232Y-102559788D01*
X150899873Y-102405445D01*
X150953402Y-102240701D01*
X150980500Y-102069611D01*
X150980500Y-101896389D01*
X151319500Y-101896389D01*
X151319500Y-102069611D01*
X151346598Y-102240701D01*
X151400127Y-102405445D01*
X151478768Y-102559788D01*
X151580586Y-102699928D01*
X151703072Y-102822414D01*
X151843212Y-102924232D01*
X151997555Y-103002873D01*
X152162299Y-103056402D01*
X152333389Y-103083500D01*
X152333390Y-103083500D01*
X152506610Y-103083500D01*
X152506611Y-103083500D01*
X152677701Y-103056402D01*
X152842445Y-103002873D01*
X152996788Y-102924232D01*
X153136928Y-102822414D01*
X153259414Y-102699928D01*
X153361232Y-102559788D01*
X153439873Y-102405445D01*
X153493402Y-102240701D01*
X153520500Y-102069611D01*
X153520500Y-101896389D01*
X153859500Y-101896389D01*
X153859500Y-102069611D01*
X153886598Y-102240701D01*
X153940127Y-102405445D01*
X154018768Y-102559788D01*
X154120586Y-102699928D01*
X154243072Y-102822414D01*
X154383212Y-102924232D01*
X154537555Y-103002873D01*
X154702299Y-103056402D01*
X154873389Y-103083500D01*
X154873390Y-103083500D01*
X155046610Y-103083500D01*
X155046611Y-103083500D01*
X155217701Y-103056402D01*
X155382445Y-103002873D01*
X155536788Y-102924232D01*
X155676928Y-102822414D01*
X155799414Y-102699928D01*
X155901232Y-102559788D01*
X155979873Y-102405445D01*
X156033402Y-102240701D01*
X156060500Y-102069611D01*
X156060500Y-101896389D01*
X156399500Y-101896389D01*
X156399500Y-102069611D01*
X156426598Y-102240701D01*
X156480127Y-102405445D01*
X156558768Y-102559788D01*
X156660586Y-102699928D01*
X156783072Y-102822414D01*
X156923212Y-102924232D01*
X157077555Y-103002873D01*
X157242299Y-103056402D01*
X157413389Y-103083500D01*
X157413390Y-103083500D01*
X157586610Y-103083500D01*
X157586611Y-103083500D01*
X157757701Y-103056402D01*
X157922445Y-103002873D01*
X158076788Y-102924232D01*
X158216928Y-102822414D01*
X158339414Y-102699928D01*
X158441232Y-102559788D01*
X158519873Y-102405445D01*
X158573402Y-102240701D01*
X158600500Y-102069611D01*
X158600500Y-101896389D01*
X158939500Y-101896389D01*
X158939500Y-102069611D01*
X158966598Y-102240701D01*
X159020127Y-102405445D01*
X159098768Y-102559788D01*
X159200586Y-102699928D01*
X159323072Y-102822414D01*
X159463212Y-102924232D01*
X159617555Y-103002873D01*
X159782299Y-103056402D01*
X159953389Y-103083500D01*
X159953390Y-103083500D01*
X160126610Y-103083500D01*
X160126611Y-103083500D01*
X160297701Y-103056402D01*
X160462445Y-103002873D01*
X160616788Y-102924232D01*
X160756928Y-102822414D01*
X160879414Y-102699928D01*
X160981232Y-102559788D01*
X161059873Y-102405445D01*
X161113402Y-102240701D01*
X161140500Y-102069611D01*
X161140500Y-101896389D01*
X161479500Y-101896389D01*
X161479500Y-102069611D01*
X161506598Y-102240701D01*
X161560127Y-102405445D01*
X161638768Y-102559788D01*
X161740586Y-102699928D01*
X161863072Y-102822414D01*
X162003212Y-102924232D01*
X162157555Y-103002873D01*
X162322299Y-103056402D01*
X162493389Y-103083500D01*
X162493390Y-103083500D01*
X162666610Y-103083500D01*
X162666611Y-103083500D01*
X162837701Y-103056402D01*
X163002445Y-103002873D01*
X163156788Y-102924232D01*
X163296928Y-102822414D01*
X163419414Y-102699928D01*
X163521232Y-102559788D01*
X163599873Y-102405445D01*
X163653402Y-102240701D01*
X163680500Y-102069611D01*
X163680500Y-101896389D01*
X164019500Y-101896389D01*
X164019500Y-102069611D01*
X164046598Y-102240701D01*
X164100127Y-102405445D01*
X164178768Y-102559788D01*
X164280586Y-102699928D01*
X164403072Y-102822414D01*
X164543212Y-102924232D01*
X164697555Y-103002873D01*
X164862299Y-103056402D01*
X165033389Y-103083500D01*
X165033390Y-103083500D01*
X165206610Y-103083500D01*
X165206611Y-103083500D01*
X165377701Y-103056402D01*
X165542445Y-103002873D01*
X165696788Y-102924232D01*
X165836928Y-102822414D01*
X165959414Y-102699928D01*
X166061232Y-102559788D01*
X166139873Y-102405445D01*
X166193402Y-102240701D01*
X166220500Y-102069611D01*
X166220500Y-101896389D01*
X166193402Y-101725299D01*
X166139873Y-101560555D01*
X166061232Y-101406212D01*
X165959414Y-101266072D01*
X165836928Y-101143586D01*
X165696788Y-101041768D01*
X165542445Y-100963127D01*
X165377701Y-100909598D01*
X165377699Y-100909597D01*
X165377698Y-100909597D01*
X165246271Y-100888781D01*
X165206611Y-100882500D01*
X165033389Y-100882500D01*
X164993728Y-100888781D01*
X164862302Y-100909597D01*
X164697552Y-100963128D01*
X164543211Y-101041768D01*
X164463256Y-101099859D01*
X164403072Y-101143586D01*
X164403070Y-101143588D01*
X164403069Y-101143588D01*
X164280588Y-101266069D01*
X164280588Y-101266070D01*
X164280586Y-101266072D01*
X164248296Y-101310515D01*
X164178768Y-101406211D01*
X164100128Y-101560552D01*
X164046597Y-101725302D01*
X164019500Y-101896389D01*
X163680500Y-101896389D01*
X163653402Y-101725299D01*
X163599873Y-101560555D01*
X163521232Y-101406212D01*
X163419414Y-101266072D01*
X163296928Y-101143586D01*
X163156788Y-101041768D01*
X163002445Y-100963127D01*
X162837701Y-100909598D01*
X162837699Y-100909597D01*
X162837698Y-100909597D01*
X162706271Y-100888781D01*
X162666611Y-100882500D01*
X162493389Y-100882500D01*
X162453728Y-100888781D01*
X162322302Y-100909597D01*
X162157552Y-100963128D01*
X162003211Y-101041768D01*
X161923256Y-101099859D01*
X161863072Y-101143586D01*
X161863070Y-101143588D01*
X161863069Y-101143588D01*
X161740588Y-101266069D01*
X161740588Y-101266070D01*
X161740586Y-101266072D01*
X161708296Y-101310515D01*
X161638768Y-101406211D01*
X161560128Y-101560552D01*
X161506597Y-101725302D01*
X161479500Y-101896389D01*
X161140500Y-101896389D01*
X161113402Y-101725299D01*
X161059873Y-101560555D01*
X160981232Y-101406212D01*
X160879414Y-101266072D01*
X160756928Y-101143586D01*
X160616788Y-101041768D01*
X160462445Y-100963127D01*
X160297701Y-100909598D01*
X160297699Y-100909597D01*
X160297698Y-100909597D01*
X160166271Y-100888781D01*
X160126611Y-100882500D01*
X159953389Y-100882500D01*
X159913728Y-100888781D01*
X159782302Y-100909597D01*
X159617552Y-100963128D01*
X159463211Y-101041768D01*
X159383256Y-101099859D01*
X159323072Y-101143586D01*
X159323070Y-101143588D01*
X159323069Y-101143588D01*
X159200588Y-101266069D01*
X159200588Y-101266070D01*
X159200586Y-101266072D01*
X159168296Y-101310515D01*
X159098768Y-101406211D01*
X159020128Y-101560552D01*
X158966597Y-101725302D01*
X158939500Y-101896389D01*
X158600500Y-101896389D01*
X158573402Y-101725299D01*
X158519873Y-101560555D01*
X158441232Y-101406212D01*
X158339414Y-101266072D01*
X158216928Y-101143586D01*
X158076788Y-101041768D01*
X157922445Y-100963127D01*
X157757701Y-100909598D01*
X157757699Y-100909597D01*
X157757698Y-100909597D01*
X157626271Y-100888781D01*
X157586611Y-100882500D01*
X157413389Y-100882500D01*
X157373728Y-100888781D01*
X157242302Y-100909597D01*
X157077552Y-100963128D01*
X156923211Y-101041768D01*
X156843256Y-101099859D01*
X156783072Y-101143586D01*
X156783070Y-101143588D01*
X156783069Y-101143588D01*
X156660588Y-101266069D01*
X156660588Y-101266070D01*
X156660586Y-101266072D01*
X156628296Y-101310515D01*
X156558768Y-101406211D01*
X156480128Y-101560552D01*
X156426597Y-101725302D01*
X156399500Y-101896389D01*
X156060500Y-101896389D01*
X156033402Y-101725299D01*
X155979873Y-101560555D01*
X155901232Y-101406212D01*
X155799414Y-101266072D01*
X155676928Y-101143586D01*
X155536788Y-101041768D01*
X155382445Y-100963127D01*
X155217701Y-100909598D01*
X155217699Y-100909597D01*
X155217698Y-100909597D01*
X155086271Y-100888781D01*
X155046611Y-100882500D01*
X154873389Y-100882500D01*
X154833728Y-100888781D01*
X154702302Y-100909597D01*
X154537552Y-100963128D01*
X154383211Y-101041768D01*
X154303256Y-101099859D01*
X154243072Y-101143586D01*
X154243070Y-101143588D01*
X154243069Y-101143588D01*
X154120588Y-101266069D01*
X154120588Y-101266070D01*
X154120586Y-101266072D01*
X154088296Y-101310515D01*
X154018768Y-101406211D01*
X153940128Y-101560552D01*
X153886597Y-101725302D01*
X153859500Y-101896389D01*
X153520500Y-101896389D01*
X153493402Y-101725299D01*
X153439873Y-101560555D01*
X153361232Y-101406212D01*
X153259414Y-101266072D01*
X153136928Y-101143586D01*
X152996788Y-101041768D01*
X152842445Y-100963127D01*
X152677701Y-100909598D01*
X152677699Y-100909597D01*
X152677698Y-100909597D01*
X152546271Y-100888781D01*
X152506611Y-100882500D01*
X152333389Y-100882500D01*
X152293728Y-100888781D01*
X152162302Y-100909597D01*
X151997552Y-100963128D01*
X151843211Y-101041768D01*
X151763256Y-101099859D01*
X151703072Y-101143586D01*
X151703070Y-101143588D01*
X151703069Y-101143588D01*
X151580588Y-101266069D01*
X151580588Y-101266070D01*
X151580586Y-101266072D01*
X151548296Y-101310515D01*
X151478768Y-101406211D01*
X151400128Y-101560552D01*
X151346597Y-101725302D01*
X151319500Y-101896389D01*
X150980500Y-101896389D01*
X150953402Y-101725299D01*
X150899873Y-101560555D01*
X150821232Y-101406212D01*
X150719414Y-101266072D01*
X150596928Y-101143586D01*
X150456788Y-101041768D01*
X150302445Y-100963127D01*
X150137701Y-100909598D01*
X150137699Y-100909597D01*
X150137698Y-100909597D01*
X150006271Y-100888781D01*
X149966611Y-100882500D01*
X149793389Y-100882500D01*
X149753728Y-100888781D01*
X149622302Y-100909597D01*
X149457552Y-100963128D01*
X149303211Y-101041768D01*
X149223256Y-101099859D01*
X149163072Y-101143586D01*
X149163070Y-101143588D01*
X149163069Y-101143588D01*
X149040588Y-101266069D01*
X149040588Y-101266070D01*
X149040586Y-101266072D01*
X149008296Y-101310515D01*
X148938768Y-101406211D01*
X148860128Y-101560552D01*
X148806597Y-101725302D01*
X148779500Y-101896389D01*
X148440500Y-101896389D01*
X148413402Y-101725299D01*
X148359873Y-101560555D01*
X148281232Y-101406212D01*
X148179414Y-101266072D01*
X148056928Y-101143586D01*
X147916788Y-101041768D01*
X147762445Y-100963127D01*
X147597701Y-100909598D01*
X147597699Y-100909597D01*
X147597698Y-100909597D01*
X147466271Y-100888781D01*
X147426611Y-100882500D01*
X147253389Y-100882500D01*
X147213728Y-100888781D01*
X147082302Y-100909597D01*
X146917552Y-100963128D01*
X146763211Y-101041768D01*
X146683256Y-101099859D01*
X146623072Y-101143586D01*
X146623070Y-101143588D01*
X146623069Y-101143588D01*
X146500588Y-101266069D01*
X146500588Y-101266070D01*
X146500586Y-101266072D01*
X146468296Y-101310515D01*
X146398768Y-101406211D01*
X146320128Y-101560552D01*
X146266597Y-101725302D01*
X146239500Y-101896389D01*
X139836137Y-101896389D01*
X138651929Y-100712181D01*
X138618444Y-100650858D01*
X138623428Y-100581166D01*
X138665300Y-100525233D01*
X138730764Y-100500816D01*
X138739610Y-100500500D01*
X174834108Y-100500500D01*
X174893040Y-100500500D01*
X174906922Y-100501280D01*
G37*
%TD.AperFunction*%
%TA.AperFunction,Conductor*%
G36*
X127884581Y-110478804D02*
G01*
X127987943Y-110506500D01*
X128014390Y-110506500D01*
X128081429Y-110526185D01*
X128102071Y-110542819D01*
X128361515Y-110802263D01*
X128440737Y-110881485D01*
X128537763Y-110937503D01*
X128645982Y-110966500D01*
X131268390Y-110966500D01*
X131335429Y-110986185D01*
X131356071Y-111002819D01*
X134622545Y-114269293D01*
X137691072Y-117337819D01*
X137724557Y-117399142D01*
X137719573Y-117468834D01*
X137677701Y-117524767D01*
X137612237Y-117549184D01*
X137603391Y-117549500D01*
X137489778Y-117549500D01*
X137417201Y-117560995D01*
X137272047Y-117583985D01*
X137062396Y-117652103D01*
X137062393Y-117652104D01*
X136865974Y-117752187D01*
X136687641Y-117881752D01*
X136687636Y-117881756D01*
X136531756Y-118037636D01*
X136531752Y-118037641D01*
X136402185Y-118215976D01*
X136378211Y-118263028D01*
X136330237Y-118313823D01*
X136262416Y-118330618D01*
X136196281Y-118308080D01*
X136180046Y-118294413D01*
X136169657Y-118284024D01*
X136079455Y-118223754D01*
X135997598Y-118169059D01*
X135977147Y-118160588D01*
X135806420Y-118089870D01*
X135806412Y-118089868D01*
X135603469Y-118049500D01*
X135603465Y-118049500D01*
X135396535Y-118049500D01*
X135396530Y-118049500D01*
X135193587Y-118089868D01*
X135193579Y-118089870D01*
X135002403Y-118169058D01*
X134830342Y-118284024D01*
X134684025Y-118430341D01*
X134684019Y-118430349D01*
X134603102Y-118551451D01*
X134549490Y-118596257D01*
X134480165Y-118604964D01*
X134417138Y-118574810D01*
X134396898Y-118551451D01*
X134315980Y-118430349D01*
X134315974Y-118430341D01*
X134169657Y-118284024D01*
X134079455Y-118223754D01*
X133997598Y-118169059D01*
X133977147Y-118160588D01*
X133806420Y-118089870D01*
X133806412Y-118089868D01*
X133744666Y-118077586D01*
X133682755Y-118045201D01*
X133681176Y-118043650D01*
X133680760Y-118043234D01*
X133674570Y-118036572D01*
X133643389Y-118000445D01*
X133636165Y-117995535D01*
X133618188Y-117980662D01*
X130749430Y-115111904D01*
X130741490Y-115097363D01*
X130729533Y-115085892D01*
X130725090Y-115067329D01*
X130715945Y-115050581D01*
X130716989Y-115033483D01*
X130713270Y-115017941D01*
X130719556Y-114991479D01*
X130720056Y-114983306D01*
X130721679Y-114978662D01*
X130747585Y-114919991D01*
X130750500Y-114894865D01*
X130750499Y-114153925D01*
X130770183Y-114086888D01*
X130822987Y-114041133D01*
X130892146Y-114031189D01*
X130955702Y-114060214D01*
X130993476Y-114118992D01*
X130996972Y-114134529D01*
X131018317Y-114269293D01*
X131074251Y-114441444D01*
X131074252Y-114441447D01*
X131156431Y-114602730D01*
X131167913Y-114618532D01*
X131167913Y-114618533D01*
X131657037Y-114129409D01*
X131674075Y-114192993D01*
X131739901Y-114307007D01*
X131832993Y-114400099D01*
X131947007Y-114465925D01*
X132010590Y-114482962D01*
X131521466Y-114972085D01*
X131521466Y-114972086D01*
X131537267Y-114983566D01*
X131537275Y-114983571D01*
X131698552Y-115065747D01*
X131698555Y-115065748D01*
X131870706Y-115121682D01*
X132049494Y-115150000D01*
X132230506Y-115150000D01*
X132409293Y-115121682D01*
X132581444Y-115065748D01*
X132581452Y-115065745D01*
X132742730Y-114983568D01*
X132758532Y-114972085D01*
X132758533Y-114972085D01*
X132269410Y-114482962D01*
X132332993Y-114465925D01*
X132447007Y-114400099D01*
X132540099Y-114307007D01*
X132605925Y-114192993D01*
X132622962Y-114129410D01*
X133112085Y-114618533D01*
X133112085Y-114618532D01*
X133123568Y-114602730D01*
X133205745Y-114441452D01*
X133205748Y-114441444D01*
X133261682Y-114269293D01*
X133290000Y-114090506D01*
X133290000Y-113909493D01*
X133261682Y-113730706D01*
X133205748Y-113558555D01*
X133205747Y-113558552D01*
X133123571Y-113397275D01*
X133123566Y-113397267D01*
X133112085Y-113381466D01*
X132622962Y-113870589D01*
X132605925Y-113807007D01*
X132540099Y-113692993D01*
X132447007Y-113599901D01*
X132332993Y-113534075D01*
X132269409Y-113517037D01*
X132758533Y-113027913D01*
X132742730Y-113016431D01*
X132581447Y-112934252D01*
X132581444Y-112934251D01*
X132409293Y-112878317D01*
X132230506Y-112850000D01*
X132049494Y-112850000D01*
X131870706Y-112878317D01*
X131698555Y-112934251D01*
X131698547Y-112934254D01*
X131537269Y-113016432D01*
X131521466Y-113027912D01*
X131521466Y-113027913D01*
X132010591Y-113517037D01*
X131947007Y-113534075D01*
X131832993Y-113599901D01*
X131739901Y-113692993D01*
X131674075Y-113807007D01*
X131657037Y-113870590D01*
X131167912Y-113381466D01*
X131156432Y-113397269D01*
X131074254Y-113558547D01*
X131074251Y-113558555D01*
X131018317Y-113730706D01*
X130996972Y-113865471D01*
X130967043Y-113928606D01*
X130907731Y-113965537D01*
X130837868Y-113964539D01*
X130779636Y-113925929D01*
X130751522Y-113861965D01*
X130750499Y-113846073D01*
X130750499Y-113105143D01*
X130750499Y-113105136D01*
X130747585Y-113080009D01*
X130702206Y-112977235D01*
X130622765Y-112897794D01*
X130550523Y-112865896D01*
X130519992Y-112852415D01*
X130494865Y-112849500D01*
X128705143Y-112849500D01*
X128705117Y-112849502D01*
X128680012Y-112852413D01*
X128680008Y-112852415D01*
X128577235Y-112897793D01*
X128497794Y-112977234D01*
X128452415Y-113080006D01*
X128452415Y-113080008D01*
X128449500Y-113105131D01*
X128449500Y-114417613D01*
X128429815Y-114484652D01*
X128377011Y-114530407D01*
X128307853Y-114540351D01*
X128244297Y-114511326D01*
X128237819Y-114505294D01*
X127764819Y-114032294D01*
X127731334Y-113970971D01*
X127728500Y-113944613D01*
X127728500Y-110598582D01*
X127748185Y-110531543D01*
X127800989Y-110485788D01*
X127870147Y-110475844D01*
X127884581Y-110478804D01*
G37*
%TD.AperFunction*%
%TA.AperFunction,Conductor*%
G36*
X110004711Y-102729185D02*
G01*
X110050466Y-102781989D01*
X110060410Y-102851147D01*
X110031385Y-102914703D01*
X110006859Y-102935498D01*
X110007154Y-102935904D01*
X110003212Y-102938767D01*
X110003212Y-102938768D01*
X109863072Y-103040586D01*
X109863070Y-103040588D01*
X109863069Y-103040588D01*
X109740588Y-103163069D01*
X109740588Y-103163070D01*
X109740586Y-103163072D01*
X109696859Y-103223256D01*
X109638768Y-103303211D01*
X109560128Y-103457552D01*
X109506597Y-103622302D01*
X109485708Y-103754191D01*
X109479500Y-103793389D01*
X109479500Y-103966611D01*
X109506598Y-104137701D01*
X109560127Y-104302445D01*
X109638768Y-104456788D01*
X109740586Y-104596928D01*
X109863072Y-104719414D01*
X110003212Y-104821232D01*
X110157555Y-104899873D01*
X110322299Y-104953402D01*
X110493389Y-104980500D01*
X110493390Y-104980500D01*
X110666610Y-104980500D01*
X110666611Y-104980500D01*
X110837701Y-104953402D01*
X111002445Y-104899873D01*
X111156788Y-104821232D01*
X111296928Y-104719414D01*
X111419414Y-104596928D01*
X111521232Y-104456788D01*
X111599873Y-104302445D01*
X111653402Y-104137701D01*
X111680500Y-103966611D01*
X111680500Y-103793389D01*
X111653402Y-103622299D01*
X111599873Y-103457555D01*
X111521232Y-103303212D01*
X111419414Y-103163072D01*
X111296928Y-103040586D01*
X111156788Y-102938768D01*
X111156787Y-102938767D01*
X111152846Y-102935904D01*
X111153596Y-102934870D01*
X111110662Y-102887415D01*
X111099240Y-102818485D01*
X111126898Y-102754323D01*
X111184854Y-102715298D01*
X111222328Y-102709500D01*
X112460675Y-102709500D01*
X112527714Y-102729185D01*
X112573469Y-102781989D01*
X112583413Y-102851147D01*
X112560993Y-102906386D01*
X112548768Y-102923211D01*
X112470128Y-103077552D01*
X112416597Y-103242302D01*
X112389500Y-103413389D01*
X112389500Y-103586610D01*
X112414950Y-103747301D01*
X112416598Y-103757701D01*
X112440807Y-103832209D01*
X112470128Y-103922447D01*
X112496901Y-103974992D01*
X112548768Y-104076788D01*
X112650586Y-104216928D01*
X112773072Y-104339414D01*
X112913212Y-104441232D01*
X113067555Y-104519873D01*
X113232299Y-104573402D01*
X113403389Y-104600500D01*
X113472390Y-104600500D01*
X113539429Y-104620185D01*
X113560071Y-104636819D01*
X120577727Y-111654475D01*
X120611212Y-111715798D01*
X120606228Y-111785490D01*
X120564356Y-111841423D01*
X120546341Y-111852640D01*
X120533485Y-111859190D01*
X120533463Y-111859203D01*
X120527261Y-111863708D01*
X120527261Y-111863709D01*
X121063553Y-112400000D01*
X121057339Y-112400000D01*
X120955606Y-112427259D01*
X120864394Y-112479920D01*
X120789920Y-112554394D01*
X120737259Y-112645606D01*
X120710000Y-112747339D01*
X120710000Y-112753552D01*
X120173709Y-112217261D01*
X120173708Y-112217261D01*
X120169203Y-112223463D01*
X120169193Y-112223480D01*
X120090592Y-112377740D01*
X120037085Y-112542415D01*
X120010000Y-112713428D01*
X120010000Y-112886571D01*
X120037085Y-113057584D01*
X120090591Y-113222257D01*
X120169195Y-113376524D01*
X120240462Y-113474615D01*
X120263941Y-113540422D01*
X120248115Y-113608475D01*
X120198009Y-113657170D01*
X120140143Y-113671500D01*
X114460475Y-113671500D01*
X114393436Y-113651815D01*
X114347681Y-113599011D01*
X114337737Y-113529853D01*
X114360157Y-113474614D01*
X114377509Y-113450731D01*
X114431232Y-113376788D01*
X114509873Y-113222445D01*
X114563402Y-113057701D01*
X114590500Y-112886611D01*
X114590500Y-112713389D01*
X114563402Y-112542299D01*
X114509873Y-112377555D01*
X114431232Y-112223212D01*
X114329414Y-112083072D01*
X114206928Y-111960586D01*
X114066788Y-111858768D01*
X113912445Y-111780127D01*
X113747701Y-111726598D01*
X113747699Y-111726597D01*
X113747698Y-111726597D01*
X113616271Y-111705781D01*
X113576611Y-111699500D01*
X113576610Y-111699500D01*
X113495610Y-111699500D01*
X113428571Y-111679815D01*
X113407929Y-111663181D01*
X111564265Y-109819517D01*
X111564263Y-109819515D01*
X111508500Y-109787320D01*
X111497796Y-109776094D01*
X111484081Y-109768857D01*
X111474181Y-109751327D01*
X111460286Y-109736754D01*
X111457350Y-109721523D01*
X111449724Y-109708018D01*
X111450873Y-109687915D01*
X111447064Y-109668146D01*
X111452884Y-109652765D01*
X111453714Y-109638262D01*
X111466838Y-109613389D01*
X112389500Y-109613389D01*
X112389500Y-109786611D01*
X112394712Y-109819517D01*
X112410757Y-109920827D01*
X112416598Y-109957701D01*
X112470127Y-110122445D01*
X112548768Y-110276788D01*
X112650586Y-110416928D01*
X112773072Y-110539414D01*
X112913212Y-110641232D01*
X113067555Y-110719873D01*
X113232299Y-110773402D01*
X113403389Y-110800500D01*
X113403390Y-110800500D01*
X113576610Y-110800500D01*
X113576611Y-110800500D01*
X113747701Y-110773402D01*
X113912445Y-110719873D01*
X114066788Y-110641232D01*
X114206928Y-110539414D01*
X114329414Y-110416928D01*
X114431232Y-110276788D01*
X114509873Y-110122445D01*
X114563402Y-109957701D01*
X114590500Y-109786611D01*
X114590500Y-109613389D01*
X114563402Y-109442299D01*
X114509873Y-109277555D01*
X114431232Y-109123212D01*
X114329414Y-108983072D01*
X114206928Y-108860586D01*
X114066788Y-108758768D01*
X113912445Y-108680127D01*
X113747701Y-108626598D01*
X113747699Y-108626597D01*
X113747698Y-108626597D01*
X113616271Y-108605781D01*
X113576611Y-108599500D01*
X113403389Y-108599500D01*
X113363728Y-108605781D01*
X113232302Y-108626597D01*
X113067552Y-108680128D01*
X112913211Y-108758768D01*
X112846310Y-108807375D01*
X112773072Y-108860586D01*
X112773070Y-108860588D01*
X112773069Y-108860588D01*
X112650588Y-108983069D01*
X112650588Y-108983070D01*
X112650586Y-108983072D01*
X112648135Y-108986446D01*
X112548768Y-109123211D01*
X112470128Y-109277552D01*
X112416597Y-109442302D01*
X112402233Y-109532993D01*
X112389500Y-109613389D01*
X111466838Y-109613389D01*
X111470183Y-109607050D01*
X111521232Y-109536788D01*
X111599873Y-109382445D01*
X111653402Y-109217701D01*
X111680500Y-109046611D01*
X111680500Y-108873389D01*
X111653402Y-108702299D01*
X111599873Y-108537555D01*
X111521232Y-108383212D01*
X111419414Y-108243072D01*
X111296928Y-108120586D01*
X111156788Y-108018768D01*
X111078312Y-107978783D01*
X111002447Y-107940128D01*
X111002446Y-107940127D01*
X111002445Y-107940127D01*
X110837701Y-107886598D01*
X110837699Y-107886597D01*
X110837698Y-107886597D01*
X110706271Y-107865781D01*
X110666611Y-107859500D01*
X110544610Y-107859500D01*
X110477571Y-107839815D01*
X110456929Y-107823181D01*
X110360278Y-107726530D01*
X110326793Y-107665207D01*
X110331777Y-107595515D01*
X110373649Y-107539582D01*
X110439113Y-107515165D01*
X110467347Y-107516375D01*
X110493389Y-107520500D01*
X110493394Y-107520500D01*
X110666610Y-107520500D01*
X110666611Y-107520500D01*
X110837701Y-107493402D01*
X111002445Y-107439873D01*
X111156788Y-107361232D01*
X111296928Y-107259414D01*
X111419414Y-107136928D01*
X111521232Y-106996788D01*
X111599873Y-106842445D01*
X111653402Y-106677701D01*
X111679426Y-106513389D01*
X112389500Y-106513389D01*
X112389500Y-106686610D01*
X112414181Y-106842445D01*
X112416598Y-106857701D01*
X112470127Y-107022445D01*
X112548768Y-107176788D01*
X112650586Y-107316928D01*
X112773072Y-107439414D01*
X112913212Y-107541232D01*
X113067555Y-107619873D01*
X113232299Y-107673402D01*
X113403389Y-107700500D01*
X113403390Y-107700500D01*
X113576610Y-107700500D01*
X113576611Y-107700500D01*
X113747701Y-107673402D01*
X113912445Y-107619873D01*
X114066788Y-107541232D01*
X114206928Y-107439414D01*
X114329414Y-107316928D01*
X114431232Y-107176788D01*
X114509873Y-107022445D01*
X114563402Y-106857701D01*
X114590500Y-106686611D01*
X114590500Y-106513389D01*
X114563402Y-106342299D01*
X114509873Y-106177555D01*
X114431232Y-106023212D01*
X114329414Y-105883072D01*
X114206928Y-105760586D01*
X114066788Y-105658768D01*
X113912445Y-105580127D01*
X113747701Y-105526598D01*
X113747699Y-105526597D01*
X113747698Y-105526597D01*
X113600881Y-105503344D01*
X113576611Y-105499500D01*
X113403389Y-105499500D01*
X113379119Y-105503344D01*
X113232302Y-105526597D01*
X113067552Y-105580128D01*
X112913211Y-105658768D01*
X112852233Y-105703072D01*
X112773072Y-105760586D01*
X112773070Y-105760588D01*
X112773069Y-105760588D01*
X112650588Y-105883069D01*
X112650588Y-105883070D01*
X112650586Y-105883072D01*
X112613636Y-105933929D01*
X112548768Y-106023211D01*
X112470128Y-106177552D01*
X112416597Y-106342302D01*
X112389500Y-106513389D01*
X111679426Y-106513389D01*
X111680500Y-106506611D01*
X111680500Y-106333389D01*
X111653402Y-106162299D01*
X111599873Y-105997555D01*
X111521232Y-105843212D01*
X111419414Y-105703072D01*
X111296928Y-105580586D01*
X111156788Y-105478768D01*
X111060301Y-105429606D01*
X111002447Y-105400128D01*
X111002446Y-105400127D01*
X111002445Y-105400127D01*
X110837701Y-105346598D01*
X110837699Y-105346597D01*
X110837698Y-105346597D01*
X110706271Y-105325781D01*
X110666611Y-105319500D01*
X110493389Y-105319500D01*
X110453728Y-105325781D01*
X110322302Y-105346597D01*
X110157552Y-105400128D01*
X110003211Y-105478768D01*
X109923857Y-105536423D01*
X109863072Y-105580586D01*
X109863070Y-105580588D01*
X109863069Y-105580588D01*
X109740588Y-105703069D01*
X109740588Y-105703070D01*
X109740586Y-105703072D01*
X109698798Y-105760588D01*
X109638768Y-105843211D01*
X109560128Y-105997552D01*
X109506597Y-106162302D01*
X109480388Y-106327783D01*
X109479500Y-106333389D01*
X109479500Y-106506611D01*
X109482979Y-106528576D01*
X109483623Y-106532642D01*
X109474668Y-106601936D01*
X109429672Y-106655388D01*
X109362920Y-106676027D01*
X109295607Y-106657302D01*
X109273469Y-106639721D01*
X108716819Y-106083071D01*
X108683334Y-106021748D01*
X108680500Y-105995390D01*
X108680500Y-104539098D01*
X108700185Y-104472059D01*
X108716819Y-104451417D01*
X108723189Y-104445047D01*
X108735520Y-104432716D01*
X108814577Y-104295784D01*
X108855500Y-104143057D01*
X108855500Y-103984943D01*
X108814577Y-103832216D01*
X108814573Y-103832209D01*
X108735524Y-103695290D01*
X108735518Y-103695282D01*
X108623717Y-103583481D01*
X108623709Y-103583475D01*
X108486790Y-103504426D01*
X108486786Y-103504424D01*
X108486784Y-103504423D01*
X108334057Y-103463500D01*
X108175943Y-103463500D01*
X108066139Y-103492922D01*
X108064228Y-103493434D01*
X107994378Y-103491771D01*
X107936516Y-103452608D01*
X107909012Y-103388380D01*
X107916781Y-103328169D01*
X107950642Y-103242302D01*
X107954877Y-103231564D01*
X107965500Y-103143102D01*
X107965500Y-102833500D01*
X107985185Y-102766461D01*
X108037989Y-102720706D01*
X108089500Y-102709500D01*
X109937672Y-102709500D01*
X110004711Y-102729185D01*
G37*
%TD.AperFunction*%
%TA.AperFunction,Conductor*%
G36*
X120147714Y-102729185D02*
G01*
X120193469Y-102781989D01*
X120203413Y-102851147D01*
X120180993Y-102906386D01*
X120168768Y-102923211D01*
X120090128Y-103077552D01*
X120036597Y-103242302D01*
X120009500Y-103413389D01*
X120009500Y-103586615D01*
X120025066Y-103684897D01*
X120016111Y-103754191D01*
X119990274Y-103791976D01*
X118323071Y-105459181D01*
X118261748Y-105492666D01*
X118235390Y-105495500D01*
X118208943Y-105495500D01*
X118056216Y-105536423D01*
X118056209Y-105536426D01*
X117919290Y-105615475D01*
X117919282Y-105615481D01*
X117807481Y-105727282D01*
X117807475Y-105727290D01*
X117728426Y-105864209D01*
X117728423Y-105864216D01*
X117687500Y-106016943D01*
X117687500Y-106175057D01*
X117710325Y-106260239D01*
X117728423Y-106327783D01*
X117728426Y-106327790D01*
X117807475Y-106464709D01*
X117807479Y-106464714D01*
X117807480Y-106464716D01*
X117919284Y-106576520D01*
X117919286Y-106576521D01*
X117919290Y-106576524D01*
X118014478Y-106631480D01*
X118056216Y-106655577D01*
X118208943Y-106696500D01*
X118208945Y-106696500D01*
X118367055Y-106696500D01*
X118367057Y-106696500D01*
X118519784Y-106655577D01*
X118656716Y-106576520D01*
X118768520Y-106464716D01*
X118777291Y-106449524D01*
X118779005Y-106446556D01*
X118813252Y-106387237D01*
X118847577Y-106327784D01*
X118888500Y-106175057D01*
X118888500Y-106148609D01*
X118908185Y-106081570D01*
X118924814Y-106060933D01*
X120476997Y-104508749D01*
X120538318Y-104475266D01*
X120608010Y-104480250D01*
X120620972Y-104485947D01*
X120687555Y-104519873D01*
X120852299Y-104573402D01*
X121023389Y-104600500D01*
X121023390Y-104600500D01*
X121196610Y-104600500D01*
X121196611Y-104600500D01*
X121367701Y-104573402D01*
X121393516Y-104565013D01*
X121463354Y-104563017D01*
X121519515Y-104595263D01*
X122858181Y-105933929D01*
X122891666Y-105995252D01*
X122894500Y-106021610D01*
X122894500Y-106048057D01*
X122929249Y-106177740D01*
X122935423Y-106200783D01*
X122935426Y-106200790D01*
X123014475Y-106337709D01*
X123014479Y-106337714D01*
X123014480Y-106337716D01*
X123126284Y-106449520D01*
X123126286Y-106449521D01*
X123126290Y-106449524D01*
X123225169Y-106506611D01*
X123263216Y-106528577D01*
X123415943Y-106569500D01*
X123415945Y-106569500D01*
X123574055Y-106569500D01*
X123574057Y-106569500D01*
X123726784Y-106528577D01*
X123863716Y-106449520D01*
X123975520Y-106337716D01*
X124054577Y-106200784D01*
X124095500Y-106048057D01*
X124095500Y-105889943D01*
X124054577Y-105737216D01*
X124034863Y-105703070D01*
X123975524Y-105600290D01*
X123975518Y-105600282D01*
X123863717Y-105488481D01*
X123863709Y-105488475D01*
X123726790Y-105409426D01*
X123726786Y-105409424D01*
X123726784Y-105409423D01*
X123574057Y-105368500D01*
X123574056Y-105368500D01*
X123547610Y-105368500D01*
X123480571Y-105348815D01*
X123459929Y-105332181D01*
X122164063Y-104036315D01*
X122130578Y-103974992D01*
X122133812Y-103910319D01*
X122183402Y-103757701D01*
X122210500Y-103586611D01*
X122210500Y-103413389D01*
X122183402Y-103242299D01*
X122129873Y-103077555D01*
X122051232Y-102923212D01*
X122039006Y-102906385D01*
X122015527Y-102840580D01*
X122031352Y-102772526D01*
X122081458Y-102723831D01*
X122139325Y-102709500D01*
X125177672Y-102709500D01*
X125244711Y-102729185D01*
X125290466Y-102781989D01*
X125300410Y-102851147D01*
X125271385Y-102914703D01*
X125246859Y-102935498D01*
X125247154Y-102935904D01*
X125243212Y-102938767D01*
X125243212Y-102938768D01*
X125103072Y-103040586D01*
X125103070Y-103040588D01*
X125103069Y-103040588D01*
X124980588Y-103163069D01*
X124980588Y-103163070D01*
X124980586Y-103163072D01*
X124936859Y-103223256D01*
X124878768Y-103303211D01*
X124800128Y-103457552D01*
X124746597Y-103622302D01*
X124725708Y-103754191D01*
X124719500Y-103793389D01*
X124719500Y-103966611D01*
X124746598Y-104137701D01*
X124800127Y-104302445D01*
X124878768Y-104456788D01*
X124980586Y-104596928D01*
X125103072Y-104719414D01*
X125243212Y-104821232D01*
X125397555Y-104899873D01*
X125562299Y-104953402D01*
X125733389Y-104980500D01*
X125733390Y-104980500D01*
X125906610Y-104980500D01*
X125906611Y-104980500D01*
X126077701Y-104953402D01*
X126242445Y-104899873D01*
X126396788Y-104821232D01*
X126430614Y-104796655D01*
X126496419Y-104773175D01*
X126564473Y-104788999D01*
X126613169Y-104839104D01*
X126627500Y-104896973D01*
X126627500Y-105403026D01*
X126607815Y-105470065D01*
X126555011Y-105515820D01*
X126485853Y-105525764D01*
X126430615Y-105503344D01*
X126396791Y-105478770D01*
X126396790Y-105478769D01*
X126396788Y-105478768D01*
X126242445Y-105400127D01*
X126077701Y-105346598D01*
X126077699Y-105346597D01*
X126077698Y-105346597D01*
X125946271Y-105325781D01*
X125906611Y-105319500D01*
X125733389Y-105319500D01*
X125693728Y-105325781D01*
X125562302Y-105346597D01*
X125397552Y-105400128D01*
X125243211Y-105478768D01*
X125163857Y-105536423D01*
X125103072Y-105580586D01*
X125103070Y-105580588D01*
X125103069Y-105580588D01*
X124980588Y-105703069D01*
X124980588Y-105703070D01*
X124980586Y-105703072D01*
X124938798Y-105760588D01*
X124878768Y-105843211D01*
X124800128Y-105997552D01*
X124746597Y-106162302D01*
X124720388Y-106327783D01*
X124719500Y-106333389D01*
X124719500Y-106506611D01*
X124722979Y-106528576D01*
X124744873Y-106666815D01*
X124746598Y-106677701D01*
X124800127Y-106842445D01*
X124878768Y-106996788D01*
X124980586Y-107136928D01*
X125103072Y-107259414D01*
X125243212Y-107361232D01*
X125397555Y-107439873D01*
X125562299Y-107493402D01*
X125733389Y-107520500D01*
X125733390Y-107520500D01*
X125906610Y-107520500D01*
X125906611Y-107520500D01*
X126077701Y-107493402D01*
X126242445Y-107439873D01*
X126396788Y-107361232D01*
X126430614Y-107336655D01*
X126496419Y-107313175D01*
X126564473Y-107328999D01*
X126613169Y-107379104D01*
X126627500Y-107436973D01*
X126627500Y-107943026D01*
X126607815Y-108010065D01*
X126555011Y-108055820D01*
X126485853Y-108065764D01*
X126430615Y-108043344D01*
X126396791Y-108018770D01*
X126396790Y-108018769D01*
X126396788Y-108018768D01*
X126242445Y-107940127D01*
X126077701Y-107886598D01*
X126077699Y-107886597D01*
X126077698Y-107886597D01*
X125946271Y-107865781D01*
X125906611Y-107859500D01*
X125733389Y-107859500D01*
X125693728Y-107865781D01*
X125562302Y-107886597D01*
X125397552Y-107940128D01*
X125243211Y-108018768D01*
X125230754Y-108027819D01*
X125103072Y-108120586D01*
X125103070Y-108120588D01*
X125103069Y-108120588D01*
X124980588Y-108243069D01*
X124980588Y-108243070D01*
X124980586Y-108243072D01*
X124945332Y-108291595D01*
X124878768Y-108383211D01*
X124800128Y-108537552D01*
X124746597Y-108702302D01*
X124729849Y-108808046D01*
X124719500Y-108873389D01*
X124719500Y-109046611D01*
X124725152Y-109082299D01*
X124744109Y-109201990D01*
X124746598Y-109217701D01*
X124783583Y-109331529D01*
X124800128Y-109382447D01*
X124823896Y-109429095D01*
X124878768Y-109536788D01*
X124980586Y-109676928D01*
X125103072Y-109799414D01*
X125243212Y-109901232D01*
X125397555Y-109979873D01*
X125562299Y-110033402D01*
X125733389Y-110060500D01*
X125733390Y-110060500D01*
X125906610Y-110060500D01*
X125906611Y-110060500D01*
X126077701Y-110033402D01*
X126242445Y-109979873D01*
X126396788Y-109901232D01*
X126430614Y-109876655D01*
X126496419Y-109853175D01*
X126564473Y-109868999D01*
X126613169Y-109919104D01*
X126627500Y-109976973D01*
X126627500Y-110483026D01*
X126607815Y-110550065D01*
X126555011Y-110595820D01*
X126485853Y-110605764D01*
X126430615Y-110583344D01*
X126396791Y-110558770D01*
X126396790Y-110558769D01*
X126396788Y-110558768D01*
X126242445Y-110480127D01*
X126077701Y-110426598D01*
X126077699Y-110426597D01*
X126077698Y-110426597D01*
X125934802Y-110403965D01*
X125906611Y-110399500D01*
X125733389Y-110399500D01*
X125705198Y-110403965D01*
X125562302Y-110426597D01*
X125397552Y-110480128D01*
X125243211Y-110558768D01*
X125192214Y-110595820D01*
X125103072Y-110660586D01*
X125103070Y-110660588D01*
X125103069Y-110660588D01*
X124980588Y-110783069D01*
X124980588Y-110783070D01*
X124980586Y-110783072D01*
X124944864Y-110832239D01*
X124878768Y-110923211D01*
X124800128Y-111077552D01*
X124746597Y-111242302D01*
X124719500Y-111413389D01*
X124719500Y-111584390D01*
X124699815Y-111651429D01*
X124683181Y-111672071D01*
X122720071Y-113635181D01*
X122658748Y-113668666D01*
X122632390Y-113671500D01*
X122079857Y-113671500D01*
X122012818Y-113651815D01*
X121967063Y-113599011D01*
X121957119Y-113529853D01*
X121979538Y-113474615D01*
X122050804Y-113376524D01*
X122129408Y-113222257D01*
X122182913Y-113057584D01*
X122208332Y-112897102D01*
X122238261Y-112833967D01*
X122297573Y-112797036D01*
X122330805Y-112792500D01*
X122431055Y-112792500D01*
X122431057Y-112792500D01*
X122583784Y-112751577D01*
X122720716Y-112672520D01*
X122832520Y-112560716D01*
X122911577Y-112423784D01*
X122952500Y-112271057D01*
X122952500Y-112112943D01*
X122911577Y-111960216D01*
X122875360Y-111897485D01*
X122832524Y-111823290D01*
X122832518Y-111823282D01*
X122720717Y-111711481D01*
X122720709Y-111711475D01*
X122583790Y-111632426D01*
X122583786Y-111632424D01*
X122583784Y-111632423D01*
X122431057Y-111591500D01*
X122431056Y-111591500D01*
X122404610Y-111591500D01*
X122337571Y-111571815D01*
X122316929Y-111555181D01*
X121978265Y-111216517D01*
X121978263Y-111216515D01*
X121881237Y-111160497D01*
X121773018Y-111131500D01*
X121773017Y-111131500D01*
X121309610Y-111131500D01*
X121242571Y-111111815D01*
X121221929Y-111095181D01*
X121136161Y-111009413D01*
X121102676Y-110948090D01*
X121107660Y-110878398D01*
X121149532Y-110822465D01*
X121204442Y-110799259D01*
X121367701Y-110773402D01*
X121532445Y-110719873D01*
X121686788Y-110641232D01*
X121826928Y-110539414D01*
X121949414Y-110416928D01*
X122051232Y-110276788D01*
X122129873Y-110122445D01*
X122183402Y-109957701D01*
X122210500Y-109786611D01*
X122210500Y-109776610D01*
X122230185Y-109709571D01*
X122282989Y-109663816D01*
X122352147Y-109653872D01*
X122415703Y-109682897D01*
X122422181Y-109688929D01*
X122477181Y-109743929D01*
X122510666Y-109805252D01*
X122513500Y-109831610D01*
X122513500Y-109858057D01*
X122547359Y-109984418D01*
X122554423Y-110010783D01*
X122554426Y-110010790D01*
X122633475Y-110147709D01*
X122633479Y-110147714D01*
X122633480Y-110147716D01*
X122745284Y-110259520D01*
X122745286Y-110259521D01*
X122745290Y-110259524D01*
X122837506Y-110312764D01*
X122882216Y-110338577D01*
X123034943Y-110379500D01*
X123034945Y-110379500D01*
X123193055Y-110379500D01*
X123193057Y-110379500D01*
X123345784Y-110338577D01*
X123482716Y-110259520D01*
X123594520Y-110147716D01*
X123673577Y-110010784D01*
X123714500Y-109858057D01*
X123714500Y-109699943D01*
X123673577Y-109547216D01*
X123667558Y-109536791D01*
X123594524Y-109410290D01*
X123594518Y-109410282D01*
X123482717Y-109298481D01*
X123482709Y-109298475D01*
X123345790Y-109219426D01*
X123345786Y-109219424D01*
X123345784Y-109219423D01*
X123193057Y-109178500D01*
X123193056Y-109178500D01*
X123166610Y-109178500D01*
X123099571Y-109158815D01*
X123078929Y-109142181D01*
X121851265Y-107914517D01*
X121851263Y-107914515D01*
X121756007Y-107859519D01*
X121754239Y-107858498D01*
X121754238Y-107858497D01*
X121684514Y-107839815D01*
X121659965Y-107833237D01*
X121604380Y-107801144D01*
X121580325Y-107777089D01*
X121546840Y-107715766D01*
X121551824Y-107646074D01*
X121593696Y-107590141D01*
X121611712Y-107578923D01*
X121686521Y-107540806D01*
X121686525Y-107540803D01*
X121692736Y-107536289D01*
X121692737Y-107536289D01*
X121156448Y-107000000D01*
X121162661Y-107000000D01*
X121264394Y-106972741D01*
X121355606Y-106920080D01*
X121430080Y-106845606D01*
X121482741Y-106754394D01*
X121510000Y-106652661D01*
X121510000Y-106646447D01*
X122046289Y-107182736D01*
X122050803Y-107176525D01*
X122129408Y-107022257D01*
X122182914Y-106857584D01*
X122210000Y-106686571D01*
X122210000Y-106513428D01*
X122182914Y-106342415D01*
X122129408Y-106177742D01*
X122050801Y-106023471D01*
X122046290Y-106017262D01*
X122046289Y-106017261D01*
X121510000Y-106553551D01*
X121510000Y-106547339D01*
X121482741Y-106445606D01*
X121430080Y-106354394D01*
X121355606Y-106279920D01*
X121264394Y-106227259D01*
X121162661Y-106200000D01*
X121156447Y-106200000D01*
X121692737Y-105663709D01*
X121686525Y-105659196D01*
X121532259Y-105580592D01*
X121367584Y-105527085D01*
X121196571Y-105500000D01*
X121023429Y-105500000D01*
X120852415Y-105527085D01*
X120687740Y-105580592D01*
X120533480Y-105659193D01*
X120533463Y-105659203D01*
X120527261Y-105663708D01*
X120527261Y-105663709D01*
X121063554Y-106200000D01*
X121057339Y-106200000D01*
X120955606Y-106227259D01*
X120864394Y-106279920D01*
X120789920Y-106354394D01*
X120737259Y-106445606D01*
X120710000Y-106547339D01*
X120710000Y-106553552D01*
X120173709Y-106017261D01*
X120173708Y-106017261D01*
X120169203Y-106023463D01*
X120169193Y-106023480D01*
X120090592Y-106177740D01*
X120037085Y-106342415D01*
X120010000Y-106513428D01*
X120010000Y-106686571D01*
X120037085Y-106857584D01*
X120090592Y-107022259D01*
X120169196Y-107176525D01*
X120173709Y-107182736D01*
X120173709Y-107182737D01*
X120710000Y-106646446D01*
X120710000Y-106652661D01*
X120737259Y-106754394D01*
X120789920Y-106845606D01*
X120864394Y-106920080D01*
X120955606Y-106972741D01*
X121057339Y-107000000D01*
X121063553Y-107000000D01*
X120527261Y-107536289D01*
X120527262Y-107536290D01*
X120533471Y-107540801D01*
X120687742Y-107619408D01*
X120727472Y-107632317D01*
X120785147Y-107671755D01*
X120812345Y-107736114D01*
X120800430Y-107804960D01*
X120776835Y-107837928D01*
X120728481Y-107886282D01*
X120728475Y-107886290D01*
X120649426Y-108023209D01*
X120649423Y-108023216D01*
X120608500Y-108175943D01*
X120608500Y-108334057D01*
X120644928Y-108470006D01*
X120649423Y-108486783D01*
X120649423Y-108486784D01*
X120679009Y-108538029D01*
X120695480Y-108605929D01*
X120672628Y-108671956D01*
X120627917Y-108710512D01*
X120533214Y-108758766D01*
X120479196Y-108798013D01*
X120393072Y-108860586D01*
X120393070Y-108860588D01*
X120393069Y-108860588D01*
X120270588Y-108983069D01*
X120270588Y-108983070D01*
X120270586Y-108983072D01*
X120268135Y-108986446D01*
X120168768Y-109123211D01*
X120090128Y-109277552D01*
X120036597Y-109442302D01*
X120010740Y-109605555D01*
X119980811Y-109668690D01*
X119921499Y-109705621D01*
X119851636Y-109704623D01*
X119800586Y-109673838D01*
X114410302Y-104283554D01*
X114376817Y-104222231D01*
X114381801Y-104152539D01*
X114397663Y-104122989D01*
X114431232Y-104076788D01*
X114509873Y-103922445D01*
X114563402Y-103757701D01*
X114590500Y-103586611D01*
X114590500Y-103413389D01*
X114563402Y-103242299D01*
X114509873Y-103077555D01*
X114431232Y-102923212D01*
X114419006Y-102906385D01*
X114395527Y-102840580D01*
X114411352Y-102772526D01*
X114461458Y-102723831D01*
X114519325Y-102709500D01*
X120080675Y-102709500D01*
X120147714Y-102729185D01*
G37*
%TD.AperFunction*%
%TA.AperFunction,Conductor*%
G36*
X131480049Y-108192185D02*
G01*
X131525804Y-108244989D01*
X131535748Y-108314147D01*
X131506723Y-108377703D01*
X131485896Y-108396818D01*
X131483212Y-108398767D01*
X131483212Y-108398768D01*
X131343072Y-108500586D01*
X131343070Y-108500588D01*
X131343069Y-108500588D01*
X131220588Y-108623069D01*
X131220588Y-108623070D01*
X131220586Y-108623072D01*
X131185070Y-108671956D01*
X131118768Y-108763211D01*
X131040128Y-108917552D01*
X130986597Y-109082302D01*
X130961973Y-109237774D01*
X130959500Y-109253389D01*
X130959500Y-109426611D01*
X130986598Y-109597701D01*
X131040127Y-109762445D01*
X131118768Y-109916788D01*
X131120093Y-109918612D01*
X131120383Y-109919426D01*
X131121314Y-109920944D01*
X131120995Y-109921139D01*
X131143575Y-109984417D01*
X131127752Y-110052471D01*
X131077648Y-110101168D01*
X131019777Y-110115500D01*
X130559604Y-110115500D01*
X130492565Y-110095815D01*
X130446810Y-110043011D01*
X130436866Y-109973853D01*
X130458410Y-109920774D01*
X130458258Y-109920681D01*
X130458821Y-109919761D01*
X130459288Y-109918612D01*
X130460802Y-109916527D01*
X130539408Y-109762257D01*
X130592914Y-109597584D01*
X130620000Y-109426571D01*
X130620000Y-109253428D01*
X130592914Y-109082415D01*
X130539408Y-108917742D01*
X130460801Y-108763471D01*
X130456290Y-108757262D01*
X130456289Y-108757261D01*
X130002962Y-109210589D01*
X129985925Y-109147007D01*
X129920099Y-109032993D01*
X129827007Y-108939901D01*
X129712993Y-108874075D01*
X129649409Y-108857037D01*
X130102737Y-108403709D01*
X130102736Y-108403708D01*
X130093255Y-108396820D01*
X130050587Y-108341492D01*
X130044606Y-108271879D01*
X130077210Y-108210083D01*
X130138048Y-108175723D01*
X130166137Y-108172500D01*
X131413010Y-108172500D01*
X131480049Y-108192185D01*
G37*
%TD.AperFunction*%
%TA.AperFunction,Conductor*%
G36*
X137740902Y-108192185D02*
G01*
X137786657Y-108244989D01*
X137796601Y-108314147D01*
X137767576Y-108377703D01*
X137746738Y-108396826D01*
X137737261Y-108403709D01*
X138190590Y-108857037D01*
X138127007Y-108874075D01*
X138012993Y-108939901D01*
X137919901Y-109032993D01*
X137854075Y-109147007D01*
X137837037Y-109210590D01*
X137383709Y-108757261D01*
X137383708Y-108757261D01*
X137379203Y-108763463D01*
X137379193Y-108763480D01*
X137300592Y-108917740D01*
X137247085Y-109082415D01*
X137220000Y-109253428D01*
X137220000Y-109426571D01*
X137247085Y-109597584D01*
X137300591Y-109762257D01*
X137379197Y-109916527D01*
X137380712Y-109918612D01*
X137381043Y-109919541D01*
X137381742Y-109920681D01*
X137381502Y-109920827D01*
X137404194Y-109984418D01*
X137388370Y-110052472D01*
X137338265Y-110101168D01*
X137280396Y-110115500D01*
X136295609Y-110115500D01*
X136228570Y-110095815D01*
X136207928Y-110079181D01*
X135736818Y-109608071D01*
X135703333Y-109546748D01*
X135700499Y-109520390D01*
X135700499Y-108495143D01*
X135700499Y-108495136D01*
X135700497Y-108495117D01*
X135697586Y-108470012D01*
X135697585Y-108470010D01*
X135697585Y-108470009D01*
X135652206Y-108367235D01*
X135652204Y-108367233D01*
X135651756Y-108366579D01*
X135651304Y-108365192D01*
X135647565Y-108356724D01*
X135648421Y-108356345D01*
X135630108Y-108300148D01*
X135647812Y-108232558D01*
X135699247Y-108185270D01*
X135754054Y-108172500D01*
X137673863Y-108172500D01*
X137740902Y-108192185D01*
G37*
%TD.AperFunction*%
%TA.AperFunction,Conductor*%
G36*
X140280049Y-108192185D02*
G01*
X140325804Y-108244989D01*
X140335748Y-108314147D01*
X140306723Y-108377703D01*
X140285896Y-108396818D01*
X140283212Y-108398767D01*
X140283212Y-108398768D01*
X140143072Y-108500586D01*
X140143070Y-108500588D01*
X140143069Y-108500588D01*
X140020588Y-108623069D01*
X140020588Y-108623070D01*
X140020586Y-108623072D01*
X139985070Y-108671956D01*
X139918768Y-108763211D01*
X139840128Y-108917552D01*
X139786597Y-109082302D01*
X139761973Y-109237774D01*
X139759500Y-109253389D01*
X139759500Y-109426611D01*
X139786598Y-109597701D01*
X139840127Y-109762445D01*
X139918768Y-109916788D01*
X139920093Y-109918612D01*
X139920383Y-109919426D01*
X139921314Y-109920944D01*
X139920995Y-109921139D01*
X139943575Y-109984417D01*
X139927752Y-110052471D01*
X139877648Y-110101168D01*
X139819777Y-110115500D01*
X139359604Y-110115500D01*
X139292565Y-110095815D01*
X139246810Y-110043011D01*
X139236866Y-109973853D01*
X139258410Y-109920774D01*
X139258258Y-109920681D01*
X139258821Y-109919761D01*
X139259288Y-109918612D01*
X139260802Y-109916527D01*
X139339408Y-109762257D01*
X139392914Y-109597584D01*
X139420000Y-109426571D01*
X139420000Y-109253428D01*
X139392914Y-109082415D01*
X139339408Y-108917742D01*
X139260801Y-108763471D01*
X139256290Y-108757262D01*
X139256289Y-108757261D01*
X138802962Y-109210589D01*
X138785925Y-109147007D01*
X138720099Y-109032993D01*
X138627007Y-108939901D01*
X138512993Y-108874075D01*
X138449409Y-108857037D01*
X138902737Y-108403709D01*
X138902736Y-108403708D01*
X138893255Y-108396820D01*
X138850587Y-108341492D01*
X138844606Y-108271879D01*
X138877210Y-108210083D01*
X138938048Y-108175723D01*
X138966137Y-108172500D01*
X140213010Y-108172500D01*
X140280049Y-108192185D01*
G37*
%TD.AperFunction*%
%TA.AperFunction,Conductor*%
G36*
X137685429Y-101842185D02*
G01*
X137706071Y-101858819D01*
X143875071Y-108027819D01*
X143908556Y-108089142D01*
X143903572Y-108158834D01*
X143861700Y-108214767D01*
X143796236Y-108239184D01*
X143787390Y-108239500D01*
X142674610Y-108239500D01*
X142607571Y-108219815D01*
X142586929Y-108203181D01*
X141790265Y-107406517D01*
X141790263Y-107406515D01*
X141693237Y-107350497D01*
X141585018Y-107321500D01*
X141585017Y-107321500D01*
X129304098Y-107321500D01*
X129237059Y-107301815D01*
X129216417Y-107285181D01*
X129197717Y-107266481D01*
X129197709Y-107266475D01*
X129060790Y-107187426D01*
X129060786Y-107187424D01*
X129060784Y-107187423D01*
X128908057Y-107146500D01*
X128749943Y-107146500D01*
X128597216Y-107187423D01*
X128597209Y-107187426D01*
X128460290Y-107266475D01*
X128460282Y-107266481D01*
X128348481Y-107378282D01*
X128348475Y-107378290D01*
X128269426Y-107515209D01*
X128269423Y-107515216D01*
X128228500Y-107667943D01*
X128228500Y-107826057D01*
X128260367Y-107944984D01*
X128269423Y-107978783D01*
X128269426Y-107978790D01*
X128348475Y-108115709D01*
X128348479Y-108115714D01*
X128348480Y-108115716D01*
X128460284Y-108227520D01*
X128460286Y-108227521D01*
X128460290Y-108227524D01*
X128597209Y-108306573D01*
X128597216Y-108306577D01*
X128749943Y-108347500D01*
X128749945Y-108347500D01*
X128829690Y-108347500D01*
X128896729Y-108367185D01*
X128917371Y-108383819D01*
X129390590Y-108857037D01*
X129327007Y-108874075D01*
X129212993Y-108939901D01*
X129119901Y-109032993D01*
X129054075Y-109147007D01*
X129037037Y-109210590D01*
X128583709Y-108757261D01*
X128583708Y-108757261D01*
X128579203Y-108763463D01*
X128579193Y-108763480D01*
X128500592Y-108917740D01*
X128447085Y-109082415D01*
X128422479Y-109237774D01*
X128392550Y-109300909D01*
X128333238Y-109337840D01*
X128267913Y-109338151D01*
X128223090Y-109326141D01*
X128146057Y-109305500D01*
X127987943Y-109305500D01*
X127884593Y-109333192D01*
X127814743Y-109331529D01*
X127756881Y-109292366D01*
X127729377Y-109228137D01*
X127728500Y-109213417D01*
X127728500Y-103102527D01*
X127728500Y-103102525D01*
X127690984Y-102962515D01*
X127677274Y-102938768D01*
X127675620Y-102935904D01*
X127618512Y-102836988D01*
X127618508Y-102836983D01*
X126815706Y-102034181D01*
X126782221Y-101972858D01*
X126787205Y-101903166D01*
X126829077Y-101847233D01*
X126894541Y-101822816D01*
X126903387Y-101822500D01*
X137618390Y-101822500D01*
X137685429Y-101842185D01*
G37*
%TD.AperFunction*%
%TA.AperFunction,Conductor*%
G36*
X107040000Y-105650000D02*
G01*
X107153643Y-105650000D01*
X107153646Y-105649999D01*
X107327512Y-105615415D01*
X107327520Y-105615413D01*
X107491307Y-105547571D01*
X107491316Y-105547566D01*
X107636609Y-105450484D01*
X107703286Y-105429606D01*
X107770666Y-105448090D01*
X107817357Y-105500069D01*
X107829500Y-105553586D01*
X107829500Y-106166982D01*
X107829500Y-106279018D01*
X107858497Y-106387237D01*
X107914515Y-106484263D01*
X107914517Y-106484265D01*
X109637394Y-108207142D01*
X109670879Y-108268465D01*
X109665895Y-108338157D01*
X109650034Y-108367704D01*
X109638770Y-108383208D01*
X109560128Y-108537552D01*
X109506597Y-108702302D01*
X109482244Y-108856060D01*
X109452315Y-108919195D01*
X109393003Y-108956126D01*
X109323140Y-108955128D01*
X109272090Y-108924343D01*
X106180369Y-105832621D01*
X106146884Y-105771298D01*
X106151868Y-105701606D01*
X106193740Y-105645673D01*
X106259204Y-105621256D01*
X106292241Y-105623323D01*
X106426354Y-105649999D01*
X106426357Y-105650000D01*
X106540000Y-105650000D01*
X106540000Y-105030330D01*
X106559745Y-105050075D01*
X106645255Y-105099444D01*
X106740630Y-105125000D01*
X106839370Y-105125000D01*
X106934745Y-105099444D01*
X107020255Y-105050075D01*
X107040000Y-105030330D01*
X107040000Y-105650000D01*
G37*
%TD.AperFunction*%
%TD*%
M02*
