%TF.GenerationSoftware,KiCad,Pcbnew,10.0.6*%
%TF.CreationDate,2026-09-27T08:23:23-04:00*%
%TF.ProjectId,iwand,6977616e-642e-46b6-9963-61645f706362,rev?*%
%TF.SameCoordinates,Original*%
%TF.FileFunction,Legend,Bot*%
%TF.FilePolarity,Positive*%
%FSLAX46Y46*%
G04 Gerber Fmt 4.6, Leading zero omitted, Abs format (unit mm)*
G04 Created by KiCad (PCBNEW 10.0.6) date 2026-09-27 08:23:23*
%MOMM*%
%LPD*%
G01*
G04 APERTURE LIST*
G04 Aperture macros list*
%AMRoundRect*
0 Rectangle with rounded corners*
0 $1 Rounding radius*
0 $2 $3 $4 $5 $6 $7 $8 $9 X,Y pos of 4 corners*
0 Add a 4 corners polygon primitive as box body*
4,1,4,$2,$3,$4,$5,$6,$7,$8,$9,$2,$3,0*
0 Add four circle primitives for the rounded corners*
1,1,$1+$1,$2,$3*
1,1,$1+$1,$4,$5*
1,1,$1+$1,$6,$7*
1,1,$1+$1,$8,$9*
0 Add four rect primitives between the rounded corners*
20,1,$1+$1,$2,$3,$4,$5,0*
20,1,$1+$1,$4,$5,$6,$7,0*
20,1,$1+$1,$6,$7,$8,$9,0*
20,1,$1+$1,$8,$9,$2,$3,0*%
G04 Aperture macros list end*
%ADD10C,0.120000*%
%ADD11C,0.150000*%
%ADD12RoundRect,0.250000X-0.625000X0.350000X-0.625000X-0.350000X0.625000X-0.350000X0.625000X0.350000X0*%
%ADD13O,1.750000X1.200000*%
%ADD14C,1.600000*%
%ADD15O,2.200000X3.500000*%
%ADD16R,1.500000X2.500000*%
%ADD17O,1.500000X2.500000*%
%ADD18RoundRect,0.250000X0.625000X-0.350000X0.625000X0.350000X-0.625000X0.350000X-0.625000X-0.350000X0*%
%ADD19R,1.600000X1.600000*%
%ADD20R,1.700000X1.700000*%
%ADD21C,1.700000*%
G04 APERTURE END LIST*
D10*
X103790476Y-103694807D02*
X103676190Y-103732902D01*
X103676190Y-103732902D02*
X103638095Y-103770998D01*
X103638095Y-103770998D02*
X103599999Y-103847188D01*
X103599999Y-103847188D02*
X103599999Y-103961474D01*
X103599999Y-103961474D02*
X103638095Y-104037664D01*
X103638095Y-104037664D02*
X103676190Y-104075760D01*
X103676190Y-104075760D02*
X103752380Y-104113855D01*
X103752380Y-104113855D02*
X104057142Y-104113855D01*
X104057142Y-104113855D02*
X104057142Y-103313855D01*
X104057142Y-103313855D02*
X103790476Y-103313855D01*
X103790476Y-103313855D02*
X103714285Y-103351950D01*
X103714285Y-103351950D02*
X103676190Y-103390045D01*
X103676190Y-103390045D02*
X103638095Y-103466236D01*
X103638095Y-103466236D02*
X103638095Y-103542426D01*
X103638095Y-103542426D02*
X103676190Y-103618617D01*
X103676190Y-103618617D02*
X103714285Y-103656712D01*
X103714285Y-103656712D02*
X103790476Y-103694807D01*
X103790476Y-103694807D02*
X104057142Y-103694807D01*
X103295238Y-103885283D02*
X102914285Y-103885283D01*
X103371428Y-104113855D02*
X103104761Y-103313855D01*
X103104761Y-103313855D02*
X102838095Y-104113855D01*
X102685714Y-103313855D02*
X102228571Y-103313855D01*
X102457143Y-104113855D02*
X102457143Y-103313855D01*
X104228571Y-111325760D02*
X104114285Y-111363855D01*
X104114285Y-111363855D02*
X103923809Y-111363855D01*
X103923809Y-111363855D02*
X103847618Y-111325760D01*
X103847618Y-111325760D02*
X103809523Y-111287664D01*
X103809523Y-111287664D02*
X103771428Y-111211474D01*
X103771428Y-111211474D02*
X103771428Y-111135283D01*
X103771428Y-111135283D02*
X103809523Y-111059093D01*
X103809523Y-111059093D02*
X103847618Y-111020998D01*
X103847618Y-111020998D02*
X103923809Y-110982902D01*
X103923809Y-110982902D02*
X104076190Y-110944807D01*
X104076190Y-110944807D02*
X104152380Y-110906712D01*
X104152380Y-110906712D02*
X104190475Y-110868617D01*
X104190475Y-110868617D02*
X104228571Y-110792426D01*
X104228571Y-110792426D02*
X104228571Y-110716236D01*
X104228571Y-110716236D02*
X104190475Y-110640045D01*
X104190475Y-110640045D02*
X104152380Y-110601950D01*
X104152380Y-110601950D02*
X104076190Y-110563855D01*
X104076190Y-110563855D02*
X103885713Y-110563855D01*
X103885713Y-110563855D02*
X103771428Y-110601950D01*
X103428570Y-111363855D02*
X103428570Y-110563855D01*
X103428570Y-110563855D02*
X103123808Y-110563855D01*
X103123808Y-110563855D02*
X103047618Y-110601950D01*
X103047618Y-110601950D02*
X103009523Y-110640045D01*
X103009523Y-110640045D02*
X102971427Y-110716236D01*
X102971427Y-110716236D02*
X102971427Y-110830521D01*
X102971427Y-110830521D02*
X103009523Y-110906712D01*
X103009523Y-110906712D02*
X103047618Y-110944807D01*
X103047618Y-110944807D02*
X103123808Y-110982902D01*
X103123808Y-110982902D02*
X103428570Y-110982902D01*
X102628570Y-111363855D02*
X102628570Y-110563855D01*
X102171427Y-111363855D02*
X102514285Y-110906712D01*
X102171427Y-110563855D02*
X102628570Y-111020998D01*
X103866666Y-118194807D02*
X103752380Y-118232902D01*
X103752380Y-118232902D02*
X103714285Y-118270998D01*
X103714285Y-118270998D02*
X103676189Y-118347188D01*
X103676189Y-118347188D02*
X103676189Y-118461474D01*
X103676189Y-118461474D02*
X103714285Y-118537664D01*
X103714285Y-118537664D02*
X103752380Y-118575760D01*
X103752380Y-118575760D02*
X103828570Y-118613855D01*
X103828570Y-118613855D02*
X104133332Y-118613855D01*
X104133332Y-118613855D02*
X104133332Y-117813855D01*
X104133332Y-117813855D02*
X103866666Y-117813855D01*
X103866666Y-117813855D02*
X103790475Y-117851950D01*
X103790475Y-117851950D02*
X103752380Y-117890045D01*
X103752380Y-117890045D02*
X103714285Y-117966236D01*
X103714285Y-117966236D02*
X103714285Y-118042426D01*
X103714285Y-118042426D02*
X103752380Y-118118617D01*
X103752380Y-118118617D02*
X103790475Y-118156712D01*
X103790475Y-118156712D02*
X103866666Y-118194807D01*
X103866666Y-118194807D02*
X104133332Y-118194807D01*
X103447618Y-117813855D02*
X102990475Y-117813855D01*
X103219047Y-118613855D02*
X103219047Y-117813855D01*
X102723808Y-118613855D02*
X102723808Y-117813855D01*
X102723808Y-117813855D02*
X102266665Y-118613855D01*
X102266665Y-118613855D02*
X102266665Y-117813855D01*
X133441428Y-111363855D02*
X132908094Y-112163855D01*
X132908094Y-111363855D02*
X133441428Y-112163855D01*
X132603332Y-112163855D02*
X132603332Y-111363855D01*
X132260476Y-111935283D02*
X131879523Y-111935283D01*
X132336666Y-112163855D02*
X132069999Y-111363855D01*
X132069999Y-111363855D02*
X131803333Y-112163855D01*
X131384285Y-111363855D02*
X131231904Y-111363855D01*
X131231904Y-111363855D02*
X131155714Y-111401950D01*
X131155714Y-111401950D02*
X131079523Y-111478140D01*
X131079523Y-111478140D02*
X131041428Y-111630521D01*
X131041428Y-111630521D02*
X131041428Y-111897188D01*
X131041428Y-111897188D02*
X131079523Y-112049569D01*
X131079523Y-112049569D02*
X131155714Y-112125760D01*
X131155714Y-112125760D02*
X131231904Y-112163855D01*
X131231904Y-112163855D02*
X131384285Y-112163855D01*
X131384285Y-112163855D02*
X131460476Y-112125760D01*
X131460476Y-112125760D02*
X131536666Y-112049569D01*
X131536666Y-112049569D02*
X131574762Y-111897188D01*
X131574762Y-111897188D02*
X131574762Y-111630521D01*
X131574762Y-111630521D02*
X131536666Y-111478140D01*
X131536666Y-111478140D02*
X131460476Y-111401950D01*
X131460476Y-111401950D02*
X131384285Y-111363855D01*
X129822381Y-111744807D02*
X129708095Y-111782902D01*
X129708095Y-111782902D02*
X129670000Y-111820998D01*
X129670000Y-111820998D02*
X129631904Y-111897188D01*
X129631904Y-111897188D02*
X129631904Y-112011474D01*
X129631904Y-112011474D02*
X129670000Y-112087664D01*
X129670000Y-112087664D02*
X129708095Y-112125760D01*
X129708095Y-112125760D02*
X129784285Y-112163855D01*
X129784285Y-112163855D02*
X130089047Y-112163855D01*
X130089047Y-112163855D02*
X130089047Y-111363855D01*
X130089047Y-111363855D02*
X129822381Y-111363855D01*
X129822381Y-111363855D02*
X129746190Y-111401950D01*
X129746190Y-111401950D02*
X129708095Y-111440045D01*
X129708095Y-111440045D02*
X129670000Y-111516236D01*
X129670000Y-111516236D02*
X129670000Y-111592426D01*
X129670000Y-111592426D02*
X129708095Y-111668617D01*
X129708095Y-111668617D02*
X129746190Y-111706712D01*
X129746190Y-111706712D02*
X129822381Y-111744807D01*
X129822381Y-111744807D02*
X130089047Y-111744807D01*
X129327143Y-111935283D02*
X128946190Y-111935283D01*
X129403333Y-112163855D02*
X129136666Y-111363855D01*
X129136666Y-111363855D02*
X128870000Y-112163855D01*
X128717619Y-111363855D02*
X128260476Y-111363855D01*
X128489048Y-112163855D02*
X128489048Y-111363855D01*
X134566666Y-117563854D02*
X134566666Y-116763854D01*
X134566666Y-116763854D02*
X134261904Y-116763854D01*
X134261904Y-116763854D02*
X134185714Y-116801949D01*
X134185714Y-116801949D02*
X134147619Y-116840044D01*
X134147619Y-116840044D02*
X134109523Y-116916235D01*
X134109523Y-116916235D02*
X134109523Y-117030520D01*
X134109523Y-117030520D02*
X134147619Y-117106711D01*
X134147619Y-117106711D02*
X134185714Y-117144806D01*
X134185714Y-117144806D02*
X134261904Y-117182901D01*
X134261904Y-117182901D02*
X134566666Y-117182901D01*
X133842857Y-116763854D02*
X133652381Y-117563854D01*
X133652381Y-117563854D02*
X133500000Y-116992425D01*
X133500000Y-116992425D02*
X133347619Y-117563854D01*
X133347619Y-117563854D02*
X133157143Y-116763854D01*
X132395237Y-117563854D02*
X132661904Y-117182901D01*
X132852380Y-117563854D02*
X132852380Y-116763854D01*
X132852380Y-116763854D02*
X132547618Y-116763854D01*
X132547618Y-116763854D02*
X132471428Y-116801949D01*
X132471428Y-116801949D02*
X132433333Y-116840044D01*
X132433333Y-116840044D02*
X132395237Y-116916235D01*
X132395237Y-116916235D02*
X132395237Y-117030520D01*
X132395237Y-117030520D02*
X132433333Y-117106711D01*
X132433333Y-117106711D02*
X132471428Y-117144806D01*
X132471428Y-117144806D02*
X132547618Y-117182901D01*
X132547618Y-117182901D02*
X132852380Y-117182901D01*
X164619049Y-111330521D02*
X164619049Y-111978140D01*
X164619049Y-111978140D02*
X164657144Y-112054331D01*
X164657144Y-112054331D02*
X164695240Y-112092426D01*
X164695240Y-112092426D02*
X164771430Y-112130521D01*
X164771430Y-112130521D02*
X164885716Y-112130521D01*
X164885716Y-112130521D02*
X164961906Y-112092426D01*
X164619049Y-111825760D02*
X164695240Y-111863855D01*
X164695240Y-111863855D02*
X164847621Y-111863855D01*
X164847621Y-111863855D02*
X164923811Y-111825760D01*
X164923811Y-111825760D02*
X164961906Y-111787664D01*
X164961906Y-111787664D02*
X165000002Y-111711474D01*
X165000002Y-111711474D02*
X165000002Y-111482902D01*
X165000002Y-111482902D02*
X164961906Y-111406712D01*
X164961906Y-111406712D02*
X164923811Y-111368617D01*
X164923811Y-111368617D02*
X164847621Y-111330521D01*
X164847621Y-111330521D02*
X164695240Y-111330521D01*
X164695240Y-111330521D02*
X164619049Y-111368617D01*
X164238096Y-111863855D02*
X164238096Y-111330521D01*
X164238096Y-111063855D02*
X164276192Y-111101950D01*
X164276192Y-111101950D02*
X164238096Y-111140045D01*
X164238096Y-111140045D02*
X164200001Y-111101950D01*
X164200001Y-111101950D02*
X164238096Y-111063855D01*
X164238096Y-111063855D02*
X164238096Y-111140045D01*
X163971430Y-111330521D02*
X163666668Y-111330521D01*
X163857144Y-111063855D02*
X163857144Y-111749569D01*
X163857144Y-111749569D02*
X163819049Y-111825760D01*
X163819049Y-111825760D02*
X163742859Y-111863855D01*
X163742859Y-111863855D02*
X163666668Y-111863855D01*
X163400001Y-111863855D02*
X163400001Y-111063855D01*
X163057144Y-111863855D02*
X163057144Y-111444807D01*
X163057144Y-111444807D02*
X163095239Y-111368617D01*
X163095239Y-111368617D02*
X163171430Y-111330521D01*
X163171430Y-111330521D02*
X163285716Y-111330521D01*
X163285716Y-111330521D02*
X163361906Y-111368617D01*
X163361906Y-111368617D02*
X163400001Y-111406712D01*
X162333334Y-111330521D02*
X162333334Y-111863855D01*
X162676191Y-111330521D02*
X162676191Y-111749569D01*
X162676191Y-111749569D02*
X162638096Y-111825760D01*
X162638096Y-111825760D02*
X162561906Y-111863855D01*
X162561906Y-111863855D02*
X162447620Y-111863855D01*
X162447620Y-111863855D02*
X162371429Y-111825760D01*
X162371429Y-111825760D02*
X162333334Y-111787664D01*
X161952381Y-111863855D02*
X161952381Y-111063855D01*
X161952381Y-111368617D02*
X161876191Y-111330521D01*
X161876191Y-111330521D02*
X161723810Y-111330521D01*
X161723810Y-111330521D02*
X161647619Y-111368617D01*
X161647619Y-111368617D02*
X161609524Y-111406712D01*
X161609524Y-111406712D02*
X161571429Y-111482902D01*
X161571429Y-111482902D02*
X161571429Y-111711474D01*
X161571429Y-111711474D02*
X161609524Y-111787664D01*
X161609524Y-111787664D02*
X161647619Y-111825760D01*
X161647619Y-111825760D02*
X161723810Y-111863855D01*
X161723810Y-111863855D02*
X161876191Y-111863855D01*
X161876191Y-111863855D02*
X161952381Y-111825760D01*
X161228571Y-111787664D02*
X161190476Y-111825760D01*
X161190476Y-111825760D02*
X161228571Y-111863855D01*
X161228571Y-111863855D02*
X161266667Y-111825760D01*
X161266667Y-111825760D02*
X161228571Y-111787664D01*
X161228571Y-111787664D02*
X161228571Y-111863855D01*
X160504762Y-111825760D02*
X160580953Y-111863855D01*
X160580953Y-111863855D02*
X160733334Y-111863855D01*
X160733334Y-111863855D02*
X160809524Y-111825760D01*
X160809524Y-111825760D02*
X160847619Y-111787664D01*
X160847619Y-111787664D02*
X160885715Y-111711474D01*
X160885715Y-111711474D02*
X160885715Y-111482902D01*
X160885715Y-111482902D02*
X160847619Y-111406712D01*
X160847619Y-111406712D02*
X160809524Y-111368617D01*
X160809524Y-111368617D02*
X160733334Y-111330521D01*
X160733334Y-111330521D02*
X160580953Y-111330521D01*
X160580953Y-111330521D02*
X160504762Y-111368617D01*
X160047620Y-111863855D02*
X160123810Y-111825760D01*
X160123810Y-111825760D02*
X160161905Y-111787664D01*
X160161905Y-111787664D02*
X160200001Y-111711474D01*
X160200001Y-111711474D02*
X160200001Y-111482902D01*
X160200001Y-111482902D02*
X160161905Y-111406712D01*
X160161905Y-111406712D02*
X160123810Y-111368617D01*
X160123810Y-111368617D02*
X160047620Y-111330521D01*
X160047620Y-111330521D02*
X159933334Y-111330521D01*
X159933334Y-111330521D02*
X159857143Y-111368617D01*
X159857143Y-111368617D02*
X159819048Y-111406712D01*
X159819048Y-111406712D02*
X159780953Y-111482902D01*
X159780953Y-111482902D02*
X159780953Y-111711474D01*
X159780953Y-111711474D02*
X159819048Y-111787664D01*
X159819048Y-111787664D02*
X159857143Y-111825760D01*
X159857143Y-111825760D02*
X159933334Y-111863855D01*
X159933334Y-111863855D02*
X160047620Y-111863855D01*
X159438095Y-111863855D02*
X159438095Y-111330521D01*
X159438095Y-111406712D02*
X159400000Y-111368617D01*
X159400000Y-111368617D02*
X159323810Y-111330521D01*
X159323810Y-111330521D02*
X159209524Y-111330521D01*
X159209524Y-111330521D02*
X159133333Y-111368617D01*
X159133333Y-111368617D02*
X159095238Y-111444807D01*
X159095238Y-111444807D02*
X159095238Y-111863855D01*
X159095238Y-111444807D02*
X159057143Y-111368617D01*
X159057143Y-111368617D02*
X158980952Y-111330521D01*
X158980952Y-111330521D02*
X158866667Y-111330521D01*
X158866667Y-111330521D02*
X158790476Y-111368617D01*
X158790476Y-111368617D02*
X158752381Y-111444807D01*
X158752381Y-111444807D02*
X158752381Y-111863855D01*
X157800000Y-111025760D02*
X158485714Y-112054331D01*
X157190476Y-111863855D02*
X157190476Y-111063855D01*
X157190476Y-111825760D02*
X157266667Y-111863855D01*
X157266667Y-111863855D02*
X157419048Y-111863855D01*
X157419048Y-111863855D02*
X157495238Y-111825760D01*
X157495238Y-111825760D02*
X157533333Y-111787664D01*
X157533333Y-111787664D02*
X157571429Y-111711474D01*
X157571429Y-111711474D02*
X157571429Y-111482902D01*
X157571429Y-111482902D02*
X157533333Y-111406712D01*
X157533333Y-111406712D02*
X157495238Y-111368617D01*
X157495238Y-111368617D02*
X157419048Y-111330521D01*
X157419048Y-111330521D02*
X157266667Y-111330521D01*
X157266667Y-111330521D02*
X157190476Y-111368617D01*
X156466666Y-111863855D02*
X156466666Y-111444807D01*
X156466666Y-111444807D02*
X156504761Y-111368617D01*
X156504761Y-111368617D02*
X156580952Y-111330521D01*
X156580952Y-111330521D02*
X156733333Y-111330521D01*
X156733333Y-111330521D02*
X156809523Y-111368617D01*
X156466666Y-111825760D02*
X156542857Y-111863855D01*
X156542857Y-111863855D02*
X156733333Y-111863855D01*
X156733333Y-111863855D02*
X156809523Y-111825760D01*
X156809523Y-111825760D02*
X156847619Y-111749569D01*
X156847619Y-111749569D02*
X156847619Y-111673379D01*
X156847619Y-111673379D02*
X156809523Y-111597188D01*
X156809523Y-111597188D02*
X156733333Y-111559093D01*
X156733333Y-111559093D02*
X156542857Y-111559093D01*
X156542857Y-111559093D02*
X156466666Y-111520998D01*
X156085713Y-111330521D02*
X156085713Y-111863855D01*
X156085713Y-111406712D02*
X156047618Y-111368617D01*
X156047618Y-111368617D02*
X155971428Y-111330521D01*
X155971428Y-111330521D02*
X155857142Y-111330521D01*
X155857142Y-111330521D02*
X155780951Y-111368617D01*
X155780951Y-111368617D02*
X155742856Y-111444807D01*
X155742856Y-111444807D02*
X155742856Y-111863855D01*
X155019046Y-111330521D02*
X155019046Y-111978140D01*
X155019046Y-111978140D02*
X155057141Y-112054331D01*
X155057141Y-112054331D02*
X155095237Y-112092426D01*
X155095237Y-112092426D02*
X155171427Y-112130521D01*
X155171427Y-112130521D02*
X155285713Y-112130521D01*
X155285713Y-112130521D02*
X155361903Y-112092426D01*
X155019046Y-111825760D02*
X155095237Y-111863855D01*
X155095237Y-111863855D02*
X155247618Y-111863855D01*
X155247618Y-111863855D02*
X155323808Y-111825760D01*
X155323808Y-111825760D02*
X155361903Y-111787664D01*
X155361903Y-111787664D02*
X155399999Y-111711474D01*
X155399999Y-111711474D02*
X155399999Y-111482902D01*
X155399999Y-111482902D02*
X155361903Y-111406712D01*
X155361903Y-111406712D02*
X155323808Y-111368617D01*
X155323808Y-111368617D02*
X155247618Y-111330521D01*
X155247618Y-111330521D02*
X155095237Y-111330521D01*
X155095237Y-111330521D02*
X155019046Y-111368617D01*
X154714284Y-111330521D02*
X154561903Y-111863855D01*
X154561903Y-111863855D02*
X154409522Y-111482902D01*
X154409522Y-111482902D02*
X154257141Y-111863855D01*
X154257141Y-111863855D02*
X154104760Y-111330521D01*
X153457141Y-111863855D02*
X153457141Y-111444807D01*
X153457141Y-111444807D02*
X153495236Y-111368617D01*
X153495236Y-111368617D02*
X153571427Y-111330521D01*
X153571427Y-111330521D02*
X153723808Y-111330521D01*
X153723808Y-111330521D02*
X153799998Y-111368617D01*
X153457141Y-111825760D02*
X153533332Y-111863855D01*
X153533332Y-111863855D02*
X153723808Y-111863855D01*
X153723808Y-111863855D02*
X153799998Y-111825760D01*
X153799998Y-111825760D02*
X153838094Y-111749569D01*
X153838094Y-111749569D02*
X153838094Y-111673379D01*
X153838094Y-111673379D02*
X153799998Y-111597188D01*
X153799998Y-111597188D02*
X153723808Y-111559093D01*
X153723808Y-111559093D02*
X153533332Y-111559093D01*
X153533332Y-111559093D02*
X153457141Y-111520998D01*
X152961903Y-111863855D02*
X153038093Y-111825760D01*
X153038093Y-111825760D02*
X153076188Y-111749569D01*
X153076188Y-111749569D02*
X153076188Y-111063855D01*
X152695236Y-111825760D02*
X152619045Y-111863855D01*
X152619045Y-111863855D02*
X152466664Y-111863855D01*
X152466664Y-111863855D02*
X152390474Y-111825760D01*
X152390474Y-111825760D02*
X152352378Y-111749569D01*
X152352378Y-111749569D02*
X152352378Y-111711474D01*
X152352378Y-111711474D02*
X152390474Y-111635283D01*
X152390474Y-111635283D02*
X152466664Y-111597188D01*
X152466664Y-111597188D02*
X152580950Y-111597188D01*
X152580950Y-111597188D02*
X152657140Y-111559093D01*
X152657140Y-111559093D02*
X152695236Y-111482902D01*
X152695236Y-111482902D02*
X152695236Y-111444807D01*
X152695236Y-111444807D02*
X152657140Y-111368617D01*
X152657140Y-111368617D02*
X152580950Y-111330521D01*
X152580950Y-111330521D02*
X152466664Y-111330521D01*
X152466664Y-111330521D02*
X152390474Y-111368617D01*
X152009521Y-111863855D02*
X152009521Y-111063855D01*
X151666664Y-111863855D02*
X151666664Y-111444807D01*
X151666664Y-111444807D02*
X151704759Y-111368617D01*
X151704759Y-111368617D02*
X151780950Y-111330521D01*
X151780950Y-111330521D02*
X151895236Y-111330521D01*
X151895236Y-111330521D02*
X151971426Y-111368617D01*
X151971426Y-111368617D02*
X152009521Y-111406712D01*
X150714283Y-111025760D02*
X151399997Y-112054331D01*
X150447616Y-111863855D02*
X150447616Y-111330521D01*
X150447616Y-111063855D02*
X150485712Y-111101950D01*
X150485712Y-111101950D02*
X150447616Y-111140045D01*
X150447616Y-111140045D02*
X150409521Y-111101950D01*
X150409521Y-111101950D02*
X150447616Y-111063855D01*
X150447616Y-111063855D02*
X150447616Y-111140045D01*
X150142855Y-111330521D02*
X149990474Y-111863855D01*
X149990474Y-111863855D02*
X149838093Y-111482902D01*
X149838093Y-111482902D02*
X149685712Y-111863855D01*
X149685712Y-111863855D02*
X149533331Y-111330521D01*
X148885712Y-111863855D02*
X148885712Y-111444807D01*
X148885712Y-111444807D02*
X148923807Y-111368617D01*
X148923807Y-111368617D02*
X148999998Y-111330521D01*
X148999998Y-111330521D02*
X149152379Y-111330521D01*
X149152379Y-111330521D02*
X149228569Y-111368617D01*
X148885712Y-111825760D02*
X148961903Y-111863855D01*
X148961903Y-111863855D02*
X149152379Y-111863855D01*
X149152379Y-111863855D02*
X149228569Y-111825760D01*
X149228569Y-111825760D02*
X149266665Y-111749569D01*
X149266665Y-111749569D02*
X149266665Y-111673379D01*
X149266665Y-111673379D02*
X149228569Y-111597188D01*
X149228569Y-111597188D02*
X149152379Y-111559093D01*
X149152379Y-111559093D02*
X148961903Y-111559093D01*
X148961903Y-111559093D02*
X148885712Y-111520998D01*
X148504759Y-111330521D02*
X148504759Y-111863855D01*
X148504759Y-111406712D02*
X148466664Y-111368617D01*
X148466664Y-111368617D02*
X148390474Y-111330521D01*
X148390474Y-111330521D02*
X148276188Y-111330521D01*
X148276188Y-111330521D02*
X148199997Y-111368617D01*
X148199997Y-111368617D02*
X148161902Y-111444807D01*
X148161902Y-111444807D02*
X148161902Y-111863855D01*
X147438092Y-111863855D02*
X147438092Y-111063855D01*
X147438092Y-111825760D02*
X147514283Y-111863855D01*
X147514283Y-111863855D02*
X147666664Y-111863855D01*
X147666664Y-111863855D02*
X147742854Y-111825760D01*
X147742854Y-111825760D02*
X147780949Y-111787664D01*
X147780949Y-111787664D02*
X147819045Y-111711474D01*
X147819045Y-111711474D02*
X147819045Y-111482902D01*
X147819045Y-111482902D02*
X147780949Y-111406712D01*
X147780949Y-111406712D02*
X147742854Y-111368617D01*
X147742854Y-111368617D02*
X147666664Y-111330521D01*
X147666664Y-111330521D02*
X147514283Y-111330521D01*
X147514283Y-111330521D02*
X147438092Y-111368617D01*
X172041950Y-109609523D02*
X172003855Y-109533333D01*
X172003855Y-109533333D02*
X172003855Y-109419047D01*
X172003855Y-109419047D02*
X172041950Y-109304761D01*
X172041950Y-109304761D02*
X172118140Y-109228571D01*
X172118140Y-109228571D02*
X172194331Y-109190476D01*
X172194331Y-109190476D02*
X172346712Y-109152380D01*
X172346712Y-109152380D02*
X172460998Y-109152380D01*
X172460998Y-109152380D02*
X172613379Y-109190476D01*
X172613379Y-109190476D02*
X172689569Y-109228571D01*
X172689569Y-109228571D02*
X172765760Y-109304761D01*
X172765760Y-109304761D02*
X172803855Y-109419047D01*
X172803855Y-109419047D02*
X172803855Y-109495238D01*
X172803855Y-109495238D02*
X172765760Y-109609523D01*
X172765760Y-109609523D02*
X172727664Y-109647619D01*
X172727664Y-109647619D02*
X172460998Y-109647619D01*
X172460998Y-109647619D02*
X172460998Y-109495238D01*
X172422902Y-110142857D02*
X172803855Y-110142857D01*
X172003855Y-109876190D02*
X172422902Y-110142857D01*
X172422902Y-110142857D02*
X172003855Y-110409523D01*
X172499093Y-110676190D02*
X172499093Y-111285714D01*
X172003855Y-111590475D02*
X172003855Y-112085713D01*
X172003855Y-112085713D02*
X172308617Y-111819047D01*
X172308617Y-111819047D02*
X172308617Y-111933332D01*
X172308617Y-111933332D02*
X172346712Y-112009523D01*
X172346712Y-112009523D02*
X172384807Y-112047618D01*
X172384807Y-112047618D02*
X172460998Y-112085713D01*
X172460998Y-112085713D02*
X172651474Y-112085713D01*
X172651474Y-112085713D02*
X172727664Y-112047618D01*
X172727664Y-112047618D02*
X172765760Y-112009523D01*
X172765760Y-112009523D02*
X172803855Y-111933332D01*
X172803855Y-111933332D02*
X172803855Y-111704761D01*
X172803855Y-111704761D02*
X172765760Y-111628570D01*
X172765760Y-111628570D02*
X172727664Y-111590475D01*
X172003855Y-112352380D02*
X172003855Y-112847618D01*
X172003855Y-112847618D02*
X172308617Y-112580952D01*
X172308617Y-112580952D02*
X172308617Y-112695237D01*
X172308617Y-112695237D02*
X172346712Y-112771428D01*
X172346712Y-112771428D02*
X172384807Y-112809523D01*
X172384807Y-112809523D02*
X172460998Y-112847618D01*
X172460998Y-112847618D02*
X172651474Y-112847618D01*
X172651474Y-112847618D02*
X172727664Y-112809523D01*
X172727664Y-112809523D02*
X172765760Y-112771428D01*
X172765760Y-112771428D02*
X172803855Y-112695237D01*
X172803855Y-112695237D02*
X172803855Y-112466666D01*
X172803855Y-112466666D02*
X172765760Y-112390475D01*
X172765760Y-112390475D02*
X172727664Y-112352380D01*
D11*
X160080951Y-108454819D02*
X160080951Y-107788152D01*
X160080951Y-107454819D02*
X160128570Y-107502438D01*
X160128570Y-107502438D02*
X160080951Y-107550057D01*
X160080951Y-107550057D02*
X160033332Y-107502438D01*
X160033332Y-107502438D02*
X160080951Y-107454819D01*
X160080951Y-107454819D02*
X160080951Y-107550057D01*
X159699999Y-107454819D02*
X159461904Y-108454819D01*
X159461904Y-108454819D02*
X159271428Y-107740533D01*
X159271428Y-107740533D02*
X159080952Y-108454819D01*
X159080952Y-108454819D02*
X158842857Y-107454819D01*
X158033333Y-108454819D02*
X158033333Y-107931009D01*
X158033333Y-107931009D02*
X158080952Y-107835771D01*
X158080952Y-107835771D02*
X158176190Y-107788152D01*
X158176190Y-107788152D02*
X158366666Y-107788152D01*
X158366666Y-107788152D02*
X158461904Y-107835771D01*
X158033333Y-108407200D02*
X158128571Y-108454819D01*
X158128571Y-108454819D02*
X158366666Y-108454819D01*
X158366666Y-108454819D02*
X158461904Y-108407200D01*
X158461904Y-108407200D02*
X158509523Y-108311961D01*
X158509523Y-108311961D02*
X158509523Y-108216723D01*
X158509523Y-108216723D02*
X158461904Y-108121485D01*
X158461904Y-108121485D02*
X158366666Y-108073866D01*
X158366666Y-108073866D02*
X158128571Y-108073866D01*
X158128571Y-108073866D02*
X158033333Y-108026247D01*
X157557142Y-107788152D02*
X157557142Y-108454819D01*
X157557142Y-107883390D02*
X157509523Y-107835771D01*
X157509523Y-107835771D02*
X157414285Y-107788152D01*
X157414285Y-107788152D02*
X157271428Y-107788152D01*
X157271428Y-107788152D02*
X157176190Y-107835771D01*
X157176190Y-107835771D02*
X157128571Y-107931009D01*
X157128571Y-107931009D02*
X157128571Y-108454819D01*
X156223809Y-108454819D02*
X156223809Y-107454819D01*
X156223809Y-108407200D02*
X156319047Y-108454819D01*
X156319047Y-108454819D02*
X156509523Y-108454819D01*
X156509523Y-108454819D02*
X156604761Y-108407200D01*
X156604761Y-108407200D02*
X156652380Y-108359580D01*
X156652380Y-108359580D02*
X156699999Y-108264342D01*
X156699999Y-108264342D02*
X156699999Y-107978628D01*
X156699999Y-107978628D02*
X156652380Y-107883390D01*
X156652380Y-107883390D02*
X156604761Y-107835771D01*
X156604761Y-107835771D02*
X156509523Y-107788152D01*
X156509523Y-107788152D02*
X156319047Y-107788152D01*
X156319047Y-107788152D02*
X156223809Y-107835771D01*
X155080951Y-107788152D02*
X154842856Y-108454819D01*
X154842856Y-108454819D02*
X154604761Y-107788152D01*
X154033332Y-107454819D02*
X153938094Y-107454819D01*
X153938094Y-107454819D02*
X153842856Y-107502438D01*
X153842856Y-107502438D02*
X153795237Y-107550057D01*
X153795237Y-107550057D02*
X153747618Y-107645295D01*
X153747618Y-107645295D02*
X153699999Y-107835771D01*
X153699999Y-107835771D02*
X153699999Y-108073866D01*
X153699999Y-108073866D02*
X153747618Y-108264342D01*
X153747618Y-108264342D02*
X153795237Y-108359580D01*
X153795237Y-108359580D02*
X153842856Y-108407200D01*
X153842856Y-108407200D02*
X153938094Y-108454819D01*
X153938094Y-108454819D02*
X154033332Y-108454819D01*
X154033332Y-108454819D02*
X154128570Y-108407200D01*
X154128570Y-108407200D02*
X154176189Y-108359580D01*
X154176189Y-108359580D02*
X154223808Y-108264342D01*
X154223808Y-108264342D02*
X154271427Y-108073866D01*
X154271427Y-108073866D02*
X154271427Y-107835771D01*
X154271427Y-107835771D02*
X154223808Y-107645295D01*
X154223808Y-107645295D02*
X154176189Y-107550057D01*
X154176189Y-107550057D02*
X154128570Y-107502438D01*
X154128570Y-107502438D02*
X154033332Y-107454819D01*
X153271427Y-108359580D02*
X153223808Y-108407200D01*
X153223808Y-108407200D02*
X153271427Y-108454819D01*
X153271427Y-108454819D02*
X153319046Y-108407200D01*
X153319046Y-108407200D02*
X153271427Y-108359580D01*
X153271427Y-108359580D02*
X153271427Y-108454819D01*
X152842856Y-107550057D02*
X152795237Y-107502438D01*
X152795237Y-107502438D02*
X152699999Y-107454819D01*
X152699999Y-107454819D02*
X152461904Y-107454819D01*
X152461904Y-107454819D02*
X152366666Y-107502438D01*
X152366666Y-107502438D02*
X152319047Y-107550057D01*
X152319047Y-107550057D02*
X152271428Y-107645295D01*
X152271428Y-107645295D02*
X152271428Y-107740533D01*
X152271428Y-107740533D02*
X152319047Y-107883390D01*
X152319047Y-107883390D02*
X152890475Y-108454819D01*
X152890475Y-108454819D02*
X152271428Y-108454819D01*
%LPC*%
D12*
%TO.C,J2*%
X106790000Y-110000000D03*
D13*
X106790000Y-112000000D03*
%TD*%
D14*
%TO.C,R4*%
X113490000Y-112800000D03*
X121110000Y-112800000D03*
%TD*%
D12*
%TO.C,J3*%
X106790000Y-117250000D03*
D13*
X106790000Y-119250000D03*
%TD*%
D14*
%TO.C,R1*%
X113490000Y-103500000D03*
X121110000Y-103500000D03*
%TD*%
%TO.C,R6*%
X113490000Y-119000000D03*
X121110000Y-119000000D03*
%TD*%
D15*
%TO.C,SW2*%
X129400000Y-119600000D03*
X137600000Y-119600000D03*
D16*
X131500000Y-119600000D03*
D17*
X133500000Y-119600000D03*
X135500000Y-119600000D03*
%TD*%
D18*
%TO.C,J1*%
X169140000Y-114000000D03*
D13*
X169140000Y-112000000D03*
X169140000Y-110000000D03*
X169140000Y-108000000D03*
%TD*%
D19*
%TO.C,U3*%
X147340000Y-120017000D03*
D14*
X149880000Y-120017000D03*
X152420000Y-120017000D03*
X154960000Y-120017000D03*
X157500000Y-120017000D03*
X160040000Y-120017000D03*
X162580000Y-120017000D03*
X165120000Y-120017000D03*
X165120000Y-101983000D03*
X162580000Y-101983000D03*
X160040000Y-101983000D03*
X157500000Y-101983000D03*
X154960000Y-101983000D03*
X152420000Y-101983000D03*
X149880000Y-101983000D03*
X147340000Y-101983000D03*
%TD*%
%TO.C,R5*%
X113490000Y-115900000D03*
X121110000Y-115900000D03*
%TD*%
D19*
%TO.C,Q1*%
X143400000Y-109340000D03*
D14*
X140860000Y-109340000D03*
X138320000Y-109340000D03*
%TD*%
D20*
%TO.C,J5*%
X129600000Y-114000000D03*
D21*
X132140000Y-114000000D03*
%TD*%
D14*
%TO.C,R3*%
X113490000Y-109700000D03*
X121110000Y-109700000D03*
%TD*%
D12*
%TO.C,J4*%
X106790000Y-102750000D03*
D13*
X106790000Y-104750000D03*
%TD*%
D19*
%TO.C,Q2*%
X134600000Y-109340000D03*
D14*
X132060000Y-109340000D03*
X129520000Y-109340000D03*
%TD*%
%TO.C,C1*%
X141200000Y-115000000D03*
X143700000Y-115000000D03*
%TD*%
D19*
%TO.C,U1*%
X125820000Y-119120000D03*
D14*
X125820000Y-116580000D03*
X125820000Y-114040000D03*
X125820000Y-111500000D03*
X125820000Y-108960000D03*
X125820000Y-106420000D03*
X125820000Y-103880000D03*
X110580000Y-103880000D03*
X110580000Y-106420000D03*
X110580000Y-108960000D03*
X110580000Y-111500000D03*
X110580000Y-114040000D03*
X110580000Y-116580000D03*
X110580000Y-119120000D03*
%TD*%
%TO.C,R2*%
X113490000Y-106600000D03*
X121110000Y-106600000D03*
%TD*%
%LPD*%
M02*
