%TF.GenerationSoftware,KiCad,Pcbnew,10.0.6*%
%TF.CreationDate,2026-09-27T08:23:23-04:00*%
%TF.ProjectId,iwand,6977616e-642e-46b6-9963-61645f706362,rev?*%
%TF.SameCoordinates,Original*%
%TF.FileFunction,Copper,L1,Top*%
%TF.FilePolarity,Positive*%
%FSLAX46Y46*%
G04 Gerber Fmt 4.6, Leading zero omitted, Abs format (unit mm)*
G04 Created by KiCad (PCBNEW 10.0.6) date 2026-09-27 08:23:23*
%MOMM*%
%LPD*%
G01*
G04 APERTURE LIST*
G04 Aperture macros list*
%AMRoundRect*
0 Rectangle with rounded corners*
0 $1 Rounding radius*
0 $2 $3 $4 $5 $6 $7 $8 $9 X,Y pos of 4 corners*
0 Add a 4 corners polygon primitive as box body*
4,1,4,$2,$3,$4,$5,$6,$7,$8,$9,$2,$3,0*
0 Add four circle primitives for the rounded corners*
1,1,$1+$1,$2,$3*
1,1,$1+$1,$4,$5*
1,1,$1+$1,$6,$7*
1,1,$1+$1,$8,$9*
0 Add four rect primitives between the rounded corners*
20,1,$1+$1,$2,$3,$4,$5,0*
20,1,$1+$1,$4,$5,$6,$7,0*
20,1,$1+$1,$6,$7,$8,$9,0*
20,1,$1+$1,$8,$9,$2,$3,0*%
G04 Aperture macros list end*
%TA.AperFunction,ComponentPad*%
%ADD10RoundRect,0.250000X-0.625000X0.350000X-0.625000X-0.350000X0.625000X-0.350000X0.625000X0.350000X0*%
%TD*%
%TA.AperFunction,ComponentPad*%
%ADD11O,1.750000X1.200000*%
%TD*%
%TA.AperFunction,ComponentPad*%
%ADD12C,1.600000*%
%TD*%
%TA.AperFunction,ComponentPad*%
%ADD13O,2.200000X3.500000*%
%TD*%
%TA.AperFunction,ComponentPad*%
%ADD14R,1.500000X2.500000*%
%TD*%
%TA.AperFunction,ComponentPad*%
%ADD15O,1.500000X2.500000*%
%TD*%
%TA.AperFunction,ComponentPad*%
%ADD16RoundRect,0.250000X0.625000X-0.350000X0.625000X0.350000X-0.625000X0.350000X-0.625000X-0.350000X0*%
%TD*%
%TA.AperFunction,ComponentPad*%
%ADD17R,1.600000X1.600000*%
%TD*%
%TA.AperFunction,ComponentPad*%
%ADD18R,1.700000X1.700000*%
%TD*%
%TA.AperFunction,ComponentPad*%
%ADD19C,1.700000*%
%TD*%
%TA.AperFunction,ViaPad*%
%ADD20C,0.600000*%
%TD*%
%TA.AperFunction,ViaPad*%
%ADD21C,0.800000*%
%TD*%
%TA.AperFunction,Conductor*%
%ADD22C,0.500000*%
%TD*%
%TA.AperFunction,Conductor*%
%ADD23C,0.250000*%
%TD*%
G04 APERTURE END LIST*
D10*
%TO.P,J2,1,Pin_1_1*%
%TO.N,/SPK1*%
X106790000Y-110000000D03*
D11*
%TO.P,J2,2,Pin_2_2*%
%TO.N,/SPK2*%
X106790000Y-112000000D03*
%TD*%
D12*
%TO.P,R4,1*%
%TO.N,/Q2_GATE*%
X113490000Y-112800000D03*
%TO.P,R4,2*%
%TO.N,/GND*%
X121110000Y-112800000D03*
%TD*%
D10*
%TO.P,J3,1,Pin_1_1*%
%TO.N,/D3_BTN*%
X106790000Y-117250000D03*
D11*
%TO.P,J3,2,Pin_2_2*%
%TO.N,/GND*%
X106790000Y-119250000D03*
%TD*%
D12*
%TO.P,R1,1*%
%TO.N,/D0*%
X113490000Y-103500000D03*
%TO.P,R1,2*%
%TO.N,/Q1_GATE*%
X121110000Y-103500000D03*
%TD*%
%TO.P,R6,1*%
%TO.N,/VBAT_SENSE*%
X113490000Y-119000000D03*
%TO.P,R6,2*%
%TO.N,/GND*%
X121110000Y-119000000D03*
%TD*%
D13*
%TO.P,SW2,*%
%TO.N,*%
X129400000Y-119600000D03*
X137600000Y-119600000D03*
D14*
%TO.P,SW2,1*%
%TO.N,/VBAT*%
X131500000Y-119600000D03*
D15*
%TO.P,SW2,2*%
%TO.N,/BAT_IN*%
X133500000Y-119600000D03*
%TO.P,SW2,3*%
%TO.N,unconnected-(SW2-C-Pad3)*%
X135500000Y-119600000D03*
%TD*%
D16*
%TO.P,J1,1,Pin_1_1*%
%TO.N,/SENSOR_GND*%
X169140000Y-114000000D03*
D11*
%TO.P,J1,2,Pin_2_2*%
%TO.N,/GY33_DR*%
X169140000Y-112000000D03*
%TO.P,J1,3,Pin_3_3*%
%TO.N,/GY33_CT*%
X169140000Y-110000000D03*
%TO.P,J1,4,Pin_4_4*%
%TO.N,/VBAT*%
X169140000Y-108000000D03*
%TD*%
D17*
%TO.P,U3,1*%
%TO.N,/VBAT*%
X147340000Y-120017000D03*
D12*
%TO.P,U3,2*%
%TO.N,/UART_TX*%
X149880000Y-120017000D03*
%TO.P,U3,3*%
%TO.N,/UART_RX*%
X152420000Y-120017000D03*
%TO.P,U3,4*%
%TO.N,unconnected-(U3-DAC_R-Pad4)*%
X154960000Y-120017000D03*
%TO.P,U3,5*%
%TO.N,unconnected-(U3-DAC_L-Pad5)*%
X157500000Y-120017000D03*
%TO.P,U3,6*%
%TO.N,/SPK1*%
X160040000Y-120017000D03*
%TO.P,U3,7*%
%TO.N,/AUDIO_GND*%
X162580000Y-120017000D03*
%TO.P,U3,8*%
%TO.N,/SPK2*%
X165120000Y-120017000D03*
%TO.P,U3,9*%
%TO.N,unconnected-(U3-IO1-Pad9)*%
X165120000Y-101983000D03*
%TO.P,U3,10*%
%TO.N,/AUDIO_GND*%
X162580000Y-101983000D03*
%TO.P,U3,11*%
%TO.N,unconnected-(U3-IO2-Pad11)*%
X160040000Y-101983000D03*
%TO.P,U3,12*%
%TO.N,unconnected-(U3-ADKEY1-Pad12)*%
X157500000Y-101983000D03*
%TO.P,U3,13*%
%TO.N,unconnected-(U3-ADKEY2-Pad13)*%
X154960000Y-101983000D03*
%TO.P,U3,14*%
%TO.N,unconnected-(U3-USB+-Pad14)*%
X152420000Y-101983000D03*
%TO.P,U3,15*%
%TO.N,unconnected-(U3-USB--Pad15)*%
X149880000Y-101983000D03*
%TO.P,U3,16*%
%TO.N,unconnected-(U3-BUSY-Pad16)*%
X147340000Y-101983000D03*
%TD*%
%TO.P,R5,1*%
%TO.N,/VBAT*%
X113490000Y-115900000D03*
%TO.P,R5,2*%
%TO.N,/VBAT_SENSE*%
X121110000Y-115900000D03*
%TD*%
D17*
%TO.P,Q1,1*%
%TO.N,/Q1_GATE*%
X143400000Y-109340000D03*
D12*
%TO.P,Q1,2*%
%TO.N,/SENSOR_GND*%
X140860000Y-109340000D03*
%TO.P,Q1,3*%
%TO.N,/GND*%
X138320000Y-109340000D03*
%TD*%
D18*
%TO.P,J5,1,Pin_1_1*%
%TO.N,/VBAT*%
X129600000Y-114000000D03*
D19*
%TO.P,J5,2,Pin_2_2*%
%TO.N,/GND*%
X132140000Y-114000000D03*
%TD*%
D12*
%TO.P,R3,1*%
%TO.N,/D1*%
X113490000Y-109700000D03*
%TO.P,R3,2*%
%TO.N,/Q2_GATE*%
X121110000Y-109700000D03*
%TD*%
D10*
%TO.P,J4,1,Pin_1_1*%
%TO.N,/BAT_IN*%
X106790000Y-102750000D03*
D11*
%TO.P,J4,2,Pin_2_2*%
%TO.N,/GND*%
X106790000Y-104750000D03*
%TD*%
D17*
%TO.P,Q2,1*%
%TO.N,/Q2_GATE*%
X134600000Y-109340000D03*
D12*
%TO.P,Q2,2*%
%TO.N,/AUDIO_GND*%
X132060000Y-109340000D03*
%TO.P,Q2,3*%
%TO.N,/GND*%
X129520000Y-109340000D03*
%TD*%
%TO.P,C1,1*%
%TO.N,/VBAT_SENSE*%
X141200000Y-115000000D03*
%TO.P,C1,2*%
%TO.N,/GND*%
X143700000Y-115000000D03*
%TD*%
D17*
%TO.P,U1,1*%
%TO.N,/D0*%
X125820000Y-119120000D03*
D12*
%TO.P,U1,2*%
%TO.N,/D1*%
X125820000Y-116580000D03*
%TO.P,U1,3*%
%TO.N,unconnected-(U1-D2-Pad3)*%
X125820000Y-114040000D03*
%TO.P,U1,4*%
%TO.N,/D3_BTN*%
X125820000Y-111500000D03*
%TO.P,U1,5*%
%TO.N,/UART_RX*%
X125820000Y-108960000D03*
%TO.P,U1,6*%
%TO.N,/UART_TX*%
X125820000Y-106420000D03*
%TO.P,U1,7*%
%TO.N,unconnected-(U1-D6-Pad7)*%
X125820000Y-103880000D03*
%TO.P,U1,8*%
%TO.N,unconnected-(U1-D7-Pad8)*%
X110580000Y-103880000D03*
%TO.P,U1,9*%
%TO.N,/GY33_DR*%
X110580000Y-106420000D03*
%TO.P,U1,10*%
%TO.N,/GY33_CT*%
X110580000Y-108960000D03*
%TO.P,U1,11*%
%TO.N,/VBAT_SENSE*%
X110580000Y-111500000D03*
%TO.P,U1,12*%
%TO.N,unconnected-(U1-3V3-Pad12)*%
X110580000Y-114040000D03*
%TO.P,U1,13*%
%TO.N,/GND*%
X110580000Y-116580000D03*
%TO.P,U1,14*%
%TO.N,unconnected-(U1-5V-Pad14)*%
X110580000Y-119120000D03*
%TD*%
%TO.P,R2,1*%
%TO.N,/Q1_GATE*%
X113490000Y-106600000D03*
%TO.P,R2,2*%
%TO.N,/GND*%
X121110000Y-106600000D03*
%TD*%
D20*
%TO.N,/GND*%
X170993000Y-113970000D03*
X105207000Y-118414999D03*
X114859000Y-110668000D03*
X145974000Y-106223000D03*
X161468000Y-105969000D03*
X153975000Y-118414999D03*
X150038000Y-110033000D03*
X141275000Y-113208000D03*
X174041000Y-118033999D03*
X170866000Y-110287000D03*
X158039000Y-105969000D03*
X174041000Y-105969000D03*
X174041000Y-102032000D03*
X141402000Y-106477000D03*
X137973000Y-113970000D03*
X134798000Y-111049000D03*
X146355000Y-110033000D03*
X174041000Y-113970000D03*
X165531999Y-110541000D03*
X119050000Y-106985000D03*
X102032000Y-113970000D03*
X169977000Y-118033999D03*
X134036000Y-106223000D03*
D21*
X127178000Y-116002000D03*
D20*
X161468000Y-112954000D03*
X122733000Y-106858000D03*
X166293999Y-105715000D03*
X154483000Y-109525000D03*
X102032000Y-102032000D03*
X102032000Y-118033999D03*
X118033999Y-118795999D03*
X118033999Y-110033000D03*
X169977000Y-105969000D03*
X150418999Y-105461000D03*
X133781999Y-114351000D03*
X158547000Y-110541000D03*
X102032000Y-110033000D03*
X105969000Y-113970000D03*
X174041000Y-110033000D03*
X129972000Y-106223000D03*
X169977000Y-102032000D03*
X102032000Y-105969000D03*
X166802000Y-102032000D03*
X118542000Y-113081000D03*
X166040000Y-118033999D03*
X137973000Y-106223000D03*
X122733000Y-118795999D03*
X153975000Y-105969000D03*
X122352000Y-117018000D03*
%TO.N,/D0*%
X124130000Y-117018000D03*
X122352000Y-112192000D03*
%TO.N,/Q1_GATE*%
X128829000Y-107747000D03*
X118288000Y-106096000D03*
X123495000Y-105969000D03*
%TO.N,/VBAT_SENSE*%
X106858000Y-108128000D03*
D21*
%TO.N,/VBAT*%
X128193999Y-116383000D03*
X142926000Y-116256000D03*
%TO.N,/SENSOR_GND*%
X154737000Y-114097000D03*
D20*
%TO.N,/GY33_DR*%
X163627000Y-107112000D03*
X149149000Y-107112000D03*
%TO.N,/GY33_CT*%
X108255000Y-104064000D03*
%TO.N,/UART_TX*%
X133655000Y-111557000D03*
X141021000Y-118923000D03*
%TO.N,/UART_RX*%
X128067000Y-109906000D03*
X139116000Y-118161000D03*
D21*
%TO.N,/AUDIO_GND*%
X162611000Y-117652999D03*
D20*
%TO.N,/D1*%
X121209000Y-108255000D03*
X123114000Y-109779000D03*
X124638000Y-113335000D03*
%TD*%
%TO.N,/SPK1*%
D22*
X107620000Y-110541000D02*
X109144000Y-112065000D01*
X109144000Y-112065000D02*
X109144000Y-119685000D01*
X128574999Y-117271999D02*
X156769000Y-117271999D01*
X127051000Y-120447000D02*
X127686000Y-119812000D01*
X127686000Y-118161000D02*
X128574999Y-117271999D01*
X109906000Y-120447000D02*
X127051000Y-120447000D01*
X156769000Y-117271999D02*
X159309000Y-119812000D01*
X109144000Y-119685000D02*
X109906000Y-120447000D01*
X159309000Y-119812000D02*
X160040000Y-120017000D01*
X106790000Y-110000000D02*
X107620000Y-110541000D01*
X127686000Y-119812000D02*
X127686000Y-118161000D01*
%TO.N,/SPK2*%
X106790000Y-112000000D02*
X106096000Y-111684000D01*
X145466000Y-102159000D02*
X161976000Y-118669000D01*
X105334000Y-110922000D02*
X105334000Y-108255000D01*
X163246000Y-118669000D02*
X164389000Y-119812000D01*
X105334000Y-108255000D02*
X109144000Y-104445000D01*
X164389000Y-119812000D02*
X165120000Y-120017000D01*
X106096000Y-111684000D02*
X105334000Y-110922000D01*
X161976000Y-118669000D02*
X163246000Y-118669000D01*
X110287000Y-102159000D02*
X145466000Y-102159000D01*
X109144000Y-103302000D02*
X110287000Y-102159000D01*
X109144000Y-104445000D02*
X109144000Y-103302000D01*
%TO.N,/Q2_GATE*%
D23*
X120320000Y-109779000D02*
X117526000Y-112573000D01*
X114224000Y-112573000D02*
X113490000Y-112800000D01*
X121110000Y-109700000D02*
X120320000Y-109779000D01*
X117526000Y-112573000D02*
X114224000Y-112573000D01*
%TO.N,/GND*%
X121336000Y-112065000D02*
X122352000Y-111049000D01*
D22*
X136957000Y-109652000D02*
X137591999Y-109652000D01*
X131622999Y-113462000D02*
X132139999Y-114000000D01*
D23*
X121209000Y-113589000D02*
X122352000Y-114732000D01*
D22*
X128702000Y-110541000D02*
X131622999Y-113462000D01*
X106477000Y-105334000D02*
X106790000Y-104750000D01*
X113843000Y-117271999D02*
X111684000Y-117271999D01*
D23*
X138862000Y-109906000D02*
X143307000Y-114351000D01*
X138320000Y-109340000D02*
X138862000Y-109906000D01*
D22*
X115494000Y-118923000D02*
X113843000Y-117271999D01*
X104445000Y-107366000D02*
X106477000Y-105334000D01*
D23*
X143307000Y-114351000D02*
X143700000Y-115000000D01*
D22*
X137591999Y-109652000D02*
X138320000Y-109340000D01*
X132893000Y-113716000D02*
X136957000Y-109652000D01*
D23*
X122352000Y-114732000D02*
X122352000Y-117018000D01*
X121110000Y-112800000D02*
X121336000Y-112065000D01*
D22*
X106096000Y-118923000D02*
X104445000Y-117271999D01*
X120320000Y-118923000D02*
X115494000Y-118923000D01*
X127178000Y-116002000D02*
X127178000Y-112065000D01*
D23*
X121336000Y-107366000D02*
X121110000Y-106600000D01*
D22*
X127178000Y-112065000D02*
X129210000Y-110033000D01*
X132139999Y-114000000D02*
X132893000Y-113716000D01*
X106790000Y-119250000D02*
X106096000Y-118923000D01*
X111303000Y-116890999D02*
X110580000Y-116580000D01*
X121110000Y-119000000D02*
X120320000Y-118923000D01*
X104445000Y-117271999D02*
X104445000Y-107366000D01*
D23*
X122352000Y-111049000D02*
X122352000Y-108382000D01*
D22*
X129210000Y-110033000D02*
X129520000Y-109340000D01*
D23*
X122352000Y-108382000D02*
X121336000Y-107366000D01*
D22*
X111684000Y-117271999D02*
X111303000Y-116890999D01*
D23*
X121110000Y-112800000D02*
X121209000Y-113589000D01*
%TO.N,/D0*%
X122352000Y-112192000D02*
X124130000Y-113970000D01*
X124130000Y-113970000D02*
X124130000Y-117018000D01*
%TO.N,/Q1_GATE*%
X114097000Y-106096000D02*
X113490000Y-106600000D01*
X118288000Y-106096000D02*
X114097000Y-106096000D01*
X123495000Y-105969000D02*
X125273000Y-107747000D01*
X125273000Y-107747000D02*
X128829000Y-107747000D01*
%TO.N,/VBAT_SENSE*%
X110033000Y-110922000D02*
X107239000Y-108128000D01*
X112954000Y-114097000D02*
X110922000Y-112065000D01*
X107239000Y-108128000D02*
X106858000Y-108128000D01*
X120447000Y-115494000D02*
X119050000Y-114097000D01*
X119050000Y-114097000D02*
X112954000Y-114097000D01*
X121110000Y-115900000D02*
X120447000Y-115494000D01*
X110922000Y-112065000D02*
X110580000Y-111500000D01*
X110580000Y-111500000D02*
X110033000Y-110922000D01*
%TO.N,/VBAT*%
X128193999Y-116383000D02*
X126797000Y-117780000D01*
D22*
X129210000Y-114732000D02*
X129600000Y-114000000D01*
D23*
X115875000Y-117780000D02*
X114224000Y-116129000D01*
D22*
X128193999Y-116383000D02*
X129210000Y-115367000D01*
D23*
X126797000Y-117780000D02*
X115875000Y-117780000D01*
X114224000Y-116129000D02*
X113490000Y-115900000D01*
D22*
X142799000Y-116383000D02*
X142926000Y-116256000D01*
X130353000Y-114732000D02*
X132003999Y-116383000D01*
X132003999Y-116383000D02*
X142799000Y-116383000D01*
X129600000Y-114000000D02*
X130353000Y-114732000D01*
X129210000Y-115367000D02*
X129210000Y-114732000D01*
%TO.N,/SENSOR_GND*%
X145593000Y-114097000D02*
X141402000Y-109906000D01*
X154737000Y-114097000D02*
X145593000Y-114097000D01*
X141402000Y-109906000D02*
X140860000Y-109340000D01*
%TO.N,/GY33_DR*%
D23*
X168326000Y-111811000D02*
X163627000Y-107112000D01*
X111303000Y-106096000D02*
X110580000Y-106420000D01*
X147244000Y-105207000D02*
X112192000Y-105207000D01*
X149149000Y-107112000D02*
X147244000Y-105207000D01*
X112192000Y-105207000D02*
X111303000Y-106096000D01*
X169140000Y-112000000D02*
X168326000Y-111811000D01*
%TO.N,/GY33_CT*%
X169140000Y-110000000D02*
X168579999Y-109525000D01*
X163881000Y-101397000D02*
X163246000Y-100762000D01*
X168579999Y-109525000D02*
X163881000Y-104826000D01*
X110541000Y-100762000D02*
X108255000Y-103048000D01*
X163881000Y-104826000D02*
X163881000Y-101397000D01*
X163246000Y-100762000D02*
X110541000Y-100762000D01*
X108255000Y-103048000D02*
X108255000Y-104064000D01*
%TO.N,/UART_TX*%
X132384999Y-111557000D02*
X130734000Y-109906000D01*
X149880000Y-120017000D02*
X149276000Y-119558000D01*
X130734000Y-109906000D02*
X130734000Y-108636000D01*
X149276000Y-119558000D02*
X148514000Y-118795999D01*
X148514000Y-118795999D02*
X141148000Y-118795999D01*
X126543000Y-106731000D02*
X125820000Y-106420000D01*
X141148000Y-118795999D02*
X141021000Y-118923000D01*
X133655000Y-111557000D02*
X132384999Y-111557000D01*
X128829000Y-106731000D02*
X126543000Y-106731000D01*
X130734000Y-108636000D02*
X128829000Y-106731000D01*
%TO.N,/UART_RX*%
X152420000Y-120017000D02*
X151689000Y-119812000D01*
X151689000Y-119812000D02*
X150038000Y-118161000D01*
X126543000Y-109271000D02*
X125820000Y-108960000D01*
X150038000Y-118161000D02*
X139116000Y-118161000D01*
X127432000Y-109271000D02*
X126543000Y-109271000D01*
X128067000Y-109906000D02*
X127432000Y-109271000D01*
%TO.N,/AUDIO_GND*%
D22*
X162580000Y-101983000D02*
X162611000Y-102667000D01*
X133401000Y-108001000D02*
X132512000Y-108890000D01*
X162611000Y-102667000D02*
X162611000Y-117652999D01*
X161849000Y-119812000D02*
X150038000Y-108001000D01*
X150038000Y-108001000D02*
X133401000Y-108001000D01*
X162580000Y-120017000D02*
X161849000Y-119812000D01*
X132512000Y-108890000D02*
X132060000Y-109340000D01*
%TO.N,/D1*%
D23*
X113490000Y-109700000D02*
X114224000Y-109398000D01*
X115367000Y-108255000D02*
X121209000Y-108255000D01*
X114224000Y-109398000D02*
X115367000Y-108255000D01*
X123114000Y-109779000D02*
X123114000Y-111811000D01*
X123114000Y-111811000D02*
X124638000Y-113335000D01*
%TD*%
%TA.AperFunction,Conductor*%
%TO.N,/GND*%
G36*
X109968429Y-100520185D02*
G01*
X110014184Y-100572989D01*
X110024128Y-100642147D01*
X109995103Y-100705703D01*
X109989072Y-100712179D01*
X109075865Y-101625386D01*
X108177181Y-102524070D01*
X108115858Y-102557555D01*
X108046166Y-102552571D01*
X107990233Y-102510699D01*
X107965816Y-102445235D01*
X107965500Y-102436389D01*
X107965500Y-102356903D01*
X107965500Y-102356898D01*
X107954877Y-102268436D01*
X107899361Y-102127658D01*
X107899360Y-102127657D01*
X107899360Y-102127656D01*
X107807922Y-102007077D01*
X107687343Y-101915639D01*
X107546561Y-101860122D01*
X107500926Y-101854642D01*
X107458102Y-101849500D01*
X106121898Y-101849500D01*
X106082853Y-101854188D01*
X106033438Y-101860122D01*
X105892656Y-101915639D01*
X105772077Y-102007077D01*
X105680639Y-102127656D01*
X105625122Y-102268438D01*
X105619188Y-102317853D01*
X105614500Y-102356898D01*
X105614500Y-103143102D01*
X105620126Y-103189954D01*
X105625122Y-103231561D01*
X105625122Y-103231563D01*
X105625123Y-103231564D01*
X105629358Y-103242302D01*
X105680639Y-103372343D01*
X105772077Y-103492922D01*
X105892656Y-103584360D01*
X105892657Y-103584360D01*
X105892658Y-103584361D01*
X106033436Y-103639877D01*
X106121898Y-103650500D01*
X106121903Y-103650500D01*
X106194224Y-103650500D01*
X106261263Y-103670185D01*
X106307018Y-103722989D01*
X106316962Y-103792147D01*
X106287937Y-103855703D01*
X106241676Y-103889061D01*
X106088696Y-103952426D01*
X106088683Y-103952433D01*
X105941283Y-104050923D01*
X105941279Y-104050926D01*
X105815926Y-104176279D01*
X105815923Y-104176283D01*
X105717433Y-104323683D01*
X105717428Y-104323693D01*
X105649587Y-104487476D01*
X105649584Y-104487483D01*
X105647096Y-104500000D01*
X106509670Y-104500000D01*
X106489925Y-104519745D01*
X106440556Y-104605255D01*
X106415000Y-104700630D01*
X106415000Y-104799370D01*
X106440556Y-104894745D01*
X106489925Y-104980255D01*
X106509670Y-105000000D01*
X105647096Y-105000000D01*
X105649584Y-105012516D01*
X105649587Y-105012523D01*
X105717428Y-105176306D01*
X105717433Y-105176316D01*
X105815923Y-105323716D01*
X105815926Y-105323720D01*
X105941279Y-105449073D01*
X105941283Y-105449076D01*
X106088683Y-105547566D01*
X106088692Y-105547571D01*
X106252479Y-105615413D01*
X106252487Y-105615415D01*
X106426353Y-105649999D01*
X106426357Y-105650000D01*
X106540000Y-105650000D01*
X106540000Y-105030330D01*
X106559745Y-105050075D01*
X106645255Y-105099444D01*
X106740630Y-105125000D01*
X106839370Y-105125000D01*
X106934745Y-105099444D01*
X107020255Y-105050075D01*
X107040000Y-105030330D01*
X107040000Y-105672815D01*
X107046041Y-105683879D01*
X107041057Y-105753571D01*
X107012556Y-105797918D01*
X104893489Y-107916985D01*
X104858041Y-107978386D01*
X104858040Y-107978387D01*
X104821017Y-108042512D01*
X104821016Y-108042513D01*
X104805049Y-108102103D01*
X104783500Y-108182525D01*
X104783500Y-110994475D01*
X104808088Y-111086237D01*
X104808087Y-111086237D01*
X104821014Y-111134480D01*
X104821016Y-111134485D01*
X104893489Y-111260013D01*
X104893491Y-111260016D01*
X105578181Y-111944706D01*
X105611666Y-112006029D01*
X105614500Y-112032387D01*
X105614500Y-112088695D01*
X105649103Y-112262658D01*
X105649106Y-112262667D01*
X105716983Y-112426540D01*
X105716990Y-112426553D01*
X105815535Y-112574034D01*
X105815538Y-112574038D01*
X105940961Y-112699461D01*
X105940965Y-112699464D01*
X106088446Y-112798009D01*
X106088459Y-112798016D01*
X106153975Y-112825153D01*
X106252334Y-112865894D01*
X106252336Y-112865894D01*
X106252341Y-112865896D01*
X106426304Y-112900499D01*
X106426307Y-112900500D01*
X106426309Y-112900500D01*
X107153693Y-112900500D01*
X107153694Y-112900499D01*
X107223515Y-112886611D01*
X107327658Y-112865896D01*
X107327661Y-112865894D01*
X107327666Y-112865894D01*
X107467535Y-112807958D01*
X107491540Y-112798016D01*
X107491540Y-112798015D01*
X107491547Y-112798013D01*
X107639035Y-112699464D01*
X107764464Y-112574035D01*
X107863013Y-112426547D01*
X107864158Y-112423784D01*
X107874009Y-112400000D01*
X107930894Y-112262666D01*
X107965500Y-112088691D01*
X107965500Y-111964387D01*
X107985185Y-111897348D01*
X108037989Y-111851593D01*
X108107147Y-111841649D01*
X108170703Y-111870674D01*
X108177181Y-111876706D01*
X108557181Y-112256706D01*
X108590666Y-112318029D01*
X108593500Y-112344387D01*
X108593500Y-119757476D01*
X108610055Y-119819262D01*
X108631014Y-119897480D01*
X108631016Y-119897485D01*
X108703490Y-120023015D01*
X109567985Y-120887510D01*
X109690480Y-120958232D01*
X109693515Y-120959984D01*
X109833525Y-120997500D01*
X109833526Y-120997500D01*
X109833527Y-120997500D01*
X127123473Y-120997500D01*
X127123474Y-120997500D01*
X127123475Y-120997500D01*
X127263485Y-120959984D01*
X127266520Y-120958232D01*
X127389015Y-120887510D01*
X127816042Y-120460481D01*
X127877363Y-120426998D01*
X127947054Y-120431982D01*
X128002988Y-120473853D01*
X128026194Y-120528765D01*
X128033985Y-120577952D01*
X128102103Y-120787603D01*
X128102104Y-120787606D01*
X128202187Y-120984025D01*
X128331752Y-121162358D01*
X128331756Y-121162363D01*
X128457212Y-121287819D01*
X128490697Y-121349142D01*
X128485713Y-121418834D01*
X128443841Y-121474767D01*
X128378377Y-121499184D01*
X128369531Y-121499500D01*
X101006960Y-121499500D01*
X100993077Y-121498720D01*
X100902734Y-121488541D01*
X100891361Y-121484561D01*
X100882897Y-121484648D01*
X100875662Y-121482362D01*
X100796464Y-121454649D01*
X100771447Y-121442602D01*
X100700395Y-121397957D01*
X100678686Y-121380644D01*
X100619355Y-121321313D01*
X100602042Y-121299604D01*
X100557395Y-121228549D01*
X100545351Y-121203539D01*
X100517636Y-121124333D01*
X100511458Y-121097268D01*
X100501280Y-121006922D01*
X100500500Y-120993040D01*
X100500500Y-116856898D01*
X105614500Y-116856898D01*
X105614500Y-117643102D01*
X105615803Y-117653951D01*
X105625122Y-117731561D01*
X105680639Y-117872343D01*
X105772077Y-117992922D01*
X105892656Y-118084360D01*
X105892657Y-118084360D01*
X105892658Y-118084361D01*
X106033436Y-118139877D01*
X106121898Y-118150500D01*
X106121903Y-118150500D01*
X106194224Y-118150500D01*
X106261263Y-118170185D01*
X106307018Y-118222989D01*
X106316962Y-118292147D01*
X106287937Y-118355703D01*
X106241676Y-118389061D01*
X106088696Y-118452426D01*
X106088683Y-118452433D01*
X105941283Y-118550923D01*
X105941279Y-118550926D01*
X105815926Y-118676279D01*
X105815923Y-118676283D01*
X105717433Y-118823683D01*
X105717428Y-118823693D01*
X105649587Y-118987476D01*
X105649584Y-118987483D01*
X105647096Y-119000000D01*
X106509670Y-119000000D01*
X106489925Y-119019745D01*
X106440556Y-119105255D01*
X106415000Y-119200630D01*
X106415000Y-119299370D01*
X106440556Y-119394745D01*
X106489925Y-119480255D01*
X106509670Y-119500000D01*
X105647096Y-119500000D01*
X105649584Y-119512516D01*
X105649587Y-119512523D01*
X105717428Y-119676306D01*
X105717433Y-119676316D01*
X105815923Y-119823716D01*
X105815926Y-119823720D01*
X105941279Y-119949073D01*
X105941283Y-119949076D01*
X106088683Y-120047566D01*
X106088692Y-120047571D01*
X106252479Y-120115413D01*
X106252487Y-120115415D01*
X106426353Y-120149999D01*
X106426357Y-120150000D01*
X106540000Y-120150000D01*
X106540000Y-119530330D01*
X106559745Y-119550075D01*
X106645255Y-119599444D01*
X106740630Y-119625000D01*
X106839370Y-119625000D01*
X106934745Y-119599444D01*
X107020255Y-119550075D01*
X107040000Y-119530330D01*
X107040000Y-120150000D01*
X107153643Y-120150000D01*
X107153646Y-120149999D01*
X107327512Y-120115415D01*
X107327520Y-120115413D01*
X107491307Y-120047571D01*
X107491316Y-120047566D01*
X107638716Y-119949076D01*
X107638720Y-119949073D01*
X107764073Y-119823720D01*
X107764076Y-119823716D01*
X107862566Y-119676316D01*
X107862571Y-119676306D01*
X107930412Y-119512523D01*
X107930415Y-119512516D01*
X107932904Y-119500000D01*
X107070330Y-119500000D01*
X107090075Y-119480255D01*
X107139444Y-119394745D01*
X107165000Y-119299370D01*
X107165000Y-119200630D01*
X107139444Y-119105255D01*
X107090075Y-119019745D01*
X107070330Y-119000000D01*
X107932904Y-119000000D01*
X107930415Y-118987483D01*
X107930412Y-118987476D01*
X107862571Y-118823693D01*
X107862566Y-118823683D01*
X107764076Y-118676283D01*
X107764073Y-118676279D01*
X107638720Y-118550926D01*
X107638716Y-118550923D01*
X107491316Y-118452433D01*
X107491303Y-118452426D01*
X107338324Y-118389061D01*
X107283920Y-118345220D01*
X107261855Y-118278926D01*
X107279134Y-118211227D01*
X107330271Y-118163616D01*
X107385776Y-118150500D01*
X107458097Y-118150500D01*
X107458102Y-118150500D01*
X107546564Y-118139877D01*
X107687342Y-118084361D01*
X107807922Y-117992922D01*
X107899361Y-117872342D01*
X107954877Y-117731564D01*
X107965500Y-117643102D01*
X107965500Y-116856898D01*
X107954877Y-116768436D01*
X107899361Y-116627658D01*
X107899360Y-116627657D01*
X107899360Y-116627656D01*
X107807922Y-116507077D01*
X107687343Y-116415639D01*
X107546561Y-116360122D01*
X107500926Y-116354642D01*
X107458102Y-116349500D01*
X106121898Y-116349500D01*
X106082853Y-116354188D01*
X106033438Y-116360122D01*
X105892656Y-116415639D01*
X105772077Y-116507077D01*
X105680639Y-116627656D01*
X105625122Y-116768438D01*
X105622433Y-116790833D01*
X105614500Y-116856898D01*
X100500500Y-116856898D01*
X100500500Y-101006959D01*
X100501280Y-100993077D01*
X100504654Y-100963127D01*
X100511458Y-100902732D01*
X100515437Y-100891362D01*
X100515351Y-100882897D01*
X100517629Y-100875684D01*
X100545353Y-100796457D01*
X100557393Y-100771453D01*
X100602046Y-100700389D01*
X100619351Y-100678690D01*
X100678690Y-100619351D01*
X100700389Y-100602046D01*
X100771453Y-100557393D01*
X100796457Y-100545353D01*
X100875668Y-100517635D01*
X100902729Y-100511459D01*
X100978753Y-100502893D01*
X100993078Y-100501280D01*
X101006960Y-100500500D01*
X101065892Y-100500500D01*
X109901390Y-100500500D01*
X109968429Y-100520185D01*
G37*
%TD.AperFunction*%
%TA.AperFunction,Conductor*%
G36*
X174906922Y-100501280D02*
G01*
X174923878Y-100503190D01*
X174997268Y-100511458D01*
X175024333Y-100517636D01*
X175103536Y-100545351D01*
X175113736Y-100551759D01*
X175122007Y-100553559D01*
X175128542Y-100557391D01*
X175199606Y-100602043D01*
X175221313Y-100619355D01*
X175280644Y-100678686D01*
X175297957Y-100700395D01*
X175342602Y-100771447D01*
X175354649Y-100796464D01*
X175382362Y-100875662D01*
X175388541Y-100902734D01*
X175398720Y-100993076D01*
X175399500Y-101006959D01*
X175399500Y-120993040D01*
X175398720Y-121006923D01*
X175388541Y-121097265D01*
X175384561Y-121108637D01*
X175384648Y-121117102D01*
X175382362Y-121124337D01*
X175354649Y-121203535D01*
X175342602Y-121228552D01*
X175297957Y-121299604D01*
X175280644Y-121321313D01*
X175221313Y-121380644D01*
X175199604Y-121397957D01*
X175128552Y-121442602D01*
X175103535Y-121454649D01*
X175024337Y-121482362D01*
X174997265Y-121488541D01*
X174906923Y-121498720D01*
X174893040Y-121499500D01*
X138630469Y-121499500D01*
X138563430Y-121479815D01*
X138517675Y-121427011D01*
X138507731Y-121357853D01*
X138536756Y-121294297D01*
X138542788Y-121287819D01*
X138602055Y-121228552D01*
X138668242Y-121162365D01*
X138797815Y-120984022D01*
X138897895Y-120787606D01*
X138966015Y-120577951D01*
X139000500Y-120360222D01*
X139000500Y-118885500D01*
X139020185Y-118818461D01*
X139072989Y-118772706D01*
X139124500Y-118761500D01*
X139195055Y-118761500D01*
X139195057Y-118761500D01*
X139347784Y-118720577D01*
X139484716Y-118641520D01*
X139503417Y-118622819D01*
X139564740Y-118589334D01*
X139591098Y-118586500D01*
X140327882Y-118586500D01*
X140394921Y-118606185D01*
X140440676Y-118658989D01*
X140450620Y-118728147D01*
X140447659Y-118742583D01*
X140420500Y-118843943D01*
X140420500Y-119002057D01*
X140443146Y-119086571D01*
X140461423Y-119154783D01*
X140461426Y-119154790D01*
X140540475Y-119291709D01*
X140540479Y-119291714D01*
X140540480Y-119291716D01*
X140652284Y-119403520D01*
X140652286Y-119403521D01*
X140652290Y-119403524D01*
X140785194Y-119480255D01*
X140789216Y-119482577D01*
X140941943Y-119523500D01*
X140941945Y-119523500D01*
X141100055Y-119523500D01*
X141100057Y-119523500D01*
X141252784Y-119482577D01*
X141389716Y-119403520D01*
X141501520Y-119291716D01*
X141506262Y-119283501D01*
X141556828Y-119235285D01*
X141613651Y-119221499D01*
X146115500Y-119221499D01*
X146182539Y-119241184D01*
X146228294Y-119293988D01*
X146239500Y-119345499D01*
X146239500Y-120861856D01*
X146239502Y-120861882D01*
X146242413Y-120886987D01*
X146242415Y-120886991D01*
X146287793Y-120989764D01*
X146287794Y-120989765D01*
X146367235Y-121069206D01*
X146470009Y-121114585D01*
X146495135Y-121117500D01*
X148184864Y-121117499D01*
X148184879Y-121117497D01*
X148184882Y-121117497D01*
X148209987Y-121114586D01*
X148209988Y-121114585D01*
X148209991Y-121114585D01*
X148312765Y-121069206D01*
X148392206Y-120989765D01*
X148437585Y-120886991D01*
X148440500Y-120861865D01*
X148440499Y-119623607D01*
X148460184Y-119556569D01*
X148512987Y-119510814D01*
X148582146Y-119500870D01*
X148645702Y-119529895D01*
X148652180Y-119535927D01*
X148771350Y-119655097D01*
X148804835Y-119716420D01*
X148806142Y-119762176D01*
X148779500Y-119930389D01*
X148779500Y-120103610D01*
X148806494Y-120274049D01*
X148806598Y-120274701D01*
X148860127Y-120439445D01*
X148938768Y-120593788D01*
X149040586Y-120733928D01*
X149163072Y-120856414D01*
X149303212Y-120958232D01*
X149457555Y-121036873D01*
X149622299Y-121090402D01*
X149793389Y-121117500D01*
X149793390Y-121117500D01*
X149966610Y-121117500D01*
X149966611Y-121117500D01*
X150137701Y-121090402D01*
X150302445Y-121036873D01*
X150456788Y-120958232D01*
X150596928Y-120856414D01*
X150719414Y-120733928D01*
X150821232Y-120593788D01*
X150899873Y-120439445D01*
X150953402Y-120274701D01*
X150980500Y-120103611D01*
X150980500Y-120004610D01*
X151000185Y-119937571D01*
X151052989Y-119891816D01*
X151122147Y-119881872D01*
X151185703Y-119910897D01*
X151192181Y-119916929D01*
X151283181Y-120007929D01*
X151316666Y-120069252D01*
X151319500Y-120095610D01*
X151319500Y-120103610D01*
X151346494Y-120274049D01*
X151346598Y-120274701D01*
X151400127Y-120439445D01*
X151478768Y-120593788D01*
X151580586Y-120733928D01*
X151703072Y-120856414D01*
X151843212Y-120958232D01*
X151997555Y-121036873D01*
X152162299Y-121090402D01*
X152333389Y-121117500D01*
X152333390Y-121117500D01*
X152506610Y-121117500D01*
X152506611Y-121117500D01*
X152677701Y-121090402D01*
X152842445Y-121036873D01*
X152996788Y-120958232D01*
X153136928Y-120856414D01*
X153259414Y-120733928D01*
X153361232Y-120593788D01*
X153439873Y-120439445D01*
X153493402Y-120274701D01*
X153520500Y-120103611D01*
X153520500Y-119930389D01*
X153859500Y-119930389D01*
X153859500Y-120103610D01*
X153886494Y-120274049D01*
X153886598Y-120274701D01*
X153940127Y-120439445D01*
X154018768Y-120593788D01*
X154120586Y-120733928D01*
X154243072Y-120856414D01*
X154383212Y-120958232D01*
X154537555Y-121036873D01*
X154702299Y-121090402D01*
X154873389Y-121117500D01*
X154873390Y-121117500D01*
X155046610Y-121117500D01*
X155046611Y-121117500D01*
X155217701Y-121090402D01*
X155382445Y-121036873D01*
X155536788Y-120958232D01*
X155676928Y-120856414D01*
X155799414Y-120733928D01*
X155901232Y-120593788D01*
X155979873Y-120439445D01*
X156033402Y-120274701D01*
X156060500Y-120103611D01*
X156060500Y-119930389D01*
X156033402Y-119759299D01*
X155979873Y-119594555D01*
X155901232Y-119440212D01*
X155799414Y-119300072D01*
X155676928Y-119177586D01*
X155536788Y-119075768D01*
X155382445Y-118997127D01*
X155217701Y-118943598D01*
X155217699Y-118943597D01*
X155217698Y-118943597D01*
X155086271Y-118922781D01*
X155046611Y-118916500D01*
X154873389Y-118916500D01*
X154833728Y-118922781D01*
X154702302Y-118943597D01*
X154702299Y-118943598D01*
X154567258Y-118987476D01*
X154537552Y-118997128D01*
X154383211Y-119075768D01*
X154318390Y-119122864D01*
X154243072Y-119177586D01*
X154243070Y-119177588D01*
X154243069Y-119177588D01*
X154120588Y-119300069D01*
X154120588Y-119300070D01*
X154120586Y-119300072D01*
X154103023Y-119324246D01*
X154018768Y-119440211D01*
X153940128Y-119594552D01*
X153886597Y-119759302D01*
X153859500Y-119930389D01*
X153520500Y-119930389D01*
X153493402Y-119759299D01*
X153439873Y-119594555D01*
X153361232Y-119440212D01*
X153259414Y-119300072D01*
X153136928Y-119177586D01*
X152996788Y-119075768D01*
X152842445Y-118997127D01*
X152677701Y-118943598D01*
X152677699Y-118943597D01*
X152677698Y-118943597D01*
X152546271Y-118922781D01*
X152506611Y-118916500D01*
X152333389Y-118916500D01*
X152293728Y-118922781D01*
X152162302Y-118943597D01*
X152162299Y-118943598D01*
X152027258Y-118987476D01*
X151997552Y-118997128D01*
X151843212Y-119075767D01*
X151761680Y-119135004D01*
X151695873Y-119158483D01*
X151627819Y-119142657D01*
X151601114Y-119122366D01*
X150512928Y-118034180D01*
X150479443Y-117972857D01*
X150484427Y-117903165D01*
X150526299Y-117847232D01*
X150591763Y-117822815D01*
X150600609Y-117822499D01*
X156489613Y-117822499D01*
X156556652Y-117842184D01*
X156577294Y-117858818D01*
X157432595Y-118714119D01*
X157466080Y-118775442D01*
X157461096Y-118845134D01*
X157419224Y-118901067D01*
X157364312Y-118924273D01*
X157242302Y-118943597D01*
X157242299Y-118943598D01*
X157107258Y-118987476D01*
X157077552Y-118997128D01*
X156923211Y-119075768D01*
X156858390Y-119122864D01*
X156783072Y-119177586D01*
X156783070Y-119177588D01*
X156783069Y-119177588D01*
X156660588Y-119300069D01*
X156660588Y-119300070D01*
X156660586Y-119300072D01*
X156643023Y-119324246D01*
X156558768Y-119440211D01*
X156480128Y-119594552D01*
X156426597Y-119759302D01*
X156399500Y-119930389D01*
X156399500Y-120103610D01*
X156426494Y-120274049D01*
X156426598Y-120274701D01*
X156480127Y-120439445D01*
X156558768Y-120593788D01*
X156660586Y-120733928D01*
X156783072Y-120856414D01*
X156923212Y-120958232D01*
X157077555Y-121036873D01*
X157242299Y-121090402D01*
X157413389Y-121117500D01*
X157413390Y-121117500D01*
X157586610Y-121117500D01*
X157586611Y-121117500D01*
X157757701Y-121090402D01*
X157922445Y-121036873D01*
X158076788Y-120958232D01*
X158216928Y-120856414D01*
X158339414Y-120733928D01*
X158441232Y-120593788D01*
X158519873Y-120439445D01*
X158573402Y-120274701D01*
X158592727Y-120152683D01*
X158622654Y-120089554D01*
X158681966Y-120052622D01*
X158751828Y-120053620D01*
X158802880Y-120084405D01*
X158916974Y-120198499D01*
X158917988Y-120199524D01*
X158934609Y-120216536D01*
X158964324Y-120270317D01*
X158965093Y-120270068D01*
X158966386Y-120274049D01*
X158966482Y-120274222D01*
X158966593Y-120274685D01*
X158966597Y-120274697D01*
X158966598Y-120274701D01*
X159020127Y-120439445D01*
X159098768Y-120593788D01*
X159200586Y-120733928D01*
X159323072Y-120856414D01*
X159463212Y-120958232D01*
X159617555Y-121036873D01*
X159782299Y-121090402D01*
X159953389Y-121117500D01*
X159953390Y-121117500D01*
X160126610Y-121117500D01*
X160126611Y-121117500D01*
X160297701Y-121090402D01*
X160462445Y-121036873D01*
X160616788Y-120958232D01*
X160756928Y-120856414D01*
X160879414Y-120733928D01*
X160981232Y-120593788D01*
X161059873Y-120439445D01*
X161113402Y-120274701D01*
X161132727Y-120152683D01*
X161162654Y-120089554D01*
X161221966Y-120052622D01*
X161291828Y-120053620D01*
X161342880Y-120084405D01*
X161456975Y-120198500D01*
X161457989Y-120199525D01*
X161474609Y-120216536D01*
X161504324Y-120270317D01*
X161505093Y-120270068D01*
X161506386Y-120274049D01*
X161506482Y-120274222D01*
X161506593Y-120274685D01*
X161506597Y-120274697D01*
X161506598Y-120274701D01*
X161560127Y-120439445D01*
X161638768Y-120593788D01*
X161740586Y-120733928D01*
X161863072Y-120856414D01*
X162003212Y-120958232D01*
X162157555Y-121036873D01*
X162322299Y-121090402D01*
X162493389Y-121117500D01*
X162493390Y-121117500D01*
X162666610Y-121117500D01*
X162666611Y-121117500D01*
X162837701Y-121090402D01*
X163002445Y-121036873D01*
X163156788Y-120958232D01*
X163296928Y-120856414D01*
X163419414Y-120733928D01*
X163521232Y-120593788D01*
X163599873Y-120439445D01*
X163653402Y-120274701D01*
X163672727Y-120152683D01*
X163702654Y-120089554D01*
X163761966Y-120052622D01*
X163831828Y-120053620D01*
X163882880Y-120084405D01*
X163996975Y-120198500D01*
X163997989Y-120199525D01*
X164014609Y-120216536D01*
X164044324Y-120270317D01*
X164045093Y-120270068D01*
X164046386Y-120274049D01*
X164046482Y-120274222D01*
X164046593Y-120274685D01*
X164046597Y-120274697D01*
X164046598Y-120274701D01*
X164100127Y-120439445D01*
X164178768Y-120593788D01*
X164280586Y-120733928D01*
X164403072Y-120856414D01*
X164543212Y-120958232D01*
X164697555Y-121036873D01*
X164862299Y-121090402D01*
X165033389Y-121117500D01*
X165033390Y-121117500D01*
X165206610Y-121117500D01*
X165206611Y-121117500D01*
X165377701Y-121090402D01*
X165542445Y-121036873D01*
X165696788Y-120958232D01*
X165836928Y-120856414D01*
X165959414Y-120733928D01*
X166061232Y-120593788D01*
X166139873Y-120439445D01*
X166193402Y-120274701D01*
X166220500Y-120103611D01*
X166220500Y-119930389D01*
X166193402Y-119759299D01*
X166139873Y-119594555D01*
X166061232Y-119440212D01*
X165959414Y-119300072D01*
X165836928Y-119177586D01*
X165696788Y-119075768D01*
X165542445Y-118997127D01*
X165377701Y-118943598D01*
X165377699Y-118943597D01*
X165377698Y-118943597D01*
X165246271Y-118922781D01*
X165206611Y-118916500D01*
X165033389Y-118916500D01*
X164993728Y-118922781D01*
X164862302Y-118943597D01*
X164862299Y-118943598D01*
X164727258Y-118987476D01*
X164697552Y-118997128D01*
X164653164Y-119019745D01*
X164549340Y-119072645D01*
X164480673Y-119085541D01*
X164415932Y-119059265D01*
X164405366Y-119049841D01*
X163584016Y-118228491D01*
X163584015Y-118228490D01*
X163458485Y-118156016D01*
X163458486Y-118156016D01*
X163421783Y-118146181D01*
X163327165Y-118120828D01*
X163267508Y-118084465D01*
X163236979Y-118021618D01*
X163244700Y-117953604D01*
X163284580Y-117857327D01*
X163311500Y-117721992D01*
X163311500Y-117584006D01*
X163311500Y-117584003D01*
X163284581Y-117448676D01*
X163284580Y-117448675D01*
X163284580Y-117448671D01*
X163280726Y-117439367D01*
X163231778Y-117321194D01*
X163231771Y-117321181D01*
X163182398Y-117247289D01*
X163161520Y-117180611D01*
X163161500Y-117178398D01*
X163161500Y-107751415D01*
X163181185Y-107684376D01*
X163233989Y-107638621D01*
X163303147Y-107628677D01*
X163347498Y-107644027D01*
X163395216Y-107671577D01*
X163547943Y-107712500D01*
X163574390Y-107712500D01*
X163641429Y-107732185D01*
X163662071Y-107748819D01*
X167929035Y-112015783D01*
X167962520Y-112077106D01*
X167963759Y-112084973D01*
X167999103Y-112262658D01*
X167999106Y-112262667D01*
X168066983Y-112426540D01*
X168066990Y-112426553D01*
X168165535Y-112574034D01*
X168165538Y-112574038D01*
X168290961Y-112699461D01*
X168290965Y-112699464D01*
X168438446Y-112798009D01*
X168438458Y-112798016D01*
X168558158Y-112847596D01*
X168590372Y-112860939D01*
X168644776Y-112904779D01*
X168666841Y-112971073D01*
X168649562Y-113038773D01*
X168598425Y-113086383D01*
X168542920Y-113099500D01*
X168471898Y-113099500D01*
X168432853Y-113104188D01*
X168383438Y-113110122D01*
X168242656Y-113165639D01*
X168122077Y-113257077D01*
X168030639Y-113377656D01*
X167975122Y-113518438D01*
X167971755Y-113546480D01*
X167964500Y-113606898D01*
X167964500Y-114393102D01*
X167968116Y-114423211D01*
X167975122Y-114481561D01*
X167975122Y-114481563D01*
X167975123Y-114481564D01*
X167979831Y-114493502D01*
X168030639Y-114622343D01*
X168122077Y-114742922D01*
X168242656Y-114834360D01*
X168242657Y-114834360D01*
X168242658Y-114834361D01*
X168383436Y-114889877D01*
X168471898Y-114900500D01*
X168471903Y-114900500D01*
X169808097Y-114900500D01*
X169808102Y-114900500D01*
X169896564Y-114889877D01*
X170037342Y-114834361D01*
X170157922Y-114742922D01*
X170249361Y-114622342D01*
X170304877Y-114481564D01*
X170315500Y-114393102D01*
X170315500Y-113606898D01*
X170304877Y-113518436D01*
X170249361Y-113377658D01*
X170249360Y-113377657D01*
X170249360Y-113377656D01*
X170157922Y-113257077D01*
X170037343Y-113165639D01*
X169896561Y-113110122D01*
X169850926Y-113104642D01*
X169808102Y-113099500D01*
X169737080Y-113099500D01*
X169670041Y-113079815D01*
X169624286Y-113027011D01*
X169614342Y-112957853D01*
X169643367Y-112894297D01*
X169689627Y-112860939D01*
X169778434Y-112824155D01*
X169841541Y-112798016D01*
X169841544Y-112798014D01*
X169841547Y-112798013D01*
X169989035Y-112699464D01*
X170114464Y-112574035D01*
X170213013Y-112426547D01*
X170214158Y-112423784D01*
X170224009Y-112400000D01*
X170280894Y-112262666D01*
X170315500Y-112088691D01*
X170315500Y-111911309D01*
X170315500Y-111911306D01*
X170315499Y-111911304D01*
X170280896Y-111737341D01*
X170280893Y-111737332D01*
X170213016Y-111573459D01*
X170213009Y-111573446D01*
X170114464Y-111425965D01*
X170114461Y-111425961D01*
X169989038Y-111300538D01*
X169989034Y-111300535D01*
X169841553Y-111201990D01*
X169841540Y-111201983D01*
X169677667Y-111134106D01*
X169677658Y-111134103D01*
X169614882Y-111121617D01*
X169552971Y-111089232D01*
X169518397Y-111028517D01*
X169522136Y-110958747D01*
X169563003Y-110902075D01*
X169614882Y-110878383D01*
X169677658Y-110865896D01*
X169677661Y-110865894D01*
X169677666Y-110865894D01*
X169841547Y-110798013D01*
X169989035Y-110699464D01*
X170114464Y-110574035D01*
X170213013Y-110426547D01*
X170214257Y-110423545D01*
X170229591Y-110386524D01*
X170280894Y-110262666D01*
X170282599Y-110254098D01*
X170315499Y-110088695D01*
X170315500Y-110088693D01*
X170315500Y-109911306D01*
X170315499Y-109911304D01*
X170280896Y-109737341D01*
X170280893Y-109737332D01*
X170213016Y-109573459D01*
X170213009Y-109573446D01*
X170114464Y-109425965D01*
X170114461Y-109425961D01*
X169989038Y-109300538D01*
X169989034Y-109300535D01*
X169841553Y-109201990D01*
X169841540Y-109201983D01*
X169677667Y-109134106D01*
X169677658Y-109134103D01*
X169614882Y-109121617D01*
X169552971Y-109089232D01*
X169518397Y-109028517D01*
X169522136Y-108958747D01*
X169563003Y-108902075D01*
X169614882Y-108878383D01*
X169677658Y-108865896D01*
X169677661Y-108865894D01*
X169677666Y-108865894D01*
X169841547Y-108798013D01*
X169989035Y-108699464D01*
X170114464Y-108574035D01*
X170213013Y-108426547D01*
X170280894Y-108262666D01*
X170282639Y-108253896D01*
X170310124Y-108115716D01*
X170315500Y-108088691D01*
X170315500Y-107911309D01*
X170315500Y-107911306D01*
X170315499Y-107911304D01*
X170280896Y-107737341D01*
X170280893Y-107737332D01*
X170270607Y-107712500D01*
X170253657Y-107671577D01*
X170213016Y-107573459D01*
X170213009Y-107573446D01*
X170114464Y-107425965D01*
X170114461Y-107425961D01*
X169989038Y-107300538D01*
X169989034Y-107300535D01*
X169841553Y-107201990D01*
X169841540Y-107201983D01*
X169677667Y-107134106D01*
X169677658Y-107134103D01*
X169503694Y-107099500D01*
X169503691Y-107099500D01*
X168776309Y-107099500D01*
X168776306Y-107099500D01*
X168602341Y-107134103D01*
X168602332Y-107134106D01*
X168438459Y-107201983D01*
X168438446Y-107201990D01*
X168290965Y-107300535D01*
X168290961Y-107300538D01*
X168165538Y-107425961D01*
X168165535Y-107425965D01*
X168066990Y-107573446D01*
X168066983Y-107573459D01*
X167999106Y-107737332D01*
X167999103Y-107737341D01*
X167964500Y-107911304D01*
X167964500Y-108008390D01*
X167944815Y-108075429D01*
X167892011Y-108121184D01*
X167822853Y-108131128D01*
X167759297Y-108102103D01*
X167752819Y-108096071D01*
X164342819Y-104686071D01*
X164309334Y-104624748D01*
X164306500Y-104598390D01*
X164306500Y-102995614D01*
X164326185Y-102928575D01*
X164378989Y-102882820D01*
X164448147Y-102872876D01*
X164503386Y-102895297D01*
X164543207Y-102924229D01*
X164543209Y-102924230D01*
X164543212Y-102924232D01*
X164697555Y-103002873D01*
X164862299Y-103056402D01*
X165033389Y-103083500D01*
X165033390Y-103083500D01*
X165206610Y-103083500D01*
X165206611Y-103083500D01*
X165377701Y-103056402D01*
X165542445Y-103002873D01*
X165696788Y-102924232D01*
X165836928Y-102822414D01*
X165959414Y-102699928D01*
X166061232Y-102559788D01*
X166139873Y-102405445D01*
X166193402Y-102240701D01*
X166220500Y-102069611D01*
X166220500Y-101896389D01*
X166193402Y-101725299D01*
X166139873Y-101560555D01*
X166061232Y-101406212D01*
X165959414Y-101266072D01*
X165836928Y-101143586D01*
X165696788Y-101041768D01*
X165542445Y-100963127D01*
X165377701Y-100909598D01*
X165377699Y-100909597D01*
X165377698Y-100909597D01*
X165246271Y-100888781D01*
X165206611Y-100882500D01*
X165033389Y-100882500D01*
X164993728Y-100888781D01*
X164862302Y-100909597D01*
X164697552Y-100963128D01*
X164543211Y-101041768D01*
X164463256Y-101099859D01*
X164403072Y-101143586D01*
X164403070Y-101143588D01*
X164399368Y-101146750D01*
X164398536Y-101145776D01*
X164342369Y-101176433D01*
X164272679Y-101171436D01*
X164229329Y-101139386D01*
X164227232Y-101141484D01*
X163797929Y-100712181D01*
X163764444Y-100650858D01*
X163769428Y-100581166D01*
X163811300Y-100525233D01*
X163876764Y-100500816D01*
X163885610Y-100500500D01*
X174834108Y-100500500D01*
X174893040Y-100500500D01*
X174906922Y-100501280D01*
G37*
%TD.AperFunction*%
%TA.AperFunction,Conductor*%
G36*
X122868921Y-105652185D02*
G01*
X122914676Y-105704989D01*
X122924620Y-105774147D01*
X122921659Y-105788583D01*
X122894500Y-105889943D01*
X122894500Y-106048057D01*
X122929249Y-106177740D01*
X122935423Y-106200783D01*
X122935426Y-106200790D01*
X123014475Y-106337709D01*
X123014479Y-106337714D01*
X123014480Y-106337716D01*
X123126284Y-106449520D01*
X123126286Y-106449521D01*
X123126290Y-106449524D01*
X123225169Y-106506611D01*
X123263216Y-106528577D01*
X123415943Y-106569500D01*
X123442390Y-106569500D01*
X123509429Y-106589185D01*
X123530071Y-106605819D01*
X124986273Y-108062021D01*
X125019758Y-108123344D01*
X125014774Y-108193036D01*
X124986283Y-108237374D01*
X124980587Y-108243070D01*
X124878768Y-108383211D01*
X124800128Y-108537552D01*
X124800127Y-108537554D01*
X124800127Y-108537555D01*
X124789200Y-108571185D01*
X124746597Y-108702302D01*
X124731439Y-108798009D01*
X124719500Y-108873389D01*
X124719500Y-109046611D01*
X124725152Y-109082299D01*
X124744109Y-109201990D01*
X124746598Y-109217701D01*
X124786335Y-109339999D01*
X124800128Y-109382447D01*
X124828743Y-109438607D01*
X124878768Y-109536788D01*
X124980586Y-109676928D01*
X125103072Y-109799414D01*
X125243212Y-109901232D01*
X125397555Y-109979873D01*
X125562299Y-110033402D01*
X125733389Y-110060500D01*
X125733390Y-110060500D01*
X125906610Y-110060500D01*
X125906611Y-110060500D01*
X126077701Y-110033402D01*
X126242445Y-109979873D01*
X126396788Y-109901232D01*
X126536928Y-109799414D01*
X126603523Y-109732819D01*
X126664846Y-109699334D01*
X126691204Y-109696500D01*
X127204390Y-109696500D01*
X127271429Y-109716185D01*
X127292071Y-109732819D01*
X127430181Y-109870929D01*
X127463666Y-109932252D01*
X127466500Y-109958610D01*
X127466500Y-109985057D01*
X127503314Y-110122447D01*
X127507423Y-110137783D01*
X127507426Y-110137790D01*
X127586475Y-110274709D01*
X127586479Y-110274714D01*
X127586480Y-110274716D01*
X127698284Y-110386520D01*
X127698286Y-110386521D01*
X127698290Y-110386524D01*
X127804742Y-110447983D01*
X127835216Y-110465577D01*
X127987943Y-110506500D01*
X127987945Y-110506500D01*
X128146055Y-110506500D01*
X128146057Y-110506500D01*
X128298784Y-110465577D01*
X128435716Y-110386520D01*
X128547520Y-110274716D01*
X128626577Y-110137784D01*
X128667500Y-109985057D01*
X128667500Y-109890308D01*
X128687185Y-109823269D01*
X128703819Y-109802627D01*
X129037037Y-109469408D01*
X129054075Y-109532993D01*
X129119901Y-109647007D01*
X129212993Y-109740099D01*
X129327007Y-109805925D01*
X129390589Y-109822962D01*
X128937261Y-110276289D01*
X128937262Y-110276290D01*
X128943471Y-110280801D01*
X129097742Y-110359408D01*
X129262415Y-110412914D01*
X129433429Y-110440000D01*
X129606571Y-110440000D01*
X129777584Y-110412914D01*
X129942257Y-110359408D01*
X130096525Y-110280803D01*
X130102736Y-110276289D01*
X130102737Y-110276289D01*
X129649410Y-109822962D01*
X129712993Y-109805925D01*
X129827007Y-109740099D01*
X129920099Y-109647007D01*
X129985925Y-109532993D01*
X130002962Y-109469408D01*
X130272181Y-109738627D01*
X130305666Y-109799950D01*
X130308500Y-109826308D01*
X130308500Y-109849981D01*
X130308500Y-109962018D01*
X130337497Y-110070237D01*
X130393515Y-110167263D01*
X132044513Y-111818262D01*
X132044514Y-111818263D01*
X132123736Y-111897485D01*
X132220762Y-111953503D01*
X132328981Y-111982500D01*
X133179902Y-111982500D01*
X133246941Y-112002185D01*
X133267583Y-112018819D01*
X133286284Y-112037520D01*
X133286286Y-112037521D01*
X133286290Y-112037524D01*
X133413870Y-112111181D01*
X133423216Y-112116577D01*
X133575943Y-112157500D01*
X133575945Y-112157500D01*
X133734055Y-112157500D01*
X133734057Y-112157500D01*
X133886784Y-112116577D01*
X134023716Y-112037520D01*
X134135520Y-111925716D01*
X134214577Y-111788784D01*
X134255500Y-111636057D01*
X134255500Y-111477943D01*
X134214577Y-111325216D01*
X134176934Y-111260015D01*
X134135524Y-111188290D01*
X134135518Y-111188282D01*
X134023717Y-111076481D01*
X134023709Y-111076475D01*
X133886790Y-110997426D01*
X133886786Y-110997424D01*
X133886784Y-110997423D01*
X133734057Y-110956500D01*
X133575943Y-110956500D01*
X133423216Y-110997423D01*
X133423209Y-110997426D01*
X133286290Y-111076475D01*
X133286282Y-111076481D01*
X133267583Y-111095181D01*
X133206260Y-111128666D01*
X133179902Y-111131500D01*
X132612609Y-111131500D01*
X132545570Y-111111815D01*
X132524928Y-111095181D01*
X132080118Y-110650370D01*
X132046633Y-110589047D01*
X132051617Y-110519355D01*
X132093489Y-110463422D01*
X132148400Y-110440216D01*
X132253661Y-110423545D01*
X132317696Y-110413403D01*
X132317696Y-110413402D01*
X132317701Y-110413402D01*
X132482445Y-110359873D01*
X132636788Y-110281232D01*
X132776928Y-110179414D01*
X132899414Y-110056928D01*
X133001232Y-109916788D01*
X133079873Y-109762445D01*
X133133402Y-109597701D01*
X133160500Y-109426611D01*
X133160500Y-109253389D01*
X133143651Y-109147007D01*
X133138476Y-109114334D01*
X133147431Y-109045040D01*
X133173265Y-109007258D01*
X133287821Y-108892702D01*
X133349142Y-108859219D01*
X133418834Y-108864203D01*
X133474767Y-108906075D01*
X133499184Y-108971539D01*
X133499500Y-108980385D01*
X133499500Y-110184856D01*
X133499502Y-110184882D01*
X133502413Y-110209987D01*
X133502415Y-110209991D01*
X133547793Y-110312764D01*
X133547794Y-110312765D01*
X133627235Y-110392206D01*
X133730009Y-110437585D01*
X133755135Y-110440500D01*
X135444864Y-110440499D01*
X135444879Y-110440497D01*
X135444882Y-110440497D01*
X135469987Y-110437586D01*
X135469988Y-110437585D01*
X135469991Y-110437585D01*
X135572765Y-110392206D01*
X135652206Y-110312765D01*
X135697585Y-110209991D01*
X135700500Y-110184865D01*
X135700499Y-108675499D01*
X135720184Y-108608461D01*
X135772987Y-108562706D01*
X135824499Y-108551500D01*
X137289841Y-108551500D01*
X137356880Y-108571185D01*
X137402635Y-108623989D01*
X137412579Y-108693147D01*
X137390159Y-108748386D01*
X137379196Y-108763474D01*
X137300591Y-108917742D01*
X137247085Y-109082415D01*
X137220000Y-109253428D01*
X137220000Y-109426571D01*
X137247085Y-109597584D01*
X137300592Y-109762259D01*
X137379196Y-109916525D01*
X137383709Y-109922736D01*
X137383709Y-109922737D01*
X137837037Y-109469408D01*
X137854075Y-109532993D01*
X137919901Y-109647007D01*
X138012993Y-109740099D01*
X138127007Y-109805925D01*
X138190589Y-109822962D01*
X137737261Y-110276289D01*
X137737262Y-110276290D01*
X137743471Y-110280801D01*
X137897742Y-110359408D01*
X138062415Y-110412914D01*
X138233429Y-110440000D01*
X138406571Y-110440000D01*
X138577584Y-110412914D01*
X138742257Y-110359408D01*
X138896525Y-110280803D01*
X138902736Y-110276289D01*
X138902737Y-110276289D01*
X138449410Y-109822962D01*
X138512993Y-109805925D01*
X138627007Y-109740099D01*
X138720099Y-109647007D01*
X138785925Y-109532993D01*
X138802962Y-109469409D01*
X139256289Y-109922736D01*
X139260803Y-109916525D01*
X139339408Y-109762257D01*
X139392914Y-109597584D01*
X139420000Y-109426571D01*
X139420000Y-109253428D01*
X139392914Y-109082415D01*
X139339408Y-108917742D01*
X139260803Y-108763474D01*
X139249841Y-108748386D01*
X139226361Y-108682580D01*
X139242186Y-108614526D01*
X139292292Y-108565831D01*
X139350159Y-108551500D01*
X139829222Y-108551500D01*
X139896261Y-108571185D01*
X139942016Y-108623989D01*
X139951960Y-108693147D01*
X139929539Y-108748386D01*
X139918770Y-108763207D01*
X139840128Y-108917552D01*
X139786597Y-109082302D01*
X139759500Y-109253389D01*
X139759500Y-109426610D01*
X139786475Y-109596929D01*
X139786598Y-109597701D01*
X139840127Y-109762445D01*
X139918768Y-109916788D01*
X140020586Y-110056928D01*
X140143072Y-110179414D01*
X140283212Y-110281232D01*
X140437555Y-110359873D01*
X140602299Y-110413402D01*
X140773389Y-110440500D01*
X140773390Y-110440500D01*
X140946610Y-110440500D01*
X140946611Y-110440500D01*
X141066672Y-110421484D01*
X141135966Y-110430439D01*
X141173751Y-110456276D01*
X145254985Y-114537510D01*
X145254987Y-114537511D01*
X145254991Y-114537514D01*
X145324338Y-114577551D01*
X145324341Y-114577552D01*
X145324346Y-114577555D01*
X145380515Y-114609984D01*
X145520525Y-114647500D01*
X145520526Y-114647500D01*
X145665474Y-114647500D01*
X154262400Y-114647500D01*
X154329439Y-114667185D01*
X154331291Y-114668398D01*
X154405189Y-114717775D01*
X154405191Y-114717776D01*
X154405195Y-114717778D01*
X154532667Y-114770578D01*
X154532672Y-114770580D01*
X154532676Y-114770580D01*
X154532677Y-114770581D01*
X154668004Y-114797500D01*
X154668007Y-114797500D01*
X154805995Y-114797500D01*
X154897041Y-114779389D01*
X154941328Y-114770580D01*
X155068811Y-114717775D01*
X155183542Y-114641114D01*
X155281114Y-114543542D01*
X155357775Y-114428811D01*
X155383269Y-114367262D01*
X155427107Y-114312861D01*
X155493401Y-114290795D01*
X155561101Y-114308073D01*
X155585510Y-114327035D01*
X159972594Y-118714119D01*
X160006079Y-118775442D01*
X160001095Y-118845134D01*
X159959223Y-118901067D01*
X159904311Y-118924273D01*
X159782302Y-118943597D01*
X159782299Y-118943598D01*
X159647258Y-118987476D01*
X159617552Y-118997128D01*
X159573164Y-119019745D01*
X159469340Y-119072645D01*
X159400673Y-119085541D01*
X159335932Y-119059265D01*
X159325366Y-119049841D01*
X158250541Y-117975016D01*
X157107015Y-116831489D01*
X156981485Y-116759015D01*
X156981480Y-116759013D01*
X156915698Y-116741386D01*
X156915698Y-116741387D01*
X156878586Y-116731443D01*
X156841475Y-116721499D01*
X156841474Y-116721499D01*
X143676979Y-116721499D01*
X143609940Y-116701814D01*
X143564185Y-116649010D01*
X143554241Y-116579852D01*
X143562418Y-116550047D01*
X143599578Y-116460332D01*
X143599580Y-116460328D01*
X143619512Y-116360123D01*
X143626500Y-116324995D01*
X143626500Y-116224000D01*
X143646185Y-116156961D01*
X143698989Y-116111206D01*
X143750500Y-116100000D01*
X143786571Y-116100000D01*
X143957584Y-116072914D01*
X144122257Y-116019408D01*
X144276525Y-115940803D01*
X144282736Y-115936289D01*
X143746446Y-115400000D01*
X143752661Y-115400000D01*
X143854394Y-115372741D01*
X143945606Y-115320080D01*
X144020080Y-115245606D01*
X144072741Y-115154394D01*
X144100000Y-115052661D01*
X144100000Y-115046447D01*
X144636289Y-115582736D01*
X144640803Y-115576525D01*
X144719408Y-115422257D01*
X144772914Y-115257584D01*
X144800000Y-115086571D01*
X144800000Y-114913428D01*
X144772914Y-114742415D01*
X144719408Y-114577742D01*
X144640801Y-114423471D01*
X144636290Y-114417262D01*
X144636289Y-114417261D01*
X144100000Y-114953551D01*
X144100000Y-114947339D01*
X144072741Y-114845606D01*
X144020080Y-114754394D01*
X143945606Y-114679920D01*
X143854394Y-114627259D01*
X143752661Y-114600000D01*
X143746447Y-114600000D01*
X144282737Y-114063709D01*
X144276525Y-114059196D01*
X144122259Y-113980592D01*
X143957584Y-113927085D01*
X143786571Y-113900000D01*
X143613429Y-113900000D01*
X143442415Y-113927085D01*
X143277740Y-113980592D01*
X143123480Y-114059193D01*
X143123463Y-114059203D01*
X143117261Y-114063708D01*
X143117261Y-114063709D01*
X143653554Y-114600000D01*
X143647339Y-114600000D01*
X143545606Y-114627259D01*
X143454394Y-114679920D01*
X143379920Y-114754394D01*
X143327259Y-114845606D01*
X143300000Y-114947339D01*
X143300000Y-114953553D01*
X142763709Y-114417261D01*
X142763708Y-114417261D01*
X142759203Y-114423463D01*
X142759193Y-114423480D01*
X142680592Y-114577740D01*
X142627085Y-114742415D01*
X142600000Y-114913428D01*
X142600000Y-115086571D01*
X142627085Y-115257584D01*
X142680593Y-115422263D01*
X142694236Y-115449038D01*
X142707132Y-115517707D01*
X142680855Y-115582447D01*
X142631205Y-115619891D01*
X142594197Y-115635220D01*
X142594182Y-115635228D01*
X142479458Y-115711885D01*
X142479454Y-115711888D01*
X142395162Y-115796181D01*
X142333839Y-115829666D01*
X142307481Y-115832500D01*
X142198810Y-115832500D01*
X142131771Y-115812815D01*
X142086016Y-115760011D01*
X142076072Y-115690853D01*
X142098492Y-115635614D01*
X142141232Y-115576788D01*
X142219873Y-115422445D01*
X142273402Y-115257701D01*
X142300500Y-115086611D01*
X142300500Y-114913389D01*
X142273402Y-114742299D01*
X142219873Y-114577555D01*
X142141232Y-114423212D01*
X142039414Y-114283072D01*
X141916928Y-114160586D01*
X141776788Y-114058768D01*
X141622445Y-113980127D01*
X141457701Y-113926598D01*
X141457699Y-113926597D01*
X141457698Y-113926597D01*
X141326271Y-113905781D01*
X141286611Y-113899500D01*
X141113389Y-113899500D01*
X141073728Y-113905781D01*
X140942302Y-113926597D01*
X140777552Y-113980128D01*
X140623211Y-114058768D01*
X140552795Y-114109929D01*
X140483072Y-114160586D01*
X140483070Y-114160588D01*
X140483069Y-114160588D01*
X140360588Y-114283069D01*
X140360588Y-114283070D01*
X140360586Y-114283072D01*
X140343196Y-114307007D01*
X140258768Y-114423211D01*
X140180128Y-114577552D01*
X140126597Y-114742302D01*
X140099500Y-114913389D01*
X140099500Y-115086610D01*
X140125283Y-115249403D01*
X140126598Y-115257701D01*
X140180127Y-115422445D01*
X140258768Y-115576788D01*
X140301227Y-115635228D01*
X140301508Y-115635614D01*
X140324988Y-115701420D01*
X140309163Y-115769474D01*
X140259057Y-115818169D01*
X140201190Y-115832500D01*
X132283386Y-115832500D01*
X132216347Y-115812815D01*
X132195705Y-115796181D01*
X131718209Y-115318685D01*
X131684724Y-115257362D01*
X131689708Y-115187670D01*
X131731580Y-115131737D01*
X131797044Y-115107320D01*
X131844208Y-115113073D01*
X131870706Y-115121682D01*
X132049494Y-115150000D01*
X132230506Y-115150000D01*
X132409293Y-115121682D01*
X132581444Y-115065748D01*
X132581452Y-115065745D01*
X132742730Y-114983568D01*
X132758532Y-114972085D01*
X132269409Y-114482962D01*
X132332993Y-114465925D01*
X132447007Y-114400099D01*
X132540099Y-114307007D01*
X132605925Y-114192993D01*
X132622962Y-114129410D01*
X133112085Y-114618533D01*
X133112085Y-114618532D01*
X133123568Y-114602730D01*
X133205745Y-114441452D01*
X133205748Y-114441444D01*
X133261682Y-114269293D01*
X133290000Y-114090506D01*
X133290000Y-113909493D01*
X133261682Y-113730706D01*
X133205748Y-113558555D01*
X133205747Y-113558552D01*
X133123571Y-113397275D01*
X133123566Y-113397267D01*
X133112085Y-113381466D01*
X132622962Y-113870589D01*
X132605925Y-113807007D01*
X132540099Y-113692993D01*
X132447007Y-113599901D01*
X132332993Y-113534075D01*
X132269409Y-113517037D01*
X132758533Y-113027913D01*
X132742730Y-113016431D01*
X132581447Y-112934252D01*
X132581444Y-112934251D01*
X132409293Y-112878317D01*
X132230506Y-112850000D01*
X132049494Y-112850000D01*
X131870706Y-112878317D01*
X131698555Y-112934251D01*
X131698547Y-112934254D01*
X131537269Y-113016432D01*
X131521466Y-113027912D01*
X131521466Y-113027913D01*
X132010591Y-113517037D01*
X131947007Y-113534075D01*
X131832993Y-113599901D01*
X131739901Y-113692993D01*
X131674075Y-113807007D01*
X131657037Y-113870591D01*
X131167912Y-113381466D01*
X131156432Y-113397269D01*
X131074254Y-113558547D01*
X131074251Y-113558555D01*
X131018317Y-113730706D01*
X130996972Y-113865474D01*
X130967043Y-113928609D01*
X130907731Y-113965540D01*
X130837869Y-113964542D01*
X130779636Y-113925932D01*
X130751522Y-113861969D01*
X130750499Y-113846076D01*
X130750499Y-113105143D01*
X130750499Y-113105136D01*
X130747585Y-113080009D01*
X130702206Y-112977235D01*
X130622765Y-112897794D01*
X130550523Y-112865896D01*
X130519992Y-112852415D01*
X130494865Y-112849500D01*
X128705143Y-112849500D01*
X128705117Y-112849502D01*
X128680012Y-112852413D01*
X128680008Y-112852415D01*
X128577235Y-112897793D01*
X128497794Y-112977234D01*
X128452415Y-113080006D01*
X128452415Y-113080008D01*
X128449500Y-113105131D01*
X128449500Y-114894856D01*
X128449502Y-114894882D01*
X128452413Y-114919987D01*
X128452415Y-114919991D01*
X128497793Y-115022764D01*
X128549070Y-115074041D01*
X128582555Y-115135364D01*
X128577571Y-115205056D01*
X128549070Y-115249403D01*
X128140329Y-115658144D01*
X128079006Y-115691629D01*
X128076840Y-115692080D01*
X127989676Y-115709418D01*
X127989666Y-115709421D01*
X127862194Y-115762221D01*
X127862181Y-115762228D01*
X127747457Y-115838885D01*
X127747453Y-115838888D01*
X127649887Y-115936454D01*
X127649884Y-115936458D01*
X127573227Y-116051182D01*
X127573220Y-116051195D01*
X127520420Y-116178667D01*
X127520417Y-116178677D01*
X127493499Y-116314004D01*
X127493499Y-116430389D01*
X127473814Y-116497428D01*
X127457180Y-116518070D01*
X127117309Y-116857940D01*
X127055986Y-116891425D01*
X126986294Y-116886441D01*
X126930361Y-116844569D01*
X126905944Y-116779105D01*
X126907154Y-116750870D01*
X126920500Y-116666611D01*
X126920500Y-116493389D01*
X126893402Y-116322299D01*
X126839873Y-116157555D01*
X126761232Y-116003212D01*
X126659414Y-115863072D01*
X126536928Y-115740586D01*
X126396788Y-115638768D01*
X126242445Y-115560127D01*
X126077701Y-115506598D01*
X126077699Y-115506597D01*
X126077698Y-115506597D01*
X125946271Y-115485781D01*
X125906611Y-115479500D01*
X125733389Y-115479500D01*
X125693728Y-115485781D01*
X125562302Y-115506597D01*
X125397552Y-115560128D01*
X125243211Y-115638768D01*
X125164293Y-115696106D01*
X125103072Y-115740586D01*
X125103070Y-115740588D01*
X125103069Y-115740588D01*
X124980588Y-115863069D01*
X124980588Y-115863070D01*
X124980586Y-115863072D01*
X124958296Y-115893752D01*
X124878768Y-116003211D01*
X124800128Y-116157550D01*
X124800066Y-116157742D01*
X124797429Y-116165855D01*
X124757993Y-116223529D01*
X124693634Y-116250727D01*
X124624788Y-116238812D01*
X124573312Y-116191567D01*
X124555500Y-116127535D01*
X124555500Y-114492464D01*
X124575185Y-114425425D01*
X124627989Y-114379670D01*
X124697147Y-114369726D01*
X124760703Y-114398751D01*
X124797429Y-114454143D01*
X124800127Y-114462445D01*
X124800129Y-114462450D01*
X124800130Y-114462451D01*
X124815422Y-114492464D01*
X124878768Y-114616788D01*
X124980586Y-114756928D01*
X125103072Y-114879414D01*
X125243212Y-114981232D01*
X125397555Y-115059873D01*
X125562299Y-115113402D01*
X125733389Y-115140500D01*
X125733390Y-115140500D01*
X125906610Y-115140500D01*
X125906611Y-115140500D01*
X126077701Y-115113402D01*
X126242445Y-115059873D01*
X126396788Y-114981232D01*
X126536928Y-114879414D01*
X126659414Y-114756928D01*
X126761232Y-114616788D01*
X126839873Y-114462445D01*
X126893402Y-114297701D01*
X126920500Y-114126611D01*
X126920500Y-113953389D01*
X126893402Y-113782299D01*
X126839873Y-113617555D01*
X126761232Y-113463212D01*
X126659414Y-113323072D01*
X126536928Y-113200586D01*
X126396788Y-113098768D01*
X126242445Y-113020127D01*
X126077701Y-112966598D01*
X126077699Y-112966597D01*
X126077698Y-112966597D01*
X125946271Y-112945781D01*
X125906611Y-112939500D01*
X125733389Y-112939500D01*
X125693728Y-112945781D01*
X125562302Y-112966597D01*
X125553361Y-112969502D01*
X125466769Y-112997638D01*
X125397549Y-113020129D01*
X125310811Y-113064324D01*
X125242142Y-113077220D01*
X125177402Y-113050943D01*
X125147131Y-113015840D01*
X125118520Y-112966284D01*
X125006716Y-112854480D01*
X125006714Y-112854479D01*
X125006709Y-112854475D01*
X124869790Y-112775426D01*
X124869786Y-112775424D01*
X124869784Y-112775423D01*
X124717057Y-112734500D01*
X124717056Y-112734500D01*
X124690610Y-112734500D01*
X124623571Y-112714815D01*
X124602929Y-112698181D01*
X123575819Y-111671071D01*
X123561115Y-111644143D01*
X123544523Y-111618325D01*
X123543631Y-111612124D01*
X123542334Y-111609748D01*
X123539500Y-111583390D01*
X123539500Y-111413389D01*
X124719500Y-111413389D01*
X124719500Y-111586610D01*
X124741671Y-111726598D01*
X124746598Y-111757701D01*
X124792017Y-111897486D01*
X124800128Y-111922447D01*
X124839643Y-112000001D01*
X124878768Y-112076788D01*
X124980586Y-112216928D01*
X125103072Y-112339414D01*
X125243212Y-112441232D01*
X125397555Y-112519873D01*
X125562299Y-112573402D01*
X125733389Y-112600500D01*
X125733390Y-112600500D01*
X125906610Y-112600500D01*
X125906611Y-112600500D01*
X126077701Y-112573402D01*
X126242445Y-112519873D01*
X126396788Y-112441232D01*
X126536928Y-112339414D01*
X126659414Y-112216928D01*
X126761232Y-112076788D01*
X126839873Y-111922445D01*
X126893402Y-111757701D01*
X126920500Y-111586611D01*
X126920500Y-111413389D01*
X126893402Y-111242299D01*
X126839873Y-111077555D01*
X126761232Y-110923212D01*
X126659414Y-110783072D01*
X126536928Y-110660586D01*
X126396788Y-110558768D01*
X126242445Y-110480127D01*
X126077701Y-110426598D01*
X126077699Y-110426597D01*
X126077698Y-110426597D01*
X125946271Y-110405781D01*
X125906611Y-110399500D01*
X125733389Y-110399500D01*
X125693728Y-110405781D01*
X125562302Y-110426597D01*
X125397552Y-110480128D01*
X125243211Y-110558768D01*
X125199045Y-110590857D01*
X125103072Y-110660586D01*
X125103070Y-110660588D01*
X125103069Y-110660588D01*
X124980588Y-110783069D01*
X124980588Y-110783070D01*
X124980586Y-110783072D01*
X124969734Y-110798009D01*
X124878768Y-110923211D01*
X124800128Y-111077552D01*
X124746597Y-111242302D01*
X124719500Y-111413389D01*
X123539500Y-111413389D01*
X123539500Y-110254098D01*
X123559185Y-110187059D01*
X123575819Y-110166417D01*
X123582474Y-110159762D01*
X123594520Y-110147716D01*
X123673577Y-110010784D01*
X123714500Y-109858057D01*
X123714500Y-109699943D01*
X123673577Y-109547216D01*
X123667843Y-109537284D01*
X123594524Y-109410290D01*
X123594518Y-109410282D01*
X123482717Y-109298481D01*
X123482709Y-109298475D01*
X123345790Y-109219426D01*
X123345786Y-109219424D01*
X123345784Y-109219423D01*
X123193057Y-109178500D01*
X123034943Y-109178500D01*
X122882216Y-109219423D01*
X122882209Y-109219426D01*
X122745290Y-109298475D01*
X122745282Y-109298481D01*
X122633481Y-109410282D01*
X122633475Y-109410290D01*
X122554426Y-109547209D01*
X122554423Y-109547216D01*
X122513500Y-109699943D01*
X122513500Y-109858057D01*
X122547530Y-109985057D01*
X122554423Y-110010783D01*
X122554426Y-110010790D01*
X122633475Y-110147709D01*
X122633481Y-110147717D01*
X122652181Y-110166417D01*
X122685666Y-110227740D01*
X122688500Y-110254098D01*
X122688500Y-111498881D01*
X122668815Y-111565920D01*
X122616011Y-111611675D01*
X122546853Y-111621619D01*
X122532408Y-111618656D01*
X122431058Y-111591500D01*
X122431057Y-111591500D01*
X122272943Y-111591500D01*
X122120216Y-111632423D01*
X122120209Y-111632426D01*
X121983290Y-111711475D01*
X121983282Y-111711481D01*
X121871482Y-111823281D01*
X121871473Y-111823293D01*
X121871066Y-111823999D01*
X121870566Y-111824474D01*
X121866532Y-111829733D01*
X121865711Y-111829103D01*
X121820493Y-111872208D01*
X121751884Y-111885422D01*
X121690805Y-111862306D01*
X121686522Y-111859194D01*
X121532257Y-111780591D01*
X121367584Y-111727085D01*
X121196571Y-111700000D01*
X121023429Y-111700000D01*
X120852415Y-111727085D01*
X120687740Y-111780592D01*
X120533480Y-111859193D01*
X120533463Y-111859203D01*
X120527261Y-111863708D01*
X120527261Y-111863709D01*
X121063553Y-112400000D01*
X121057339Y-112400000D01*
X120955606Y-112427259D01*
X120864394Y-112479920D01*
X120789920Y-112554394D01*
X120737259Y-112645606D01*
X120710000Y-112747339D01*
X120710000Y-112753552D01*
X120173709Y-112217261D01*
X120173708Y-112217261D01*
X120169203Y-112223463D01*
X120169193Y-112223480D01*
X120090592Y-112377740D01*
X120037085Y-112542415D01*
X120010000Y-112713428D01*
X120010000Y-112886571D01*
X120037085Y-113057584D01*
X120090592Y-113222259D01*
X120169196Y-113376525D01*
X120173709Y-113382736D01*
X120173709Y-113382737D01*
X120710000Y-112846446D01*
X120710000Y-112852661D01*
X120737259Y-112954394D01*
X120789920Y-113045606D01*
X120864394Y-113120080D01*
X120955606Y-113172741D01*
X121057339Y-113200000D01*
X121063553Y-113200000D01*
X120527261Y-113736289D01*
X120527262Y-113736290D01*
X120533471Y-113740801D01*
X120687742Y-113819408D01*
X120852415Y-113872914D01*
X121023429Y-113900000D01*
X121196571Y-113900000D01*
X121367584Y-113872914D01*
X121532257Y-113819408D01*
X121686525Y-113740803D01*
X121692736Y-113736289D01*
X121692737Y-113736289D01*
X121156448Y-113200000D01*
X121162661Y-113200000D01*
X121264394Y-113172741D01*
X121355606Y-113120080D01*
X121430080Y-113045606D01*
X121482741Y-112954394D01*
X121510000Y-112852661D01*
X121510000Y-112846446D01*
X122046289Y-113382736D01*
X122050803Y-113376525D01*
X122129408Y-113222257D01*
X122182914Y-113057584D01*
X122204036Y-112924222D01*
X122233965Y-112861087D01*
X122293276Y-112824155D01*
X122363139Y-112825153D01*
X122414190Y-112855938D01*
X123668181Y-114109929D01*
X123701666Y-114171252D01*
X123704500Y-114197610D01*
X123704500Y-116542902D01*
X123684815Y-116609941D01*
X123668181Y-116630583D01*
X123649481Y-116649282D01*
X123649475Y-116649290D01*
X123570426Y-116786209D01*
X123570423Y-116786216D01*
X123529500Y-116938943D01*
X123529500Y-117097057D01*
X123556656Y-117198408D01*
X123554994Y-117268256D01*
X123515832Y-117326119D01*
X123451603Y-117353623D01*
X123436882Y-117354500D01*
X116102610Y-117354500D01*
X116035571Y-117334815D01*
X116014929Y-117318181D01*
X114626819Y-115930071D01*
X114593334Y-115868748D01*
X114590500Y-115842390D01*
X114590500Y-115813389D01*
X114589877Y-115809458D01*
X114563402Y-115642299D01*
X114509873Y-115477555D01*
X114431232Y-115323212D01*
X114329414Y-115183072D01*
X114206928Y-115060586D01*
X114066788Y-114958768D01*
X113912445Y-114880127D01*
X113747701Y-114826598D01*
X113747699Y-114826597D01*
X113747698Y-114826597D01*
X113616271Y-114805781D01*
X113576611Y-114799500D01*
X113403389Y-114799500D01*
X113363728Y-114805781D01*
X113232302Y-114826597D01*
X113067552Y-114880128D01*
X112913211Y-114958768D01*
X112833256Y-115016859D01*
X112773072Y-115060586D01*
X112773070Y-115060588D01*
X112773069Y-115060588D01*
X112650588Y-115183069D01*
X112650588Y-115183070D01*
X112650586Y-115183072D01*
X112634614Y-115205056D01*
X112548768Y-115323211D01*
X112470128Y-115477552D01*
X112416597Y-115642302D01*
X112389500Y-115813389D01*
X112389500Y-115986610D01*
X112416480Y-116156961D01*
X112416598Y-116157701D01*
X112470117Y-116322415D01*
X112470128Y-116322447D01*
X112489324Y-116360122D01*
X112548768Y-116476788D01*
X112650586Y-116616928D01*
X112773072Y-116739414D01*
X112913212Y-116841232D01*
X113067555Y-116919873D01*
X113232299Y-116973402D01*
X113403389Y-117000500D01*
X113403390Y-117000500D01*
X113576610Y-117000500D01*
X113576611Y-117000500D01*
X113747701Y-116973402D01*
X113912445Y-116919873D01*
X114066788Y-116841232D01*
X114136157Y-116790832D01*
X114201961Y-116767353D01*
X114270015Y-116783178D01*
X114296722Y-116803470D01*
X115534515Y-118041263D01*
X115613737Y-118120485D01*
X115710763Y-118176503D01*
X115818982Y-118205500D01*
X120084200Y-118205500D01*
X120151239Y-118225185D01*
X120196994Y-118277989D01*
X120206938Y-118347147D01*
X120184518Y-118402385D01*
X120169198Y-118423471D01*
X120090591Y-118577742D01*
X120037085Y-118742415D01*
X120010000Y-118913428D01*
X120010000Y-119086571D01*
X120037085Y-119257584D01*
X120090592Y-119422259D01*
X120169196Y-119576525D01*
X120173709Y-119582736D01*
X120173709Y-119582737D01*
X120710000Y-119046446D01*
X120710000Y-119052661D01*
X120737259Y-119154394D01*
X120789920Y-119245606D01*
X120864394Y-119320080D01*
X120955606Y-119372741D01*
X121057339Y-119400000D01*
X121063553Y-119400000D01*
X120603372Y-119860181D01*
X120542049Y-119893666D01*
X120515691Y-119896500D01*
X114442311Y-119896500D01*
X114375272Y-119876815D01*
X114329517Y-119824011D01*
X114319573Y-119754853D01*
X114341993Y-119699614D01*
X114344045Y-119696790D01*
X114431232Y-119576788D01*
X114509873Y-119422445D01*
X114563402Y-119257701D01*
X114590500Y-119086611D01*
X114590500Y-118913389D01*
X114563402Y-118742299D01*
X114509873Y-118577555D01*
X114431232Y-118423212D01*
X114329414Y-118283072D01*
X114206928Y-118160586D01*
X114066788Y-118058768D01*
X113912445Y-117980127D01*
X113747701Y-117926598D01*
X113747699Y-117926597D01*
X113747698Y-117926597D01*
X113612890Y-117905246D01*
X113576611Y-117899500D01*
X113403389Y-117899500D01*
X113367110Y-117905246D01*
X113232302Y-117926597D01*
X113067552Y-117980128D01*
X112913211Y-118058768D01*
X112859497Y-118097794D01*
X112773072Y-118160586D01*
X112773070Y-118160588D01*
X112773069Y-118160588D01*
X112650588Y-118283069D01*
X112650588Y-118283070D01*
X112650586Y-118283072D01*
X112634556Y-118305136D01*
X112548768Y-118423211D01*
X112470128Y-118577552D01*
X112416597Y-118742302D01*
X112389500Y-118913389D01*
X112389500Y-119086610D01*
X112413047Y-119235285D01*
X112416598Y-119257701D01*
X112470127Y-119422445D01*
X112548768Y-119576788D01*
X112635953Y-119696788D01*
X112638007Y-119699614D01*
X112661487Y-119765421D01*
X112645662Y-119833475D01*
X112595556Y-119882169D01*
X112537689Y-119896500D01*
X111619497Y-119896500D01*
X111552458Y-119876815D01*
X111506703Y-119824011D01*
X111496759Y-119754853D01*
X111519177Y-119699617D01*
X111520038Y-119698430D01*
X111521232Y-119696788D01*
X111599873Y-119542445D01*
X111653402Y-119377701D01*
X111680500Y-119206611D01*
X111680500Y-119033389D01*
X111653402Y-118862299D01*
X111599873Y-118697555D01*
X111521232Y-118543212D01*
X111419414Y-118403072D01*
X111296928Y-118280586D01*
X111156788Y-118178768D01*
X111002445Y-118100127D01*
X110837701Y-118046598D01*
X110837699Y-118046597D01*
X110837698Y-118046597D01*
X110706271Y-118025781D01*
X110666611Y-118019500D01*
X110493389Y-118019500D01*
X110453728Y-118025781D01*
X110322302Y-118046597D01*
X110157552Y-118100128D01*
X110003211Y-118178768D01*
X109951997Y-118215978D01*
X109891384Y-118260015D01*
X109825579Y-118283495D01*
X109757525Y-118267670D01*
X109708831Y-118217564D01*
X109694500Y-118159697D01*
X109694500Y-117539685D01*
X109714185Y-117472646D01*
X109766989Y-117426891D01*
X109836147Y-117416947D01*
X109891385Y-117439367D01*
X110003471Y-117520801D01*
X110157742Y-117599408D01*
X110322415Y-117652914D01*
X110493429Y-117680000D01*
X110666571Y-117680000D01*
X110837584Y-117652914D01*
X111002257Y-117599408D01*
X111156525Y-117520803D01*
X111162736Y-117516289D01*
X110709409Y-117062962D01*
X110772993Y-117045925D01*
X110887007Y-116980099D01*
X110980099Y-116887007D01*
X111045925Y-116772993D01*
X111062962Y-116709410D01*
X111516289Y-117162737D01*
X111516289Y-117162736D01*
X111520803Y-117156525D01*
X111599408Y-117002257D01*
X111652914Y-116837584D01*
X111680000Y-116666571D01*
X111680000Y-116493428D01*
X111652914Y-116322415D01*
X111599408Y-116157742D01*
X111520801Y-116003471D01*
X111516290Y-115997262D01*
X111516289Y-115997261D01*
X111062962Y-116450589D01*
X111045925Y-116387007D01*
X110980099Y-116272993D01*
X110887007Y-116179901D01*
X110772993Y-116114075D01*
X110709408Y-116097037D01*
X111162737Y-115643709D01*
X111156525Y-115639196D01*
X111002259Y-115560592D01*
X110837584Y-115507085D01*
X110666571Y-115480000D01*
X110493429Y-115480000D01*
X110322415Y-115507085D01*
X110157742Y-115560591D01*
X110003475Y-115639195D01*
X109891385Y-115720633D01*
X109825578Y-115744112D01*
X109757524Y-115728286D01*
X109708830Y-115678180D01*
X109694500Y-115620314D01*
X109694500Y-115000302D01*
X109714185Y-114933263D01*
X109766989Y-114887508D01*
X109836147Y-114877564D01*
X109891384Y-114899984D01*
X109909888Y-114913428D01*
X110003207Y-114981229D01*
X110003209Y-114981230D01*
X110003212Y-114981232D01*
X110157555Y-115059873D01*
X110322299Y-115113402D01*
X110493389Y-115140500D01*
X110493390Y-115140500D01*
X110666610Y-115140500D01*
X110666611Y-115140500D01*
X110837701Y-115113402D01*
X111002445Y-115059873D01*
X111156788Y-114981232D01*
X111296928Y-114879414D01*
X111419414Y-114756928D01*
X111521232Y-114616788D01*
X111599873Y-114462445D01*
X111653402Y-114297701D01*
X111680500Y-114126611D01*
X111680500Y-113953389D01*
X111653402Y-113782299D01*
X111628113Y-113704470D01*
X111626119Y-113634633D01*
X111662199Y-113574800D01*
X111724900Y-113543971D01*
X111794314Y-113551935D01*
X111833726Y-113578474D01*
X112613515Y-114358263D01*
X112692737Y-114437485D01*
X112789763Y-114493503D01*
X112897982Y-114522500D01*
X118822390Y-114522500D01*
X118889429Y-114542185D01*
X118910071Y-114558819D01*
X119986036Y-115634783D01*
X120019521Y-115696106D01*
X120020828Y-115741862D01*
X120009500Y-115813383D01*
X120009500Y-115986610D01*
X120036480Y-116156961D01*
X120036598Y-116157701D01*
X120090117Y-116322415D01*
X120090128Y-116322447D01*
X120109324Y-116360122D01*
X120168768Y-116476788D01*
X120270586Y-116616928D01*
X120393072Y-116739414D01*
X120533212Y-116841232D01*
X120687555Y-116919873D01*
X120852299Y-116973402D01*
X121023389Y-117000500D01*
X121023390Y-117000500D01*
X121196610Y-117000500D01*
X121196611Y-117000500D01*
X121367701Y-116973402D01*
X121532445Y-116919873D01*
X121686788Y-116841232D01*
X121826928Y-116739414D01*
X121949414Y-116616928D01*
X122051232Y-116476788D01*
X122129873Y-116322445D01*
X122183402Y-116157701D01*
X122210500Y-115986611D01*
X122210500Y-115813389D01*
X122183402Y-115642299D01*
X122129873Y-115477555D01*
X122051232Y-115323212D01*
X121949414Y-115183072D01*
X121826928Y-115060586D01*
X121686788Y-114958768D01*
X121532445Y-114880127D01*
X121367701Y-114826598D01*
X121367699Y-114826597D01*
X121367698Y-114826597D01*
X121236271Y-114805781D01*
X121196611Y-114799500D01*
X121023389Y-114799500D01*
X120983728Y-114805781D01*
X120852302Y-114826597D01*
X120852299Y-114826598D01*
X120689750Y-114879414D01*
X120687549Y-114880129D01*
X120600434Y-114924516D01*
X120531765Y-114937412D01*
X120467025Y-114911135D01*
X120456459Y-114901712D01*
X119913010Y-114358263D01*
X119311263Y-113756515D01*
X119246579Y-113719169D01*
X119214239Y-113700498D01*
X119214238Y-113700497D01*
X119214237Y-113700497D01*
X119106018Y-113671500D01*
X119106017Y-113671500D01*
X114460475Y-113671500D01*
X114393436Y-113651815D01*
X114347681Y-113599011D01*
X114337737Y-113529853D01*
X114360157Y-113474614D01*
X114377509Y-113450731D01*
X114431232Y-113376788D01*
X114509873Y-113222445D01*
X114554798Y-113084179D01*
X114594234Y-113026506D01*
X114658593Y-112999308D01*
X114672728Y-112998500D01*
X117582016Y-112998500D01*
X117582018Y-112998500D01*
X117690237Y-112969503D01*
X117787263Y-112913485D01*
X120189522Y-110511226D01*
X120250845Y-110477741D01*
X120320537Y-110482725D01*
X120364884Y-110511226D01*
X120393072Y-110539414D01*
X120533212Y-110641232D01*
X120687555Y-110719873D01*
X120852299Y-110773402D01*
X121023389Y-110800500D01*
X121023390Y-110800500D01*
X121196610Y-110800500D01*
X121196611Y-110800500D01*
X121367701Y-110773402D01*
X121532445Y-110719873D01*
X121686788Y-110641232D01*
X121826928Y-110539414D01*
X121949414Y-110416928D01*
X122051232Y-110276788D01*
X122129873Y-110122445D01*
X122183402Y-109957701D01*
X122210500Y-109786611D01*
X122210500Y-109613389D01*
X122183402Y-109442299D01*
X122129873Y-109277555D01*
X122051232Y-109123212D01*
X121949414Y-108983072D01*
X121826928Y-108860586D01*
X121724107Y-108785882D01*
X121681443Y-108730553D01*
X121675464Y-108660939D01*
X121689607Y-108623565D01*
X121710245Y-108587819D01*
X121768577Y-108486784D01*
X121809500Y-108334057D01*
X121809500Y-108175943D01*
X121768577Y-108023216D01*
X121760017Y-108008390D01*
X121689524Y-107886290D01*
X121689518Y-107886282D01*
X121580325Y-107777089D01*
X121546840Y-107715766D01*
X121551824Y-107646074D01*
X121593696Y-107590141D01*
X121611712Y-107578923D01*
X121686521Y-107540806D01*
X121686525Y-107540803D01*
X121692736Y-107536289D01*
X121692737Y-107536289D01*
X121156448Y-107000000D01*
X121162661Y-107000000D01*
X121264394Y-106972741D01*
X121355606Y-106920080D01*
X121430080Y-106845606D01*
X121482741Y-106754394D01*
X121510000Y-106652661D01*
X121510000Y-106646447D01*
X122046289Y-107182736D01*
X122050803Y-107176525D01*
X122129408Y-107022257D01*
X122182914Y-106857584D01*
X122210000Y-106686571D01*
X122210000Y-106513428D01*
X122182914Y-106342415D01*
X122129408Y-106177742D01*
X122050801Y-106023471D01*
X122046290Y-106017262D01*
X122046289Y-106017261D01*
X121510000Y-106553551D01*
X121510000Y-106547339D01*
X121482741Y-106445606D01*
X121430080Y-106354394D01*
X121355606Y-106279920D01*
X121264394Y-106227259D01*
X121162661Y-106200000D01*
X121156447Y-106200000D01*
X121687628Y-105668819D01*
X121748951Y-105635334D01*
X121775309Y-105632500D01*
X122801882Y-105632500D01*
X122868921Y-105652185D01*
G37*
%TD.AperFunction*%
%TA.AperFunction,Conductor*%
G36*
X124662539Y-118225185D02*
G01*
X124708294Y-118277989D01*
X124719500Y-118329500D01*
X124719500Y-119085541D01*
X124719501Y-119772500D01*
X124699816Y-119839539D01*
X124647013Y-119885294D01*
X124595501Y-119896500D01*
X121704309Y-119896500D01*
X121637270Y-119876815D01*
X121616628Y-119860181D01*
X121156447Y-119400000D01*
X121162661Y-119400000D01*
X121264394Y-119372741D01*
X121355606Y-119320080D01*
X121430080Y-119245606D01*
X121482741Y-119154394D01*
X121510000Y-119052661D01*
X121510000Y-119046447D01*
X122046289Y-119582736D01*
X122050803Y-119576525D01*
X122129408Y-119422257D01*
X122182914Y-119257584D01*
X122210000Y-119086571D01*
X122210000Y-118913428D01*
X122182914Y-118742415D01*
X122129408Y-118577742D01*
X122050801Y-118423471D01*
X122035482Y-118402385D01*
X122012002Y-118336579D01*
X122027828Y-118268525D01*
X122077933Y-118219830D01*
X122135800Y-118205500D01*
X124595500Y-118205500D01*
X124662539Y-118225185D01*
G37*
%TD.AperFunction*%
%TA.AperFunction,Conductor*%
G36*
X148921347Y-101207185D02*
G01*
X148967102Y-101259989D01*
X148977046Y-101329147D01*
X148954625Y-101384387D01*
X148938768Y-101406210D01*
X148860128Y-101560552D01*
X148806597Y-101725302D01*
X148786926Y-101849500D01*
X148779500Y-101896389D01*
X148779500Y-102069611D01*
X148806598Y-102240701D01*
X148860127Y-102405445D01*
X148938768Y-102559788D01*
X149040586Y-102699928D01*
X149163072Y-102822414D01*
X149303212Y-102924232D01*
X149457555Y-103002873D01*
X149622299Y-103056402D01*
X149793389Y-103083500D01*
X149793390Y-103083500D01*
X149966610Y-103083500D01*
X149966611Y-103083500D01*
X150137701Y-103056402D01*
X150302445Y-103002873D01*
X150456788Y-102924232D01*
X150596928Y-102822414D01*
X150719414Y-102699928D01*
X150821232Y-102559788D01*
X150899873Y-102405445D01*
X150953402Y-102240701D01*
X150980500Y-102069611D01*
X150980500Y-101896389D01*
X150953402Y-101725299D01*
X150899873Y-101560555D01*
X150821232Y-101406212D01*
X150821231Y-101406210D01*
X150805375Y-101384387D01*
X150781894Y-101318580D01*
X150797719Y-101250526D01*
X150847824Y-101201831D01*
X150905692Y-101187500D01*
X151394308Y-101187500D01*
X151461347Y-101207185D01*
X151507102Y-101259989D01*
X151517046Y-101329147D01*
X151494625Y-101384387D01*
X151478768Y-101406210D01*
X151400128Y-101560552D01*
X151346597Y-101725302D01*
X151326926Y-101849500D01*
X151319500Y-101896389D01*
X151319500Y-102069611D01*
X151346598Y-102240701D01*
X151400127Y-102405445D01*
X151478768Y-102559788D01*
X151580586Y-102699928D01*
X151703072Y-102822414D01*
X151843212Y-102924232D01*
X151997555Y-103002873D01*
X152162299Y-103056402D01*
X152333389Y-103083500D01*
X152333390Y-103083500D01*
X152506610Y-103083500D01*
X152506611Y-103083500D01*
X152677701Y-103056402D01*
X152842445Y-103002873D01*
X152996788Y-102924232D01*
X153136928Y-102822414D01*
X153259414Y-102699928D01*
X153361232Y-102559788D01*
X153439873Y-102405445D01*
X153493402Y-102240701D01*
X153520500Y-102069611D01*
X153520500Y-101896389D01*
X153493402Y-101725299D01*
X153439873Y-101560555D01*
X153361232Y-101406212D01*
X153361231Y-101406210D01*
X153345375Y-101384387D01*
X153321894Y-101318580D01*
X153337719Y-101250526D01*
X153387824Y-101201831D01*
X153445692Y-101187500D01*
X153934308Y-101187500D01*
X154001347Y-101207185D01*
X154047102Y-101259989D01*
X154057046Y-101329147D01*
X154034625Y-101384387D01*
X154018768Y-101406210D01*
X153940128Y-101560552D01*
X153886597Y-101725302D01*
X153866926Y-101849500D01*
X153859500Y-101896389D01*
X153859500Y-102069611D01*
X153886598Y-102240701D01*
X153940127Y-102405445D01*
X154018768Y-102559788D01*
X154120586Y-102699928D01*
X154243072Y-102822414D01*
X154383212Y-102924232D01*
X154537555Y-103002873D01*
X154702299Y-103056402D01*
X154873389Y-103083500D01*
X154873390Y-103083500D01*
X155046610Y-103083500D01*
X155046611Y-103083500D01*
X155217701Y-103056402D01*
X155382445Y-103002873D01*
X155536788Y-102924232D01*
X155676928Y-102822414D01*
X155799414Y-102699928D01*
X155901232Y-102559788D01*
X155979873Y-102405445D01*
X156033402Y-102240701D01*
X156060500Y-102069611D01*
X156060500Y-101896389D01*
X156033402Y-101725299D01*
X155979873Y-101560555D01*
X155901232Y-101406212D01*
X155901231Y-101406210D01*
X155885375Y-101384387D01*
X155861894Y-101318580D01*
X155877719Y-101250526D01*
X155927824Y-101201831D01*
X155985692Y-101187500D01*
X156474308Y-101187500D01*
X156541347Y-101207185D01*
X156587102Y-101259989D01*
X156597046Y-101329147D01*
X156574625Y-101384387D01*
X156558768Y-101406210D01*
X156480128Y-101560552D01*
X156426597Y-101725302D01*
X156406926Y-101849500D01*
X156399500Y-101896389D01*
X156399500Y-102069611D01*
X156426598Y-102240701D01*
X156480127Y-102405445D01*
X156558768Y-102559788D01*
X156660586Y-102699928D01*
X156783072Y-102822414D01*
X156923212Y-102924232D01*
X157077555Y-103002873D01*
X157242299Y-103056402D01*
X157413389Y-103083500D01*
X157413390Y-103083500D01*
X157586610Y-103083500D01*
X157586611Y-103083500D01*
X157757701Y-103056402D01*
X157922445Y-103002873D01*
X158076788Y-102924232D01*
X158216928Y-102822414D01*
X158339414Y-102699928D01*
X158441232Y-102559788D01*
X158519873Y-102405445D01*
X158573402Y-102240701D01*
X158600500Y-102069611D01*
X158600500Y-101896389D01*
X158573402Y-101725299D01*
X158519873Y-101560555D01*
X158441232Y-101406212D01*
X158441231Y-101406210D01*
X158425375Y-101384387D01*
X158401894Y-101318580D01*
X158417719Y-101250526D01*
X158467824Y-101201831D01*
X158525692Y-101187500D01*
X159014308Y-101187500D01*
X159081347Y-101207185D01*
X159127102Y-101259989D01*
X159137046Y-101329147D01*
X159114625Y-101384387D01*
X159098768Y-101406210D01*
X159020128Y-101560552D01*
X158966597Y-101725302D01*
X158946926Y-101849500D01*
X158939500Y-101896389D01*
X158939500Y-102069611D01*
X158966598Y-102240701D01*
X159020127Y-102405445D01*
X159098768Y-102559788D01*
X159200586Y-102699928D01*
X159323072Y-102822414D01*
X159463212Y-102924232D01*
X159617555Y-103002873D01*
X159782299Y-103056402D01*
X159953389Y-103083500D01*
X159953390Y-103083500D01*
X160126610Y-103083500D01*
X160126611Y-103083500D01*
X160297701Y-103056402D01*
X160462445Y-103002873D01*
X160616788Y-102924232D01*
X160756928Y-102822414D01*
X160879414Y-102699928D01*
X160981232Y-102559788D01*
X161059873Y-102405445D01*
X161113402Y-102240701D01*
X161140500Y-102069611D01*
X161140500Y-101896389D01*
X161113402Y-101725299D01*
X161059873Y-101560555D01*
X160981232Y-101406212D01*
X160981231Y-101406210D01*
X160965375Y-101384387D01*
X160941894Y-101318580D01*
X160957719Y-101250526D01*
X161007824Y-101201831D01*
X161065692Y-101187500D01*
X161554308Y-101187500D01*
X161621347Y-101207185D01*
X161667102Y-101259989D01*
X161677046Y-101329147D01*
X161654625Y-101384387D01*
X161638768Y-101406210D01*
X161560128Y-101560552D01*
X161506597Y-101725302D01*
X161486926Y-101849500D01*
X161479500Y-101896389D01*
X161479500Y-102069611D01*
X161506598Y-102240701D01*
X161560127Y-102405445D01*
X161638768Y-102559788D01*
X161740586Y-102699928D01*
X161863072Y-102822414D01*
X161993188Y-102916949D01*
X162007154Y-102927096D01*
X162006166Y-102928454D01*
X162048152Y-102974837D01*
X162060500Y-103028781D01*
X162060500Y-117178398D01*
X162040815Y-117245437D01*
X162039602Y-117247289D01*
X161990228Y-117321181D01*
X161990221Y-117321194D01*
X161937421Y-117448666D01*
X161937418Y-117448676D01*
X161915778Y-117557466D01*
X161883393Y-117619377D01*
X161822677Y-117653951D01*
X161752907Y-117650210D01*
X161706480Y-117620955D01*
X147376327Y-103290802D01*
X147342842Y-103229479D01*
X147347826Y-103159787D01*
X147389698Y-103103854D01*
X147444603Y-103080650D01*
X147597701Y-103056402D01*
X147762445Y-103002873D01*
X147916788Y-102924232D01*
X148056928Y-102822414D01*
X148179414Y-102699928D01*
X148281232Y-102559788D01*
X148359873Y-102405445D01*
X148413402Y-102240701D01*
X148440500Y-102069611D01*
X148440500Y-101896389D01*
X148413402Y-101725299D01*
X148359873Y-101560555D01*
X148281232Y-101406212D01*
X148281231Y-101406210D01*
X148265375Y-101384387D01*
X148241894Y-101318580D01*
X148257719Y-101250526D01*
X148307824Y-101201831D01*
X148365692Y-101187500D01*
X148854308Y-101187500D01*
X148921347Y-101207185D01*
G37*
%TD.AperFunction*%
%TA.AperFunction,Conductor*%
G36*
X149825652Y-108571185D02*
G01*
X149846294Y-108587819D01*
X154506964Y-113248489D01*
X154540449Y-113309812D01*
X154535465Y-113379504D01*
X154493593Y-113435437D01*
X154466736Y-113450731D01*
X154405192Y-113476223D01*
X154405183Y-113476228D01*
X154331291Y-113525602D01*
X154264614Y-113546480D01*
X154262400Y-113546500D01*
X145872387Y-113546500D01*
X145805348Y-113526815D01*
X145784706Y-113510181D01*
X142926705Y-110652180D01*
X142893220Y-110590857D01*
X142898204Y-110521165D01*
X142940076Y-110465232D01*
X143005540Y-110440815D01*
X143014386Y-110440499D01*
X144244856Y-110440499D01*
X144244864Y-110440499D01*
X144244879Y-110440497D01*
X144244882Y-110440497D01*
X144269987Y-110437586D01*
X144269988Y-110437585D01*
X144269991Y-110437585D01*
X144372765Y-110392206D01*
X144452206Y-110312765D01*
X144497585Y-110209991D01*
X144500500Y-110184865D01*
X144500499Y-108675499D01*
X144520184Y-108608461D01*
X144572987Y-108562706D01*
X144624499Y-108551500D01*
X149758613Y-108551500D01*
X149825652Y-108571185D01*
G37*
%TD.AperFunction*%
%TA.AperFunction,Conductor*%
G36*
X112527714Y-102729185D02*
G01*
X112573469Y-102781989D01*
X112583413Y-102851147D01*
X112560993Y-102906386D01*
X112548768Y-102923211D01*
X112470128Y-103077552D01*
X112416597Y-103242302D01*
X112408916Y-103290802D01*
X112389500Y-103413389D01*
X112389500Y-103586611D01*
X112416598Y-103757701D01*
X112427790Y-103792147D01*
X112470128Y-103922447D01*
X112501971Y-103984943D01*
X112548768Y-104076788D01*
X112650586Y-104216928D01*
X112773072Y-104339414D01*
X112913212Y-104441232D01*
X113067555Y-104519873D01*
X113128175Y-104539569D01*
X113185850Y-104579006D01*
X113213048Y-104643365D01*
X113201133Y-104712211D01*
X113153889Y-104763687D01*
X113089856Y-104781500D01*
X112135982Y-104781500D01*
X112027763Y-104810497D01*
X112027760Y-104810498D01*
X111930740Y-104866513D01*
X111930734Y-104866517D01*
X111325327Y-105471923D01*
X111264004Y-105505408D01*
X111194312Y-105500424D01*
X111164761Y-105484560D01*
X111156791Y-105478770D01*
X111156790Y-105478769D01*
X111156788Y-105478768D01*
X111002445Y-105400127D01*
X110837701Y-105346598D01*
X110837699Y-105346597D01*
X110837698Y-105346597D01*
X110693255Y-105323720D01*
X110666611Y-105319500D01*
X110493389Y-105319500D01*
X110466745Y-105323720D01*
X110322302Y-105346597D01*
X110157552Y-105400128D01*
X110003211Y-105478768D01*
X109973405Y-105500424D01*
X109863072Y-105580586D01*
X109863070Y-105580588D01*
X109863069Y-105580588D01*
X109740588Y-105703069D01*
X109740588Y-105703070D01*
X109740586Y-105703072D01*
X109696859Y-105763256D01*
X109638768Y-105843211D01*
X109560128Y-105997552D01*
X109506597Y-106162302D01*
X109487334Y-106283928D01*
X109479500Y-106333389D01*
X109479500Y-106506611D01*
X109482979Y-106528576D01*
X109503093Y-106655576D01*
X109506598Y-106677701D01*
X109560127Y-106842445D01*
X109638768Y-106996788D01*
X109740586Y-107136928D01*
X109863072Y-107259414D01*
X110003212Y-107361232D01*
X110157555Y-107439873D01*
X110322299Y-107493402D01*
X110493389Y-107520500D01*
X110493390Y-107520500D01*
X110666610Y-107520500D01*
X110666611Y-107520500D01*
X110837701Y-107493402D01*
X111002445Y-107439873D01*
X111156788Y-107361232D01*
X111296928Y-107259414D01*
X111419414Y-107136928D01*
X111521232Y-106996788D01*
X111599873Y-106842445D01*
X111653402Y-106677701D01*
X111680500Y-106506611D01*
X111680500Y-106371609D01*
X111700185Y-106304570D01*
X111716819Y-106283928D01*
X112331929Y-105668819D01*
X112393252Y-105635334D01*
X112419610Y-105632500D01*
X112601796Y-105632500D01*
X112668835Y-105652185D01*
X112714590Y-105704989D01*
X112724534Y-105774147D01*
X112695509Y-105837703D01*
X112689477Y-105844181D01*
X112650588Y-105883069D01*
X112650588Y-105883070D01*
X112650586Y-105883072D01*
X112626379Y-105916390D01*
X112548768Y-106023211D01*
X112470128Y-106177552D01*
X112416597Y-106342302D01*
X112389500Y-106513389D01*
X112389500Y-106686610D01*
X112414181Y-106842445D01*
X112416598Y-106857701D01*
X112470127Y-107022445D01*
X112548768Y-107176788D01*
X112650586Y-107316928D01*
X112773072Y-107439414D01*
X112913212Y-107541232D01*
X113067555Y-107619873D01*
X113232299Y-107673402D01*
X113403389Y-107700500D01*
X113403390Y-107700500D01*
X113576610Y-107700500D01*
X113576611Y-107700500D01*
X113747701Y-107673402D01*
X113912445Y-107619873D01*
X114066788Y-107541232D01*
X114206928Y-107439414D01*
X114329414Y-107316928D01*
X114431232Y-107176788D01*
X114509873Y-107022445D01*
X114563402Y-106857701D01*
X114590500Y-106686611D01*
X114590500Y-106645500D01*
X114610185Y-106578461D01*
X114662989Y-106532706D01*
X114714500Y-106521500D01*
X117812902Y-106521500D01*
X117879941Y-106541185D01*
X117900583Y-106557819D01*
X117919284Y-106576520D01*
X117919286Y-106576521D01*
X117919290Y-106576524D01*
X118014478Y-106631480D01*
X118056216Y-106655577D01*
X118208943Y-106696500D01*
X118208945Y-106696500D01*
X118367055Y-106696500D01*
X118367057Y-106696500D01*
X118519784Y-106655577D01*
X118656716Y-106576520D01*
X118768520Y-106464716D01*
X118777291Y-106449524D01*
X118779005Y-106446556D01*
X118811358Y-106390517D01*
X118847577Y-106327784D01*
X118888500Y-106175057D01*
X118888500Y-106016943D01*
X118847577Y-105864216D01*
X118821182Y-105818499D01*
X118804710Y-105750600D01*
X118827563Y-105684573D01*
X118882484Y-105641382D01*
X118928570Y-105632500D01*
X120444690Y-105632500D01*
X120511729Y-105652185D01*
X120532371Y-105668819D01*
X121063554Y-106200000D01*
X121057339Y-106200000D01*
X120955606Y-106227259D01*
X120864394Y-106279920D01*
X120789920Y-106354394D01*
X120737259Y-106445606D01*
X120710000Y-106547339D01*
X120710000Y-106553552D01*
X120173709Y-106017261D01*
X120173708Y-106017261D01*
X120169203Y-106023463D01*
X120169193Y-106023480D01*
X120090592Y-106177740D01*
X120037085Y-106342415D01*
X120010000Y-106513428D01*
X120010000Y-106686571D01*
X120037085Y-106857584D01*
X120090592Y-107022259D01*
X120169196Y-107176525D01*
X120173709Y-107182736D01*
X120173709Y-107182737D01*
X120710000Y-106646446D01*
X120710000Y-106652661D01*
X120737259Y-106754394D01*
X120789920Y-106845606D01*
X120864394Y-106920080D01*
X120955606Y-106972741D01*
X121057339Y-107000000D01*
X121063553Y-107000000D01*
X120527261Y-107536289D01*
X120527262Y-107536290D01*
X120533471Y-107540801D01*
X120639869Y-107595015D01*
X120690665Y-107642990D01*
X120707460Y-107710811D01*
X120684922Y-107776946D01*
X120630207Y-107820397D01*
X120583574Y-107829500D01*
X115310982Y-107829500D01*
X115202763Y-107858497D01*
X115202760Y-107858498D01*
X115105740Y-107914513D01*
X115105734Y-107914517D01*
X114254440Y-108765810D01*
X114193117Y-108799295D01*
X114123425Y-108794311D01*
X114093874Y-108778447D01*
X114073274Y-108763480D01*
X114066794Y-108758772D01*
X114066789Y-108758769D01*
X114066790Y-108758769D01*
X114066788Y-108758768D01*
X113917259Y-108682580D01*
X113912447Y-108680128D01*
X113912446Y-108680127D01*
X113912445Y-108680127D01*
X113747701Y-108626598D01*
X113747699Y-108626597D01*
X113747698Y-108626597D01*
X113616271Y-108605781D01*
X113576611Y-108599500D01*
X113403389Y-108599500D01*
X113363728Y-108605781D01*
X113232302Y-108626597D01*
X113067552Y-108680128D01*
X112913211Y-108758768D01*
X112843326Y-108809543D01*
X112773072Y-108860586D01*
X112773070Y-108860588D01*
X112773069Y-108860588D01*
X112650588Y-108983069D01*
X112650588Y-108983070D01*
X112650586Y-108983072D01*
X112617568Y-109028517D01*
X112548768Y-109123211D01*
X112470128Y-109277552D01*
X112416597Y-109442302D01*
X112407854Y-109497506D01*
X112389500Y-109613389D01*
X112389500Y-109786611D01*
X112416598Y-109957701D01*
X112469135Y-110119393D01*
X112470128Y-110122447D01*
X112492961Y-110167259D01*
X112548768Y-110276788D01*
X112650586Y-110416928D01*
X112773072Y-110539414D01*
X112913212Y-110641232D01*
X113067555Y-110719873D01*
X113232299Y-110773402D01*
X113403389Y-110800500D01*
X113403390Y-110800500D01*
X113576610Y-110800500D01*
X113576611Y-110800500D01*
X113747701Y-110773402D01*
X113912445Y-110719873D01*
X114066788Y-110641232D01*
X114206928Y-110539414D01*
X114329414Y-110416928D01*
X114431232Y-110276788D01*
X114509873Y-110122445D01*
X114563402Y-109957701D01*
X114590500Y-109786611D01*
X114590500Y-109684610D01*
X114610185Y-109617571D01*
X114626819Y-109596929D01*
X115506929Y-108716819D01*
X115568252Y-108683334D01*
X115594610Y-108680500D01*
X120273796Y-108680500D01*
X120340835Y-108700185D01*
X120386590Y-108752989D01*
X120396534Y-108822147D01*
X120367509Y-108885703D01*
X120361477Y-108892181D01*
X120270588Y-108983069D01*
X120270588Y-108983070D01*
X120270586Y-108983072D01*
X120237568Y-109028517D01*
X120168768Y-109123211D01*
X120090128Y-109277550D01*
X120037797Y-109438607D01*
X120015837Y-109478809D01*
X120008034Y-109488346D01*
X119999744Y-109497506D01*
X117386071Y-112111181D01*
X117324748Y-112144666D01*
X117298390Y-112147500D01*
X114439405Y-112147500D01*
X114372366Y-112127815D01*
X114339088Y-112096387D01*
X114329414Y-112083072D01*
X114206930Y-111960588D01*
X114206928Y-111960586D01*
X114066788Y-111858768D01*
X113929447Y-111788790D01*
X113912447Y-111780128D01*
X113912446Y-111780127D01*
X113912445Y-111780127D01*
X113747701Y-111726598D01*
X113747699Y-111726597D01*
X113747698Y-111726597D01*
X113616271Y-111705781D01*
X113576611Y-111699500D01*
X113403389Y-111699500D01*
X113363728Y-111705781D01*
X113232302Y-111726597D01*
X113067552Y-111780128D01*
X112913211Y-111858768D01*
X112859921Y-111897486D01*
X112773072Y-111960586D01*
X112773070Y-111960588D01*
X112773069Y-111960588D01*
X112650588Y-112083069D01*
X112650588Y-112083070D01*
X112650586Y-112083072D01*
X112626246Y-112116573D01*
X112548768Y-112223211D01*
X112470128Y-112377552D01*
X112416597Y-112542302D01*
X112397850Y-112660665D01*
X112367921Y-112723800D01*
X112308609Y-112760731D01*
X112238746Y-112759733D01*
X112187696Y-112728948D01*
X111589764Y-112131016D01*
X111556279Y-112069693D01*
X111561263Y-112000001D01*
X111566960Y-111987040D01*
X111599873Y-111922445D01*
X111653402Y-111757701D01*
X111680500Y-111586611D01*
X111680500Y-111413389D01*
X111653402Y-111242299D01*
X111599873Y-111077555D01*
X111521232Y-110923212D01*
X111419414Y-110783072D01*
X111296928Y-110660586D01*
X111156788Y-110558768D01*
X111002445Y-110480127D01*
X110837701Y-110426598D01*
X110837699Y-110426597D01*
X110837698Y-110426597D01*
X110706271Y-110405781D01*
X110666611Y-110399500D01*
X110493389Y-110399500D01*
X110436359Y-110408532D01*
X110322297Y-110426598D01*
X110322294Y-110426598D01*
X110256480Y-110447983D01*
X110186639Y-110449978D01*
X110130481Y-110417733D01*
X108586137Y-108873389D01*
X109479500Y-108873389D01*
X109479500Y-109046611D01*
X109485152Y-109082299D01*
X109504109Y-109201990D01*
X109506598Y-109217701D01*
X109546335Y-109339999D01*
X109560128Y-109382447D01*
X109588743Y-109438607D01*
X109638768Y-109536788D01*
X109740586Y-109676928D01*
X109863072Y-109799414D01*
X110003212Y-109901232D01*
X110157555Y-109979873D01*
X110322299Y-110033402D01*
X110493389Y-110060500D01*
X110493390Y-110060500D01*
X110666610Y-110060500D01*
X110666611Y-110060500D01*
X110837701Y-110033402D01*
X111002445Y-109979873D01*
X111156788Y-109901232D01*
X111296928Y-109799414D01*
X111419414Y-109676928D01*
X111521232Y-109536788D01*
X111599873Y-109382445D01*
X111653402Y-109217701D01*
X111680500Y-109046611D01*
X111680500Y-108873389D01*
X111653402Y-108702299D01*
X111599873Y-108537555D01*
X111521232Y-108383212D01*
X111419414Y-108243072D01*
X111296928Y-108120586D01*
X111156788Y-108018768D01*
X111002445Y-107940127D01*
X110837701Y-107886598D01*
X110837699Y-107886597D01*
X110837698Y-107886597D01*
X110706271Y-107865781D01*
X110666611Y-107859500D01*
X110493389Y-107859500D01*
X110453728Y-107865781D01*
X110322302Y-107886597D01*
X110157552Y-107940128D01*
X110003211Y-108018768D01*
X109925225Y-108075429D01*
X109863072Y-108120586D01*
X109863070Y-108120588D01*
X109863069Y-108120588D01*
X109740588Y-108243069D01*
X109740588Y-108243070D01*
X109740586Y-108243072D01*
X109712015Y-108282397D01*
X109638768Y-108383211D01*
X109560128Y-108537552D01*
X109560127Y-108537554D01*
X109560127Y-108537555D01*
X109549200Y-108571185D01*
X109506597Y-108702302D01*
X109491439Y-108798009D01*
X109479500Y-108873389D01*
X108586137Y-108873389D01*
X107500265Y-107787517D01*
X107500263Y-107787515D01*
X107403239Y-107731498D01*
X107403238Y-107731497D01*
X107365515Y-107721389D01*
X107308965Y-107706237D01*
X107253380Y-107674144D01*
X107226717Y-107647481D01*
X107226709Y-107647475D01*
X107089790Y-107568426D01*
X107089786Y-107568424D01*
X107089784Y-107568423D01*
X107089782Y-107568422D01*
X107089781Y-107568422D01*
X107067983Y-107562581D01*
X107008324Y-107526215D01*
X106977795Y-107463368D01*
X106986092Y-107393992D01*
X107012396Y-107355128D01*
X109584510Y-104783014D01*
X109628950Y-104706040D01*
X109679516Y-104657826D01*
X109748123Y-104644602D01*
X109812988Y-104670570D01*
X109824018Y-104680360D01*
X109863072Y-104719414D01*
X110003212Y-104821232D01*
X110157555Y-104899873D01*
X110322299Y-104953402D01*
X110493389Y-104980500D01*
X110493390Y-104980500D01*
X110666610Y-104980500D01*
X110666611Y-104980500D01*
X110837701Y-104953402D01*
X111002445Y-104899873D01*
X111156788Y-104821232D01*
X111296928Y-104719414D01*
X111419414Y-104596928D01*
X111521232Y-104456788D01*
X111599873Y-104302445D01*
X111653402Y-104137701D01*
X111680500Y-103966611D01*
X111680500Y-103793389D01*
X111653402Y-103622299D01*
X111599873Y-103457555D01*
X111521232Y-103303212D01*
X111419414Y-103163072D01*
X111296928Y-103040586D01*
X111156788Y-102938768D01*
X111156787Y-102938767D01*
X111152846Y-102935904D01*
X111153596Y-102934870D01*
X111110662Y-102887415D01*
X111099240Y-102818485D01*
X111126898Y-102754323D01*
X111184854Y-102715298D01*
X111222328Y-102709500D01*
X112460675Y-102709500D01*
X112527714Y-102729185D01*
G37*
%TD.AperFunction*%
%TA.AperFunction,Conductor*%
G36*
X128420941Y-108192185D02*
G01*
X128441583Y-108208819D01*
X128460284Y-108227520D01*
X128460286Y-108227521D01*
X128460290Y-108227524D01*
X128597209Y-108306573D01*
X128597216Y-108306577D01*
X128749943Y-108347500D01*
X128749945Y-108347500D01*
X128829690Y-108347500D01*
X128896729Y-108367185D01*
X128917371Y-108383819D01*
X129390590Y-108857037D01*
X129327007Y-108874075D01*
X129212993Y-108939901D01*
X129119901Y-109032993D01*
X129054075Y-109147007D01*
X129037037Y-109210590D01*
X128583709Y-108757261D01*
X128583708Y-108757261D01*
X128579203Y-108763463D01*
X128579193Y-108763480D01*
X128500592Y-108917740D01*
X128447085Y-109082415D01*
X128422479Y-109237774D01*
X128392550Y-109300909D01*
X128333238Y-109337840D01*
X128267913Y-109338151D01*
X128223090Y-109326141D01*
X128146057Y-109305500D01*
X128146056Y-109305500D01*
X128119610Y-109305500D01*
X128052571Y-109285815D01*
X128031929Y-109269181D01*
X127693265Y-108930517D01*
X127693263Y-108930515D01*
X127596237Y-108874497D01*
X127488018Y-108845500D01*
X127488017Y-108845500D01*
X127021989Y-108845500D01*
X126954950Y-108825815D01*
X126909195Y-108773011D01*
X126899516Y-108740899D01*
X126895702Y-108716819D01*
X126893402Y-108702299D01*
X126839873Y-108537555D01*
X126761232Y-108383212D01*
X126751185Y-108369384D01*
X126727707Y-108303578D01*
X126743533Y-108235524D01*
X126793639Y-108186830D01*
X126851505Y-108172500D01*
X128353902Y-108172500D01*
X128420941Y-108192185D01*
G37*
%TD.AperFunction*%
%TA.AperFunction,Conductor*%
G36*
X147083429Y-105652185D02*
G01*
X147104071Y-105668819D01*
X148512181Y-107076929D01*
X148545666Y-107138252D01*
X148548500Y-107164610D01*
X148548500Y-107191057D01*
X148576192Y-107294408D01*
X148574530Y-107364256D01*
X148535368Y-107422119D01*
X148471139Y-107449623D01*
X148456418Y-107450500D01*
X133328524Y-107450500D01*
X133254307Y-107470386D01*
X133254307Y-107470387D01*
X133188515Y-107488016D01*
X133188513Y-107488016D01*
X133188513Y-107488017D01*
X133062986Y-107560489D01*
X133062983Y-107560491D01*
X132396195Y-108227278D01*
X132334872Y-108260763D01*
X132289117Y-108262070D01*
X132146611Y-108239500D01*
X131973389Y-108239500D01*
X131933728Y-108245781D01*
X131802302Y-108266597D01*
X131637552Y-108320128D01*
X131483211Y-108398768D01*
X131403256Y-108456859D01*
X131343072Y-108500586D01*
X131343070Y-108500588D01*
X131343067Y-108500590D01*
X131332426Y-108511231D01*
X131271102Y-108544714D01*
X131201410Y-108539727D01*
X131145478Y-108497854D01*
X131134614Y-108478774D01*
X131134567Y-108478802D01*
X131104401Y-108426553D01*
X131074485Y-108374737D01*
X130995263Y-108295515D01*
X129090263Y-106390515D01*
X129025579Y-106353169D01*
X128993239Y-106334498D01*
X128993238Y-106334497D01*
X128993237Y-106334497D01*
X128885018Y-106305500D01*
X128885017Y-106305500D01*
X127021989Y-106305500D01*
X126954950Y-106285815D01*
X126909195Y-106233011D01*
X126899516Y-106200899D01*
X126895423Y-106175057D01*
X126893402Y-106162299D01*
X126839873Y-105997555D01*
X126761232Y-105843212D01*
X126751185Y-105829384D01*
X126727707Y-105763578D01*
X126743533Y-105695524D01*
X126793639Y-105646830D01*
X126851505Y-105632500D01*
X147016390Y-105632500D01*
X147083429Y-105652185D01*
G37*
%TD.AperFunction*%
%TD*%
M02*
