%TF.GenerationSoftware,KiCad,Pcbnew,10.0.6*%
%TF.CreationDate,2026-09-27T08:23:23-04:00*%
%TF.ProjectId,iwand,6977616e-642e-46b6-9963-61645f706362,rev?*%
%TF.SameCoordinates,Original*%
%TF.FileFunction,Drillmap*%
%TF.FilePolarity,Positive*%
%FSLAX45Y45*%
G04 Gerber Fmt 4.5, Leading zero omitted, Abs format (unit mm)*
G04 Created by KiCad (PCBNEW 10.0.6) date 2026-09-27 08:23:23*
%MOMM*%
%LPD*%
G01*
G04 APERTURE LIST*
%ADD10C,0.050000*%
%ADD11C,0.200000*%
%ADD12C,0.100000*%
%ADD13C,0.150000*%
G04 APERTURE END LIST*
D10*
X10000000Y-10100000D02*
G75*
G02*
X10100000Y-10000000I100000J0D01*
G01*
X10000000Y-12100000D02*
X10000000Y-10100000D01*
X10100000Y-10000000D02*
X17490000Y-10000000D01*
X10100000Y-12200000D02*
G75*
G02*
X10000000Y-12100000I0J100000D01*
G01*
X17490000Y-10000000D02*
G75*
G02*
X17590000Y-10100000I0J-100000D01*
G01*
X17490000Y-12200000D02*
X10100000Y-12200000D01*
X17590000Y-10100000D02*
X17590000Y-12100000D01*
X17590000Y-12100000D02*
G75*
G02*
X17490000Y-12200000I-100000J0D01*
G01*
D11*
D12*
X10188200Y-10188200D02*
X10218200Y-10218200D01*
X10218200Y-10188200D02*
X10188200Y-10218200D01*
X10188200Y-10581900D02*
X10218200Y-10611900D01*
X10218200Y-10581900D02*
X10188200Y-10611900D01*
X10188200Y-10988300D02*
X10218200Y-11018300D01*
X10218200Y-10988300D02*
X10188200Y-11018300D01*
X10188200Y-11382000D02*
X10218200Y-11412000D01*
X10218200Y-11382000D02*
X10188200Y-11412000D01*
X10188200Y-11788400D02*
X10218200Y-11818400D01*
X10218200Y-11788400D02*
X10188200Y-11818400D01*
X10505700Y-11826500D02*
X10535700Y-11856500D01*
X10535700Y-11826500D02*
X10505700Y-11856500D01*
X10581900Y-11382000D02*
X10611900Y-11412000D01*
X10611900Y-11382000D02*
X10581900Y-11412000D01*
X10670800Y-10797800D02*
X10700800Y-10827800D01*
X10700800Y-10797800D02*
X10670800Y-10827800D01*
X10810500Y-10391400D02*
X10840500Y-10421400D01*
X10840500Y-10391400D02*
X10810500Y-10421400D01*
X11470900Y-11051800D02*
X11500900Y-11081800D01*
X11500900Y-11051800D02*
X11470900Y-11081800D01*
X11788400Y-10988300D02*
X11818400Y-11018300D01*
X11818400Y-10988300D02*
X11788400Y-11018300D01*
X11788400Y-11864600D02*
X11818400Y-11894600D01*
X11818400Y-11864600D02*
X11788400Y-11894600D01*
X11813800Y-10594600D02*
X11843800Y-10624600D01*
X11843800Y-10594600D02*
X11813800Y-10624600D01*
X11839200Y-11293100D02*
X11869200Y-11323100D01*
X11869200Y-11293100D02*
X11839200Y-11323100D01*
X11890000Y-10683500D02*
X11920000Y-10713500D01*
X11920000Y-10683500D02*
X11890000Y-10713500D01*
X12105900Y-10810500D02*
X12135900Y-10840500D01*
X12135900Y-10810500D02*
X12105900Y-10840500D01*
X12220200Y-11204200D02*
X12250200Y-11234200D01*
X12250200Y-11204200D02*
X12220200Y-11234200D01*
X12220200Y-11686800D02*
X12250200Y-11716800D01*
X12250200Y-11686800D02*
X12220200Y-11716800D01*
X12258300Y-10670800D02*
X12288300Y-10700800D01*
X12288300Y-10670800D02*
X12258300Y-10700800D01*
X12258300Y-11864600D02*
X12288300Y-11894600D01*
X12288300Y-11864600D02*
X12258300Y-11894600D01*
X12296400Y-10962900D02*
X12326400Y-10992900D01*
X12326400Y-10962900D02*
X12296400Y-10992900D01*
X12334500Y-10581900D02*
X12364500Y-10611900D01*
X12364500Y-10581900D02*
X12334500Y-10611900D01*
X12398000Y-11686800D02*
X12428000Y-11716800D01*
X12428000Y-11686800D02*
X12398000Y-11716800D01*
X12448800Y-11318500D02*
X12478800Y-11348500D01*
X12478800Y-11318500D02*
X12448800Y-11348500D01*
X12791700Y-10975600D02*
X12821700Y-11005600D01*
X12821700Y-10975600D02*
X12791700Y-11005600D01*
X12867900Y-10759700D02*
X12897900Y-10789700D01*
X12897900Y-10759700D02*
X12867900Y-10789700D01*
X12982200Y-10607300D02*
X13012200Y-10637300D01*
X13012200Y-10607300D02*
X12982200Y-10637300D01*
X13350500Y-11140700D02*
X13380500Y-11170700D01*
X13380500Y-11140700D02*
X13350500Y-11170700D01*
X13363200Y-11420100D02*
X13393200Y-11450100D01*
X13393200Y-11420100D02*
X13363200Y-11450100D01*
X13388600Y-10607300D02*
X13418600Y-10637300D01*
X13418600Y-10607300D02*
X13388600Y-10637300D01*
X13464800Y-11089900D02*
X13494800Y-11119900D01*
X13494800Y-11089900D02*
X13464800Y-11119900D01*
X13782300Y-10607300D02*
X13812300Y-10637300D01*
X13812300Y-10607300D02*
X13782300Y-10637300D01*
X13782300Y-11382000D02*
X13812300Y-11412000D01*
X13812300Y-11382000D02*
X13782300Y-11412000D01*
X13896600Y-11801100D02*
X13926600Y-11831100D01*
X13926600Y-11801100D02*
X13896600Y-11831100D01*
X14087100Y-11877300D02*
X14117100Y-11907300D01*
X14117100Y-11877300D02*
X14087100Y-11907300D01*
X14112500Y-11305800D02*
X14142500Y-11335800D01*
X14142500Y-11305800D02*
X14112500Y-11335800D01*
X14125200Y-10632700D02*
X14155200Y-10662700D01*
X14155200Y-10632700D02*
X14125200Y-10662700D01*
X14582400Y-10607300D02*
X14612400Y-10637300D01*
X14612400Y-10607300D02*
X14582400Y-10637300D01*
X14620500Y-10988300D02*
X14650500Y-11018300D01*
X14650500Y-10988300D02*
X14620500Y-11018300D01*
X14899900Y-10696200D02*
X14929900Y-10726200D01*
X14929900Y-10696200D02*
X14899900Y-10726200D01*
X14988800Y-10988300D02*
X15018800Y-11018300D01*
X15018800Y-10988300D02*
X14988800Y-11018300D01*
X15026900Y-10531100D02*
X15056900Y-10561100D01*
X15056900Y-10531100D02*
X15026900Y-10561100D01*
X15382500Y-10581900D02*
X15412500Y-10611900D01*
X15412500Y-10581900D02*
X15382500Y-10611900D01*
X15382500Y-11826500D02*
X15412500Y-11856500D01*
X15412500Y-11826500D02*
X15382500Y-11856500D01*
X15433300Y-10937500D02*
X15463300Y-10967500D01*
X15463300Y-10937500D02*
X15433300Y-10967500D01*
X15788900Y-10581900D02*
X15818900Y-10611900D01*
X15818900Y-10581900D02*
X15788900Y-10611900D01*
X15839700Y-11039100D02*
X15869700Y-11069100D01*
X15869700Y-11039100D02*
X15839700Y-11069100D01*
X16131800Y-10581900D02*
X16161800Y-10611900D01*
X16161800Y-10581900D02*
X16131800Y-10611900D01*
X16131800Y-11280400D02*
X16161800Y-11310400D01*
X16161800Y-11280400D02*
X16131800Y-11310400D01*
X16347700Y-10696200D02*
X16377700Y-10726200D01*
X16377700Y-10696200D02*
X16347700Y-10726200D01*
X16538200Y-11039100D02*
X16568200Y-11069100D01*
X16568200Y-11039100D02*
X16538200Y-11069100D01*
X16589000Y-11788400D02*
X16619000Y-11818400D01*
X16619000Y-11788400D02*
X16589000Y-11818400D01*
X16614400Y-10556500D02*
X16644400Y-10586500D01*
X16644400Y-10556500D02*
X16614400Y-10586500D01*
X16665200Y-10188200D02*
X16695200Y-10218200D01*
X16695200Y-10188200D02*
X16665200Y-10218200D01*
X16982700Y-10188200D02*
X17012700Y-10218200D01*
X17012700Y-10188200D02*
X16982700Y-10218200D01*
X16982700Y-10581900D02*
X17012700Y-10611900D01*
X17012700Y-10581900D02*
X16982700Y-10611900D01*
X16982700Y-11788400D02*
X17012700Y-11818400D01*
X17012700Y-11788400D02*
X16982700Y-11818400D01*
X17071600Y-11013700D02*
X17101600Y-11043700D01*
X17101600Y-11013700D02*
X17071600Y-11043700D01*
X17084300Y-11382000D02*
X17114300Y-11412000D01*
X17114300Y-11382000D02*
X17084300Y-11412000D01*
X17389100Y-10188200D02*
X17419100Y-10218200D01*
X17419100Y-10188200D02*
X17389100Y-10218200D01*
X17389100Y-10581900D02*
X17419100Y-10611900D01*
X17419100Y-10581900D02*
X17389100Y-10611900D01*
X17389100Y-10988300D02*
X17419100Y-11018300D01*
X17419100Y-10988300D02*
X17389100Y-11018300D01*
X17389100Y-11382000D02*
X17419100Y-11412000D01*
X17419100Y-11382000D02*
X17389100Y-11412000D01*
X17389100Y-11788400D02*
X17419100Y-11818400D01*
X17419100Y-11788400D02*
X17389100Y-11818400D01*
X12737800Y-11600200D02*
G75*
G02*
X12697800Y-11600200I-20000J0D01*
G01*
X12697800Y-11600200D02*
G75*
G02*
X12737800Y-11600200I20000J0D01*
G01*
X12839400Y-11638300D02*
G75*
G02*
X12799400Y-11638300I-20000J0D01*
G01*
X12799400Y-11638300D02*
G75*
G02*
X12839400Y-11638300I20000J0D01*
G01*
X14312600Y-11625600D02*
G75*
G02*
X14272600Y-11625600I-20000J0D01*
G01*
X14272600Y-11625600D02*
G75*
G02*
X14312600Y-11625600I20000J0D01*
G01*
X15493700Y-11409700D02*
G75*
G02*
X15453700Y-11409700I-20000J0D01*
G01*
X15453700Y-11409700D02*
G75*
G02*
X15493700Y-11409700I20000J0D01*
G01*
X16281100Y-11765300D02*
G75*
G02*
X16241100Y-11765300I-20000J0D01*
G01*
X16241100Y-11765300D02*
G75*
G02*
X16281100Y-11765300I20000J0D01*
G01*
X10679000Y-10237500D02*
X10679000Y-10312500D01*
X10641500Y-10275000D02*
X10716500Y-10275000D01*
X10679000Y-10437500D02*
X10679000Y-10512500D01*
X10641500Y-10475000D02*
X10716500Y-10475000D01*
X10679000Y-10962500D02*
X10679000Y-11037500D01*
X10641500Y-11000000D02*
X10716500Y-11000000D01*
X10679000Y-11162500D02*
X10679000Y-11237500D01*
X10641500Y-11200000D02*
X10716500Y-11200000D01*
X10679000Y-11687500D02*
X10679000Y-11762500D01*
X10641500Y-11725000D02*
X10716500Y-11725000D01*
X10679000Y-11887500D02*
X10679000Y-11962500D01*
X10641500Y-11925000D02*
X10716500Y-11925000D01*
X16914000Y-10762500D02*
X16914000Y-10837500D01*
X16876500Y-10800000D02*
X16951500Y-10800000D01*
X16914000Y-10962500D02*
X16914000Y-11037500D01*
X16876500Y-11000000D02*
X16951500Y-11000000D01*
X16914000Y-11162500D02*
X16914000Y-11237500D01*
X16876500Y-11200000D02*
X16951500Y-11200000D01*
X16914000Y-11362500D02*
X16914000Y-11437500D01*
X16876500Y-11400000D02*
X16951500Y-11400000D01*
X11377284Y-10378285D02*
X11377284Y-10321716D01*
X11320715Y-10321716D01*
X11320715Y-10378285D01*
X11377284Y-10378285D01*
X11377284Y-10688285D02*
X11377284Y-10631716D01*
X11320715Y-10631716D01*
X11320715Y-10688285D01*
X11377284Y-10688285D01*
X11377284Y-10998285D02*
X11377284Y-10941716D01*
X11320715Y-10941716D01*
X11320715Y-10998285D01*
X11377284Y-10998285D01*
X11377284Y-11308284D02*
X11377284Y-11251715D01*
X11320715Y-11251715D01*
X11320715Y-11308284D01*
X11377284Y-11308284D01*
X11377284Y-11618284D02*
X11377284Y-11561715D01*
X11320715Y-11561715D01*
X11320715Y-11618284D01*
X11377284Y-11618284D01*
X11377284Y-11928284D02*
X11377284Y-11871715D01*
X11320715Y-11871715D01*
X11320715Y-11928284D01*
X11377284Y-11928284D01*
X12139284Y-10378285D02*
X12139284Y-10321716D01*
X12082715Y-10321716D01*
X12082715Y-10378285D01*
X12139284Y-10378285D01*
X12139284Y-10688285D02*
X12139284Y-10631716D01*
X12082715Y-10631716D01*
X12082715Y-10688285D01*
X12139284Y-10688285D01*
X12139284Y-10998285D02*
X12139284Y-10941716D01*
X12082715Y-10941716D01*
X12082715Y-10998285D01*
X12139284Y-10998285D01*
X12139284Y-11308284D02*
X12139284Y-11251715D01*
X12082715Y-11251715D01*
X12082715Y-11308284D01*
X12139284Y-11308284D01*
X12139284Y-11618284D02*
X12139284Y-11561715D01*
X12082715Y-11561715D01*
X12082715Y-11618284D01*
X12139284Y-11618284D01*
X12139284Y-11928284D02*
X12139284Y-11871715D01*
X12082715Y-11871715D01*
X12082715Y-11928284D01*
X12139284Y-11928284D01*
X14148284Y-11528284D02*
X14148284Y-11471715D01*
X14091715Y-11471715D01*
X14091715Y-11528284D01*
X14148284Y-11528284D01*
X14398284Y-11528284D02*
X14398284Y-11471715D01*
X14341715Y-11471715D01*
X14341715Y-11528284D01*
X14398284Y-11528284D01*
X13150000Y-12005000D02*
X13195000Y-11960000D01*
X13150000Y-11915000D01*
X13105000Y-11960000D01*
X13150000Y-12005000D01*
X13350000Y-12005000D02*
X13395000Y-11960000D01*
X13350000Y-11915000D01*
X13305000Y-11960000D01*
X13350000Y-12005000D01*
X13550000Y-12005000D02*
X13595000Y-11960000D01*
X13550000Y-11915000D01*
X13505000Y-11960000D01*
X13550000Y-12005000D01*
X11008000Y-10338000D02*
X11108000Y-10438000D01*
X11108000Y-10338000D02*
X11008000Y-10438000D01*
X11108000Y-10388000D02*
G75*
G02*
X11008000Y-10388000I-50000J0D01*
G01*
X11008000Y-10388000D02*
G75*
G02*
X11108000Y-10388000I50000J0D01*
G01*
X11008000Y-10592000D02*
X11108000Y-10692000D01*
X11108000Y-10592000D02*
X11008000Y-10692000D01*
X11108000Y-10642000D02*
G75*
G02*
X11008000Y-10642000I-50000J0D01*
G01*
X11008000Y-10642000D02*
G75*
G02*
X11108000Y-10642000I50000J0D01*
G01*
X11008000Y-10846000D02*
X11108000Y-10946000D01*
X11108000Y-10846000D02*
X11008000Y-10946000D01*
X11108000Y-10896000D02*
G75*
G02*
X11008000Y-10896000I-50000J0D01*
G01*
X11008000Y-10896000D02*
G75*
G02*
X11108000Y-10896000I50000J0D01*
G01*
X11008000Y-11100000D02*
X11108000Y-11200000D01*
X11108000Y-11100000D02*
X11008000Y-11200000D01*
X11108000Y-11150000D02*
G75*
G02*
X11008000Y-11150000I-50000J0D01*
G01*
X11008000Y-11150000D02*
G75*
G02*
X11108000Y-11150000I50000J0D01*
G01*
X11008000Y-11354000D02*
X11108000Y-11454000D01*
X11108000Y-11354000D02*
X11008000Y-11454000D01*
X11108000Y-11404000D02*
G75*
G02*
X11008000Y-11404000I-50000J0D01*
G01*
X11008000Y-11404000D02*
G75*
G02*
X11108000Y-11404000I50000J0D01*
G01*
X11008000Y-11608000D02*
X11108000Y-11708000D01*
X11108000Y-11608000D02*
X11008000Y-11708000D01*
X11108000Y-11658000D02*
G75*
G02*
X11008000Y-11658000I-50000J0D01*
G01*
X11008000Y-11658000D02*
G75*
G02*
X11108000Y-11658000I50000J0D01*
G01*
X11008000Y-11862000D02*
X11108000Y-11962000D01*
X11108000Y-11862000D02*
X11008000Y-11962000D01*
X11108000Y-11912000D02*
G75*
G02*
X11008000Y-11912000I-50000J0D01*
G01*
X11008000Y-11912000D02*
G75*
G02*
X11108000Y-11912000I50000J0D01*
G01*
X12532000Y-10338000D02*
X12632000Y-10438000D01*
X12632000Y-10338000D02*
X12532000Y-10438000D01*
X12632000Y-10388000D02*
G75*
G02*
X12532000Y-10388000I-50000J0D01*
G01*
X12532000Y-10388000D02*
G75*
G02*
X12632000Y-10388000I50000J0D01*
G01*
X12532000Y-10592000D02*
X12632000Y-10692000D01*
X12632000Y-10592000D02*
X12532000Y-10692000D01*
X12632000Y-10642000D02*
G75*
G02*
X12532000Y-10642000I-50000J0D01*
G01*
X12532000Y-10642000D02*
G75*
G02*
X12632000Y-10642000I50000J0D01*
G01*
X12532000Y-10846000D02*
X12632000Y-10946000D01*
X12632000Y-10846000D02*
X12532000Y-10946000D01*
X12632000Y-10896000D02*
G75*
G02*
X12532000Y-10896000I-50000J0D01*
G01*
X12532000Y-10896000D02*
G75*
G02*
X12632000Y-10896000I50000J0D01*
G01*
X12532000Y-11100000D02*
X12632000Y-11200000D01*
X12632000Y-11100000D02*
X12532000Y-11200000D01*
X12632000Y-11150000D02*
G75*
G02*
X12532000Y-11150000I-50000J0D01*
G01*
X12532000Y-11150000D02*
G75*
G02*
X12632000Y-11150000I50000J0D01*
G01*
X12532000Y-11354000D02*
X12632000Y-11454000D01*
X12632000Y-11354000D02*
X12532000Y-11454000D01*
X12632000Y-11404000D02*
G75*
G02*
X12532000Y-11404000I-50000J0D01*
G01*
X12532000Y-11404000D02*
G75*
G02*
X12632000Y-11404000I50000J0D01*
G01*
X12532000Y-11608000D02*
X12632000Y-11708000D01*
X12632000Y-11608000D02*
X12532000Y-11708000D01*
X12632000Y-11658000D02*
G75*
G02*
X12532000Y-11658000I-50000J0D01*
G01*
X12532000Y-11658000D02*
G75*
G02*
X12632000Y-11658000I50000J0D01*
G01*
X12532000Y-11862000D02*
X12632000Y-11962000D01*
X12632000Y-11862000D02*
X12532000Y-11962000D01*
X12632000Y-11912000D02*
G75*
G02*
X12532000Y-11912000I-50000J0D01*
G01*
X12532000Y-11912000D02*
G75*
G02*
X12632000Y-11912000I50000J0D01*
G01*
X12902000Y-10884000D02*
X13002000Y-10984000D01*
X13002000Y-10884000D02*
X12902000Y-10984000D01*
X13002000Y-10934000D02*
G75*
G02*
X12902000Y-10934000I-50000J0D01*
G01*
X12902000Y-10934000D02*
G75*
G02*
X13002000Y-10934000I50000J0D01*
G01*
X12910000Y-11350000D02*
X13010000Y-11450000D01*
X13010000Y-11350000D02*
X12910000Y-11450000D01*
X13010000Y-11400000D02*
G75*
G02*
X12910000Y-11400000I-50000J0D01*
G01*
X12910000Y-11400000D02*
G75*
G02*
X13010000Y-11400000I50000J0D01*
G01*
X13156000Y-10884000D02*
X13256000Y-10984000D01*
X13256000Y-10884000D02*
X13156000Y-10984000D01*
X13256000Y-10934000D02*
G75*
G02*
X13156000Y-10934000I-50000J0D01*
G01*
X13156000Y-10934000D02*
G75*
G02*
X13256000Y-10934000I50000J0D01*
G01*
X13164000Y-11350000D02*
X13264000Y-11450000D01*
X13264000Y-11350000D02*
X13164000Y-11450000D01*
X13264000Y-11400000D02*
G75*
G02*
X13164000Y-11400000I-50000J0D01*
G01*
X13164000Y-11400000D02*
G75*
G02*
X13264000Y-11400000I50000J0D01*
G01*
X13410000Y-10884000D02*
X13510000Y-10984000D01*
X13510000Y-10884000D02*
X13410000Y-10984000D01*
X13510000Y-10934000D02*
G75*
G02*
X13410000Y-10934000I-50000J0D01*
G01*
X13410000Y-10934000D02*
G75*
G02*
X13510000Y-10934000I50000J0D01*
G01*
X13782000Y-10884000D02*
X13882000Y-10984000D01*
X13882000Y-10884000D02*
X13782000Y-10984000D01*
X13882000Y-10934000D02*
G75*
G02*
X13782000Y-10934000I-50000J0D01*
G01*
X13782000Y-10934000D02*
G75*
G02*
X13882000Y-10934000I50000J0D01*
G01*
X14036000Y-10884000D02*
X14136000Y-10984000D01*
X14136000Y-10884000D02*
X14036000Y-10984000D01*
X14136000Y-10934000D02*
G75*
G02*
X14036000Y-10934000I-50000J0D01*
G01*
X14036000Y-10934000D02*
G75*
G02*
X14136000Y-10934000I50000J0D01*
G01*
X14290000Y-10884000D02*
X14390000Y-10984000D01*
X14390000Y-10884000D02*
X14290000Y-10984000D01*
X14390000Y-10934000D02*
G75*
G02*
X14290000Y-10934000I-50000J0D01*
G01*
X14290000Y-10934000D02*
G75*
G02*
X14390000Y-10934000I50000J0D01*
G01*
X14684000Y-10148300D02*
X14784000Y-10248300D01*
X14784000Y-10148300D02*
X14684000Y-10248300D01*
X14784000Y-10198300D02*
G75*
G02*
X14684000Y-10198300I-50000J0D01*
G01*
X14684000Y-10198300D02*
G75*
G02*
X14784000Y-10198300I50000J0D01*
G01*
X14684000Y-11951700D02*
X14784000Y-12051700D01*
X14784000Y-11951700D02*
X14684000Y-12051700D01*
X14784000Y-12001700D02*
G75*
G02*
X14684000Y-12001700I-50000J0D01*
G01*
X14684000Y-12001700D02*
G75*
G02*
X14784000Y-12001700I50000J0D01*
G01*
X14938000Y-10148300D02*
X15038000Y-10248300D01*
X15038000Y-10148300D02*
X14938000Y-10248300D01*
X15038000Y-10198300D02*
G75*
G02*
X14938000Y-10198300I-50000J0D01*
G01*
X14938000Y-10198300D02*
G75*
G02*
X15038000Y-10198300I50000J0D01*
G01*
X14938000Y-11951700D02*
X15038000Y-12051700D01*
X15038000Y-11951700D02*
X14938000Y-12051700D01*
X15038000Y-12001700D02*
G75*
G02*
X14938000Y-12001700I-50000J0D01*
G01*
X14938000Y-12001700D02*
G75*
G02*
X15038000Y-12001700I50000J0D01*
G01*
X15192000Y-10148300D02*
X15292000Y-10248300D01*
X15292000Y-10148300D02*
X15192000Y-10248300D01*
X15292000Y-10198300D02*
G75*
G02*
X15192000Y-10198300I-50000J0D01*
G01*
X15192000Y-10198300D02*
G75*
G02*
X15292000Y-10198300I50000J0D01*
G01*
X15192000Y-11951700D02*
X15292000Y-12051700D01*
X15292000Y-11951700D02*
X15192000Y-12051700D01*
X15292000Y-12001700D02*
G75*
G02*
X15192000Y-12001700I-50000J0D01*
G01*
X15192000Y-12001700D02*
G75*
G02*
X15292000Y-12001700I50000J0D01*
G01*
X15446000Y-10148300D02*
X15546000Y-10248300D01*
X15546000Y-10148300D02*
X15446000Y-10248300D01*
X15546000Y-10198300D02*
G75*
G02*
X15446000Y-10198300I-50000J0D01*
G01*
X15446000Y-10198300D02*
G75*
G02*
X15546000Y-10198300I50000J0D01*
G01*
X15446000Y-11951700D02*
X15546000Y-12051700D01*
X15546000Y-11951700D02*
X15446000Y-12051700D01*
X15546000Y-12001700D02*
G75*
G02*
X15446000Y-12001700I-50000J0D01*
G01*
X15446000Y-12001700D02*
G75*
G02*
X15546000Y-12001700I50000J0D01*
G01*
X15700000Y-10148300D02*
X15800000Y-10248300D01*
X15800000Y-10148300D02*
X15700000Y-10248300D01*
X15800000Y-10198300D02*
G75*
G02*
X15700000Y-10198300I-50000J0D01*
G01*
X15700000Y-10198300D02*
G75*
G02*
X15800000Y-10198300I50000J0D01*
G01*
X15700000Y-11951700D02*
X15800000Y-12051700D01*
X15800000Y-11951700D02*
X15700000Y-12051700D01*
X15800000Y-12001700D02*
G75*
G02*
X15700000Y-12001700I-50000J0D01*
G01*
X15700000Y-12001700D02*
G75*
G02*
X15800000Y-12001700I50000J0D01*
G01*
X15954000Y-10148300D02*
X16054000Y-10248300D01*
X16054000Y-10148300D02*
X15954000Y-10248300D01*
X16054000Y-10198300D02*
G75*
G02*
X15954000Y-10198300I-50000J0D01*
G01*
X15954000Y-10198300D02*
G75*
G02*
X16054000Y-10198300I50000J0D01*
G01*
X15954000Y-11951700D02*
X16054000Y-12051700D01*
X16054000Y-11951700D02*
X15954000Y-12051700D01*
X16054000Y-12001700D02*
G75*
G02*
X15954000Y-12001700I-50000J0D01*
G01*
X15954000Y-12001700D02*
G75*
G02*
X16054000Y-12001700I50000J0D01*
G01*
X16208000Y-10148300D02*
X16308000Y-10248300D01*
X16308000Y-10148300D02*
X16208000Y-10248300D01*
X16308000Y-10198300D02*
G75*
G02*
X16208000Y-10198300I-50000J0D01*
G01*
X16208000Y-10198300D02*
G75*
G02*
X16308000Y-10198300I50000J0D01*
G01*
X16208000Y-11951700D02*
X16308000Y-12051700D01*
X16308000Y-11951700D02*
X16208000Y-12051700D01*
X16308000Y-12001700D02*
G75*
G02*
X16208000Y-12001700I-50000J0D01*
G01*
X16208000Y-12001700D02*
G75*
G02*
X16308000Y-12001700I50000J0D01*
G01*
X16462000Y-10148300D02*
X16562000Y-10248300D01*
X16562000Y-10148300D02*
X16462000Y-10248300D01*
X16562000Y-10198300D02*
G75*
G02*
X16462000Y-10198300I-50000J0D01*
G01*
X16462000Y-10198300D02*
G75*
G02*
X16562000Y-10198300I50000J0D01*
G01*
X16462000Y-11951700D02*
X16562000Y-12051700D01*
X16562000Y-11951700D02*
X16462000Y-12051700D01*
X16562000Y-12001700D02*
G75*
G02*
X16462000Y-12001700I-50000J0D01*
G01*
X16462000Y-12001700D02*
G75*
G02*
X16562000Y-12001700I50000J0D01*
G01*
D13*
X12865000Y-11885000D02*
X13015000Y-12035000D01*
X13015000Y-11885000D02*
X12865000Y-12035000D01*
X12940000Y-11885000D02*
X12940000Y-12035000D01*
X12865000Y-11960000D02*
X13015000Y-11960000D01*
X13685000Y-11885000D02*
X13835000Y-12035000D01*
X13835000Y-11885000D02*
X13685000Y-12035000D01*
X13760000Y-11885000D02*
X13760000Y-12035000D01*
X13685000Y-11960000D02*
X13835000Y-11960000D01*
D11*
X10258277Y-12513984D02*
X10258277Y-12313984D01*
X10258277Y-12313984D02*
X10305896Y-12313984D01*
X10305896Y-12313984D02*
X10334467Y-12323508D01*
X10334467Y-12323508D02*
X10353515Y-12342555D01*
X10353515Y-12342555D02*
X10363039Y-12361603D01*
X10363039Y-12361603D02*
X10372563Y-12399698D01*
X10372563Y-12399698D02*
X10372563Y-12428269D01*
X10372563Y-12428269D02*
X10363039Y-12466365D01*
X10363039Y-12466365D02*
X10353515Y-12485412D01*
X10353515Y-12485412D02*
X10334467Y-12504460D01*
X10334467Y-12504460D02*
X10305896Y-12513984D01*
X10305896Y-12513984D02*
X10258277Y-12513984D01*
X10458277Y-12513984D02*
X10458277Y-12380650D01*
X10458277Y-12418746D02*
X10467801Y-12399698D01*
X10467801Y-12399698D02*
X10477324Y-12390174D01*
X10477324Y-12390174D02*
X10496372Y-12380650D01*
X10496372Y-12380650D02*
X10515420Y-12380650D01*
X10582086Y-12513984D02*
X10582086Y-12380650D01*
X10582086Y-12313984D02*
X10572563Y-12323508D01*
X10572563Y-12323508D02*
X10582086Y-12333031D01*
X10582086Y-12333031D02*
X10591610Y-12323508D01*
X10591610Y-12323508D02*
X10582086Y-12313984D01*
X10582086Y-12313984D02*
X10582086Y-12333031D01*
X10705896Y-12513984D02*
X10686848Y-12504460D01*
X10686848Y-12504460D02*
X10677324Y-12485412D01*
X10677324Y-12485412D02*
X10677324Y-12313984D01*
X10810658Y-12513984D02*
X10791610Y-12504460D01*
X10791610Y-12504460D02*
X10782086Y-12485412D01*
X10782086Y-12485412D02*
X10782086Y-12313984D01*
X11039229Y-12513984D02*
X11039229Y-12313984D01*
X11039229Y-12313984D02*
X11105896Y-12456841D01*
X11105896Y-12456841D02*
X11172563Y-12313984D01*
X11172563Y-12313984D02*
X11172563Y-12513984D01*
X11353515Y-12513984D02*
X11353515Y-12409222D01*
X11353515Y-12409222D02*
X11343991Y-12390174D01*
X11343991Y-12390174D02*
X11324943Y-12380650D01*
X11324943Y-12380650D02*
X11286848Y-12380650D01*
X11286848Y-12380650D02*
X11267801Y-12390174D01*
X11353515Y-12504460D02*
X11334467Y-12513984D01*
X11334467Y-12513984D02*
X11286848Y-12513984D01*
X11286848Y-12513984D02*
X11267801Y-12504460D01*
X11267801Y-12504460D02*
X11258277Y-12485412D01*
X11258277Y-12485412D02*
X11258277Y-12466365D01*
X11258277Y-12466365D02*
X11267801Y-12447317D01*
X11267801Y-12447317D02*
X11286848Y-12437793D01*
X11286848Y-12437793D02*
X11334467Y-12437793D01*
X11334467Y-12437793D02*
X11353515Y-12428269D01*
X11448753Y-12380650D02*
X11448753Y-12580650D01*
X11448753Y-12390174D02*
X11467801Y-12380650D01*
X11467801Y-12380650D02*
X11505896Y-12380650D01*
X11505896Y-12380650D02*
X11524943Y-12390174D01*
X11524943Y-12390174D02*
X11534467Y-12399698D01*
X11534467Y-12399698D02*
X11543991Y-12418746D01*
X11543991Y-12418746D02*
X11543991Y-12475888D01*
X11543991Y-12475888D02*
X11534467Y-12494936D01*
X11534467Y-12494936D02*
X11524943Y-12504460D01*
X11524943Y-12504460D02*
X11505896Y-12513984D01*
X11505896Y-12513984D02*
X11467801Y-12513984D01*
X11467801Y-12513984D02*
X11448753Y-12504460D01*
X11629705Y-12494936D02*
X11639229Y-12504460D01*
X11639229Y-12504460D02*
X11629705Y-12513984D01*
X11629705Y-12513984D02*
X11620182Y-12504460D01*
X11620182Y-12504460D02*
X11629705Y-12494936D01*
X11629705Y-12494936D02*
X11629705Y-12513984D01*
X11629705Y-12390174D02*
X11639229Y-12399698D01*
X11639229Y-12399698D02*
X11629705Y-12409222D01*
X11629705Y-12409222D02*
X11620182Y-12399698D01*
X11620182Y-12399698D02*
X11629705Y-12390174D01*
X11629705Y-12390174D02*
X11629705Y-12409222D01*
D12*
X9967500Y-12827500D02*
X9997500Y-12857500D01*
X9997500Y-12827500D02*
X9967500Y-12857500D01*
D11*
X10296372Y-12733984D02*
X10315420Y-12733984D01*
X10315420Y-12733984D02*
X10334467Y-12743508D01*
X10334467Y-12743508D02*
X10343991Y-12753031D01*
X10343991Y-12753031D02*
X10353515Y-12772079D01*
X10353515Y-12772079D02*
X10363039Y-12810174D01*
X10363039Y-12810174D02*
X10363039Y-12857793D01*
X10363039Y-12857793D02*
X10353515Y-12895888D01*
X10353515Y-12895888D02*
X10343991Y-12914936D01*
X10343991Y-12914936D02*
X10334467Y-12924460D01*
X10334467Y-12924460D02*
X10315420Y-12933984D01*
X10315420Y-12933984D02*
X10296372Y-12933984D01*
X10296372Y-12933984D02*
X10277324Y-12924460D01*
X10277324Y-12924460D02*
X10267801Y-12914936D01*
X10267801Y-12914936D02*
X10258277Y-12895888D01*
X10258277Y-12895888D02*
X10248753Y-12857793D01*
X10248753Y-12857793D02*
X10248753Y-12810174D01*
X10248753Y-12810174D02*
X10258277Y-12772079D01*
X10258277Y-12772079D02*
X10267801Y-12753031D01*
X10267801Y-12753031D02*
X10277324Y-12743508D01*
X10277324Y-12743508D02*
X10296372Y-12733984D01*
X10448753Y-12914936D02*
X10458277Y-12924460D01*
X10458277Y-12924460D02*
X10448753Y-12933984D01*
X10448753Y-12933984D02*
X10439229Y-12924460D01*
X10439229Y-12924460D02*
X10448753Y-12914936D01*
X10448753Y-12914936D02*
X10448753Y-12933984D01*
X10524944Y-12733984D02*
X10648753Y-12733984D01*
X10648753Y-12733984D02*
X10582086Y-12810174D01*
X10582086Y-12810174D02*
X10610658Y-12810174D01*
X10610658Y-12810174D02*
X10629705Y-12819698D01*
X10629705Y-12819698D02*
X10639229Y-12829222D01*
X10639229Y-12829222D02*
X10648753Y-12848269D01*
X10648753Y-12848269D02*
X10648753Y-12895888D01*
X10648753Y-12895888D02*
X10639229Y-12914936D01*
X10639229Y-12914936D02*
X10629705Y-12924460D01*
X10629705Y-12924460D02*
X10610658Y-12933984D01*
X10610658Y-12933984D02*
X10553515Y-12933984D01*
X10553515Y-12933984D02*
X10534467Y-12924460D01*
X10534467Y-12924460D02*
X10524944Y-12914936D01*
X10772563Y-12733984D02*
X10791610Y-12733984D01*
X10791610Y-12733984D02*
X10810658Y-12743508D01*
X10810658Y-12743508D02*
X10820182Y-12753031D01*
X10820182Y-12753031D02*
X10829705Y-12772079D01*
X10829705Y-12772079D02*
X10839229Y-12810174D01*
X10839229Y-12810174D02*
X10839229Y-12857793D01*
X10839229Y-12857793D02*
X10829705Y-12895888D01*
X10829705Y-12895888D02*
X10820182Y-12914936D01*
X10820182Y-12914936D02*
X10810658Y-12924460D01*
X10810658Y-12924460D02*
X10791610Y-12933984D01*
X10791610Y-12933984D02*
X10772563Y-12933984D01*
X10772563Y-12933984D02*
X10753515Y-12924460D01*
X10753515Y-12924460D02*
X10743991Y-12914936D01*
X10743991Y-12914936D02*
X10734467Y-12895888D01*
X10734467Y-12895888D02*
X10724944Y-12857793D01*
X10724944Y-12857793D02*
X10724944Y-12810174D01*
X10724944Y-12810174D02*
X10734467Y-12772079D01*
X10734467Y-12772079D02*
X10743991Y-12753031D01*
X10743991Y-12753031D02*
X10753515Y-12743508D01*
X10753515Y-12743508D02*
X10772563Y-12733984D01*
X10963039Y-12733984D02*
X10982086Y-12733984D01*
X10982086Y-12733984D02*
X11001134Y-12743508D01*
X11001134Y-12743508D02*
X11010658Y-12753031D01*
X11010658Y-12753031D02*
X11020182Y-12772079D01*
X11020182Y-12772079D02*
X11029705Y-12810174D01*
X11029705Y-12810174D02*
X11029705Y-12857793D01*
X11029705Y-12857793D02*
X11020182Y-12895888D01*
X11020182Y-12895888D02*
X11010658Y-12914936D01*
X11010658Y-12914936D02*
X11001134Y-12924460D01*
X11001134Y-12924460D02*
X10982086Y-12933984D01*
X10982086Y-12933984D02*
X10963039Y-12933984D01*
X10963039Y-12933984D02*
X10943991Y-12924460D01*
X10943991Y-12924460D02*
X10934467Y-12914936D01*
X10934467Y-12914936D02*
X10924944Y-12895888D01*
X10924944Y-12895888D02*
X10915420Y-12857793D01*
X10915420Y-12857793D02*
X10915420Y-12810174D01*
X10915420Y-12810174D02*
X10924944Y-12772079D01*
X10924944Y-12772079D02*
X10934467Y-12753031D01*
X10934467Y-12753031D02*
X10943991Y-12743508D01*
X10943991Y-12743508D02*
X10963039Y-12733984D01*
X11115420Y-12933984D02*
X11115420Y-12800650D01*
X11115420Y-12819698D02*
X11124944Y-12810174D01*
X11124944Y-12810174D02*
X11143991Y-12800650D01*
X11143991Y-12800650D02*
X11172563Y-12800650D01*
X11172563Y-12800650D02*
X11191610Y-12810174D01*
X11191610Y-12810174D02*
X11201134Y-12829222D01*
X11201134Y-12829222D02*
X11201134Y-12933984D01*
X11201134Y-12829222D02*
X11210658Y-12810174D01*
X11210658Y-12810174D02*
X11229705Y-12800650D01*
X11229705Y-12800650D02*
X11258277Y-12800650D01*
X11258277Y-12800650D02*
X11277324Y-12810174D01*
X11277324Y-12810174D02*
X11286848Y-12829222D01*
X11286848Y-12829222D02*
X11286848Y-12933984D01*
X11382086Y-12933984D02*
X11382086Y-12800650D01*
X11382086Y-12819698D02*
X11391610Y-12810174D01*
X11391610Y-12810174D02*
X11410658Y-12800650D01*
X11410658Y-12800650D02*
X11439229Y-12800650D01*
X11439229Y-12800650D02*
X11458277Y-12810174D01*
X11458277Y-12810174D02*
X11467801Y-12829222D01*
X11467801Y-12829222D02*
X11467801Y-12933984D01*
X11467801Y-12829222D02*
X11477324Y-12810174D01*
X11477324Y-12810174D02*
X11496372Y-12800650D01*
X11496372Y-12800650D02*
X11524943Y-12800650D01*
X11524943Y-12800650D02*
X11543991Y-12810174D01*
X11543991Y-12810174D02*
X11553515Y-12829222D01*
X11553515Y-12829222D02*
X11553515Y-12933984D01*
X11943991Y-12724460D02*
X11772563Y-12981603D01*
X12201134Y-12733984D02*
X12220182Y-12733984D01*
X12220182Y-12733984D02*
X12239229Y-12743508D01*
X12239229Y-12743508D02*
X12248753Y-12753031D01*
X12248753Y-12753031D02*
X12258277Y-12772079D01*
X12258277Y-12772079D02*
X12267801Y-12810174D01*
X12267801Y-12810174D02*
X12267801Y-12857793D01*
X12267801Y-12857793D02*
X12258277Y-12895888D01*
X12258277Y-12895888D02*
X12248753Y-12914936D01*
X12248753Y-12914936D02*
X12239229Y-12924460D01*
X12239229Y-12924460D02*
X12220182Y-12933984D01*
X12220182Y-12933984D02*
X12201134Y-12933984D01*
X12201134Y-12933984D02*
X12182086Y-12924460D01*
X12182086Y-12924460D02*
X12172563Y-12914936D01*
X12172563Y-12914936D02*
X12163039Y-12895888D01*
X12163039Y-12895888D02*
X12153515Y-12857793D01*
X12153515Y-12857793D02*
X12153515Y-12810174D01*
X12153515Y-12810174D02*
X12163039Y-12772079D01*
X12163039Y-12772079D02*
X12172563Y-12753031D01*
X12172563Y-12753031D02*
X12182086Y-12743508D01*
X12182086Y-12743508D02*
X12201134Y-12733984D01*
X12353515Y-12914936D02*
X12363039Y-12924460D01*
X12363039Y-12924460D02*
X12353515Y-12933984D01*
X12353515Y-12933984D02*
X12343991Y-12924460D01*
X12343991Y-12924460D02*
X12353515Y-12914936D01*
X12353515Y-12914936D02*
X12353515Y-12933984D01*
X12486848Y-12733984D02*
X12505896Y-12733984D01*
X12505896Y-12733984D02*
X12524944Y-12743508D01*
X12524944Y-12743508D02*
X12534467Y-12753031D01*
X12534467Y-12753031D02*
X12543991Y-12772079D01*
X12543991Y-12772079D02*
X12553515Y-12810174D01*
X12553515Y-12810174D02*
X12553515Y-12857793D01*
X12553515Y-12857793D02*
X12543991Y-12895888D01*
X12543991Y-12895888D02*
X12534467Y-12914936D01*
X12534467Y-12914936D02*
X12524944Y-12924460D01*
X12524944Y-12924460D02*
X12505896Y-12933984D01*
X12505896Y-12933984D02*
X12486848Y-12933984D01*
X12486848Y-12933984D02*
X12467801Y-12924460D01*
X12467801Y-12924460D02*
X12458277Y-12914936D01*
X12458277Y-12914936D02*
X12448753Y-12895888D01*
X12448753Y-12895888D02*
X12439229Y-12857793D01*
X12439229Y-12857793D02*
X12439229Y-12810174D01*
X12439229Y-12810174D02*
X12448753Y-12772079D01*
X12448753Y-12772079D02*
X12458277Y-12753031D01*
X12458277Y-12753031D02*
X12467801Y-12743508D01*
X12467801Y-12743508D02*
X12486848Y-12733984D01*
X12743991Y-12933984D02*
X12629706Y-12933984D01*
X12686848Y-12933984D02*
X12686848Y-12733984D01*
X12686848Y-12733984D02*
X12667801Y-12762555D01*
X12667801Y-12762555D02*
X12648753Y-12781603D01*
X12648753Y-12781603D02*
X12629706Y-12791127D01*
X12934467Y-12933984D02*
X12820182Y-12933984D01*
X12877325Y-12933984D02*
X12877325Y-12733984D01*
X12877325Y-12733984D02*
X12858277Y-12762555D01*
X12858277Y-12762555D02*
X12839229Y-12781603D01*
X12839229Y-12781603D02*
X12820182Y-12791127D01*
X13048753Y-12819698D02*
X13029706Y-12810174D01*
X13029706Y-12810174D02*
X13020182Y-12800650D01*
X13020182Y-12800650D02*
X13010658Y-12781603D01*
X13010658Y-12781603D02*
X13010658Y-12772079D01*
X13010658Y-12772079D02*
X13020182Y-12753031D01*
X13020182Y-12753031D02*
X13029706Y-12743508D01*
X13029706Y-12743508D02*
X13048753Y-12733984D01*
X13048753Y-12733984D02*
X13086848Y-12733984D01*
X13086848Y-12733984D02*
X13105896Y-12743508D01*
X13105896Y-12743508D02*
X13115420Y-12753031D01*
X13115420Y-12753031D02*
X13124944Y-12772079D01*
X13124944Y-12772079D02*
X13124944Y-12781603D01*
X13124944Y-12781603D02*
X13115420Y-12800650D01*
X13115420Y-12800650D02*
X13105896Y-12810174D01*
X13105896Y-12810174D02*
X13086848Y-12819698D01*
X13086848Y-12819698D02*
X13048753Y-12819698D01*
X13048753Y-12819698D02*
X13029706Y-12829222D01*
X13029706Y-12829222D02*
X13020182Y-12838746D01*
X13020182Y-12838746D02*
X13010658Y-12857793D01*
X13010658Y-12857793D02*
X13010658Y-12895888D01*
X13010658Y-12895888D02*
X13020182Y-12914936D01*
X13020182Y-12914936D02*
X13029706Y-12924460D01*
X13029706Y-12924460D02*
X13048753Y-12933984D01*
X13048753Y-12933984D02*
X13086848Y-12933984D01*
X13086848Y-12933984D02*
X13105896Y-12924460D01*
X13105896Y-12924460D02*
X13115420Y-12914936D01*
X13115420Y-12914936D02*
X13124944Y-12895888D01*
X13124944Y-12895888D02*
X13124944Y-12857793D01*
X13124944Y-12857793D02*
X13115420Y-12838746D01*
X13115420Y-12838746D02*
X13105896Y-12829222D01*
X13105896Y-12829222D02*
X13086848Y-12819698D01*
X13201134Y-12733984D02*
X13201134Y-12772079D01*
X13277325Y-12733984D02*
X13277325Y-12772079D01*
X13572563Y-13010174D02*
X13563039Y-13000650D01*
X13563039Y-13000650D02*
X13543991Y-12972079D01*
X13543991Y-12972079D02*
X13534468Y-12953031D01*
X13534468Y-12953031D02*
X13524944Y-12924460D01*
X13524944Y-12924460D02*
X13515420Y-12876841D01*
X13515420Y-12876841D02*
X13515420Y-12838746D01*
X13515420Y-12838746D02*
X13524944Y-12791127D01*
X13524944Y-12791127D02*
X13534468Y-12762555D01*
X13534468Y-12762555D02*
X13543991Y-12743508D01*
X13543991Y-12743508D02*
X13563039Y-12714936D01*
X13563039Y-12714936D02*
X13572563Y-12705412D01*
X13734468Y-12733984D02*
X13696372Y-12733984D01*
X13696372Y-12733984D02*
X13677325Y-12743508D01*
X13677325Y-12743508D02*
X13667801Y-12753031D01*
X13667801Y-12753031D02*
X13648753Y-12781603D01*
X13648753Y-12781603D02*
X13639229Y-12819698D01*
X13639229Y-12819698D02*
X13639229Y-12895888D01*
X13639229Y-12895888D02*
X13648753Y-12914936D01*
X13648753Y-12914936D02*
X13658277Y-12924460D01*
X13658277Y-12924460D02*
X13677325Y-12933984D01*
X13677325Y-12933984D02*
X13715420Y-12933984D01*
X13715420Y-12933984D02*
X13734468Y-12924460D01*
X13734468Y-12924460D02*
X13743991Y-12914936D01*
X13743991Y-12914936D02*
X13753515Y-12895888D01*
X13753515Y-12895888D02*
X13753515Y-12848269D01*
X13753515Y-12848269D02*
X13743991Y-12829222D01*
X13743991Y-12829222D02*
X13734468Y-12819698D01*
X13734468Y-12819698D02*
X13715420Y-12810174D01*
X13715420Y-12810174D02*
X13677325Y-12810174D01*
X13677325Y-12810174D02*
X13658277Y-12819698D01*
X13658277Y-12819698D02*
X13648753Y-12829222D01*
X13648753Y-12829222D02*
X13639229Y-12848269D01*
X13924944Y-12800650D02*
X13924944Y-12933984D01*
X13877325Y-12724460D02*
X13829706Y-12867317D01*
X13829706Y-12867317D02*
X13953515Y-12867317D01*
X14182087Y-12933984D02*
X14182087Y-12733984D01*
X14267801Y-12933984D02*
X14267801Y-12829222D01*
X14267801Y-12829222D02*
X14258277Y-12810174D01*
X14258277Y-12810174D02*
X14239230Y-12800650D01*
X14239230Y-12800650D02*
X14210658Y-12800650D01*
X14210658Y-12800650D02*
X14191610Y-12810174D01*
X14191610Y-12810174D02*
X14182087Y-12819698D01*
X14391610Y-12933984D02*
X14372563Y-12924460D01*
X14372563Y-12924460D02*
X14363039Y-12914936D01*
X14363039Y-12914936D02*
X14353515Y-12895888D01*
X14353515Y-12895888D02*
X14353515Y-12838746D01*
X14353515Y-12838746D02*
X14363039Y-12819698D01*
X14363039Y-12819698D02*
X14372563Y-12810174D01*
X14372563Y-12810174D02*
X14391610Y-12800650D01*
X14391610Y-12800650D02*
X14420182Y-12800650D01*
X14420182Y-12800650D02*
X14439230Y-12810174D01*
X14439230Y-12810174D02*
X14448753Y-12819698D01*
X14448753Y-12819698D02*
X14458277Y-12838746D01*
X14458277Y-12838746D02*
X14458277Y-12895888D01*
X14458277Y-12895888D02*
X14448753Y-12914936D01*
X14448753Y-12914936D02*
X14439230Y-12924460D01*
X14439230Y-12924460D02*
X14420182Y-12933984D01*
X14420182Y-12933984D02*
X14391610Y-12933984D01*
X14572563Y-12933984D02*
X14553515Y-12924460D01*
X14553515Y-12924460D02*
X14543991Y-12905412D01*
X14543991Y-12905412D02*
X14543991Y-12733984D01*
X14724944Y-12924460D02*
X14705896Y-12933984D01*
X14705896Y-12933984D02*
X14667801Y-12933984D01*
X14667801Y-12933984D02*
X14648753Y-12924460D01*
X14648753Y-12924460D02*
X14639230Y-12905412D01*
X14639230Y-12905412D02*
X14639230Y-12829222D01*
X14639230Y-12829222D02*
X14648753Y-12810174D01*
X14648753Y-12810174D02*
X14667801Y-12800650D01*
X14667801Y-12800650D02*
X14705896Y-12800650D01*
X14705896Y-12800650D02*
X14724944Y-12810174D01*
X14724944Y-12810174D02*
X14734468Y-12829222D01*
X14734468Y-12829222D02*
X14734468Y-12848269D01*
X14734468Y-12848269D02*
X14639230Y-12867317D01*
X14810658Y-12924460D02*
X14829706Y-12933984D01*
X14829706Y-12933984D02*
X14867801Y-12933984D01*
X14867801Y-12933984D02*
X14886849Y-12924460D01*
X14886849Y-12924460D02*
X14896372Y-12905412D01*
X14896372Y-12905412D02*
X14896372Y-12895888D01*
X14896372Y-12895888D02*
X14886849Y-12876841D01*
X14886849Y-12876841D02*
X14867801Y-12867317D01*
X14867801Y-12867317D02*
X14839230Y-12867317D01*
X14839230Y-12867317D02*
X14820182Y-12857793D01*
X14820182Y-12857793D02*
X14810658Y-12838746D01*
X14810658Y-12838746D02*
X14810658Y-12829222D01*
X14810658Y-12829222D02*
X14820182Y-12810174D01*
X14820182Y-12810174D02*
X14839230Y-12800650D01*
X14839230Y-12800650D02*
X14867801Y-12800650D01*
X14867801Y-12800650D02*
X14886849Y-12810174D01*
X14963039Y-13010174D02*
X14972563Y-13000650D01*
X14972563Y-13000650D02*
X14991611Y-12972079D01*
X14991611Y-12972079D02*
X15001134Y-12953031D01*
X15001134Y-12953031D02*
X15010658Y-12924460D01*
X15010658Y-12924460D02*
X15020182Y-12876841D01*
X15020182Y-12876841D02*
X15020182Y-12838746D01*
X15020182Y-12838746D02*
X15010658Y-12791127D01*
X15010658Y-12791127D02*
X15001134Y-12762555D01*
X15001134Y-12762555D02*
X14991611Y-12743508D01*
X14991611Y-12743508D02*
X14972563Y-12714936D01*
X14972563Y-12714936D02*
X14963039Y-12705412D01*
D12*
X9997500Y-13106500D02*
G75*
G02*
X9957500Y-13106500I-20000J0D01*
G01*
X9957500Y-13106500D02*
G75*
G02*
X9997500Y-13106500I20000J0D01*
G01*
D11*
X10296372Y-12997984D02*
X10315420Y-12997984D01*
X10315420Y-12997984D02*
X10334467Y-13007508D01*
X10334467Y-13007508D02*
X10343991Y-13017031D01*
X10343991Y-13017031D02*
X10353515Y-13036079D01*
X10353515Y-13036079D02*
X10363039Y-13074174D01*
X10363039Y-13074174D02*
X10363039Y-13121793D01*
X10363039Y-13121793D02*
X10353515Y-13159888D01*
X10353515Y-13159888D02*
X10343991Y-13178936D01*
X10343991Y-13178936D02*
X10334467Y-13188460D01*
X10334467Y-13188460D02*
X10315420Y-13197984D01*
X10315420Y-13197984D02*
X10296372Y-13197984D01*
X10296372Y-13197984D02*
X10277324Y-13188460D01*
X10277324Y-13188460D02*
X10267801Y-13178936D01*
X10267801Y-13178936D02*
X10258277Y-13159888D01*
X10258277Y-13159888D02*
X10248753Y-13121793D01*
X10248753Y-13121793D02*
X10248753Y-13074174D01*
X10248753Y-13074174D02*
X10258277Y-13036079D01*
X10258277Y-13036079D02*
X10267801Y-13017031D01*
X10267801Y-13017031D02*
X10277324Y-13007508D01*
X10277324Y-13007508D02*
X10296372Y-12997984D01*
X10448753Y-13178936D02*
X10458277Y-13188460D01*
X10458277Y-13188460D02*
X10448753Y-13197984D01*
X10448753Y-13197984D02*
X10439229Y-13188460D01*
X10439229Y-13188460D02*
X10448753Y-13178936D01*
X10448753Y-13178936D02*
X10448753Y-13197984D01*
X10629705Y-13064650D02*
X10629705Y-13197984D01*
X10582086Y-12988460D02*
X10534467Y-13131317D01*
X10534467Y-13131317D02*
X10658277Y-13131317D01*
X10772563Y-12997984D02*
X10791610Y-12997984D01*
X10791610Y-12997984D02*
X10810658Y-13007508D01*
X10810658Y-13007508D02*
X10820182Y-13017031D01*
X10820182Y-13017031D02*
X10829705Y-13036079D01*
X10829705Y-13036079D02*
X10839229Y-13074174D01*
X10839229Y-13074174D02*
X10839229Y-13121793D01*
X10839229Y-13121793D02*
X10829705Y-13159888D01*
X10829705Y-13159888D02*
X10820182Y-13178936D01*
X10820182Y-13178936D02*
X10810658Y-13188460D01*
X10810658Y-13188460D02*
X10791610Y-13197984D01*
X10791610Y-13197984D02*
X10772563Y-13197984D01*
X10772563Y-13197984D02*
X10753515Y-13188460D01*
X10753515Y-13188460D02*
X10743991Y-13178936D01*
X10743991Y-13178936D02*
X10734467Y-13159888D01*
X10734467Y-13159888D02*
X10724944Y-13121793D01*
X10724944Y-13121793D02*
X10724944Y-13074174D01*
X10724944Y-13074174D02*
X10734467Y-13036079D01*
X10734467Y-13036079D02*
X10743991Y-13017031D01*
X10743991Y-13017031D02*
X10753515Y-13007508D01*
X10753515Y-13007508D02*
X10772563Y-12997984D01*
X10963039Y-12997984D02*
X10982086Y-12997984D01*
X10982086Y-12997984D02*
X11001134Y-13007508D01*
X11001134Y-13007508D02*
X11010658Y-13017031D01*
X11010658Y-13017031D02*
X11020182Y-13036079D01*
X11020182Y-13036079D02*
X11029705Y-13074174D01*
X11029705Y-13074174D02*
X11029705Y-13121793D01*
X11029705Y-13121793D02*
X11020182Y-13159888D01*
X11020182Y-13159888D02*
X11010658Y-13178936D01*
X11010658Y-13178936D02*
X11001134Y-13188460D01*
X11001134Y-13188460D02*
X10982086Y-13197984D01*
X10982086Y-13197984D02*
X10963039Y-13197984D01*
X10963039Y-13197984D02*
X10943991Y-13188460D01*
X10943991Y-13188460D02*
X10934467Y-13178936D01*
X10934467Y-13178936D02*
X10924944Y-13159888D01*
X10924944Y-13159888D02*
X10915420Y-13121793D01*
X10915420Y-13121793D02*
X10915420Y-13074174D01*
X10915420Y-13074174D02*
X10924944Y-13036079D01*
X10924944Y-13036079D02*
X10934467Y-13017031D01*
X10934467Y-13017031D02*
X10943991Y-13007508D01*
X10943991Y-13007508D02*
X10963039Y-12997984D01*
X11115420Y-13197984D02*
X11115420Y-13064650D01*
X11115420Y-13083698D02*
X11124944Y-13074174D01*
X11124944Y-13074174D02*
X11143991Y-13064650D01*
X11143991Y-13064650D02*
X11172563Y-13064650D01*
X11172563Y-13064650D02*
X11191610Y-13074174D01*
X11191610Y-13074174D02*
X11201134Y-13093222D01*
X11201134Y-13093222D02*
X11201134Y-13197984D01*
X11201134Y-13093222D02*
X11210658Y-13074174D01*
X11210658Y-13074174D02*
X11229705Y-13064650D01*
X11229705Y-13064650D02*
X11258277Y-13064650D01*
X11258277Y-13064650D02*
X11277324Y-13074174D01*
X11277324Y-13074174D02*
X11286848Y-13093222D01*
X11286848Y-13093222D02*
X11286848Y-13197984D01*
X11382086Y-13197984D02*
X11382086Y-13064650D01*
X11382086Y-13083698D02*
X11391610Y-13074174D01*
X11391610Y-13074174D02*
X11410658Y-13064650D01*
X11410658Y-13064650D02*
X11439229Y-13064650D01*
X11439229Y-13064650D02*
X11458277Y-13074174D01*
X11458277Y-13074174D02*
X11467801Y-13093222D01*
X11467801Y-13093222D02*
X11467801Y-13197984D01*
X11467801Y-13093222D02*
X11477324Y-13074174D01*
X11477324Y-13074174D02*
X11496372Y-13064650D01*
X11496372Y-13064650D02*
X11524943Y-13064650D01*
X11524943Y-13064650D02*
X11543991Y-13074174D01*
X11543991Y-13074174D02*
X11553515Y-13093222D01*
X11553515Y-13093222D02*
X11553515Y-13197984D01*
X11943991Y-12988460D02*
X11772563Y-13245603D01*
X12201134Y-12997984D02*
X12220182Y-12997984D01*
X12220182Y-12997984D02*
X12239229Y-13007508D01*
X12239229Y-13007508D02*
X12248753Y-13017031D01*
X12248753Y-13017031D02*
X12258277Y-13036079D01*
X12258277Y-13036079D02*
X12267801Y-13074174D01*
X12267801Y-13074174D02*
X12267801Y-13121793D01*
X12267801Y-13121793D02*
X12258277Y-13159888D01*
X12258277Y-13159888D02*
X12248753Y-13178936D01*
X12248753Y-13178936D02*
X12239229Y-13188460D01*
X12239229Y-13188460D02*
X12220182Y-13197984D01*
X12220182Y-13197984D02*
X12201134Y-13197984D01*
X12201134Y-13197984D02*
X12182086Y-13188460D01*
X12182086Y-13188460D02*
X12172563Y-13178936D01*
X12172563Y-13178936D02*
X12163039Y-13159888D01*
X12163039Y-13159888D02*
X12153515Y-13121793D01*
X12153515Y-13121793D02*
X12153515Y-13074174D01*
X12153515Y-13074174D02*
X12163039Y-13036079D01*
X12163039Y-13036079D02*
X12172563Y-13017031D01*
X12172563Y-13017031D02*
X12182086Y-13007508D01*
X12182086Y-13007508D02*
X12201134Y-12997984D01*
X12353515Y-13178936D02*
X12363039Y-13188460D01*
X12363039Y-13188460D02*
X12353515Y-13197984D01*
X12353515Y-13197984D02*
X12343991Y-13188460D01*
X12343991Y-13188460D02*
X12353515Y-13178936D01*
X12353515Y-13178936D02*
X12353515Y-13197984D01*
X12486848Y-12997984D02*
X12505896Y-12997984D01*
X12505896Y-12997984D02*
X12524944Y-13007508D01*
X12524944Y-13007508D02*
X12534467Y-13017031D01*
X12534467Y-13017031D02*
X12543991Y-13036079D01*
X12543991Y-13036079D02*
X12553515Y-13074174D01*
X12553515Y-13074174D02*
X12553515Y-13121793D01*
X12553515Y-13121793D02*
X12543991Y-13159888D01*
X12543991Y-13159888D02*
X12534467Y-13178936D01*
X12534467Y-13178936D02*
X12524944Y-13188460D01*
X12524944Y-13188460D02*
X12505896Y-13197984D01*
X12505896Y-13197984D02*
X12486848Y-13197984D01*
X12486848Y-13197984D02*
X12467801Y-13188460D01*
X12467801Y-13188460D02*
X12458277Y-13178936D01*
X12458277Y-13178936D02*
X12448753Y-13159888D01*
X12448753Y-13159888D02*
X12439229Y-13121793D01*
X12439229Y-13121793D02*
X12439229Y-13074174D01*
X12439229Y-13074174D02*
X12448753Y-13036079D01*
X12448753Y-13036079D02*
X12458277Y-13017031D01*
X12458277Y-13017031D02*
X12467801Y-13007508D01*
X12467801Y-13007508D02*
X12486848Y-12997984D01*
X12743991Y-13197984D02*
X12629706Y-13197984D01*
X12686848Y-13197984D02*
X12686848Y-12997984D01*
X12686848Y-12997984D02*
X12667801Y-13026555D01*
X12667801Y-13026555D02*
X12648753Y-13045603D01*
X12648753Y-13045603D02*
X12629706Y-13055127D01*
X12924944Y-12997984D02*
X12829706Y-12997984D01*
X12829706Y-12997984D02*
X12820182Y-13093222D01*
X12820182Y-13093222D02*
X12829706Y-13083698D01*
X12829706Y-13083698D02*
X12848753Y-13074174D01*
X12848753Y-13074174D02*
X12896372Y-13074174D01*
X12896372Y-13074174D02*
X12915420Y-13083698D01*
X12915420Y-13083698D02*
X12924944Y-13093222D01*
X12924944Y-13093222D02*
X12934467Y-13112269D01*
X12934467Y-13112269D02*
X12934467Y-13159888D01*
X12934467Y-13159888D02*
X12924944Y-13178936D01*
X12924944Y-13178936D02*
X12915420Y-13188460D01*
X12915420Y-13188460D02*
X12896372Y-13197984D01*
X12896372Y-13197984D02*
X12848753Y-13197984D01*
X12848753Y-13197984D02*
X12829706Y-13188460D01*
X12829706Y-13188460D02*
X12820182Y-13178936D01*
X13001134Y-12997984D02*
X13134467Y-12997984D01*
X13134467Y-12997984D02*
X13048753Y-13197984D01*
X13201134Y-12997984D02*
X13201134Y-13036079D01*
X13277325Y-12997984D02*
X13277325Y-13036079D01*
X13572563Y-13274174D02*
X13563039Y-13264650D01*
X13563039Y-13264650D02*
X13543991Y-13236079D01*
X13543991Y-13236079D02*
X13534468Y-13217031D01*
X13534468Y-13217031D02*
X13524944Y-13188460D01*
X13524944Y-13188460D02*
X13515420Y-13140841D01*
X13515420Y-13140841D02*
X13515420Y-13102746D01*
X13515420Y-13102746D02*
X13524944Y-13055127D01*
X13524944Y-13055127D02*
X13534468Y-13026555D01*
X13534468Y-13026555D02*
X13543991Y-13007508D01*
X13543991Y-13007508D02*
X13563039Y-12978936D01*
X13563039Y-12978936D02*
X13572563Y-12969412D01*
X13743991Y-12997984D02*
X13648753Y-12997984D01*
X13648753Y-12997984D02*
X13639229Y-13093222D01*
X13639229Y-13093222D02*
X13648753Y-13083698D01*
X13648753Y-13083698D02*
X13667801Y-13074174D01*
X13667801Y-13074174D02*
X13715420Y-13074174D01*
X13715420Y-13074174D02*
X13734468Y-13083698D01*
X13734468Y-13083698D02*
X13743991Y-13093222D01*
X13743991Y-13093222D02*
X13753515Y-13112269D01*
X13753515Y-13112269D02*
X13753515Y-13159888D01*
X13753515Y-13159888D02*
X13743991Y-13178936D01*
X13743991Y-13178936D02*
X13734468Y-13188460D01*
X13734468Y-13188460D02*
X13715420Y-13197984D01*
X13715420Y-13197984D02*
X13667801Y-13197984D01*
X13667801Y-13197984D02*
X13648753Y-13188460D01*
X13648753Y-13188460D02*
X13639229Y-13178936D01*
X13991610Y-13197984D02*
X13991610Y-12997984D01*
X14077325Y-13197984D02*
X14077325Y-13093222D01*
X14077325Y-13093222D02*
X14067801Y-13074174D01*
X14067801Y-13074174D02*
X14048753Y-13064650D01*
X14048753Y-13064650D02*
X14020182Y-13064650D01*
X14020182Y-13064650D02*
X14001134Y-13074174D01*
X14001134Y-13074174D02*
X13991610Y-13083698D01*
X14201134Y-13197984D02*
X14182087Y-13188460D01*
X14182087Y-13188460D02*
X14172563Y-13178936D01*
X14172563Y-13178936D02*
X14163039Y-13159888D01*
X14163039Y-13159888D02*
X14163039Y-13102746D01*
X14163039Y-13102746D02*
X14172563Y-13083698D01*
X14172563Y-13083698D02*
X14182087Y-13074174D01*
X14182087Y-13074174D02*
X14201134Y-13064650D01*
X14201134Y-13064650D02*
X14229706Y-13064650D01*
X14229706Y-13064650D02*
X14248753Y-13074174D01*
X14248753Y-13074174D02*
X14258277Y-13083698D01*
X14258277Y-13083698D02*
X14267801Y-13102746D01*
X14267801Y-13102746D02*
X14267801Y-13159888D01*
X14267801Y-13159888D02*
X14258277Y-13178936D01*
X14258277Y-13178936D02*
X14248753Y-13188460D01*
X14248753Y-13188460D02*
X14229706Y-13197984D01*
X14229706Y-13197984D02*
X14201134Y-13197984D01*
X14382087Y-13197984D02*
X14363039Y-13188460D01*
X14363039Y-13188460D02*
X14353515Y-13169412D01*
X14353515Y-13169412D02*
X14353515Y-12997984D01*
X14534468Y-13188460D02*
X14515420Y-13197984D01*
X14515420Y-13197984D02*
X14477325Y-13197984D01*
X14477325Y-13197984D02*
X14458277Y-13188460D01*
X14458277Y-13188460D02*
X14448753Y-13169412D01*
X14448753Y-13169412D02*
X14448753Y-13093222D01*
X14448753Y-13093222D02*
X14458277Y-13074174D01*
X14458277Y-13074174D02*
X14477325Y-13064650D01*
X14477325Y-13064650D02*
X14515420Y-13064650D01*
X14515420Y-13064650D02*
X14534468Y-13074174D01*
X14534468Y-13074174D02*
X14543991Y-13093222D01*
X14543991Y-13093222D02*
X14543991Y-13112269D01*
X14543991Y-13112269D02*
X14448753Y-13131317D01*
X14620182Y-13188460D02*
X14639230Y-13197984D01*
X14639230Y-13197984D02*
X14677325Y-13197984D01*
X14677325Y-13197984D02*
X14696372Y-13188460D01*
X14696372Y-13188460D02*
X14705896Y-13169412D01*
X14705896Y-13169412D02*
X14705896Y-13159888D01*
X14705896Y-13159888D02*
X14696372Y-13140841D01*
X14696372Y-13140841D02*
X14677325Y-13131317D01*
X14677325Y-13131317D02*
X14648753Y-13131317D01*
X14648753Y-13131317D02*
X14629706Y-13121793D01*
X14629706Y-13121793D02*
X14620182Y-13102746D01*
X14620182Y-13102746D02*
X14620182Y-13093222D01*
X14620182Y-13093222D02*
X14629706Y-13074174D01*
X14629706Y-13074174D02*
X14648753Y-13064650D01*
X14648753Y-13064650D02*
X14677325Y-13064650D01*
X14677325Y-13064650D02*
X14696372Y-13074174D01*
X14772563Y-13274174D02*
X14782087Y-13264650D01*
X14782087Y-13264650D02*
X14801134Y-13236079D01*
X14801134Y-13236079D02*
X14810658Y-13217031D01*
X14810658Y-13217031D02*
X14820182Y-13188460D01*
X14820182Y-13188460D02*
X14829706Y-13140841D01*
X14829706Y-13140841D02*
X14829706Y-13102746D01*
X14829706Y-13102746D02*
X14820182Y-13055127D01*
X14820182Y-13055127D02*
X14810658Y-13026555D01*
X14810658Y-13026555D02*
X14801134Y-13007508D01*
X14801134Y-13007508D02*
X14782087Y-12978936D01*
X14782087Y-12978936D02*
X14772563Y-12969412D01*
D12*
X9960000Y-13333000D02*
X9960000Y-13408000D01*
X9922500Y-13370500D02*
X9997500Y-13370500D01*
D11*
X10296372Y-13261984D02*
X10315420Y-13261984D01*
X10315420Y-13261984D02*
X10334467Y-13271508D01*
X10334467Y-13271508D02*
X10343991Y-13281031D01*
X10343991Y-13281031D02*
X10353515Y-13300079D01*
X10353515Y-13300079D02*
X10363039Y-13338174D01*
X10363039Y-13338174D02*
X10363039Y-13385793D01*
X10363039Y-13385793D02*
X10353515Y-13423888D01*
X10353515Y-13423888D02*
X10343991Y-13442936D01*
X10343991Y-13442936D02*
X10334467Y-13452460D01*
X10334467Y-13452460D02*
X10315420Y-13461984D01*
X10315420Y-13461984D02*
X10296372Y-13461984D01*
X10296372Y-13461984D02*
X10277324Y-13452460D01*
X10277324Y-13452460D02*
X10267801Y-13442936D01*
X10267801Y-13442936D02*
X10258277Y-13423888D01*
X10258277Y-13423888D02*
X10248753Y-13385793D01*
X10248753Y-13385793D02*
X10248753Y-13338174D01*
X10248753Y-13338174D02*
X10258277Y-13300079D01*
X10258277Y-13300079D02*
X10267801Y-13281031D01*
X10267801Y-13281031D02*
X10277324Y-13271508D01*
X10277324Y-13271508D02*
X10296372Y-13261984D01*
X10448753Y-13442936D02*
X10458277Y-13452460D01*
X10458277Y-13452460D02*
X10448753Y-13461984D01*
X10448753Y-13461984D02*
X10439229Y-13452460D01*
X10439229Y-13452460D02*
X10448753Y-13442936D01*
X10448753Y-13442936D02*
X10448753Y-13461984D01*
X10524944Y-13261984D02*
X10658277Y-13261984D01*
X10658277Y-13261984D02*
X10572563Y-13461984D01*
X10829705Y-13261984D02*
X10734467Y-13261984D01*
X10734467Y-13261984D02*
X10724944Y-13357222D01*
X10724944Y-13357222D02*
X10734467Y-13347698D01*
X10734467Y-13347698D02*
X10753515Y-13338174D01*
X10753515Y-13338174D02*
X10801134Y-13338174D01*
X10801134Y-13338174D02*
X10820182Y-13347698D01*
X10820182Y-13347698D02*
X10829705Y-13357222D01*
X10829705Y-13357222D02*
X10839229Y-13376269D01*
X10839229Y-13376269D02*
X10839229Y-13423888D01*
X10839229Y-13423888D02*
X10829705Y-13442936D01*
X10829705Y-13442936D02*
X10820182Y-13452460D01*
X10820182Y-13452460D02*
X10801134Y-13461984D01*
X10801134Y-13461984D02*
X10753515Y-13461984D01*
X10753515Y-13461984D02*
X10734467Y-13452460D01*
X10734467Y-13452460D02*
X10724944Y-13442936D01*
X10963039Y-13261984D02*
X10982086Y-13261984D01*
X10982086Y-13261984D02*
X11001134Y-13271508D01*
X11001134Y-13271508D02*
X11010658Y-13281031D01*
X11010658Y-13281031D02*
X11020182Y-13300079D01*
X11020182Y-13300079D02*
X11029705Y-13338174D01*
X11029705Y-13338174D02*
X11029705Y-13385793D01*
X11029705Y-13385793D02*
X11020182Y-13423888D01*
X11020182Y-13423888D02*
X11010658Y-13442936D01*
X11010658Y-13442936D02*
X11001134Y-13452460D01*
X11001134Y-13452460D02*
X10982086Y-13461984D01*
X10982086Y-13461984D02*
X10963039Y-13461984D01*
X10963039Y-13461984D02*
X10943991Y-13452460D01*
X10943991Y-13452460D02*
X10934467Y-13442936D01*
X10934467Y-13442936D02*
X10924944Y-13423888D01*
X10924944Y-13423888D02*
X10915420Y-13385793D01*
X10915420Y-13385793D02*
X10915420Y-13338174D01*
X10915420Y-13338174D02*
X10924944Y-13300079D01*
X10924944Y-13300079D02*
X10934467Y-13281031D01*
X10934467Y-13281031D02*
X10943991Y-13271508D01*
X10943991Y-13271508D02*
X10963039Y-13261984D01*
X11115420Y-13461984D02*
X11115420Y-13328650D01*
X11115420Y-13347698D02*
X11124944Y-13338174D01*
X11124944Y-13338174D02*
X11143991Y-13328650D01*
X11143991Y-13328650D02*
X11172563Y-13328650D01*
X11172563Y-13328650D02*
X11191610Y-13338174D01*
X11191610Y-13338174D02*
X11201134Y-13357222D01*
X11201134Y-13357222D02*
X11201134Y-13461984D01*
X11201134Y-13357222D02*
X11210658Y-13338174D01*
X11210658Y-13338174D02*
X11229705Y-13328650D01*
X11229705Y-13328650D02*
X11258277Y-13328650D01*
X11258277Y-13328650D02*
X11277324Y-13338174D01*
X11277324Y-13338174D02*
X11286848Y-13357222D01*
X11286848Y-13357222D02*
X11286848Y-13461984D01*
X11382086Y-13461984D02*
X11382086Y-13328650D01*
X11382086Y-13347698D02*
X11391610Y-13338174D01*
X11391610Y-13338174D02*
X11410658Y-13328650D01*
X11410658Y-13328650D02*
X11439229Y-13328650D01*
X11439229Y-13328650D02*
X11458277Y-13338174D01*
X11458277Y-13338174D02*
X11467801Y-13357222D01*
X11467801Y-13357222D02*
X11467801Y-13461984D01*
X11467801Y-13357222D02*
X11477324Y-13338174D01*
X11477324Y-13338174D02*
X11496372Y-13328650D01*
X11496372Y-13328650D02*
X11524943Y-13328650D01*
X11524943Y-13328650D02*
X11543991Y-13338174D01*
X11543991Y-13338174D02*
X11553515Y-13357222D01*
X11553515Y-13357222D02*
X11553515Y-13461984D01*
X11943991Y-13252460D02*
X11772563Y-13509603D01*
X12201134Y-13261984D02*
X12220182Y-13261984D01*
X12220182Y-13261984D02*
X12239229Y-13271508D01*
X12239229Y-13271508D02*
X12248753Y-13281031D01*
X12248753Y-13281031D02*
X12258277Y-13300079D01*
X12258277Y-13300079D02*
X12267801Y-13338174D01*
X12267801Y-13338174D02*
X12267801Y-13385793D01*
X12267801Y-13385793D02*
X12258277Y-13423888D01*
X12258277Y-13423888D02*
X12248753Y-13442936D01*
X12248753Y-13442936D02*
X12239229Y-13452460D01*
X12239229Y-13452460D02*
X12220182Y-13461984D01*
X12220182Y-13461984D02*
X12201134Y-13461984D01*
X12201134Y-13461984D02*
X12182086Y-13452460D01*
X12182086Y-13452460D02*
X12172563Y-13442936D01*
X12172563Y-13442936D02*
X12163039Y-13423888D01*
X12163039Y-13423888D02*
X12153515Y-13385793D01*
X12153515Y-13385793D02*
X12153515Y-13338174D01*
X12153515Y-13338174D02*
X12163039Y-13300079D01*
X12163039Y-13300079D02*
X12172563Y-13281031D01*
X12172563Y-13281031D02*
X12182086Y-13271508D01*
X12182086Y-13271508D02*
X12201134Y-13261984D01*
X12353515Y-13442936D02*
X12363039Y-13452460D01*
X12363039Y-13452460D02*
X12353515Y-13461984D01*
X12353515Y-13461984D02*
X12343991Y-13452460D01*
X12343991Y-13452460D02*
X12353515Y-13442936D01*
X12353515Y-13442936D02*
X12353515Y-13461984D01*
X12486848Y-13261984D02*
X12505896Y-13261984D01*
X12505896Y-13261984D02*
X12524944Y-13271508D01*
X12524944Y-13271508D02*
X12534467Y-13281031D01*
X12534467Y-13281031D02*
X12543991Y-13300079D01*
X12543991Y-13300079D02*
X12553515Y-13338174D01*
X12553515Y-13338174D02*
X12553515Y-13385793D01*
X12553515Y-13385793D02*
X12543991Y-13423888D01*
X12543991Y-13423888D02*
X12534467Y-13442936D01*
X12534467Y-13442936D02*
X12524944Y-13452460D01*
X12524944Y-13452460D02*
X12505896Y-13461984D01*
X12505896Y-13461984D02*
X12486848Y-13461984D01*
X12486848Y-13461984D02*
X12467801Y-13452460D01*
X12467801Y-13452460D02*
X12458277Y-13442936D01*
X12458277Y-13442936D02*
X12448753Y-13423888D01*
X12448753Y-13423888D02*
X12439229Y-13385793D01*
X12439229Y-13385793D02*
X12439229Y-13338174D01*
X12439229Y-13338174D02*
X12448753Y-13300079D01*
X12448753Y-13300079D02*
X12458277Y-13281031D01*
X12458277Y-13281031D02*
X12467801Y-13271508D01*
X12467801Y-13271508D02*
X12486848Y-13261984D01*
X12629706Y-13281031D02*
X12639229Y-13271508D01*
X12639229Y-13271508D02*
X12658277Y-13261984D01*
X12658277Y-13261984D02*
X12705896Y-13261984D01*
X12705896Y-13261984D02*
X12724944Y-13271508D01*
X12724944Y-13271508D02*
X12734467Y-13281031D01*
X12734467Y-13281031D02*
X12743991Y-13300079D01*
X12743991Y-13300079D02*
X12743991Y-13319127D01*
X12743991Y-13319127D02*
X12734467Y-13347698D01*
X12734467Y-13347698D02*
X12620182Y-13461984D01*
X12620182Y-13461984D02*
X12743991Y-13461984D01*
X12839229Y-13461984D02*
X12877325Y-13461984D01*
X12877325Y-13461984D02*
X12896372Y-13452460D01*
X12896372Y-13452460D02*
X12905896Y-13442936D01*
X12905896Y-13442936D02*
X12924944Y-13414365D01*
X12924944Y-13414365D02*
X12934467Y-13376269D01*
X12934467Y-13376269D02*
X12934467Y-13300079D01*
X12934467Y-13300079D02*
X12924944Y-13281031D01*
X12924944Y-13281031D02*
X12915420Y-13271508D01*
X12915420Y-13271508D02*
X12896372Y-13261984D01*
X12896372Y-13261984D02*
X12858277Y-13261984D01*
X12858277Y-13261984D02*
X12839229Y-13271508D01*
X12839229Y-13271508D02*
X12829706Y-13281031D01*
X12829706Y-13281031D02*
X12820182Y-13300079D01*
X12820182Y-13300079D02*
X12820182Y-13347698D01*
X12820182Y-13347698D02*
X12829706Y-13366746D01*
X12829706Y-13366746D02*
X12839229Y-13376269D01*
X12839229Y-13376269D02*
X12858277Y-13385793D01*
X12858277Y-13385793D02*
X12896372Y-13385793D01*
X12896372Y-13385793D02*
X12915420Y-13376269D01*
X12915420Y-13376269D02*
X12924944Y-13366746D01*
X12924944Y-13366746D02*
X12934467Y-13347698D01*
X13115420Y-13261984D02*
X13020182Y-13261984D01*
X13020182Y-13261984D02*
X13010658Y-13357222D01*
X13010658Y-13357222D02*
X13020182Y-13347698D01*
X13020182Y-13347698D02*
X13039229Y-13338174D01*
X13039229Y-13338174D02*
X13086848Y-13338174D01*
X13086848Y-13338174D02*
X13105896Y-13347698D01*
X13105896Y-13347698D02*
X13115420Y-13357222D01*
X13115420Y-13357222D02*
X13124944Y-13376269D01*
X13124944Y-13376269D02*
X13124944Y-13423888D01*
X13124944Y-13423888D02*
X13115420Y-13442936D01*
X13115420Y-13442936D02*
X13105896Y-13452460D01*
X13105896Y-13452460D02*
X13086848Y-13461984D01*
X13086848Y-13461984D02*
X13039229Y-13461984D01*
X13039229Y-13461984D02*
X13020182Y-13452460D01*
X13020182Y-13452460D02*
X13010658Y-13442936D01*
X13201134Y-13261984D02*
X13201134Y-13300079D01*
X13277325Y-13261984D02*
X13277325Y-13300079D01*
X13572563Y-13538174D02*
X13563039Y-13528650D01*
X13563039Y-13528650D02*
X13543991Y-13500079D01*
X13543991Y-13500079D02*
X13534468Y-13481031D01*
X13534468Y-13481031D02*
X13524944Y-13452460D01*
X13524944Y-13452460D02*
X13515420Y-13404841D01*
X13515420Y-13404841D02*
X13515420Y-13366746D01*
X13515420Y-13366746D02*
X13524944Y-13319127D01*
X13524944Y-13319127D02*
X13534468Y-13290555D01*
X13534468Y-13290555D02*
X13543991Y-13271508D01*
X13543991Y-13271508D02*
X13563039Y-13242936D01*
X13563039Y-13242936D02*
X13572563Y-13233412D01*
X13753515Y-13461984D02*
X13639229Y-13461984D01*
X13696372Y-13461984D02*
X13696372Y-13261984D01*
X13696372Y-13261984D02*
X13677325Y-13290555D01*
X13677325Y-13290555D02*
X13658277Y-13309603D01*
X13658277Y-13309603D02*
X13639229Y-13319127D01*
X13877325Y-13261984D02*
X13896372Y-13261984D01*
X13896372Y-13261984D02*
X13915420Y-13271508D01*
X13915420Y-13271508D02*
X13924944Y-13281031D01*
X13924944Y-13281031D02*
X13934468Y-13300079D01*
X13934468Y-13300079D02*
X13943991Y-13338174D01*
X13943991Y-13338174D02*
X13943991Y-13385793D01*
X13943991Y-13385793D02*
X13934468Y-13423888D01*
X13934468Y-13423888D02*
X13924944Y-13442936D01*
X13924944Y-13442936D02*
X13915420Y-13452460D01*
X13915420Y-13452460D02*
X13896372Y-13461984D01*
X13896372Y-13461984D02*
X13877325Y-13461984D01*
X13877325Y-13461984D02*
X13858277Y-13452460D01*
X13858277Y-13452460D02*
X13848753Y-13442936D01*
X13848753Y-13442936D02*
X13839229Y-13423888D01*
X13839229Y-13423888D02*
X13829706Y-13385793D01*
X13829706Y-13385793D02*
X13829706Y-13338174D01*
X13829706Y-13338174D02*
X13839229Y-13300079D01*
X13839229Y-13300079D02*
X13848753Y-13281031D01*
X13848753Y-13281031D02*
X13858277Y-13271508D01*
X13858277Y-13271508D02*
X13877325Y-13261984D01*
X14182087Y-13461984D02*
X14182087Y-13261984D01*
X14267801Y-13461984D02*
X14267801Y-13357222D01*
X14267801Y-13357222D02*
X14258277Y-13338174D01*
X14258277Y-13338174D02*
X14239230Y-13328650D01*
X14239230Y-13328650D02*
X14210658Y-13328650D01*
X14210658Y-13328650D02*
X14191610Y-13338174D01*
X14191610Y-13338174D02*
X14182087Y-13347698D01*
X14391610Y-13461984D02*
X14372563Y-13452460D01*
X14372563Y-13452460D02*
X14363039Y-13442936D01*
X14363039Y-13442936D02*
X14353515Y-13423888D01*
X14353515Y-13423888D02*
X14353515Y-13366746D01*
X14353515Y-13366746D02*
X14363039Y-13347698D01*
X14363039Y-13347698D02*
X14372563Y-13338174D01*
X14372563Y-13338174D02*
X14391610Y-13328650D01*
X14391610Y-13328650D02*
X14420182Y-13328650D01*
X14420182Y-13328650D02*
X14439230Y-13338174D01*
X14439230Y-13338174D02*
X14448753Y-13347698D01*
X14448753Y-13347698D02*
X14458277Y-13366746D01*
X14458277Y-13366746D02*
X14458277Y-13423888D01*
X14458277Y-13423888D02*
X14448753Y-13442936D01*
X14448753Y-13442936D02*
X14439230Y-13452460D01*
X14439230Y-13452460D02*
X14420182Y-13461984D01*
X14420182Y-13461984D02*
X14391610Y-13461984D01*
X14572563Y-13461984D02*
X14553515Y-13452460D01*
X14553515Y-13452460D02*
X14543991Y-13433412D01*
X14543991Y-13433412D02*
X14543991Y-13261984D01*
X14724944Y-13452460D02*
X14705896Y-13461984D01*
X14705896Y-13461984D02*
X14667801Y-13461984D01*
X14667801Y-13461984D02*
X14648753Y-13452460D01*
X14648753Y-13452460D02*
X14639230Y-13433412D01*
X14639230Y-13433412D02*
X14639230Y-13357222D01*
X14639230Y-13357222D02*
X14648753Y-13338174D01*
X14648753Y-13338174D02*
X14667801Y-13328650D01*
X14667801Y-13328650D02*
X14705896Y-13328650D01*
X14705896Y-13328650D02*
X14724944Y-13338174D01*
X14724944Y-13338174D02*
X14734468Y-13357222D01*
X14734468Y-13357222D02*
X14734468Y-13376269D01*
X14734468Y-13376269D02*
X14639230Y-13395317D01*
X14810658Y-13452460D02*
X14829706Y-13461984D01*
X14829706Y-13461984D02*
X14867801Y-13461984D01*
X14867801Y-13461984D02*
X14886849Y-13452460D01*
X14886849Y-13452460D02*
X14896372Y-13433412D01*
X14896372Y-13433412D02*
X14896372Y-13423888D01*
X14896372Y-13423888D02*
X14886849Y-13404841D01*
X14886849Y-13404841D02*
X14867801Y-13395317D01*
X14867801Y-13395317D02*
X14839230Y-13395317D01*
X14839230Y-13395317D02*
X14820182Y-13385793D01*
X14820182Y-13385793D02*
X14810658Y-13366746D01*
X14810658Y-13366746D02*
X14810658Y-13357222D01*
X14810658Y-13357222D02*
X14820182Y-13338174D01*
X14820182Y-13338174D02*
X14839230Y-13328650D01*
X14839230Y-13328650D02*
X14867801Y-13328650D01*
X14867801Y-13328650D02*
X14886849Y-13338174D01*
X14963039Y-13538174D02*
X14972563Y-13528650D01*
X14972563Y-13528650D02*
X14991611Y-13500079D01*
X14991611Y-13500079D02*
X15001134Y-13481031D01*
X15001134Y-13481031D02*
X15010658Y-13452460D01*
X15010658Y-13452460D02*
X15020182Y-13404841D01*
X15020182Y-13404841D02*
X15020182Y-13366746D01*
X15020182Y-13366746D02*
X15010658Y-13319127D01*
X15010658Y-13319127D02*
X15001134Y-13290555D01*
X15001134Y-13290555D02*
X14991611Y-13271508D01*
X14991611Y-13271508D02*
X14972563Y-13242936D01*
X14972563Y-13242936D02*
X14963039Y-13233412D01*
D12*
X9985785Y-13662784D02*
X9985785Y-13606215D01*
X9929216Y-13606215D01*
X9929216Y-13662784D01*
X9985785Y-13662784D01*
D11*
X10296372Y-13525984D02*
X10315420Y-13525984D01*
X10315420Y-13525984D02*
X10334467Y-13535508D01*
X10334467Y-13535508D02*
X10343991Y-13545031D01*
X10343991Y-13545031D02*
X10353515Y-13564079D01*
X10353515Y-13564079D02*
X10363039Y-13602174D01*
X10363039Y-13602174D02*
X10363039Y-13649793D01*
X10363039Y-13649793D02*
X10353515Y-13687888D01*
X10353515Y-13687888D02*
X10343991Y-13706936D01*
X10343991Y-13706936D02*
X10334467Y-13716460D01*
X10334467Y-13716460D02*
X10315420Y-13725984D01*
X10315420Y-13725984D02*
X10296372Y-13725984D01*
X10296372Y-13725984D02*
X10277324Y-13716460D01*
X10277324Y-13716460D02*
X10267801Y-13706936D01*
X10267801Y-13706936D02*
X10258277Y-13687888D01*
X10258277Y-13687888D02*
X10248753Y-13649793D01*
X10248753Y-13649793D02*
X10248753Y-13602174D01*
X10248753Y-13602174D02*
X10258277Y-13564079D01*
X10258277Y-13564079D02*
X10267801Y-13545031D01*
X10267801Y-13545031D02*
X10277324Y-13535508D01*
X10277324Y-13535508D02*
X10296372Y-13525984D01*
X10448753Y-13706936D02*
X10458277Y-13716460D01*
X10458277Y-13716460D02*
X10448753Y-13725984D01*
X10448753Y-13725984D02*
X10439229Y-13716460D01*
X10439229Y-13716460D02*
X10448753Y-13706936D01*
X10448753Y-13706936D02*
X10448753Y-13725984D01*
X10572563Y-13611698D02*
X10553515Y-13602174D01*
X10553515Y-13602174D02*
X10543991Y-13592650D01*
X10543991Y-13592650D02*
X10534467Y-13573603D01*
X10534467Y-13573603D02*
X10534467Y-13564079D01*
X10534467Y-13564079D02*
X10543991Y-13545031D01*
X10543991Y-13545031D02*
X10553515Y-13535508D01*
X10553515Y-13535508D02*
X10572563Y-13525984D01*
X10572563Y-13525984D02*
X10610658Y-13525984D01*
X10610658Y-13525984D02*
X10629705Y-13535508D01*
X10629705Y-13535508D02*
X10639229Y-13545031D01*
X10639229Y-13545031D02*
X10648753Y-13564079D01*
X10648753Y-13564079D02*
X10648753Y-13573603D01*
X10648753Y-13573603D02*
X10639229Y-13592650D01*
X10639229Y-13592650D02*
X10629705Y-13602174D01*
X10629705Y-13602174D02*
X10610658Y-13611698D01*
X10610658Y-13611698D02*
X10572563Y-13611698D01*
X10572563Y-13611698D02*
X10553515Y-13621222D01*
X10553515Y-13621222D02*
X10543991Y-13630746D01*
X10543991Y-13630746D02*
X10534467Y-13649793D01*
X10534467Y-13649793D02*
X10534467Y-13687888D01*
X10534467Y-13687888D02*
X10543991Y-13706936D01*
X10543991Y-13706936D02*
X10553515Y-13716460D01*
X10553515Y-13716460D02*
X10572563Y-13725984D01*
X10572563Y-13725984D02*
X10610658Y-13725984D01*
X10610658Y-13725984D02*
X10629705Y-13716460D01*
X10629705Y-13716460D02*
X10639229Y-13706936D01*
X10639229Y-13706936D02*
X10648753Y-13687888D01*
X10648753Y-13687888D02*
X10648753Y-13649793D01*
X10648753Y-13649793D02*
X10639229Y-13630746D01*
X10639229Y-13630746D02*
X10629705Y-13621222D01*
X10629705Y-13621222D02*
X10610658Y-13611698D01*
X10772563Y-13525984D02*
X10791610Y-13525984D01*
X10791610Y-13525984D02*
X10810658Y-13535508D01*
X10810658Y-13535508D02*
X10820182Y-13545031D01*
X10820182Y-13545031D02*
X10829705Y-13564079D01*
X10829705Y-13564079D02*
X10839229Y-13602174D01*
X10839229Y-13602174D02*
X10839229Y-13649793D01*
X10839229Y-13649793D02*
X10829705Y-13687888D01*
X10829705Y-13687888D02*
X10820182Y-13706936D01*
X10820182Y-13706936D02*
X10810658Y-13716460D01*
X10810658Y-13716460D02*
X10791610Y-13725984D01*
X10791610Y-13725984D02*
X10772563Y-13725984D01*
X10772563Y-13725984D02*
X10753515Y-13716460D01*
X10753515Y-13716460D02*
X10743991Y-13706936D01*
X10743991Y-13706936D02*
X10734467Y-13687888D01*
X10734467Y-13687888D02*
X10724944Y-13649793D01*
X10724944Y-13649793D02*
X10724944Y-13602174D01*
X10724944Y-13602174D02*
X10734467Y-13564079D01*
X10734467Y-13564079D02*
X10743991Y-13545031D01*
X10743991Y-13545031D02*
X10753515Y-13535508D01*
X10753515Y-13535508D02*
X10772563Y-13525984D01*
X10963039Y-13525984D02*
X10982086Y-13525984D01*
X10982086Y-13525984D02*
X11001134Y-13535508D01*
X11001134Y-13535508D02*
X11010658Y-13545031D01*
X11010658Y-13545031D02*
X11020182Y-13564079D01*
X11020182Y-13564079D02*
X11029705Y-13602174D01*
X11029705Y-13602174D02*
X11029705Y-13649793D01*
X11029705Y-13649793D02*
X11020182Y-13687888D01*
X11020182Y-13687888D02*
X11010658Y-13706936D01*
X11010658Y-13706936D02*
X11001134Y-13716460D01*
X11001134Y-13716460D02*
X10982086Y-13725984D01*
X10982086Y-13725984D02*
X10963039Y-13725984D01*
X10963039Y-13725984D02*
X10943991Y-13716460D01*
X10943991Y-13716460D02*
X10934467Y-13706936D01*
X10934467Y-13706936D02*
X10924944Y-13687888D01*
X10924944Y-13687888D02*
X10915420Y-13649793D01*
X10915420Y-13649793D02*
X10915420Y-13602174D01*
X10915420Y-13602174D02*
X10924944Y-13564079D01*
X10924944Y-13564079D02*
X10934467Y-13545031D01*
X10934467Y-13545031D02*
X10943991Y-13535508D01*
X10943991Y-13535508D02*
X10963039Y-13525984D01*
X11115420Y-13725984D02*
X11115420Y-13592650D01*
X11115420Y-13611698D02*
X11124944Y-13602174D01*
X11124944Y-13602174D02*
X11143991Y-13592650D01*
X11143991Y-13592650D02*
X11172563Y-13592650D01*
X11172563Y-13592650D02*
X11191610Y-13602174D01*
X11191610Y-13602174D02*
X11201134Y-13621222D01*
X11201134Y-13621222D02*
X11201134Y-13725984D01*
X11201134Y-13621222D02*
X11210658Y-13602174D01*
X11210658Y-13602174D02*
X11229705Y-13592650D01*
X11229705Y-13592650D02*
X11258277Y-13592650D01*
X11258277Y-13592650D02*
X11277324Y-13602174D01*
X11277324Y-13602174D02*
X11286848Y-13621222D01*
X11286848Y-13621222D02*
X11286848Y-13725984D01*
X11382086Y-13725984D02*
X11382086Y-13592650D01*
X11382086Y-13611698D02*
X11391610Y-13602174D01*
X11391610Y-13602174D02*
X11410658Y-13592650D01*
X11410658Y-13592650D02*
X11439229Y-13592650D01*
X11439229Y-13592650D02*
X11458277Y-13602174D01*
X11458277Y-13602174D02*
X11467801Y-13621222D01*
X11467801Y-13621222D02*
X11467801Y-13725984D01*
X11467801Y-13621222D02*
X11477324Y-13602174D01*
X11477324Y-13602174D02*
X11496372Y-13592650D01*
X11496372Y-13592650D02*
X11524943Y-13592650D01*
X11524943Y-13592650D02*
X11543991Y-13602174D01*
X11543991Y-13602174D02*
X11553515Y-13621222D01*
X11553515Y-13621222D02*
X11553515Y-13725984D01*
X11943991Y-13516460D02*
X11772563Y-13773603D01*
X12201134Y-13525984D02*
X12220182Y-13525984D01*
X12220182Y-13525984D02*
X12239229Y-13535508D01*
X12239229Y-13535508D02*
X12248753Y-13545031D01*
X12248753Y-13545031D02*
X12258277Y-13564079D01*
X12258277Y-13564079D02*
X12267801Y-13602174D01*
X12267801Y-13602174D02*
X12267801Y-13649793D01*
X12267801Y-13649793D02*
X12258277Y-13687888D01*
X12258277Y-13687888D02*
X12248753Y-13706936D01*
X12248753Y-13706936D02*
X12239229Y-13716460D01*
X12239229Y-13716460D02*
X12220182Y-13725984D01*
X12220182Y-13725984D02*
X12201134Y-13725984D01*
X12201134Y-13725984D02*
X12182086Y-13716460D01*
X12182086Y-13716460D02*
X12172563Y-13706936D01*
X12172563Y-13706936D02*
X12163039Y-13687888D01*
X12163039Y-13687888D02*
X12153515Y-13649793D01*
X12153515Y-13649793D02*
X12153515Y-13602174D01*
X12153515Y-13602174D02*
X12163039Y-13564079D01*
X12163039Y-13564079D02*
X12172563Y-13545031D01*
X12172563Y-13545031D02*
X12182086Y-13535508D01*
X12182086Y-13535508D02*
X12201134Y-13525984D01*
X12353515Y-13706936D02*
X12363039Y-13716460D01*
X12363039Y-13716460D02*
X12353515Y-13725984D01*
X12353515Y-13725984D02*
X12343991Y-13716460D01*
X12343991Y-13716460D02*
X12353515Y-13706936D01*
X12353515Y-13706936D02*
X12353515Y-13725984D01*
X12486848Y-13525984D02*
X12505896Y-13525984D01*
X12505896Y-13525984D02*
X12524944Y-13535508D01*
X12524944Y-13535508D02*
X12534467Y-13545031D01*
X12534467Y-13545031D02*
X12543991Y-13564079D01*
X12543991Y-13564079D02*
X12553515Y-13602174D01*
X12553515Y-13602174D02*
X12553515Y-13649793D01*
X12553515Y-13649793D02*
X12543991Y-13687888D01*
X12543991Y-13687888D02*
X12534467Y-13706936D01*
X12534467Y-13706936D02*
X12524944Y-13716460D01*
X12524944Y-13716460D02*
X12505896Y-13725984D01*
X12505896Y-13725984D02*
X12486848Y-13725984D01*
X12486848Y-13725984D02*
X12467801Y-13716460D01*
X12467801Y-13716460D02*
X12458277Y-13706936D01*
X12458277Y-13706936D02*
X12448753Y-13687888D01*
X12448753Y-13687888D02*
X12439229Y-13649793D01*
X12439229Y-13649793D02*
X12439229Y-13602174D01*
X12439229Y-13602174D02*
X12448753Y-13564079D01*
X12448753Y-13564079D02*
X12458277Y-13545031D01*
X12458277Y-13545031D02*
X12467801Y-13535508D01*
X12467801Y-13535508D02*
X12486848Y-13525984D01*
X12620182Y-13525984D02*
X12743991Y-13525984D01*
X12743991Y-13525984D02*
X12677325Y-13602174D01*
X12677325Y-13602174D02*
X12705896Y-13602174D01*
X12705896Y-13602174D02*
X12724944Y-13611698D01*
X12724944Y-13611698D02*
X12734467Y-13621222D01*
X12734467Y-13621222D02*
X12743991Y-13640269D01*
X12743991Y-13640269D02*
X12743991Y-13687888D01*
X12743991Y-13687888D02*
X12734467Y-13706936D01*
X12734467Y-13706936D02*
X12724944Y-13716460D01*
X12724944Y-13716460D02*
X12705896Y-13725984D01*
X12705896Y-13725984D02*
X12648753Y-13725984D01*
X12648753Y-13725984D02*
X12629706Y-13716460D01*
X12629706Y-13716460D02*
X12620182Y-13706936D01*
X12934467Y-13725984D02*
X12820182Y-13725984D01*
X12877325Y-13725984D02*
X12877325Y-13525984D01*
X12877325Y-13525984D02*
X12858277Y-13554555D01*
X12858277Y-13554555D02*
X12839229Y-13573603D01*
X12839229Y-13573603D02*
X12820182Y-13583127D01*
X13115420Y-13525984D02*
X13020182Y-13525984D01*
X13020182Y-13525984D02*
X13010658Y-13621222D01*
X13010658Y-13621222D02*
X13020182Y-13611698D01*
X13020182Y-13611698D02*
X13039229Y-13602174D01*
X13039229Y-13602174D02*
X13086848Y-13602174D01*
X13086848Y-13602174D02*
X13105896Y-13611698D01*
X13105896Y-13611698D02*
X13115420Y-13621222D01*
X13115420Y-13621222D02*
X13124944Y-13640269D01*
X13124944Y-13640269D02*
X13124944Y-13687888D01*
X13124944Y-13687888D02*
X13115420Y-13706936D01*
X13115420Y-13706936D02*
X13105896Y-13716460D01*
X13105896Y-13716460D02*
X13086848Y-13725984D01*
X13086848Y-13725984D02*
X13039229Y-13725984D01*
X13039229Y-13725984D02*
X13020182Y-13716460D01*
X13020182Y-13716460D02*
X13010658Y-13706936D01*
X13201134Y-13525984D02*
X13201134Y-13564079D01*
X13277325Y-13525984D02*
X13277325Y-13564079D01*
X13572563Y-13802174D02*
X13563039Y-13792650D01*
X13563039Y-13792650D02*
X13543991Y-13764079D01*
X13543991Y-13764079D02*
X13534468Y-13745031D01*
X13534468Y-13745031D02*
X13524944Y-13716460D01*
X13524944Y-13716460D02*
X13515420Y-13668841D01*
X13515420Y-13668841D02*
X13515420Y-13630746D01*
X13515420Y-13630746D02*
X13524944Y-13583127D01*
X13524944Y-13583127D02*
X13534468Y-13554555D01*
X13534468Y-13554555D02*
X13543991Y-13535508D01*
X13543991Y-13535508D02*
X13563039Y-13506936D01*
X13563039Y-13506936D02*
X13572563Y-13497412D01*
X13753515Y-13725984D02*
X13639229Y-13725984D01*
X13696372Y-13725984D02*
X13696372Y-13525984D01*
X13696372Y-13525984D02*
X13677325Y-13554555D01*
X13677325Y-13554555D02*
X13658277Y-13573603D01*
X13658277Y-13573603D02*
X13639229Y-13583127D01*
X13924944Y-13592650D02*
X13924944Y-13725984D01*
X13877325Y-13516460D02*
X13829706Y-13659317D01*
X13829706Y-13659317D02*
X13953515Y-13659317D01*
X14182087Y-13725984D02*
X14182087Y-13525984D01*
X14267801Y-13725984D02*
X14267801Y-13621222D01*
X14267801Y-13621222D02*
X14258277Y-13602174D01*
X14258277Y-13602174D02*
X14239230Y-13592650D01*
X14239230Y-13592650D02*
X14210658Y-13592650D01*
X14210658Y-13592650D02*
X14191610Y-13602174D01*
X14191610Y-13602174D02*
X14182087Y-13611698D01*
X14391610Y-13725984D02*
X14372563Y-13716460D01*
X14372563Y-13716460D02*
X14363039Y-13706936D01*
X14363039Y-13706936D02*
X14353515Y-13687888D01*
X14353515Y-13687888D02*
X14353515Y-13630746D01*
X14353515Y-13630746D02*
X14363039Y-13611698D01*
X14363039Y-13611698D02*
X14372563Y-13602174D01*
X14372563Y-13602174D02*
X14391610Y-13592650D01*
X14391610Y-13592650D02*
X14420182Y-13592650D01*
X14420182Y-13592650D02*
X14439230Y-13602174D01*
X14439230Y-13602174D02*
X14448753Y-13611698D01*
X14448753Y-13611698D02*
X14458277Y-13630746D01*
X14458277Y-13630746D02*
X14458277Y-13687888D01*
X14458277Y-13687888D02*
X14448753Y-13706936D01*
X14448753Y-13706936D02*
X14439230Y-13716460D01*
X14439230Y-13716460D02*
X14420182Y-13725984D01*
X14420182Y-13725984D02*
X14391610Y-13725984D01*
X14572563Y-13725984D02*
X14553515Y-13716460D01*
X14553515Y-13716460D02*
X14543991Y-13697412D01*
X14543991Y-13697412D02*
X14543991Y-13525984D01*
X14724944Y-13716460D02*
X14705896Y-13725984D01*
X14705896Y-13725984D02*
X14667801Y-13725984D01*
X14667801Y-13725984D02*
X14648753Y-13716460D01*
X14648753Y-13716460D02*
X14639230Y-13697412D01*
X14639230Y-13697412D02*
X14639230Y-13621222D01*
X14639230Y-13621222D02*
X14648753Y-13602174D01*
X14648753Y-13602174D02*
X14667801Y-13592650D01*
X14667801Y-13592650D02*
X14705896Y-13592650D01*
X14705896Y-13592650D02*
X14724944Y-13602174D01*
X14724944Y-13602174D02*
X14734468Y-13621222D01*
X14734468Y-13621222D02*
X14734468Y-13640269D01*
X14734468Y-13640269D02*
X14639230Y-13659317D01*
X14810658Y-13716460D02*
X14829706Y-13725984D01*
X14829706Y-13725984D02*
X14867801Y-13725984D01*
X14867801Y-13725984D02*
X14886849Y-13716460D01*
X14886849Y-13716460D02*
X14896372Y-13697412D01*
X14896372Y-13697412D02*
X14896372Y-13687888D01*
X14896372Y-13687888D02*
X14886849Y-13668841D01*
X14886849Y-13668841D02*
X14867801Y-13659317D01*
X14867801Y-13659317D02*
X14839230Y-13659317D01*
X14839230Y-13659317D02*
X14820182Y-13649793D01*
X14820182Y-13649793D02*
X14810658Y-13630746D01*
X14810658Y-13630746D02*
X14810658Y-13621222D01*
X14810658Y-13621222D02*
X14820182Y-13602174D01*
X14820182Y-13602174D02*
X14839230Y-13592650D01*
X14839230Y-13592650D02*
X14867801Y-13592650D01*
X14867801Y-13592650D02*
X14886849Y-13602174D01*
X14963039Y-13802174D02*
X14972563Y-13792650D01*
X14972563Y-13792650D02*
X14991611Y-13764079D01*
X14991611Y-13764079D02*
X15001134Y-13745031D01*
X15001134Y-13745031D02*
X15010658Y-13716460D01*
X15010658Y-13716460D02*
X15020182Y-13668841D01*
X15020182Y-13668841D02*
X15020182Y-13630746D01*
X15020182Y-13630746D02*
X15010658Y-13583127D01*
X15010658Y-13583127D02*
X15001134Y-13554555D01*
X15001134Y-13554555D02*
X14991611Y-13535508D01*
X14991611Y-13535508D02*
X14972563Y-13506936D01*
X14972563Y-13506936D02*
X14963039Y-13497412D01*
D12*
X9952500Y-13943500D02*
X9997500Y-13898500D01*
X9952500Y-13853500D01*
X9907500Y-13898500D01*
X9952500Y-13943500D01*
D11*
X10296372Y-13789984D02*
X10315420Y-13789984D01*
X10315420Y-13789984D02*
X10334467Y-13799508D01*
X10334467Y-13799508D02*
X10343991Y-13809031D01*
X10343991Y-13809031D02*
X10353515Y-13828079D01*
X10353515Y-13828079D02*
X10363039Y-13866174D01*
X10363039Y-13866174D02*
X10363039Y-13913793D01*
X10363039Y-13913793D02*
X10353515Y-13951888D01*
X10353515Y-13951888D02*
X10343991Y-13970936D01*
X10343991Y-13970936D02*
X10334467Y-13980460D01*
X10334467Y-13980460D02*
X10315420Y-13989984D01*
X10315420Y-13989984D02*
X10296372Y-13989984D01*
X10296372Y-13989984D02*
X10277324Y-13980460D01*
X10277324Y-13980460D02*
X10267801Y-13970936D01*
X10267801Y-13970936D02*
X10258277Y-13951888D01*
X10258277Y-13951888D02*
X10248753Y-13913793D01*
X10248753Y-13913793D02*
X10248753Y-13866174D01*
X10248753Y-13866174D02*
X10258277Y-13828079D01*
X10258277Y-13828079D02*
X10267801Y-13809031D01*
X10267801Y-13809031D02*
X10277324Y-13799508D01*
X10277324Y-13799508D02*
X10296372Y-13789984D01*
X10448753Y-13970936D02*
X10458277Y-13980460D01*
X10458277Y-13980460D02*
X10448753Y-13989984D01*
X10448753Y-13989984D02*
X10439229Y-13980460D01*
X10439229Y-13980460D02*
X10448753Y-13970936D01*
X10448753Y-13970936D02*
X10448753Y-13989984D01*
X10553515Y-13989984D02*
X10591610Y-13989984D01*
X10591610Y-13989984D02*
X10610658Y-13980460D01*
X10610658Y-13980460D02*
X10620182Y-13970936D01*
X10620182Y-13970936D02*
X10639229Y-13942365D01*
X10639229Y-13942365D02*
X10648753Y-13904269D01*
X10648753Y-13904269D02*
X10648753Y-13828079D01*
X10648753Y-13828079D02*
X10639229Y-13809031D01*
X10639229Y-13809031D02*
X10629705Y-13799508D01*
X10629705Y-13799508D02*
X10610658Y-13789984D01*
X10610658Y-13789984D02*
X10572563Y-13789984D01*
X10572563Y-13789984D02*
X10553515Y-13799508D01*
X10553515Y-13799508D02*
X10543991Y-13809031D01*
X10543991Y-13809031D02*
X10534467Y-13828079D01*
X10534467Y-13828079D02*
X10534467Y-13875698D01*
X10534467Y-13875698D02*
X10543991Y-13894746D01*
X10543991Y-13894746D02*
X10553515Y-13904269D01*
X10553515Y-13904269D02*
X10572563Y-13913793D01*
X10572563Y-13913793D02*
X10610658Y-13913793D01*
X10610658Y-13913793D02*
X10629705Y-13904269D01*
X10629705Y-13904269D02*
X10639229Y-13894746D01*
X10639229Y-13894746D02*
X10648753Y-13875698D01*
X10772563Y-13789984D02*
X10791610Y-13789984D01*
X10791610Y-13789984D02*
X10810658Y-13799508D01*
X10810658Y-13799508D02*
X10820182Y-13809031D01*
X10820182Y-13809031D02*
X10829705Y-13828079D01*
X10829705Y-13828079D02*
X10839229Y-13866174D01*
X10839229Y-13866174D02*
X10839229Y-13913793D01*
X10839229Y-13913793D02*
X10829705Y-13951888D01*
X10829705Y-13951888D02*
X10820182Y-13970936D01*
X10820182Y-13970936D02*
X10810658Y-13980460D01*
X10810658Y-13980460D02*
X10791610Y-13989984D01*
X10791610Y-13989984D02*
X10772563Y-13989984D01*
X10772563Y-13989984D02*
X10753515Y-13980460D01*
X10753515Y-13980460D02*
X10743991Y-13970936D01*
X10743991Y-13970936D02*
X10734467Y-13951888D01*
X10734467Y-13951888D02*
X10724944Y-13913793D01*
X10724944Y-13913793D02*
X10724944Y-13866174D01*
X10724944Y-13866174D02*
X10734467Y-13828079D01*
X10734467Y-13828079D02*
X10743991Y-13809031D01*
X10743991Y-13809031D02*
X10753515Y-13799508D01*
X10753515Y-13799508D02*
X10772563Y-13789984D01*
X10963039Y-13789984D02*
X10982086Y-13789984D01*
X10982086Y-13789984D02*
X11001134Y-13799508D01*
X11001134Y-13799508D02*
X11010658Y-13809031D01*
X11010658Y-13809031D02*
X11020182Y-13828079D01*
X11020182Y-13828079D02*
X11029705Y-13866174D01*
X11029705Y-13866174D02*
X11029705Y-13913793D01*
X11029705Y-13913793D02*
X11020182Y-13951888D01*
X11020182Y-13951888D02*
X11010658Y-13970936D01*
X11010658Y-13970936D02*
X11001134Y-13980460D01*
X11001134Y-13980460D02*
X10982086Y-13989984D01*
X10982086Y-13989984D02*
X10963039Y-13989984D01*
X10963039Y-13989984D02*
X10943991Y-13980460D01*
X10943991Y-13980460D02*
X10934467Y-13970936D01*
X10934467Y-13970936D02*
X10924944Y-13951888D01*
X10924944Y-13951888D02*
X10915420Y-13913793D01*
X10915420Y-13913793D02*
X10915420Y-13866174D01*
X10915420Y-13866174D02*
X10924944Y-13828079D01*
X10924944Y-13828079D02*
X10934467Y-13809031D01*
X10934467Y-13809031D02*
X10943991Y-13799508D01*
X10943991Y-13799508D02*
X10963039Y-13789984D01*
X11115420Y-13989984D02*
X11115420Y-13856650D01*
X11115420Y-13875698D02*
X11124944Y-13866174D01*
X11124944Y-13866174D02*
X11143991Y-13856650D01*
X11143991Y-13856650D02*
X11172563Y-13856650D01*
X11172563Y-13856650D02*
X11191610Y-13866174D01*
X11191610Y-13866174D02*
X11201134Y-13885222D01*
X11201134Y-13885222D02*
X11201134Y-13989984D01*
X11201134Y-13885222D02*
X11210658Y-13866174D01*
X11210658Y-13866174D02*
X11229705Y-13856650D01*
X11229705Y-13856650D02*
X11258277Y-13856650D01*
X11258277Y-13856650D02*
X11277324Y-13866174D01*
X11277324Y-13866174D02*
X11286848Y-13885222D01*
X11286848Y-13885222D02*
X11286848Y-13989984D01*
X11382086Y-13989984D02*
X11382086Y-13856650D01*
X11382086Y-13875698D02*
X11391610Y-13866174D01*
X11391610Y-13866174D02*
X11410658Y-13856650D01*
X11410658Y-13856650D02*
X11439229Y-13856650D01*
X11439229Y-13856650D02*
X11458277Y-13866174D01*
X11458277Y-13866174D02*
X11467801Y-13885222D01*
X11467801Y-13885222D02*
X11467801Y-13989984D01*
X11467801Y-13885222D02*
X11477324Y-13866174D01*
X11477324Y-13866174D02*
X11496372Y-13856650D01*
X11496372Y-13856650D02*
X11524943Y-13856650D01*
X11524943Y-13856650D02*
X11543991Y-13866174D01*
X11543991Y-13866174D02*
X11553515Y-13885222D01*
X11553515Y-13885222D02*
X11553515Y-13989984D01*
X11943991Y-13780460D02*
X11772563Y-14037603D01*
X12201134Y-13789984D02*
X12220182Y-13789984D01*
X12220182Y-13789984D02*
X12239229Y-13799508D01*
X12239229Y-13799508D02*
X12248753Y-13809031D01*
X12248753Y-13809031D02*
X12258277Y-13828079D01*
X12258277Y-13828079D02*
X12267801Y-13866174D01*
X12267801Y-13866174D02*
X12267801Y-13913793D01*
X12267801Y-13913793D02*
X12258277Y-13951888D01*
X12258277Y-13951888D02*
X12248753Y-13970936D01*
X12248753Y-13970936D02*
X12239229Y-13980460D01*
X12239229Y-13980460D02*
X12220182Y-13989984D01*
X12220182Y-13989984D02*
X12201134Y-13989984D01*
X12201134Y-13989984D02*
X12182086Y-13980460D01*
X12182086Y-13980460D02*
X12172563Y-13970936D01*
X12172563Y-13970936D02*
X12163039Y-13951888D01*
X12163039Y-13951888D02*
X12153515Y-13913793D01*
X12153515Y-13913793D02*
X12153515Y-13866174D01*
X12153515Y-13866174D02*
X12163039Y-13828079D01*
X12163039Y-13828079D02*
X12172563Y-13809031D01*
X12172563Y-13809031D02*
X12182086Y-13799508D01*
X12182086Y-13799508D02*
X12201134Y-13789984D01*
X12353515Y-13970936D02*
X12363039Y-13980460D01*
X12363039Y-13980460D02*
X12353515Y-13989984D01*
X12353515Y-13989984D02*
X12343991Y-13980460D01*
X12343991Y-13980460D02*
X12353515Y-13970936D01*
X12353515Y-13970936D02*
X12353515Y-13989984D01*
X12486848Y-13789984D02*
X12505896Y-13789984D01*
X12505896Y-13789984D02*
X12524944Y-13799508D01*
X12524944Y-13799508D02*
X12534467Y-13809031D01*
X12534467Y-13809031D02*
X12543991Y-13828079D01*
X12543991Y-13828079D02*
X12553515Y-13866174D01*
X12553515Y-13866174D02*
X12553515Y-13913793D01*
X12553515Y-13913793D02*
X12543991Y-13951888D01*
X12543991Y-13951888D02*
X12534467Y-13970936D01*
X12534467Y-13970936D02*
X12524944Y-13980460D01*
X12524944Y-13980460D02*
X12505896Y-13989984D01*
X12505896Y-13989984D02*
X12486848Y-13989984D01*
X12486848Y-13989984D02*
X12467801Y-13980460D01*
X12467801Y-13980460D02*
X12458277Y-13970936D01*
X12458277Y-13970936D02*
X12448753Y-13951888D01*
X12448753Y-13951888D02*
X12439229Y-13913793D01*
X12439229Y-13913793D02*
X12439229Y-13866174D01*
X12439229Y-13866174D02*
X12448753Y-13828079D01*
X12448753Y-13828079D02*
X12458277Y-13809031D01*
X12458277Y-13809031D02*
X12467801Y-13799508D01*
X12467801Y-13799508D02*
X12486848Y-13789984D01*
X12620182Y-13789984D02*
X12743991Y-13789984D01*
X12743991Y-13789984D02*
X12677325Y-13866174D01*
X12677325Y-13866174D02*
X12705896Y-13866174D01*
X12705896Y-13866174D02*
X12724944Y-13875698D01*
X12724944Y-13875698D02*
X12734467Y-13885222D01*
X12734467Y-13885222D02*
X12743991Y-13904269D01*
X12743991Y-13904269D02*
X12743991Y-13951888D01*
X12743991Y-13951888D02*
X12734467Y-13970936D01*
X12734467Y-13970936D02*
X12724944Y-13980460D01*
X12724944Y-13980460D02*
X12705896Y-13989984D01*
X12705896Y-13989984D02*
X12648753Y-13989984D01*
X12648753Y-13989984D02*
X12629706Y-13980460D01*
X12629706Y-13980460D02*
X12620182Y-13970936D01*
X12924944Y-13789984D02*
X12829706Y-13789984D01*
X12829706Y-13789984D02*
X12820182Y-13885222D01*
X12820182Y-13885222D02*
X12829706Y-13875698D01*
X12829706Y-13875698D02*
X12848753Y-13866174D01*
X12848753Y-13866174D02*
X12896372Y-13866174D01*
X12896372Y-13866174D02*
X12915420Y-13875698D01*
X12915420Y-13875698D02*
X12924944Y-13885222D01*
X12924944Y-13885222D02*
X12934467Y-13904269D01*
X12934467Y-13904269D02*
X12934467Y-13951888D01*
X12934467Y-13951888D02*
X12924944Y-13970936D01*
X12924944Y-13970936D02*
X12915420Y-13980460D01*
X12915420Y-13980460D02*
X12896372Y-13989984D01*
X12896372Y-13989984D02*
X12848753Y-13989984D01*
X12848753Y-13989984D02*
X12829706Y-13980460D01*
X12829706Y-13980460D02*
X12820182Y-13970936D01*
X13105896Y-13856650D02*
X13105896Y-13989984D01*
X13058277Y-13780460D02*
X13010658Y-13923317D01*
X13010658Y-13923317D02*
X13134467Y-13923317D01*
X13201134Y-13789984D02*
X13201134Y-13828079D01*
X13277325Y-13789984D02*
X13277325Y-13828079D01*
X13572563Y-14066174D02*
X13563039Y-14056650D01*
X13563039Y-14056650D02*
X13543991Y-14028079D01*
X13543991Y-14028079D02*
X13534468Y-14009031D01*
X13534468Y-14009031D02*
X13524944Y-13980460D01*
X13524944Y-13980460D02*
X13515420Y-13932841D01*
X13515420Y-13932841D02*
X13515420Y-13894746D01*
X13515420Y-13894746D02*
X13524944Y-13847127D01*
X13524944Y-13847127D02*
X13534468Y-13818555D01*
X13534468Y-13818555D02*
X13543991Y-13799508D01*
X13543991Y-13799508D02*
X13563039Y-13770936D01*
X13563039Y-13770936D02*
X13572563Y-13761412D01*
X13629706Y-13789984D02*
X13753515Y-13789984D01*
X13753515Y-13789984D02*
X13686848Y-13866174D01*
X13686848Y-13866174D02*
X13715420Y-13866174D01*
X13715420Y-13866174D02*
X13734468Y-13875698D01*
X13734468Y-13875698D02*
X13743991Y-13885222D01*
X13743991Y-13885222D02*
X13753515Y-13904269D01*
X13753515Y-13904269D02*
X13753515Y-13951888D01*
X13753515Y-13951888D02*
X13743991Y-13970936D01*
X13743991Y-13970936D02*
X13734468Y-13980460D01*
X13734468Y-13980460D02*
X13715420Y-13989984D01*
X13715420Y-13989984D02*
X13658277Y-13989984D01*
X13658277Y-13989984D02*
X13639229Y-13980460D01*
X13639229Y-13980460D02*
X13629706Y-13970936D01*
X13991610Y-13989984D02*
X13991610Y-13789984D01*
X14077325Y-13989984D02*
X14077325Y-13885222D01*
X14077325Y-13885222D02*
X14067801Y-13866174D01*
X14067801Y-13866174D02*
X14048753Y-13856650D01*
X14048753Y-13856650D02*
X14020182Y-13856650D01*
X14020182Y-13856650D02*
X14001134Y-13866174D01*
X14001134Y-13866174D02*
X13991610Y-13875698D01*
X14201134Y-13989984D02*
X14182087Y-13980460D01*
X14182087Y-13980460D02*
X14172563Y-13970936D01*
X14172563Y-13970936D02*
X14163039Y-13951888D01*
X14163039Y-13951888D02*
X14163039Y-13894746D01*
X14163039Y-13894746D02*
X14172563Y-13875698D01*
X14172563Y-13875698D02*
X14182087Y-13866174D01*
X14182087Y-13866174D02*
X14201134Y-13856650D01*
X14201134Y-13856650D02*
X14229706Y-13856650D01*
X14229706Y-13856650D02*
X14248753Y-13866174D01*
X14248753Y-13866174D02*
X14258277Y-13875698D01*
X14258277Y-13875698D02*
X14267801Y-13894746D01*
X14267801Y-13894746D02*
X14267801Y-13951888D01*
X14267801Y-13951888D02*
X14258277Y-13970936D01*
X14258277Y-13970936D02*
X14248753Y-13980460D01*
X14248753Y-13980460D02*
X14229706Y-13989984D01*
X14229706Y-13989984D02*
X14201134Y-13989984D01*
X14382087Y-13989984D02*
X14363039Y-13980460D01*
X14363039Y-13980460D02*
X14353515Y-13961412D01*
X14353515Y-13961412D02*
X14353515Y-13789984D01*
X14534468Y-13980460D02*
X14515420Y-13989984D01*
X14515420Y-13989984D02*
X14477325Y-13989984D01*
X14477325Y-13989984D02*
X14458277Y-13980460D01*
X14458277Y-13980460D02*
X14448753Y-13961412D01*
X14448753Y-13961412D02*
X14448753Y-13885222D01*
X14448753Y-13885222D02*
X14458277Y-13866174D01*
X14458277Y-13866174D02*
X14477325Y-13856650D01*
X14477325Y-13856650D02*
X14515420Y-13856650D01*
X14515420Y-13856650D02*
X14534468Y-13866174D01*
X14534468Y-13866174D02*
X14543991Y-13885222D01*
X14543991Y-13885222D02*
X14543991Y-13904269D01*
X14543991Y-13904269D02*
X14448753Y-13923317D01*
X14620182Y-13980460D02*
X14639230Y-13989984D01*
X14639230Y-13989984D02*
X14677325Y-13989984D01*
X14677325Y-13989984D02*
X14696372Y-13980460D01*
X14696372Y-13980460D02*
X14705896Y-13961412D01*
X14705896Y-13961412D02*
X14705896Y-13951888D01*
X14705896Y-13951888D02*
X14696372Y-13932841D01*
X14696372Y-13932841D02*
X14677325Y-13923317D01*
X14677325Y-13923317D02*
X14648753Y-13923317D01*
X14648753Y-13923317D02*
X14629706Y-13913793D01*
X14629706Y-13913793D02*
X14620182Y-13894746D01*
X14620182Y-13894746D02*
X14620182Y-13885222D01*
X14620182Y-13885222D02*
X14629706Y-13866174D01*
X14629706Y-13866174D02*
X14648753Y-13856650D01*
X14648753Y-13856650D02*
X14677325Y-13856650D01*
X14677325Y-13856650D02*
X14696372Y-13866174D01*
X14772563Y-14066174D02*
X14782087Y-14056650D01*
X14782087Y-14056650D02*
X14801134Y-14028079D01*
X14801134Y-14028079D02*
X14810658Y-14009031D01*
X14810658Y-14009031D02*
X14820182Y-13980460D01*
X14820182Y-13980460D02*
X14829706Y-13932841D01*
X14829706Y-13932841D02*
X14829706Y-13894746D01*
X14829706Y-13894746D02*
X14820182Y-13847127D01*
X14820182Y-13847127D02*
X14810658Y-13818555D01*
X14810658Y-13818555D02*
X14801134Y-13799508D01*
X14801134Y-13799508D02*
X14782087Y-13770936D01*
X14782087Y-13770936D02*
X14772563Y-13761412D01*
D12*
X9897500Y-14112500D02*
X9997500Y-14212500D01*
X9997500Y-14112500D02*
X9897500Y-14212500D01*
X9997500Y-14162500D02*
G75*
G02*
X9897500Y-14162500I-50000J0D01*
G01*
X9897500Y-14162500D02*
G75*
G02*
X9997500Y-14162500I50000J0D01*
G01*
D11*
X10363039Y-14253984D02*
X10248753Y-14253984D01*
X10305896Y-14253984D02*
X10305896Y-14053984D01*
X10305896Y-14053984D02*
X10286848Y-14082555D01*
X10286848Y-14082555D02*
X10267801Y-14101603D01*
X10267801Y-14101603D02*
X10248753Y-14111127D01*
X10448753Y-14234936D02*
X10458277Y-14244460D01*
X10458277Y-14244460D02*
X10448753Y-14253984D01*
X10448753Y-14253984D02*
X10439229Y-14244460D01*
X10439229Y-14244460D02*
X10448753Y-14234936D01*
X10448753Y-14234936D02*
X10448753Y-14253984D01*
X10582086Y-14053984D02*
X10601134Y-14053984D01*
X10601134Y-14053984D02*
X10620182Y-14063508D01*
X10620182Y-14063508D02*
X10629705Y-14073031D01*
X10629705Y-14073031D02*
X10639229Y-14092079D01*
X10639229Y-14092079D02*
X10648753Y-14130174D01*
X10648753Y-14130174D02*
X10648753Y-14177793D01*
X10648753Y-14177793D02*
X10639229Y-14215888D01*
X10639229Y-14215888D02*
X10629705Y-14234936D01*
X10629705Y-14234936D02*
X10620182Y-14244460D01*
X10620182Y-14244460D02*
X10601134Y-14253984D01*
X10601134Y-14253984D02*
X10582086Y-14253984D01*
X10582086Y-14253984D02*
X10563039Y-14244460D01*
X10563039Y-14244460D02*
X10553515Y-14234936D01*
X10553515Y-14234936D02*
X10543991Y-14215888D01*
X10543991Y-14215888D02*
X10534467Y-14177793D01*
X10534467Y-14177793D02*
X10534467Y-14130174D01*
X10534467Y-14130174D02*
X10543991Y-14092079D01*
X10543991Y-14092079D02*
X10553515Y-14073031D01*
X10553515Y-14073031D02*
X10563039Y-14063508D01*
X10563039Y-14063508D02*
X10582086Y-14053984D01*
X10772563Y-14053984D02*
X10791610Y-14053984D01*
X10791610Y-14053984D02*
X10810658Y-14063508D01*
X10810658Y-14063508D02*
X10820182Y-14073031D01*
X10820182Y-14073031D02*
X10829705Y-14092079D01*
X10829705Y-14092079D02*
X10839229Y-14130174D01*
X10839229Y-14130174D02*
X10839229Y-14177793D01*
X10839229Y-14177793D02*
X10829705Y-14215888D01*
X10829705Y-14215888D02*
X10820182Y-14234936D01*
X10820182Y-14234936D02*
X10810658Y-14244460D01*
X10810658Y-14244460D02*
X10791610Y-14253984D01*
X10791610Y-14253984D02*
X10772563Y-14253984D01*
X10772563Y-14253984D02*
X10753515Y-14244460D01*
X10753515Y-14244460D02*
X10743991Y-14234936D01*
X10743991Y-14234936D02*
X10734467Y-14215888D01*
X10734467Y-14215888D02*
X10724944Y-14177793D01*
X10724944Y-14177793D02*
X10724944Y-14130174D01*
X10724944Y-14130174D02*
X10734467Y-14092079D01*
X10734467Y-14092079D02*
X10743991Y-14073031D01*
X10743991Y-14073031D02*
X10753515Y-14063508D01*
X10753515Y-14063508D02*
X10772563Y-14053984D01*
X10963039Y-14053984D02*
X10982086Y-14053984D01*
X10982086Y-14053984D02*
X11001134Y-14063508D01*
X11001134Y-14063508D02*
X11010658Y-14073031D01*
X11010658Y-14073031D02*
X11020182Y-14092079D01*
X11020182Y-14092079D02*
X11029705Y-14130174D01*
X11029705Y-14130174D02*
X11029705Y-14177793D01*
X11029705Y-14177793D02*
X11020182Y-14215888D01*
X11020182Y-14215888D02*
X11010658Y-14234936D01*
X11010658Y-14234936D02*
X11001134Y-14244460D01*
X11001134Y-14244460D02*
X10982086Y-14253984D01*
X10982086Y-14253984D02*
X10963039Y-14253984D01*
X10963039Y-14253984D02*
X10943991Y-14244460D01*
X10943991Y-14244460D02*
X10934467Y-14234936D01*
X10934467Y-14234936D02*
X10924944Y-14215888D01*
X10924944Y-14215888D02*
X10915420Y-14177793D01*
X10915420Y-14177793D02*
X10915420Y-14130174D01*
X10915420Y-14130174D02*
X10924944Y-14092079D01*
X10924944Y-14092079D02*
X10934467Y-14073031D01*
X10934467Y-14073031D02*
X10943991Y-14063508D01*
X10943991Y-14063508D02*
X10963039Y-14053984D01*
X11115420Y-14253984D02*
X11115420Y-14120650D01*
X11115420Y-14139698D02*
X11124944Y-14130174D01*
X11124944Y-14130174D02*
X11143991Y-14120650D01*
X11143991Y-14120650D02*
X11172563Y-14120650D01*
X11172563Y-14120650D02*
X11191610Y-14130174D01*
X11191610Y-14130174D02*
X11201134Y-14149222D01*
X11201134Y-14149222D02*
X11201134Y-14253984D01*
X11201134Y-14149222D02*
X11210658Y-14130174D01*
X11210658Y-14130174D02*
X11229705Y-14120650D01*
X11229705Y-14120650D02*
X11258277Y-14120650D01*
X11258277Y-14120650D02*
X11277324Y-14130174D01*
X11277324Y-14130174D02*
X11286848Y-14149222D01*
X11286848Y-14149222D02*
X11286848Y-14253984D01*
X11382086Y-14253984D02*
X11382086Y-14120650D01*
X11382086Y-14139698D02*
X11391610Y-14130174D01*
X11391610Y-14130174D02*
X11410658Y-14120650D01*
X11410658Y-14120650D02*
X11439229Y-14120650D01*
X11439229Y-14120650D02*
X11458277Y-14130174D01*
X11458277Y-14130174D02*
X11467801Y-14149222D01*
X11467801Y-14149222D02*
X11467801Y-14253984D01*
X11467801Y-14149222D02*
X11477324Y-14130174D01*
X11477324Y-14130174D02*
X11496372Y-14120650D01*
X11496372Y-14120650D02*
X11524943Y-14120650D01*
X11524943Y-14120650D02*
X11543991Y-14130174D01*
X11543991Y-14130174D02*
X11553515Y-14149222D01*
X11553515Y-14149222D02*
X11553515Y-14253984D01*
X11943991Y-14044460D02*
X11772563Y-14301603D01*
X12201134Y-14053984D02*
X12220182Y-14053984D01*
X12220182Y-14053984D02*
X12239229Y-14063508D01*
X12239229Y-14063508D02*
X12248753Y-14073031D01*
X12248753Y-14073031D02*
X12258277Y-14092079D01*
X12258277Y-14092079D02*
X12267801Y-14130174D01*
X12267801Y-14130174D02*
X12267801Y-14177793D01*
X12267801Y-14177793D02*
X12258277Y-14215888D01*
X12258277Y-14215888D02*
X12248753Y-14234936D01*
X12248753Y-14234936D02*
X12239229Y-14244460D01*
X12239229Y-14244460D02*
X12220182Y-14253984D01*
X12220182Y-14253984D02*
X12201134Y-14253984D01*
X12201134Y-14253984D02*
X12182086Y-14244460D01*
X12182086Y-14244460D02*
X12172563Y-14234936D01*
X12172563Y-14234936D02*
X12163039Y-14215888D01*
X12163039Y-14215888D02*
X12153515Y-14177793D01*
X12153515Y-14177793D02*
X12153515Y-14130174D01*
X12153515Y-14130174D02*
X12163039Y-14092079D01*
X12163039Y-14092079D02*
X12172563Y-14073031D01*
X12172563Y-14073031D02*
X12182086Y-14063508D01*
X12182086Y-14063508D02*
X12201134Y-14053984D01*
X12353515Y-14234936D02*
X12363039Y-14244460D01*
X12363039Y-14244460D02*
X12353515Y-14253984D01*
X12353515Y-14253984D02*
X12343991Y-14244460D01*
X12343991Y-14244460D02*
X12353515Y-14234936D01*
X12353515Y-14234936D02*
X12353515Y-14253984D01*
X12486848Y-14053984D02*
X12505896Y-14053984D01*
X12505896Y-14053984D02*
X12524944Y-14063508D01*
X12524944Y-14063508D02*
X12534467Y-14073031D01*
X12534467Y-14073031D02*
X12543991Y-14092079D01*
X12543991Y-14092079D02*
X12553515Y-14130174D01*
X12553515Y-14130174D02*
X12553515Y-14177793D01*
X12553515Y-14177793D02*
X12543991Y-14215888D01*
X12543991Y-14215888D02*
X12534467Y-14234936D01*
X12534467Y-14234936D02*
X12524944Y-14244460D01*
X12524944Y-14244460D02*
X12505896Y-14253984D01*
X12505896Y-14253984D02*
X12486848Y-14253984D01*
X12486848Y-14253984D02*
X12467801Y-14244460D01*
X12467801Y-14244460D02*
X12458277Y-14234936D01*
X12458277Y-14234936D02*
X12448753Y-14215888D01*
X12448753Y-14215888D02*
X12439229Y-14177793D01*
X12439229Y-14177793D02*
X12439229Y-14130174D01*
X12439229Y-14130174D02*
X12448753Y-14092079D01*
X12448753Y-14092079D02*
X12458277Y-14073031D01*
X12458277Y-14073031D02*
X12467801Y-14063508D01*
X12467801Y-14063508D02*
X12486848Y-14053984D01*
X12620182Y-14053984D02*
X12743991Y-14053984D01*
X12743991Y-14053984D02*
X12677325Y-14130174D01*
X12677325Y-14130174D02*
X12705896Y-14130174D01*
X12705896Y-14130174D02*
X12724944Y-14139698D01*
X12724944Y-14139698D02*
X12734467Y-14149222D01*
X12734467Y-14149222D02*
X12743991Y-14168269D01*
X12743991Y-14168269D02*
X12743991Y-14215888D01*
X12743991Y-14215888D02*
X12734467Y-14234936D01*
X12734467Y-14234936D02*
X12724944Y-14244460D01*
X12724944Y-14244460D02*
X12705896Y-14253984D01*
X12705896Y-14253984D02*
X12648753Y-14253984D01*
X12648753Y-14253984D02*
X12629706Y-14244460D01*
X12629706Y-14244460D02*
X12620182Y-14234936D01*
X12839229Y-14253984D02*
X12877325Y-14253984D01*
X12877325Y-14253984D02*
X12896372Y-14244460D01*
X12896372Y-14244460D02*
X12905896Y-14234936D01*
X12905896Y-14234936D02*
X12924944Y-14206365D01*
X12924944Y-14206365D02*
X12934467Y-14168269D01*
X12934467Y-14168269D02*
X12934467Y-14092079D01*
X12934467Y-14092079D02*
X12924944Y-14073031D01*
X12924944Y-14073031D02*
X12915420Y-14063508D01*
X12915420Y-14063508D02*
X12896372Y-14053984D01*
X12896372Y-14053984D02*
X12858277Y-14053984D01*
X12858277Y-14053984D02*
X12839229Y-14063508D01*
X12839229Y-14063508D02*
X12829706Y-14073031D01*
X12829706Y-14073031D02*
X12820182Y-14092079D01*
X12820182Y-14092079D02*
X12820182Y-14139698D01*
X12820182Y-14139698D02*
X12829706Y-14158746D01*
X12829706Y-14158746D02*
X12839229Y-14168269D01*
X12839229Y-14168269D02*
X12858277Y-14177793D01*
X12858277Y-14177793D02*
X12896372Y-14177793D01*
X12896372Y-14177793D02*
X12915420Y-14168269D01*
X12915420Y-14168269D02*
X12924944Y-14158746D01*
X12924944Y-14158746D02*
X12934467Y-14139698D01*
X13105896Y-14120650D02*
X13105896Y-14253984D01*
X13058277Y-14044460D02*
X13010658Y-14187317D01*
X13010658Y-14187317D02*
X13134467Y-14187317D01*
X13201134Y-14053984D02*
X13201134Y-14092079D01*
X13277325Y-14053984D02*
X13277325Y-14092079D01*
X13572563Y-14330174D02*
X13563039Y-14320650D01*
X13563039Y-14320650D02*
X13543991Y-14292079D01*
X13543991Y-14292079D02*
X13534468Y-14273031D01*
X13534468Y-14273031D02*
X13524944Y-14244460D01*
X13524944Y-14244460D02*
X13515420Y-14196841D01*
X13515420Y-14196841D02*
X13515420Y-14158746D01*
X13515420Y-14158746D02*
X13524944Y-14111127D01*
X13524944Y-14111127D02*
X13534468Y-14082555D01*
X13534468Y-14082555D02*
X13543991Y-14063508D01*
X13543991Y-14063508D02*
X13563039Y-14034936D01*
X13563039Y-14034936D02*
X13572563Y-14025412D01*
X13629706Y-14053984D02*
X13753515Y-14053984D01*
X13753515Y-14053984D02*
X13686848Y-14130174D01*
X13686848Y-14130174D02*
X13715420Y-14130174D01*
X13715420Y-14130174D02*
X13734468Y-14139698D01*
X13734468Y-14139698D02*
X13743991Y-14149222D01*
X13743991Y-14149222D02*
X13753515Y-14168269D01*
X13753515Y-14168269D02*
X13753515Y-14215888D01*
X13753515Y-14215888D02*
X13743991Y-14234936D01*
X13743991Y-14234936D02*
X13734468Y-14244460D01*
X13734468Y-14244460D02*
X13715420Y-14253984D01*
X13715420Y-14253984D02*
X13658277Y-14253984D01*
X13658277Y-14253984D02*
X13639229Y-14244460D01*
X13639229Y-14244460D02*
X13629706Y-14234936D01*
X13867801Y-14139698D02*
X13848753Y-14130174D01*
X13848753Y-14130174D02*
X13839229Y-14120650D01*
X13839229Y-14120650D02*
X13829706Y-14101603D01*
X13829706Y-14101603D02*
X13829706Y-14092079D01*
X13829706Y-14092079D02*
X13839229Y-14073031D01*
X13839229Y-14073031D02*
X13848753Y-14063508D01*
X13848753Y-14063508D02*
X13867801Y-14053984D01*
X13867801Y-14053984D02*
X13905896Y-14053984D01*
X13905896Y-14053984D02*
X13924944Y-14063508D01*
X13924944Y-14063508D02*
X13934468Y-14073031D01*
X13934468Y-14073031D02*
X13943991Y-14092079D01*
X13943991Y-14092079D02*
X13943991Y-14101603D01*
X13943991Y-14101603D02*
X13934468Y-14120650D01*
X13934468Y-14120650D02*
X13924944Y-14130174D01*
X13924944Y-14130174D02*
X13905896Y-14139698D01*
X13905896Y-14139698D02*
X13867801Y-14139698D01*
X13867801Y-14139698D02*
X13848753Y-14149222D01*
X13848753Y-14149222D02*
X13839229Y-14158746D01*
X13839229Y-14158746D02*
X13829706Y-14177793D01*
X13829706Y-14177793D02*
X13829706Y-14215888D01*
X13829706Y-14215888D02*
X13839229Y-14234936D01*
X13839229Y-14234936D02*
X13848753Y-14244460D01*
X13848753Y-14244460D02*
X13867801Y-14253984D01*
X13867801Y-14253984D02*
X13905896Y-14253984D01*
X13905896Y-14253984D02*
X13924944Y-14244460D01*
X13924944Y-14244460D02*
X13934468Y-14234936D01*
X13934468Y-14234936D02*
X13943991Y-14215888D01*
X13943991Y-14215888D02*
X13943991Y-14177793D01*
X13943991Y-14177793D02*
X13934468Y-14158746D01*
X13934468Y-14158746D02*
X13924944Y-14149222D01*
X13924944Y-14149222D02*
X13905896Y-14139698D01*
X14182087Y-14253984D02*
X14182087Y-14053984D01*
X14267801Y-14253984D02*
X14267801Y-14149222D01*
X14267801Y-14149222D02*
X14258277Y-14130174D01*
X14258277Y-14130174D02*
X14239230Y-14120650D01*
X14239230Y-14120650D02*
X14210658Y-14120650D01*
X14210658Y-14120650D02*
X14191610Y-14130174D01*
X14191610Y-14130174D02*
X14182087Y-14139698D01*
X14391610Y-14253984D02*
X14372563Y-14244460D01*
X14372563Y-14244460D02*
X14363039Y-14234936D01*
X14363039Y-14234936D02*
X14353515Y-14215888D01*
X14353515Y-14215888D02*
X14353515Y-14158746D01*
X14353515Y-14158746D02*
X14363039Y-14139698D01*
X14363039Y-14139698D02*
X14372563Y-14130174D01*
X14372563Y-14130174D02*
X14391610Y-14120650D01*
X14391610Y-14120650D02*
X14420182Y-14120650D01*
X14420182Y-14120650D02*
X14439230Y-14130174D01*
X14439230Y-14130174D02*
X14448753Y-14139698D01*
X14448753Y-14139698D02*
X14458277Y-14158746D01*
X14458277Y-14158746D02*
X14458277Y-14215888D01*
X14458277Y-14215888D02*
X14448753Y-14234936D01*
X14448753Y-14234936D02*
X14439230Y-14244460D01*
X14439230Y-14244460D02*
X14420182Y-14253984D01*
X14420182Y-14253984D02*
X14391610Y-14253984D01*
X14572563Y-14253984D02*
X14553515Y-14244460D01*
X14553515Y-14244460D02*
X14543991Y-14225412D01*
X14543991Y-14225412D02*
X14543991Y-14053984D01*
X14724944Y-14244460D02*
X14705896Y-14253984D01*
X14705896Y-14253984D02*
X14667801Y-14253984D01*
X14667801Y-14253984D02*
X14648753Y-14244460D01*
X14648753Y-14244460D02*
X14639230Y-14225412D01*
X14639230Y-14225412D02*
X14639230Y-14149222D01*
X14639230Y-14149222D02*
X14648753Y-14130174D01*
X14648753Y-14130174D02*
X14667801Y-14120650D01*
X14667801Y-14120650D02*
X14705896Y-14120650D01*
X14705896Y-14120650D02*
X14724944Y-14130174D01*
X14724944Y-14130174D02*
X14734468Y-14149222D01*
X14734468Y-14149222D02*
X14734468Y-14168269D01*
X14734468Y-14168269D02*
X14639230Y-14187317D01*
X14810658Y-14244460D02*
X14829706Y-14253984D01*
X14829706Y-14253984D02*
X14867801Y-14253984D01*
X14867801Y-14253984D02*
X14886849Y-14244460D01*
X14886849Y-14244460D02*
X14896372Y-14225412D01*
X14896372Y-14225412D02*
X14896372Y-14215888D01*
X14896372Y-14215888D02*
X14886849Y-14196841D01*
X14886849Y-14196841D02*
X14867801Y-14187317D01*
X14867801Y-14187317D02*
X14839230Y-14187317D01*
X14839230Y-14187317D02*
X14820182Y-14177793D01*
X14820182Y-14177793D02*
X14810658Y-14158746D01*
X14810658Y-14158746D02*
X14810658Y-14149222D01*
X14810658Y-14149222D02*
X14820182Y-14130174D01*
X14820182Y-14130174D02*
X14839230Y-14120650D01*
X14839230Y-14120650D02*
X14867801Y-14120650D01*
X14867801Y-14120650D02*
X14886849Y-14130174D01*
X14963039Y-14330174D02*
X14972563Y-14320650D01*
X14972563Y-14320650D02*
X14991611Y-14292079D01*
X14991611Y-14292079D02*
X15001134Y-14273031D01*
X15001134Y-14273031D02*
X15010658Y-14244460D01*
X15010658Y-14244460D02*
X15020182Y-14196841D01*
X15020182Y-14196841D02*
X15020182Y-14158746D01*
X15020182Y-14158746D02*
X15010658Y-14111127D01*
X15010658Y-14111127D02*
X15001134Y-14082555D01*
X15001134Y-14082555D02*
X14991611Y-14063508D01*
X14991611Y-14063508D02*
X14972563Y-14034936D01*
X14972563Y-14034936D02*
X14963039Y-14025412D01*
D13*
X9847500Y-14351500D02*
X9997500Y-14501500D01*
X9997500Y-14351500D02*
X9847500Y-14501500D01*
X9922500Y-14351500D02*
X9922500Y-14501500D01*
X9847500Y-14426500D02*
X9997500Y-14426500D01*
D11*
X10363039Y-14517984D02*
X10248753Y-14517984D01*
X10305896Y-14517984D02*
X10305896Y-14317984D01*
X10305896Y-14317984D02*
X10286848Y-14346555D01*
X10286848Y-14346555D02*
X10267801Y-14365603D01*
X10267801Y-14365603D02*
X10248753Y-14375127D01*
X10448753Y-14498936D02*
X10458277Y-14508460D01*
X10458277Y-14508460D02*
X10448753Y-14517984D01*
X10448753Y-14517984D02*
X10439229Y-14508460D01*
X10439229Y-14508460D02*
X10448753Y-14498936D01*
X10448753Y-14498936D02*
X10448753Y-14517984D01*
X10639229Y-14317984D02*
X10543991Y-14317984D01*
X10543991Y-14317984D02*
X10534467Y-14413222D01*
X10534467Y-14413222D02*
X10543991Y-14403698D01*
X10543991Y-14403698D02*
X10563039Y-14394174D01*
X10563039Y-14394174D02*
X10610658Y-14394174D01*
X10610658Y-14394174D02*
X10629705Y-14403698D01*
X10629705Y-14403698D02*
X10639229Y-14413222D01*
X10639229Y-14413222D02*
X10648753Y-14432269D01*
X10648753Y-14432269D02*
X10648753Y-14479888D01*
X10648753Y-14479888D02*
X10639229Y-14498936D01*
X10639229Y-14498936D02*
X10629705Y-14508460D01*
X10629705Y-14508460D02*
X10610658Y-14517984D01*
X10610658Y-14517984D02*
X10563039Y-14517984D01*
X10563039Y-14517984D02*
X10543991Y-14508460D01*
X10543991Y-14508460D02*
X10534467Y-14498936D01*
X10772563Y-14317984D02*
X10791610Y-14317984D01*
X10791610Y-14317984D02*
X10810658Y-14327508D01*
X10810658Y-14327508D02*
X10820182Y-14337031D01*
X10820182Y-14337031D02*
X10829705Y-14356079D01*
X10829705Y-14356079D02*
X10839229Y-14394174D01*
X10839229Y-14394174D02*
X10839229Y-14441793D01*
X10839229Y-14441793D02*
X10829705Y-14479888D01*
X10829705Y-14479888D02*
X10820182Y-14498936D01*
X10820182Y-14498936D02*
X10810658Y-14508460D01*
X10810658Y-14508460D02*
X10791610Y-14517984D01*
X10791610Y-14517984D02*
X10772563Y-14517984D01*
X10772563Y-14517984D02*
X10753515Y-14508460D01*
X10753515Y-14508460D02*
X10743991Y-14498936D01*
X10743991Y-14498936D02*
X10734467Y-14479888D01*
X10734467Y-14479888D02*
X10724944Y-14441793D01*
X10724944Y-14441793D02*
X10724944Y-14394174D01*
X10724944Y-14394174D02*
X10734467Y-14356079D01*
X10734467Y-14356079D02*
X10743991Y-14337031D01*
X10743991Y-14337031D02*
X10753515Y-14327508D01*
X10753515Y-14327508D02*
X10772563Y-14317984D01*
X10963039Y-14317984D02*
X10982086Y-14317984D01*
X10982086Y-14317984D02*
X11001134Y-14327508D01*
X11001134Y-14327508D02*
X11010658Y-14337031D01*
X11010658Y-14337031D02*
X11020182Y-14356079D01*
X11020182Y-14356079D02*
X11029705Y-14394174D01*
X11029705Y-14394174D02*
X11029705Y-14441793D01*
X11029705Y-14441793D02*
X11020182Y-14479888D01*
X11020182Y-14479888D02*
X11010658Y-14498936D01*
X11010658Y-14498936D02*
X11001134Y-14508460D01*
X11001134Y-14508460D02*
X10982086Y-14517984D01*
X10982086Y-14517984D02*
X10963039Y-14517984D01*
X10963039Y-14517984D02*
X10943991Y-14508460D01*
X10943991Y-14508460D02*
X10934467Y-14498936D01*
X10934467Y-14498936D02*
X10924944Y-14479888D01*
X10924944Y-14479888D02*
X10915420Y-14441793D01*
X10915420Y-14441793D02*
X10915420Y-14394174D01*
X10915420Y-14394174D02*
X10924944Y-14356079D01*
X10924944Y-14356079D02*
X10934467Y-14337031D01*
X10934467Y-14337031D02*
X10943991Y-14327508D01*
X10943991Y-14327508D02*
X10963039Y-14317984D01*
X11115420Y-14517984D02*
X11115420Y-14384650D01*
X11115420Y-14403698D02*
X11124944Y-14394174D01*
X11124944Y-14394174D02*
X11143991Y-14384650D01*
X11143991Y-14384650D02*
X11172563Y-14384650D01*
X11172563Y-14384650D02*
X11191610Y-14394174D01*
X11191610Y-14394174D02*
X11201134Y-14413222D01*
X11201134Y-14413222D02*
X11201134Y-14517984D01*
X11201134Y-14413222D02*
X11210658Y-14394174D01*
X11210658Y-14394174D02*
X11229705Y-14384650D01*
X11229705Y-14384650D02*
X11258277Y-14384650D01*
X11258277Y-14384650D02*
X11277324Y-14394174D01*
X11277324Y-14394174D02*
X11286848Y-14413222D01*
X11286848Y-14413222D02*
X11286848Y-14517984D01*
X11382086Y-14517984D02*
X11382086Y-14384650D01*
X11382086Y-14403698D02*
X11391610Y-14394174D01*
X11391610Y-14394174D02*
X11410658Y-14384650D01*
X11410658Y-14384650D02*
X11439229Y-14384650D01*
X11439229Y-14384650D02*
X11458277Y-14394174D01*
X11458277Y-14394174D02*
X11467801Y-14413222D01*
X11467801Y-14413222D02*
X11467801Y-14517984D01*
X11467801Y-14413222D02*
X11477324Y-14394174D01*
X11477324Y-14394174D02*
X11496372Y-14384650D01*
X11496372Y-14384650D02*
X11524943Y-14384650D01*
X11524943Y-14384650D02*
X11543991Y-14394174D01*
X11543991Y-14394174D02*
X11553515Y-14413222D01*
X11553515Y-14413222D02*
X11553515Y-14517984D01*
X11943991Y-14308460D02*
X11772563Y-14565603D01*
X12201134Y-14317984D02*
X12220182Y-14317984D01*
X12220182Y-14317984D02*
X12239229Y-14327508D01*
X12239229Y-14327508D02*
X12248753Y-14337031D01*
X12248753Y-14337031D02*
X12258277Y-14356079D01*
X12258277Y-14356079D02*
X12267801Y-14394174D01*
X12267801Y-14394174D02*
X12267801Y-14441793D01*
X12267801Y-14441793D02*
X12258277Y-14479888D01*
X12258277Y-14479888D02*
X12248753Y-14498936D01*
X12248753Y-14498936D02*
X12239229Y-14508460D01*
X12239229Y-14508460D02*
X12220182Y-14517984D01*
X12220182Y-14517984D02*
X12201134Y-14517984D01*
X12201134Y-14517984D02*
X12182086Y-14508460D01*
X12182086Y-14508460D02*
X12172563Y-14498936D01*
X12172563Y-14498936D02*
X12163039Y-14479888D01*
X12163039Y-14479888D02*
X12153515Y-14441793D01*
X12153515Y-14441793D02*
X12153515Y-14394174D01*
X12153515Y-14394174D02*
X12163039Y-14356079D01*
X12163039Y-14356079D02*
X12172563Y-14337031D01*
X12172563Y-14337031D02*
X12182086Y-14327508D01*
X12182086Y-14327508D02*
X12201134Y-14317984D01*
X12353515Y-14498936D02*
X12363039Y-14508460D01*
X12363039Y-14508460D02*
X12353515Y-14517984D01*
X12353515Y-14517984D02*
X12343991Y-14508460D01*
X12343991Y-14508460D02*
X12353515Y-14498936D01*
X12353515Y-14498936D02*
X12353515Y-14517984D01*
X12486848Y-14317984D02*
X12505896Y-14317984D01*
X12505896Y-14317984D02*
X12524944Y-14327508D01*
X12524944Y-14327508D02*
X12534467Y-14337031D01*
X12534467Y-14337031D02*
X12543991Y-14356079D01*
X12543991Y-14356079D02*
X12553515Y-14394174D01*
X12553515Y-14394174D02*
X12553515Y-14441793D01*
X12553515Y-14441793D02*
X12543991Y-14479888D01*
X12543991Y-14479888D02*
X12534467Y-14498936D01*
X12534467Y-14498936D02*
X12524944Y-14508460D01*
X12524944Y-14508460D02*
X12505896Y-14517984D01*
X12505896Y-14517984D02*
X12486848Y-14517984D01*
X12486848Y-14517984D02*
X12467801Y-14508460D01*
X12467801Y-14508460D02*
X12458277Y-14498936D01*
X12458277Y-14498936D02*
X12448753Y-14479888D01*
X12448753Y-14479888D02*
X12439229Y-14441793D01*
X12439229Y-14441793D02*
X12439229Y-14394174D01*
X12439229Y-14394174D02*
X12448753Y-14356079D01*
X12448753Y-14356079D02*
X12458277Y-14337031D01*
X12458277Y-14337031D02*
X12467801Y-14327508D01*
X12467801Y-14327508D02*
X12486848Y-14317984D01*
X12734467Y-14317984D02*
X12639229Y-14317984D01*
X12639229Y-14317984D02*
X12629706Y-14413222D01*
X12629706Y-14413222D02*
X12639229Y-14403698D01*
X12639229Y-14403698D02*
X12658277Y-14394174D01*
X12658277Y-14394174D02*
X12705896Y-14394174D01*
X12705896Y-14394174D02*
X12724944Y-14403698D01*
X12724944Y-14403698D02*
X12734467Y-14413222D01*
X12734467Y-14413222D02*
X12743991Y-14432269D01*
X12743991Y-14432269D02*
X12743991Y-14479888D01*
X12743991Y-14479888D02*
X12734467Y-14498936D01*
X12734467Y-14498936D02*
X12724944Y-14508460D01*
X12724944Y-14508460D02*
X12705896Y-14517984D01*
X12705896Y-14517984D02*
X12658277Y-14517984D01*
X12658277Y-14517984D02*
X12639229Y-14508460D01*
X12639229Y-14508460D02*
X12629706Y-14498936D01*
X12839229Y-14517984D02*
X12877325Y-14517984D01*
X12877325Y-14517984D02*
X12896372Y-14508460D01*
X12896372Y-14508460D02*
X12905896Y-14498936D01*
X12905896Y-14498936D02*
X12924944Y-14470365D01*
X12924944Y-14470365D02*
X12934467Y-14432269D01*
X12934467Y-14432269D02*
X12934467Y-14356079D01*
X12934467Y-14356079D02*
X12924944Y-14337031D01*
X12924944Y-14337031D02*
X12915420Y-14327508D01*
X12915420Y-14327508D02*
X12896372Y-14317984D01*
X12896372Y-14317984D02*
X12858277Y-14317984D01*
X12858277Y-14317984D02*
X12839229Y-14327508D01*
X12839229Y-14327508D02*
X12829706Y-14337031D01*
X12829706Y-14337031D02*
X12820182Y-14356079D01*
X12820182Y-14356079D02*
X12820182Y-14403698D01*
X12820182Y-14403698D02*
X12829706Y-14422746D01*
X12829706Y-14422746D02*
X12839229Y-14432269D01*
X12839229Y-14432269D02*
X12858277Y-14441793D01*
X12858277Y-14441793D02*
X12896372Y-14441793D01*
X12896372Y-14441793D02*
X12915420Y-14432269D01*
X12915420Y-14432269D02*
X12924944Y-14422746D01*
X12924944Y-14422746D02*
X12934467Y-14403698D01*
X13124944Y-14517984D02*
X13010658Y-14517984D01*
X13067801Y-14517984D02*
X13067801Y-14317984D01*
X13067801Y-14317984D02*
X13048753Y-14346555D01*
X13048753Y-14346555D02*
X13029706Y-14365603D01*
X13029706Y-14365603D02*
X13010658Y-14375127D01*
X13201134Y-14317984D02*
X13201134Y-14356079D01*
X13277325Y-14317984D02*
X13277325Y-14356079D01*
X13572563Y-14594174D02*
X13563039Y-14584650D01*
X13563039Y-14584650D02*
X13543991Y-14556079D01*
X13543991Y-14556079D02*
X13534468Y-14537031D01*
X13534468Y-14537031D02*
X13524944Y-14508460D01*
X13524944Y-14508460D02*
X13515420Y-14460841D01*
X13515420Y-14460841D02*
X13515420Y-14422746D01*
X13515420Y-14422746D02*
X13524944Y-14375127D01*
X13524944Y-14375127D02*
X13534468Y-14346555D01*
X13534468Y-14346555D02*
X13543991Y-14327508D01*
X13543991Y-14327508D02*
X13563039Y-14298936D01*
X13563039Y-14298936D02*
X13572563Y-14289412D01*
X13639229Y-14337031D02*
X13648753Y-14327508D01*
X13648753Y-14327508D02*
X13667801Y-14317984D01*
X13667801Y-14317984D02*
X13715420Y-14317984D01*
X13715420Y-14317984D02*
X13734468Y-14327508D01*
X13734468Y-14327508D02*
X13743991Y-14337031D01*
X13743991Y-14337031D02*
X13753515Y-14356079D01*
X13753515Y-14356079D02*
X13753515Y-14375127D01*
X13753515Y-14375127D02*
X13743991Y-14403698D01*
X13743991Y-14403698D02*
X13629706Y-14517984D01*
X13629706Y-14517984D02*
X13753515Y-14517984D01*
X13991610Y-14517984D02*
X13991610Y-14317984D01*
X14077325Y-14517984D02*
X14077325Y-14413222D01*
X14077325Y-14413222D02*
X14067801Y-14394174D01*
X14067801Y-14394174D02*
X14048753Y-14384650D01*
X14048753Y-14384650D02*
X14020182Y-14384650D01*
X14020182Y-14384650D02*
X14001134Y-14394174D01*
X14001134Y-14394174D02*
X13991610Y-14403698D01*
X14201134Y-14517984D02*
X14182087Y-14508460D01*
X14182087Y-14508460D02*
X14172563Y-14498936D01*
X14172563Y-14498936D02*
X14163039Y-14479888D01*
X14163039Y-14479888D02*
X14163039Y-14422746D01*
X14163039Y-14422746D02*
X14172563Y-14403698D01*
X14172563Y-14403698D02*
X14182087Y-14394174D01*
X14182087Y-14394174D02*
X14201134Y-14384650D01*
X14201134Y-14384650D02*
X14229706Y-14384650D01*
X14229706Y-14384650D02*
X14248753Y-14394174D01*
X14248753Y-14394174D02*
X14258277Y-14403698D01*
X14258277Y-14403698D02*
X14267801Y-14422746D01*
X14267801Y-14422746D02*
X14267801Y-14479888D01*
X14267801Y-14479888D02*
X14258277Y-14498936D01*
X14258277Y-14498936D02*
X14248753Y-14508460D01*
X14248753Y-14508460D02*
X14229706Y-14517984D01*
X14229706Y-14517984D02*
X14201134Y-14517984D01*
X14382087Y-14517984D02*
X14363039Y-14508460D01*
X14363039Y-14508460D02*
X14353515Y-14489412D01*
X14353515Y-14489412D02*
X14353515Y-14317984D01*
X14534468Y-14508460D02*
X14515420Y-14517984D01*
X14515420Y-14517984D02*
X14477325Y-14517984D01*
X14477325Y-14517984D02*
X14458277Y-14508460D01*
X14458277Y-14508460D02*
X14448753Y-14489412D01*
X14448753Y-14489412D02*
X14448753Y-14413222D01*
X14448753Y-14413222D02*
X14458277Y-14394174D01*
X14458277Y-14394174D02*
X14477325Y-14384650D01*
X14477325Y-14384650D02*
X14515420Y-14384650D01*
X14515420Y-14384650D02*
X14534468Y-14394174D01*
X14534468Y-14394174D02*
X14543991Y-14413222D01*
X14543991Y-14413222D02*
X14543991Y-14432269D01*
X14543991Y-14432269D02*
X14448753Y-14451317D01*
X14620182Y-14508460D02*
X14639230Y-14517984D01*
X14639230Y-14517984D02*
X14677325Y-14517984D01*
X14677325Y-14517984D02*
X14696372Y-14508460D01*
X14696372Y-14508460D02*
X14705896Y-14489412D01*
X14705896Y-14489412D02*
X14705896Y-14479888D01*
X14705896Y-14479888D02*
X14696372Y-14460841D01*
X14696372Y-14460841D02*
X14677325Y-14451317D01*
X14677325Y-14451317D02*
X14648753Y-14451317D01*
X14648753Y-14451317D02*
X14629706Y-14441793D01*
X14629706Y-14441793D02*
X14620182Y-14422746D01*
X14620182Y-14422746D02*
X14620182Y-14413222D01*
X14620182Y-14413222D02*
X14629706Y-14394174D01*
X14629706Y-14394174D02*
X14648753Y-14384650D01*
X14648753Y-14384650D02*
X14677325Y-14384650D01*
X14677325Y-14384650D02*
X14696372Y-14394174D01*
X14772563Y-14594174D02*
X14782087Y-14584650D01*
X14782087Y-14584650D02*
X14801134Y-14556079D01*
X14801134Y-14556079D02*
X14810658Y-14537031D01*
X14810658Y-14537031D02*
X14820182Y-14508460D01*
X14820182Y-14508460D02*
X14829706Y-14460841D01*
X14829706Y-14460841D02*
X14829706Y-14422746D01*
X14829706Y-14422746D02*
X14820182Y-14375127D01*
X14820182Y-14375127D02*
X14810658Y-14346555D01*
X14810658Y-14346555D02*
X14801134Y-14327508D01*
X14801134Y-14327508D02*
X14782087Y-14298936D01*
X14782087Y-14298936D02*
X14772563Y-14289412D01*
M02*
