M48
; DRILL file KiCad 10.0.6 date 2026-09-27T08:23:23
; FORMAT={-:-/ absolute / metric / decimal}
; #@! TF.CreationDate,2026-09-27T08:23:23-04:00
; #@! TF.GenerationSoftware,Kicad,Pcbnew,10.0.6
; #@! TF.FileFunction,Plated,1,2,PTH
FMAT,2
METRIC
; #@! TA.AperFunction,Plated,PTH,ViaDrill
T1C0.300
; #@! TA.AperFunction,Plated,PTH,ViaDrill
T2C0.400
; #@! TA.AperFunction,Plated,PTH,ComponentDrill
T3C0.750
; #@! TA.AperFunction,Plated,PTH,ComponentDrill
T4C0.800
; #@! TA.AperFunction,Plated,PTH,ComponentDrill
T5C0.900
; #@! TA.AperFunction,Plated,PTH,ComponentDrill
T6C1.000
; #@! TA.AperFunction,Plated,PTH,ComponentDrill
T7C1.500
%
G90
G05
T1
X102.032Y-102.032
X102.032Y-105.969
X102.032Y-110.033
X102.032Y-113.97
X102.032Y-118.034
X105.207Y-118.415
X105.969Y-113.97
X106.858Y-108.128
X108.255Y-104.064
X114.859Y-110.668
X118.034Y-110.033
X118.034Y-118.796
X118.288Y-106.096
X118.542Y-113.081
X119.05Y-106.985
X121.209Y-108.255
X122.352Y-112.192
X122.352Y-117.018
X122.733Y-106.858
X122.733Y-118.796
X123.114Y-109.779
X123.495Y-105.969
X124.13Y-117.018
X124.638Y-113.335
X128.067Y-109.906
X128.829Y-107.747
X129.972Y-106.223
X133.655Y-111.557
X133.782Y-114.351
X134.036Y-106.223
X134.798Y-111.049
X137.973Y-106.223
X137.973Y-113.97
X139.116Y-118.161
X141.021Y-118.923
X141.275Y-113.208
X141.402Y-106.477
X145.974Y-106.223
X146.355Y-110.033
X149.149Y-107.112
X150.038Y-110.033
X150.419Y-105.461
X153.975Y-105.969
X153.975Y-118.415
X154.483Y-109.525
X158.039Y-105.969
X158.547Y-110.541
X161.468Y-105.969
X161.468Y-112.954
X163.627Y-107.112
X165.532Y-110.541
X166.04Y-118.034
X166.294Y-105.715
X166.802Y-102.032
X169.977Y-102.032
X169.977Y-105.969
X169.977Y-118.034
X170.866Y-110.287
X170.993Y-113.97
X174.041Y-102.032
X174.041Y-105.969
X174.041Y-110.033
X174.041Y-113.97
X174.041Y-118.034
T2
X127.178Y-116.002
X128.194Y-116.383
X142.926Y-116.256
X154.737Y-114.097
X162.611Y-117.653
T3
X106.79Y-102.75
X106.79Y-104.75
X106.79Y-110.0
X106.79Y-112.0
X106.79Y-117.25
X106.79Y-119.25
X169.14Y-108.0
X169.14Y-110.0
X169.14Y-112.0
X169.14Y-114.0
T4
X113.49Y-103.5
X113.49Y-106.6
X113.49Y-109.7
X113.49Y-112.8
X113.49Y-115.9
X113.49Y-119.0
X121.11Y-103.5
X121.11Y-106.6
X121.11Y-109.7
X121.11Y-112.8
X121.11Y-115.9
X121.11Y-119.0
X141.2Y-115.0
X143.7Y-115.0
T5
X131.5Y-119.6
X133.5Y-119.6
X135.5Y-119.6
T6
X110.58Y-103.88
X110.58Y-106.42
X110.58Y-108.96
X110.58Y-111.5
X110.58Y-114.04
X110.58Y-116.58
X110.58Y-119.12
X125.82Y-103.88
X125.82Y-106.42
X125.82Y-108.96
X125.82Y-111.5
X125.82Y-114.04
X125.82Y-116.58
X125.82Y-119.12
X129.52Y-109.34
X129.6Y-114.0
X132.06Y-109.34
X132.14Y-114.0
X134.6Y-109.34
X138.32Y-109.34
X140.86Y-109.34
X143.4Y-109.34
X147.34Y-101.983
X147.34Y-120.017
X149.88Y-101.983
X149.88Y-120.017
X152.42Y-101.983
X152.42Y-120.017
X154.96Y-101.983
X154.96Y-120.017
X157.5Y-101.983
X157.5Y-120.017
X160.04Y-101.983
X160.04Y-120.017
X162.58Y-101.983
X162.58Y-120.017
X165.12Y-101.983
X165.12Y-120.017
T7
X129.4Y-119.6
X137.6Y-119.6
M30
