ISO-10303-21;
HEADER;
/* Generated by software containing ST-Developer
 * from STEP Tools, Inc. (www.steptools.com) 
 */
/* OPTION: using custom renumber hook */

FILE_DESCRIPTION(
/* description */ ('STEP AP242 Edition 2',
'CAx-IF Rec.Pracs.---Representation and Presentation of Product Manufa
cturing Information (PMI)---4.0---2014-10-13',
'CAx-IF Rec.Pracs.---3D Tessellated Geometry---0.4---2014-09-14','2;1',
'CAx-IF Rec.Pracs.---User Defined Attributes---1.5---2016-08-15'),
/* implementation_level */ '2;1');

FILE_NAME(
/* name */ 'iWand - Enclosure Rear',
/* time_stamp */ '2026-10-10T11:31:50Z',
/* author */ (''),
/* organization */ (''),
/* preprocessor_version */ 'ST-DEVELOPER v20',
/* originating_system */ 'ONSHAPE BY PTC INC, 1.222',
/* authorisation */ '  ');

FILE_SCHEMA (('AP242_MANAGED_MODEL_BASED_3D_ENGINEERING_MIM_LF { 1 0 10303 442 3 1 4 }'));
ENDSEC;

DATA;
#10=SHAPE_REPRESENTATION_RELATIONSHIP('','',#353,#11);
#11=ADVANCED_BREP_SHAPE_REPRESENTATION('',(#351),#939);
#12=CONICAL_SURFACE('',#395,0.01425,0.0523598775598298);
#13=CONICAL_SURFACE('',#397,0.015,0.0523598775598298);
#14=CYLINDRICAL_SURFACE('',#381,0.0015);
#15=CYLINDRICAL_SURFACE('',#382,0.0015);
#16=CYLINDRICAL_SURFACE('',#383,0.0015);
#17=CYLINDRICAL_SURFACE('',#384,0.0015);
#18=CYLINDRICAL_SURFACE('',#385,0.0015);
#19=CYLINDRICAL_SURFACE('',#386,0.0015);
#20=CYLINDRICAL_SURFACE('',#387,0.0015);
#21=CYLINDRICAL_SURFACE('',#388,0.0015);
#22=CYLINDRICAL_SURFACE('',#389,0.0015);
#23=CYLINDRICAL_SURFACE('',#390,0.0015);
#24=CYLINDRICAL_SURFACE('',#391,0.0015);
#25=CYLINDRICAL_SURFACE('',#392,0.0015);
#26=B_SPLINE_SURFACE_WITH_KNOTS('',3,1,((#857,#858),(#859,#860),(#861,#862),
(#863,#864),(#865,#866)),.SURF_OF_LINEAR_EXTRUSION.,.F.,.F.,.F.,(4,1,4),
(2,2),(-0.0541647395671312,-0.0270823754605242,-1.13539171919689E-8),(0.,
1.),.UNSPECIFIED.);
#27=CIRCLE('',#356,0.0015);
#28=CIRCLE('',#357,0.0015);
#29=CIRCLE('',#358,0.0015);
#30=CIRCLE('',#359,0.0015);
#31=CIRCLE('',#360,0.0015);
#32=CIRCLE('',#361,0.0015);
#33=CIRCLE('',#362,0.0015);
#34=CIRCLE('',#363,0.0015);
#35=CIRCLE('',#364,0.0015);
#36=CIRCLE('',#365,0.0015);
#37=CIRCLE('',#366,0.0015);
#38=CIRCLE('',#367,0.0015);
#39=CIRCLE('',#369,0.0015);
#40=CIRCLE('',#370,0.0015);
#41=CIRCLE('',#371,0.0015);
#42=CIRCLE('',#372,0.0015);
#43=CIRCLE('',#373,0.0015);
#44=CIRCLE('',#374,0.0015);
#45=CIRCLE('',#375,0.0015);
#46=CIRCLE('',#376,0.0015);
#47=CIRCLE('',#377,0.0015);
#48=CIRCLE('',#378,0.0015);
#49=CIRCLE('',#379,0.0015);
#50=CIRCLE('',#380,0.0015);
#51=CIRCLE('',#394,0.0139879611035848);
#52=CIRCLE('',#396,0.01425);
#53=CIRCLE('',#398,0.015);
#54=PLANE('',#355);
#55=PLANE('',#368);
#56=PLANE('',#393);
#57=PLANE('',#399);
#58=ORIENTED_EDGE('',*,*,#122,.T.);
#59=ORIENTED_EDGE('',*,*,#123,.F.);
#60=ORIENTED_EDGE('',*,*,#124,.T.);
#61=ORIENTED_EDGE('',*,*,#125,.T.);
#62=ORIENTED_EDGE('',*,*,#126,.T.);
#63=ORIENTED_EDGE('',*,*,#127,.T.);
#64=ORIENTED_EDGE('',*,*,#128,.T.);
#65=ORIENTED_EDGE('',*,*,#129,.T.);
#66=ORIENTED_EDGE('',*,*,#130,.T.);
#67=ORIENTED_EDGE('',*,*,#131,.T.);
#68=ORIENTED_EDGE('',*,*,#132,.T.);
#69=ORIENTED_EDGE('',*,*,#133,.T.);
#70=ORIENTED_EDGE('',*,*,#134,.T.);
#71=ORIENTED_EDGE('',*,*,#135,.T.);
#72=ORIENTED_EDGE('',*,*,#136,.T.);
#73=ORIENTED_EDGE('',*,*,#136,.F.);
#74=ORIENTED_EDGE('',*,*,#137,.F.);
#75=ORIENTED_EDGE('',*,*,#138,.F.);
#76=ORIENTED_EDGE('',*,*,#137,.T.);
#77=ORIENTED_EDGE('',*,*,#139,.T.);
#78=ORIENTED_EDGE('',*,*,#140,.T.);
#79=ORIENTED_EDGE('',*,*,#141,.T.);
#80=ORIENTED_EDGE('',*,*,#142,.T.);
#81=ORIENTED_EDGE('',*,*,#143,.T.);
#82=ORIENTED_EDGE('',*,*,#144,.T.);
#83=ORIENTED_EDGE('',*,*,#145,.T.);
#84=ORIENTED_EDGE('',*,*,#146,.T.);
#85=ORIENTED_EDGE('',*,*,#147,.T.);
#86=ORIENTED_EDGE('',*,*,#148,.T.);
#87=ORIENTED_EDGE('',*,*,#149,.T.);
#88=ORIENTED_EDGE('',*,*,#150,.T.);
#89=ORIENTED_EDGE('',*,*,#122,.F.);
#90=ORIENTED_EDGE('',*,*,#150,.F.);
#91=ORIENTED_EDGE('',*,*,#135,.F.);
#92=ORIENTED_EDGE('',*,*,#149,.F.);
#93=ORIENTED_EDGE('',*,*,#134,.F.);
#94=ORIENTED_EDGE('',*,*,#148,.F.);
#95=ORIENTED_EDGE('',*,*,#133,.F.);
#96=ORIENTED_EDGE('',*,*,#147,.F.);
#97=ORIENTED_EDGE('',*,*,#132,.F.);
#98=ORIENTED_EDGE('',*,*,#146,.F.);
#99=ORIENTED_EDGE('',*,*,#131,.F.);
#100=ORIENTED_EDGE('',*,*,#145,.F.);
#101=ORIENTED_EDGE('',*,*,#130,.F.);
#102=ORIENTED_EDGE('',*,*,#144,.F.);
#103=ORIENTED_EDGE('',*,*,#129,.F.);
#104=ORIENTED_EDGE('',*,*,#143,.F.);
#105=ORIENTED_EDGE('',*,*,#128,.F.);
#106=ORIENTED_EDGE('',*,*,#142,.F.);
#107=ORIENTED_EDGE('',*,*,#127,.F.);
#108=ORIENTED_EDGE('',*,*,#141,.F.);
#109=ORIENTED_EDGE('',*,*,#126,.F.);
#110=ORIENTED_EDGE('',*,*,#140,.F.);
#111=ORIENTED_EDGE('',*,*,#125,.F.);
#112=ORIENTED_EDGE('',*,*,#139,.F.);
#113=ORIENTED_EDGE('',*,*,#124,.F.);
#114=ORIENTED_EDGE('',*,*,#151,.T.);
#115=ORIENTED_EDGE('',*,*,#123,.T.);
#116=ORIENTED_EDGE('',*,*,#151,.F.);
#117=ORIENTED_EDGE('',*,*,#152,.T.);
#118=ORIENTED_EDGE('',*,*,#138,.T.);
#119=ORIENTED_EDGE('',*,*,#153,.F.);
#120=ORIENTED_EDGE('',*,*,#152,.F.);
#121=ORIENTED_EDGE('',*,*,#153,.T.);
#122=EDGE_CURVE('',#154,#154,#186,.T.);
#123=EDGE_CURVE('',#155,#155,#187,.T.);
#124=EDGE_CURVE('',#156,#156,#27,.T.);
#125=EDGE_CURVE('',#157,#157,#28,.T.);
#126=EDGE_CURVE('',#158,#158,#29,.T.);
#127=EDGE_CURVE('',#159,#159,#30,.T.);
#128=EDGE_CURVE('',#160,#160,#31,.T.);
#129=EDGE_CURVE('',#161,#161,#32,.T.);
#130=EDGE_CURVE('',#162,#162,#33,.T.);
#131=EDGE_CURVE('',#163,#163,#34,.T.);
#132=EDGE_CURVE('',#164,#164,#35,.T.);
#133=EDGE_CURVE('',#165,#165,#36,.T.);
#134=EDGE_CURVE('',#166,#166,#37,.T.);
#135=EDGE_CURVE('',#167,#167,#38,.T.);
#136=EDGE_CURVE('',#168,#168,#188,.T.);
#137=EDGE_CURVE('',#169,#169,#189,.T.);
#138=EDGE_CURVE('',#170,#170,#190,.T.);
#139=EDGE_CURVE('',#171,#171,#39,.F.);
#140=EDGE_CURVE('',#172,#172,#40,.F.);
#141=EDGE_CURVE('',#173,#173,#41,.F.);
#142=EDGE_CURVE('',#174,#174,#42,.F.);
#143=EDGE_CURVE('',#175,#175,#43,.F.);
#144=EDGE_CURVE('',#176,#176,#44,.F.);
#145=EDGE_CURVE('',#177,#177,#45,.F.);
#146=EDGE_CURVE('',#178,#178,#46,.F.);
#147=EDGE_CURVE('',#179,#179,#47,.F.);
#148=EDGE_CURVE('',#180,#180,#48,.F.);
#149=EDGE_CURVE('',#181,#181,#49,.F.);
#150=EDGE_CURVE('',#182,#182,#50,.F.);
#151=EDGE_CURVE('',#183,#183,#51,.T.);
#152=EDGE_CURVE('',#184,#184,#52,.T.);
#153=EDGE_CURVE('',#185,#185,#53,.T.);
#154=VERTEX_POINT('',#626);
#155=VERTEX_POINT('',#652);
#156=VERTEX_POINT('',#655);
#157=VERTEX_POINT('',#657);
#158=VERTEX_POINT('',#659);
#159=VERTEX_POINT('',#661);
#160=VERTEX_POINT('',#663);
#161=VERTEX_POINT('',#665);
#162=VERTEX_POINT('',#667);
#163=VERTEX_POINT('',#669);
#164=VERTEX_POINT('',#671);
#165=VERTEX_POINT('',#673);
#166=VERTEX_POINT('',#675);
#167=VERTEX_POINT('',#677);
#168=VERTEX_POINT('',#700);
#169=VERTEX_POINT('',#856);
#170=VERTEX_POINT('',#890);
#171=VERTEX_POINT('',#893);
#172=VERTEX_POINT('',#895);
#173=VERTEX_POINT('',#897);
#174=VERTEX_POINT('',#899);
#175=VERTEX_POINT('',#901);
#176=VERTEX_POINT('',#903);
#177=VERTEX_POINT('',#905);
#178=VERTEX_POINT('',#907);
#179=VERTEX_POINT('',#909);
#180=VERTEX_POINT('',#911);
#181=VERTEX_POINT('',#913);
#182=VERTEX_POINT('',#915);
#183=VERTEX_POINT('',#930);
#184=VERTEX_POINT('',#933);
#185=VERTEX_POINT('',#936);
#186=B_SPLINE_CURVE_WITH_KNOTS('',3,(#604,#605,#606,#607,#608,#609,#610,
#611,#612,#613,#614,#615,#616,#617,#618,#619,#620,#621,#622,#623,#624,#625),
 .UNSPECIFIED.,.T.,.F.,(1,1,1,1,1,1,1,1,1,1,1,1,1,1,1,1,1,1,1,1,1,1,1,1,
1,1),(-0.00859636382757885,-0.00429818191378942,-0.00214909095689471,7.67814557604644E-19,
0.00429818191378943,0.00859636382757885,0.0128945457413683,0.0171927276551577,
0.0214909095689471,0.0257890914827366,0.030087273396526,0.0322363643534207,
0.0343854553103154,0.0386836372241048,0.0429818191378943,0.0472800010516837,
0.0515781829654731,0.0558763648792625,0.0580254558361573,0.060174546793052,
0.0644727287068414,0.0666218196637361,0.0687709106206308,0.0730690925344202,
0.0773672744482097,0.0816654563619991),.UNSPECIFIED.);
#187=B_SPLINE_CURVE_WITH_KNOTS('',3,(#627,#628,#629,#630,#631,#632,#633,
#634,#635,#636,#637,#638,#639,#640,#641,#642,#643,#644,#645,#646,#647,#648,
#649,#650,#651),.UNSPECIFIED.,.T.,.F.,(1,1,1,1,1,1,1,1,1,1,1,1,1,1,1,1,
1,1,1,1,1,1,1,1,1,1,1,1,1),(-0.0138244134321663,-0.011059530745733,-0.00552976537286652,
2.16840434497101E-19,0.00276488268643326,0.00552976537286651,0.011059530745733,
0.0165892961185995,0.0221190614914661,0.0276488268643326,0.0304137095507658,
0.0331785922371991,0.0387083576100656,0.0442381229829321,0.0497678883557986,
0.0525327710422319,0.0552976537286651,0.0580625364150984,0.0608274191015316,
0.0663571844743982,0.0691220671608314,0.0718869498472647,0.0746518325336979,
0.0774167152201312,0.0829464805929977,0.0884762459658642,0.0912411286522975,
0.0940060113387307,0.0995357767115972),.UNSPECIFIED.);
#188=B_SPLINE_CURVE_WITH_KNOTS('',3,(#678,#679,#680,#681,#682,#683,#684,
#685,#686,#687,#688,#689,#690,#691,#692,#693,#694,#695,#696,#697,#698,#699),
 .UNSPECIFIED.,.T.,.F.,(1,1,1,1,1,1,1,1,1,1,1,1,1,1,1,1,1,1,1,1,1,1,1,1,
1,1),(-0.00863536061796109,-0.00431768030898054,-0.00215884015449026,6.20791224422816E-19,
0.00431768030898055,0.00863536061796109,0.0129530409269416,0.0172707212359222,
0.0215884015449027,0.023747241699393,0.0259060818538833,0.0302237621628638,
0.0323826023173541,0.0345414424718444,0.0388591227808249,0.0431768030898055,
0.047494483398786,0.0518121637077665,0.0561298440167471,0.0604475243257276,
0.0647652046347082,0.0669240447891985,0.0690828849436887,0.0734005652526693,
0.0777182455616498,0.0820359258706304),.UNSPECIFIED.);
#189=B_SPLINE_CURVE_WITH_KNOTS('',3,(#824,#825,#826,#827,#828,#829,#830,
#831,#832,#833,#834,#835,#836,#837,#838,#839,#840,#841,#842,#843,#844,#845,
#846,#847,#848,#849,#850,#851,#852,#853,#854,#855),.UNSPECIFIED.,.T.,.F.,
(1,1,1,1,1,1,1,1,1,1,1,1,1,1,1,1,1,1,1,1,1,1,1,1,1,1,1,1,1,1,1,1,1,1,1,
1),(0.0437849043130906,0.0471511970665742,0.0505174898200578,0.0538837825735414,
0.057250075327025,0.0606163680805087,0.0639826608339923,0.0673489535874759,
0.0707152463409595,0.0740815390944431,0.0808141246014104,0.084180417354894,
0.0875467101083776,0.0909130028618612,0.0942792956153448,0.0976455883688284,
0.101011881122312,0.107744466629279,0.111110759382763,0.114477052136247,
0.121209637643214,0.124575930396697,0.127942223150181,0.131308515903665,
0.134674808657148,0.138041101410632,0.141407394164115,0.144773686917599,
0.148139979671083,0.151506272424566,0.15487256517805,0.158238857931534,
0.161605150685017,0.164971443438501,0.168337736191984,0.171704028945468),
 .UNSPECIFIED.);
#190=B_SPLINE_CURVE_WITH_KNOTS('',3,(#867,#868,#869,#870,#871,#872,#873,
#874,#875,#876,#877,#878,#879,#880,#881,#882,#883,#884,#885,#886,#887,#888,
#889),.UNSPECIFIED.,.T.,.F.,(1,1,1,1,1,1,1,1,1,1,1,1,1,1,1,1,1,1,1,1,1,
1,1,1,1,1,1),(-0.0118249766142608,-0.0059124883071304,-0.0029562441535652,
2.52875656162615E-18,0.0029562441535652,0.0059124883071304,0.0088687324606956,
0.0118249766142608,0.014781220767826,0.0177374649213912,0.0236499532285216,
0.029562441535652,0.0354749298427824,0.0413874181499128,0.0472999064570432,
0.0532123947641736,0.059124883071304,0.0650373713784344,0.0709498596855648,
0.0768623479926952,0.0827748362998256,0.088687324606956,0.0916435687605212,
0.0945998129140864,0.0975560570676516,0.100512301221217,0.103468545374782),
 .UNSPECIFIED.);
#191=EDGE_LOOP('',(#58));
#192=EDGE_LOOP('',(#59));
#193=EDGE_LOOP('',(#60));
#194=EDGE_LOOP('',(#61));
#195=EDGE_LOOP('',(#62));
#196=EDGE_LOOP('',(#63));
#197=EDGE_LOOP('',(#64));
#198=EDGE_LOOP('',(#65));
#199=EDGE_LOOP('',(#66));
#200=EDGE_LOOP('',(#67));
#201=EDGE_LOOP('',(#68));
#202=EDGE_LOOP('',(#69));
#203=EDGE_LOOP('',(#70));
#204=EDGE_LOOP('',(#71));
#205=EDGE_LOOP('',(#72));
#206=EDGE_LOOP('',(#73));
#207=EDGE_LOOP('',(#74));
#208=EDGE_LOOP('',(#75));
#209=EDGE_LOOP('',(#76));
#210=EDGE_LOOP('',(#77));
#211=EDGE_LOOP('',(#78));
#212=EDGE_LOOP('',(#79));
#213=EDGE_LOOP('',(#80));
#214=EDGE_LOOP('',(#81));
#215=EDGE_LOOP('',(#82));
#216=EDGE_LOOP('',(#83));
#217=EDGE_LOOP('',(#84));
#218=EDGE_LOOP('',(#85));
#219=EDGE_LOOP('',(#86));
#220=EDGE_LOOP('',(#87));
#221=EDGE_LOOP('',(#88));
#222=EDGE_LOOP('',(#89));
#223=EDGE_LOOP('',(#90));
#224=EDGE_LOOP('',(#91));
#225=EDGE_LOOP('',(#92));
#226=EDGE_LOOP('',(#93));
#227=EDGE_LOOP('',(#94));
#228=EDGE_LOOP('',(#95));
#229=EDGE_LOOP('',(#96));
#230=EDGE_LOOP('',(#97));
#231=EDGE_LOOP('',(#98));
#232=EDGE_LOOP('',(#99));
#233=EDGE_LOOP('',(#100));
#234=EDGE_LOOP('',(#101));
#235=EDGE_LOOP('',(#102));
#236=EDGE_LOOP('',(#103));
#237=EDGE_LOOP('',(#104));
#238=EDGE_LOOP('',(#105));
#239=EDGE_LOOP('',(#106));
#240=EDGE_LOOP('',(#107));
#241=EDGE_LOOP('',(#108));
#242=EDGE_LOOP('',(#109));
#243=EDGE_LOOP('',(#110));
#244=EDGE_LOOP('',(#111));
#245=EDGE_LOOP('',(#112));
#246=EDGE_LOOP('',(#113));
#247=EDGE_LOOP('',(#114));
#248=EDGE_LOOP('',(#115));
#249=EDGE_LOOP('',(#116));
#250=EDGE_LOOP('',(#117));
#251=EDGE_LOOP('',(#118));
#252=EDGE_LOOP('',(#119));
#253=EDGE_LOOP('',(#120));
#254=EDGE_LOOP('',(#121));
#255=FACE_BOUND('',#191,.T.);
#256=FACE_BOUND('',#192,.T.);
#257=FACE_BOUND('',#193,.T.);
#258=FACE_BOUND('',#194,.T.);
#259=FACE_BOUND('',#195,.T.);
#260=FACE_BOUND('',#196,.T.);
#261=FACE_BOUND('',#197,.T.);
#262=FACE_BOUND('',#198,.T.);
#263=FACE_BOUND('',#199,.T.);
#264=FACE_BOUND('',#200,.T.);
#265=FACE_BOUND('',#201,.T.);
#266=FACE_BOUND('',#202,.T.);
#267=FACE_BOUND('',#203,.T.);
#268=FACE_BOUND('',#204,.T.);
#269=FACE_BOUND('',#205,.T.);
#270=FACE_BOUND('',#206,.T.);
#271=FACE_BOUND('',#207,.T.);
#272=FACE_BOUND('',#208,.T.);
#273=FACE_BOUND('',#209,.T.);
#274=FACE_BOUND('',#210,.T.);
#275=FACE_BOUND('',#211,.T.);
#276=FACE_BOUND('',#212,.T.);
#277=FACE_BOUND('',#213,.T.);
#278=FACE_BOUND('',#214,.T.);
#279=FACE_BOUND('',#215,.T.);
#280=FACE_BOUND('',#216,.T.);
#281=FACE_BOUND('',#217,.T.);
#282=FACE_BOUND('',#218,.T.);
#283=FACE_BOUND('',#219,.T.);
#284=FACE_BOUND('',#220,.T.);
#285=FACE_BOUND('',#221,.T.);
#286=FACE_BOUND('',#222,.T.);
#287=FACE_BOUND('',#223,.T.);
#288=FACE_BOUND('',#224,.T.);
#289=FACE_BOUND('',#225,.T.);
#290=FACE_BOUND('',#226,.T.);
#291=FACE_BOUND('',#227,.T.);
#292=FACE_BOUND('',#228,.T.);
#293=FACE_BOUND('',#229,.T.);
#294=FACE_BOUND('',#230,.T.);
#295=FACE_BOUND('',#231,.T.);
#296=FACE_BOUND('',#232,.T.);
#297=FACE_BOUND('',#233,.T.);
#298=FACE_BOUND('',#234,.T.);
#299=FACE_BOUND('',#235,.T.);
#300=FACE_BOUND('',#236,.T.);
#301=FACE_BOUND('',#237,.T.);
#302=FACE_BOUND('',#238,.T.);
#303=FACE_BOUND('',#239,.T.);
#304=FACE_BOUND('',#240,.T.);
#305=FACE_BOUND('',#241,.T.);
#306=FACE_BOUND('',#242,.T.);
#307=FACE_BOUND('',#243,.T.);
#308=FACE_BOUND('',#244,.T.);
#309=FACE_BOUND('',#245,.T.);
#310=FACE_BOUND('',#246,.T.);
#311=FACE_BOUND('',#247,.T.);
#312=FACE_BOUND('',#248,.T.);
#313=FACE_BOUND('',#249,.T.);
#314=FACE_BOUND('',#250,.T.);
#315=FACE_BOUND('',#251,.T.);
#316=FACE_BOUND('',#252,.T.);
#317=FACE_BOUND('',#253,.T.);
#318=FACE_BOUND('',#254,.T.);
#319=(
BOUNDED_SURFACE()
B_SPLINE_SURFACE(3,2,((#493,#494,#495),(#496,#497,#498),(#499,#500,#501),
(#502,#503,#504),(#505,#506,#507),(#508,#509,#510),(#511,#512,#513),(#514,
#515,#516),(#517,#518,#519),(#520,#521,#522),(#523,#524,#525),(#526,#527,
#528),(#529,#530,#531),(#532,#533,#534),(#535,#536,#537),(#538,#539,#540),
(#541,#542,#543),(#544,#545,#546),(#547,#548,#549),(#550,#551,#552),(#553,
#554,#555),(#556,#557,#558),(#559,#560,#561),(#562,#563,#564),(#565,#566,
#567),(#568,#569,#570),(#571,#572,#573),(#574,#575,#576),(#577,#578,#579),
(#580,#581,#582),(#583,#584,#585),(#586,#587,#588),(#589,#590,#591),(#592,
#593,#594),(#595,#596,#597),(#598,#599,#600),(#601,#602,#603)),
 .UNSPECIFIED.,.T.,.F.,.F.)
B_SPLINE_SURFACE_WITH_KNOTS((1,3,1,1,1,1,1,1,1,1,1,1,1,1,1,1,1,1,1,1,1,
1,1,1,1,1,1,1,1,1,1,1,1,1,1,3,1),(3,3),(-0.0021419958970703,0.,0.00107099794853515,
0.00214199589707031,0.00428399179414062,0.00642598769121093,0.00856798358828124,
0.0107099794853515,0.0128519753824219,0.0149939712794922,0.0171359671765625,
0.0192779630736328,0.0214199589707031,0.0235619548677734,0.0257039507648437,
0.0267749487133789,0.027845946661914,0.0299879425589843,0.0321299384560546,
0.034271934353125,0.0364139302501953,0.0385559261472656,0.0406979220443359,
0.0428399179414062,0.0449819138384765,0.0471239097355468,0.0492659056326171,
0.0514079015296874,0.0535498974267577,0.0556918933238281,0.0578338892208984,
0.0599758851179687,0.062117881015039,0.0642598769121093,0.0664018728091796,
0.0685438687062499,0.0696148666547851),(0.429215066042217,1.),
 .UNSPECIFIED.)
GEOMETRIC_REPRESENTATION_ITEM()
RATIONAL_B_SPLINE_SURFACE(((0.855383843576958,0.831534156342012,1.),(0.855370365745955,
0.831518455785264,1.),(0.855355953408752,0.831501666606198,1.),(0.85539440515019,
0.831546459700011,1.),(0.855530410967369,0.831704895211646,1.),(0.855728597511033,
0.831935766119197,1.),(0.855875344791416,0.832106714545747,1.),(0.855930352309493,
0.832170793748027,1.),(0.855879150641108,0.832111148045399,1.),(0.855809375343854,
0.832029865603595,1.),(0.855851214196274,0.832078604401147,1.),(0.856050006183641,
0.832310180600463,1.),(0.856327045555221,0.832632908521148,1.),(0.856624808815186,
0.832979778055238,1.),(0.856813873444803,0.833200022688493,1.),(0.856907597619579,
0.833309203588923,1.),(0.856947053233908,0.833355166111501,1.),(0.856917768227851,
0.833321051505126,1.),(0.856825486464053,0.833213550894012,1.),(0.85674872831605,
0.833124134009475,1.),(0.856753840491314,0.833130089270216,1.),(0.856833749377695,
0.833223176503986,1.),(0.856924152688867,0.833328488873385,1.),(0.856952527303057,
0.833361542948642,1.),(0.856838984778909,0.833229275312752,1.),(0.85659951657681,
0.832950314692488,1.),(0.85630366094573,0.832605667388041,1.),(0.856028706802967,
0.832285368586209,1.),(0.855842939494626,0.832068965059122,1.),(0.855811818587256,
0.832032711779784,1.),(0.855885642326266,0.832118710320902,1.),(0.855930267207681,
0.832170694611464,1.),(0.855866376519089,0.832096267251329,1.),(0.855714041078552,
0.831918809081067,1.),(0.855514883862186,0.831686807420219,1.),(0.855410799238963,
0.831565557455508,1.),(0.855383843576958,0.831534156342012,1.)))
REPRESENTATION_ITEM('')
SURFACE()
);
#320=(
BOUNDED_SURFACE()
B_SPLINE_SURFACE(3,2,((#701,#702,#703),(#704,#705,#706),(#707,#708,#709),
(#710,#711,#712),(#713,#714,#715),(#716,#717,#718),(#719,#720,#721),(#722,
#723,#724),(#725,#726,#727),(#728,#729,#730),(#731,#732,#733),(#734,#735,
#736),(#737,#738,#739),(#740,#741,#742),(#743,#744,#745),(#746,#747,#748),
(#749,#750,#751),(#752,#753,#754),(#755,#756,#757),(#758,#759,#760),(#761,
#762,#763),(#764,#765,#766),(#767,#768,#769),(#770,#771,#772),(#773,#774,
#775),(#776,#777,#778),(#779,#780,#781),(#782,#783,#784),(#785,#786,#787),
(#788,#789,#790),(#791,#792,#793),(#794,#795,#796),(#797,#798,#799),(#800,
#801,#802),(#803,#804,#805),(#806,#807,#808),(#809,#810,#811),(#812,#813,
#814),(#815,#816,#817),(#818,#819,#820),(#821,#822,#823)),.UNSPECIFIED.,
 .T.,.F.,.F.)
B_SPLINE_SURFACE_WITH_KNOTS((1,3,1,1,1,1,1,1,1,1,1,1,1,1,1,1,1,1,1,1,1,
1,1,1,1,1,1,1,1,1,1,1,1,1,1,1,1,1,1,3,1),(3,3),(-0.0021419958970703,0.,
0.00107099794853515,0.00214199589707031,0.00321299384560546,0.00428399179414062,
0.00642598769121093,0.00856798358828124,0.00963898153681639,0.0107099794853515,
0.0117809774338867,0.0128519753824219,0.0149939712794922,0.0171359671765625,
0.0192779630736328,0.0214199589707031,0.0235619548677734,0.0257039507648437,
0.0267749487133789,0.027845946661914,0.0289169446104492,0.0299879425589843,
0.0321299384560546,0.034271934353125,0.0364139302501953,0.0385559261472656,
0.0406979220443359,0.0428399179414062,0.0449819138384765,0.0471239097355468,
0.0492659056326171,0.0514079015296874,0.0535498974267577,0.0556918933238281,
0.0578338892208984,0.0599758851179687,0.062117881015039,0.0642598769121093,
0.0664018728091796,0.0685438687062499,0.0696148666547851),(0.,1.),
 .UNSPECIFIED.)
GEOMETRIC_REPRESENTATION_ITEM()
RATIONAL_B_SPLINE_SURFACE(((1.,0.704852329423172,1.),(1.,0.704824808023225,
1.),(1.,0.704795339927653,1.),(1.,0.704854526369348,1.),(1.,0.704983939370945,
1.),(1.,0.705219453746704,1.),(1.,0.705555584857941,1.),(1.,0.705806001461933,
1.),(1.,0.705910772813597,1.),(1.,0.705940441279135,1.),(1.,0.705916906532612,
1.),(1.,0.705838629830131,1.),(1.,0.705721084157232,1.),(1.,0.705806111224281,
1.),(1.,0.706211924723392,1.),(1.,0.706777304785645,1.),(1.,0.707385035435564,
1.),(1.,0.707770842161565,1.),(1.,0.707962235168163,1.),(1.,0.708022290730064,
1.),(1.,0.708019784721288,1.),(1.,0.707950954035671,1.),(1.,0.707794780457071,
1.),(1.,0.707637875287823,1.),(1.,0.707648375510743,1.),(1.,0.707811443975138,
1.),(1.,0.707995953234554,1.),(1.,0.708053861809524,1.),(1.,0.707822132778851,
1.),(1.,0.707333401110871,1.),(1.,0.706729588238285,1.),(1.,0.706168433264505,
1.),(1.,0.705789300044986,1.),(1.,0.705725785288285,1.),(1.,0.705876452354044,
1.),(1.,0.705967527773345,1.),(1.,0.705837131800565,1.),(1.,0.705526234367879,
1.),(1.,0.70511975664014,1.),(1.,0.704907372223065,1.),(1.,0.704852329423172,
1.)))
REPRESENTATION_ITEM('')
SURFACE()
);
#321=ADVANCED_FACE('',(#255,#256),#319,.F.);
#322=ADVANCED_FACE('',(#257,#258,#259,#260,#261,#262,#263,#264,#265,#266,
#267,#268,#269),#54,.F.);
#323=ADVANCED_FACE('',(#270,#271),#320,.T.);
#324=ADVANCED_FACE('',(#272,#273),#26,.T.);
#325=ADVANCED_FACE('',(#274,#275,#276,#277,#278,#279,#280,#281,#282,#283,
#284,#285,#286),#55,.T.);
#326=ADVANCED_FACE('',(#287,#288),#14,.F.);
#327=ADVANCED_FACE('',(#289,#290),#15,.F.);
#328=ADVANCED_FACE('',(#291,#292),#16,.F.);
#329=ADVANCED_FACE('',(#293,#294),#17,.F.);
#330=ADVANCED_FACE('',(#295,#296),#18,.F.);
#331=ADVANCED_FACE('',(#297,#298),#19,.F.);
#332=ADVANCED_FACE('',(#299,#300),#20,.F.);
#333=ADVANCED_FACE('',(#301,#302),#21,.F.);
#334=ADVANCED_FACE('',(#303,#304),#22,.F.);
#335=ADVANCED_FACE('',(#305,#306),#23,.F.);
#336=ADVANCED_FACE('',(#307,#308),#24,.F.);
#337=ADVANCED_FACE('',(#309,#310),#25,.F.);
#338=ADVANCED_FACE('',(#311,#312),#56,.F.);
#339=ADVANCED_FACE('',(#313,#314),#12,.F.);
#340=ADVANCED_FACE('',(#315,#316),#13,.T.);
#341=ADVANCED_FACE('',(#317,#318),#57,.T.);
#342=CLOSED_SHELL('',(#321,#322,#323,#324,#325,#326,#327,#328,#329,#330,
#331,#332,#333,#334,#335,#336,#337,#338,#339,#340,#341));
#343=STYLED_ITEM('',(#344),#351);
#344=PRESENTATION_STYLE_ASSIGNMENT((#345));
#345=SURFACE_STYLE_USAGE(.BOTH.,#346);
#346=SURFACE_SIDE_STYLE('',(#347));
#347=SURFACE_STYLE_FILL_AREA(#348);
#348=FILL_AREA_STYLE('',(#349));
#349=FILL_AREA_STYLE_COLOUR('',#350);
#350=COLOUR_RGB('',0.301960784313725,0.301960784313725,0.301960784313725);
#351=MANIFOLD_SOLID_BREP('Enclosure Rear',#342);
#352=SHAPE_DEFINITION_REPRESENTATION(#944,#353);
#353=SHAPE_REPRESENTATION('Enclosure Rear',(#354),#939);
#354=AXIS2_PLACEMENT_3D('',#492,#400,#401);
#355=AXIS2_PLACEMENT_3D('',#653,#402,#403);
#356=AXIS2_PLACEMENT_3D('',#654,#404,#405);
#357=AXIS2_PLACEMENT_3D('',#656,#406,#407);
#358=AXIS2_PLACEMENT_3D('',#658,#408,#409);
#359=AXIS2_PLACEMENT_3D('',#660,#410,#411);
#360=AXIS2_PLACEMENT_3D('',#662,#412,#413);
#361=AXIS2_PLACEMENT_3D('',#664,#414,#415);
#362=AXIS2_PLACEMENT_3D('',#666,#416,#417);
#363=AXIS2_PLACEMENT_3D('',#668,#418,#419);
#364=AXIS2_PLACEMENT_3D('',#670,#420,#421);
#365=AXIS2_PLACEMENT_3D('',#672,#422,#423);
#366=AXIS2_PLACEMENT_3D('',#674,#424,#425);
#367=AXIS2_PLACEMENT_3D('',#676,#426,#427);
#368=AXIS2_PLACEMENT_3D('',#891,#428,#429);
#369=AXIS2_PLACEMENT_3D('',#892,#430,#431);
#370=AXIS2_PLACEMENT_3D('',#894,#432,#433);
#371=AXIS2_PLACEMENT_3D('',#896,#434,#435);
#372=AXIS2_PLACEMENT_3D('',#898,#436,#437);
#373=AXIS2_PLACEMENT_3D('',#900,#438,#439);
#374=AXIS2_PLACEMENT_3D('',#902,#440,#441);
#375=AXIS2_PLACEMENT_3D('',#904,#442,#443);
#376=AXIS2_PLACEMENT_3D('',#906,#444,#445);
#377=AXIS2_PLACEMENT_3D('',#908,#446,#447);
#378=AXIS2_PLACEMENT_3D('',#910,#448,#449);
#379=AXIS2_PLACEMENT_3D('',#912,#450,#451);
#380=AXIS2_PLACEMENT_3D('',#914,#452,#453);
#381=AXIS2_PLACEMENT_3D('',#916,#454,#455);
#382=AXIS2_PLACEMENT_3D('',#917,#456,#457);
#383=AXIS2_PLACEMENT_3D('',#918,#458,#459);
#384=AXIS2_PLACEMENT_3D('',#919,#460,#461);
#385=AXIS2_PLACEMENT_3D('',#920,#462,#463);
#386=AXIS2_PLACEMENT_3D('',#921,#464,#465);
#387=AXIS2_PLACEMENT_3D('',#922,#466,#467);
#388=AXIS2_PLACEMENT_3D('',#923,#468,#469);
#389=AXIS2_PLACEMENT_3D('',#924,#470,#471);
#390=AXIS2_PLACEMENT_3D('',#925,#472,#473);
#391=AXIS2_PLACEMENT_3D('',#926,#474,#475);
#392=AXIS2_PLACEMENT_3D('',#927,#476,#477);
#393=AXIS2_PLACEMENT_3D('',#928,#478,#479);
#394=AXIS2_PLACEMENT_3D('',#929,#480,#481);
#395=AXIS2_PLACEMENT_3D('',#931,#482,#483);
#396=AXIS2_PLACEMENT_3D('',#932,#484,#485);
#397=AXIS2_PLACEMENT_3D('',#934,#486,#487);
#398=AXIS2_PLACEMENT_3D('',#935,#488,#489);
#399=AXIS2_PLACEMENT_3D('',#937,#490,#491);
#400=DIRECTION('',(0.,0.,1.));
#401=DIRECTION('',(1.,0.,0.));
#402=DIRECTION('',(0.939692620785908,0.,0.342020143325669));
#403=DIRECTION('',(0.,1.,0.));
#404=DIRECTION('',(0.939692620785908,0.,0.342020143325669));
#405=DIRECTION('',(-0.241844762647977,0.707106781186547,0.664463024388674));
#406=DIRECTION('',(0.939692620785908,0.,0.342020143325669));
#407=DIRECTION('',(0.241844762647977,-0.707106781186548,-0.664463024388673));
#408=DIRECTION('',(0.939692620785908,0.,0.342020143325669));
#409=DIRECTION('',(0.,-1.,0.));
#410=DIRECTION('',(0.939692620785908,0.,0.342020143325669));
#411=DIRECTION('',(-0.342020143325669,0.,0.939692620785908));
#412=DIRECTION('',(0.939692620785908,0.,0.342020143325669));
#413=DIRECTION('',(0.342020143325669,0.,-0.939692620785908));
#414=DIRECTION('',(0.939692620785908,0.,0.342020143325669));
#415=DIRECTION('',(0.241844762647977,0.707106781186547,-0.664463024388675));
#416=DIRECTION('',(0.939692620785908,0.,0.342020143325669));
#417=DIRECTION('',(0.342020143325669,-2.89120579329468E-16,-0.939692620785908));
#418=DIRECTION('',(0.939692620785908,0.,0.342020143325669));
#419=DIRECTION('',(0.,1.,0.));
#420=DIRECTION('',(0.939692620785908,0.,0.342020143325669));
#421=DIRECTION('',(-0.342020143325669,0.,0.939692620785908));
#422=DIRECTION('',(0.939692620785908,0.,0.342020143325669));
#423=DIRECTION('',(-0.241844762647977,-0.707106781186547,0.664463024388675));
#424=DIRECTION('',(0.939692620785908,0.,0.342020143325669));
#425=DIRECTION('',(0.,-1.,0.));
#426=DIRECTION('',(0.939692620785908,0.,0.342020143325669));
#427=DIRECTION('',(0.,1.,0.));
#428=DIRECTION('',(0.939692620785908,0.,0.342020143325669));
#429=DIRECTION('',(0.,1.,0.));
#430=DIRECTION('',(0.939692620785908,0.,0.342020143325669));
#431=DIRECTION('',(0.342020143325669,0.,-0.939692620785908));
#432=DIRECTION('',(0.939692620785908,0.,0.342020143325669));
#433=DIRECTION('',(0.342020143325669,0.,-0.939692620785908));
#434=DIRECTION('',(0.939692620785908,0.,0.342020143325669));
#435=DIRECTION('',(0.342020143325669,0.,-0.939692620785908));
#436=DIRECTION('',(0.939692620785908,0.,0.342020143325669));
#437=DIRECTION('',(0.342020143325669,0.,-0.939692620785908));
#438=DIRECTION('',(0.939692620785908,0.,0.342020143325669));
#439=DIRECTION('',(0.342020143325669,0.,-0.939692620785908));
#440=DIRECTION('',(0.939692620785908,0.,0.342020143325669));
#441=DIRECTION('',(0.342020143325669,0.,-0.939692620785908));
#442=DIRECTION('',(0.939692620785908,0.,0.342020143325669));
#443=DIRECTION('',(0.342020143325669,0.,-0.939692620785908));
#444=DIRECTION('',(0.939692620785908,0.,0.342020143325669));
#445=DIRECTION('',(0.342020143325669,0.,-0.939692620785908));
#446=DIRECTION('',(0.939692620785908,0.,0.342020143325669));
#447=DIRECTION('',(0.342020143325669,0.,-0.939692620785908));
#448=DIRECTION('',(0.939692620785908,0.,0.342020143325669));
#449=DIRECTION('',(0.342020143325669,0.,-0.939692620785908));
#450=DIRECTION('',(0.939692620785908,0.,0.342020143325669));
#451=DIRECTION('',(0.342020143325669,0.,-0.939692620785908));
#452=DIRECTION('',(0.939692620785908,0.,0.342020143325669));
#453=DIRECTION('',(0.342020143325669,0.,-0.939692620785908));
#454=DIRECTION('',(-0.939692620785908,0.,-0.342020143325669));
#455=DIRECTION('',(-0.342020143325669,0.,0.939692620785909));
#456=DIRECTION('',(-0.939692620785908,0.,-0.342020143325669));
#457=DIRECTION('',(-0.342020143325669,0.,0.939692620785909));
#458=DIRECTION('',(-0.939692620785908,0.,-0.342020143325669));
#459=DIRECTION('',(-0.342020143325669,0.,0.939692620785909));
#460=DIRECTION('',(-0.939692620785908,0.,-0.342020143325669));
#461=DIRECTION('',(-0.342020143325669,0.,0.939692620785909));
#462=DIRECTION('',(-0.939692620785908,0.,-0.342020143325669));
#463=DIRECTION('',(-0.342020143325669,0.,0.939692620785909));
#464=DIRECTION('',(-0.939692620785908,0.,-0.342020143325669));
#465=DIRECTION('',(-0.342020143325669,0.,0.939692620785909));
#466=DIRECTION('',(-0.939692620785908,0.,-0.342020143325669));
#467=DIRECTION('',(-0.342020143325669,0.,0.939692620785909));
#468=DIRECTION('',(-0.939692620785908,0.,-0.342020143325669));
#469=DIRECTION('',(-0.342020143325669,0.,0.939692620785909));
#470=DIRECTION('',(-0.939692620785908,0.,-0.342020143325669));
#471=DIRECTION('',(-0.342020143325669,0.,0.939692620785909));
#472=DIRECTION('',(-0.939692620785908,0.,-0.342020143325669));
#473=DIRECTION('',(-0.342020143325669,0.,0.939692620785909));
#474=DIRECTION('',(-0.939692620785908,0.,-0.342020143325669));
#475=DIRECTION('',(-0.342020143325669,0.,0.939692620785909));
#476=DIRECTION('',(-0.939692620785908,0.,-0.342020143325669));
#477=DIRECTION('',(-0.342020143325669,0.,0.939692620785909));
#478=DIRECTION('',(0.939692620785908,0.,0.342020143325669));
#479=DIRECTION('',(0.,1.,0.));
#480=DIRECTION('',(0.939692620785908,0.,0.342020143325669));
#481=DIRECTION('',(0.342020143325669,0.,-0.939692620785908));
#482=DIRECTION('',(0.939692620785908,0.,0.342020143325669));
#483=DIRECTION('',(-0.342020143325669,0.,0.939692620785908));
#484=DIRECTION('',(0.939692620785908,0.,0.342020143325669));
#485=DIRECTION('',(0.342020143325669,0.,-0.939692620785908));
#486=DIRECTION('',(-0.939692620785908,0.,-0.342020143325669));
#487=DIRECTION('',(-0.342020143325669,0.,0.939692620785908));
#488=DIRECTION('',(0.939692620785908,0.,0.342020143325669));
#489=DIRECTION('',(0.342020143325669,0.,-0.939692620785908));
#490=DIRECTION('',(0.939692620785908,0.,0.342020143325669));
#491=DIRECTION('',(0.,1.,0.));
#492=CARTESIAN_POINT('',(0.,0.,0.));
#493=CARTESIAN_POINT('',(-0.0523396741563135,-0.00131962688912213,0.00302121356059356));
#494=CARTESIAN_POINT('',(-0.0533718473012373,-0.00119432245911396,0.00137429602505149));
#495=CARTESIAN_POINT('',(-0.0527093395825457,-0.000991136701824896,-0.000445928972267923));
#496=CARTESIAN_POINT('',(-0.0523563778325029,-0.000845110042090079,0.00306752263189444));
#497=CARTESIAN_POINT('',(-0.0533871518203354,-0.000763837109517198,0.00141634484568912));
#498=CARTESIAN_POINT('',(-0.0527221199634763,-0.000632048680833049,-0.00041081516424918));
#499=CARTESIAN_POINT('',(-0.0523729280613916,0.000126949574573246,0.00311343893644124));
#500=CARTESIAN_POINT('',(-0.0534021961403479,0.000114097447738428,0.00145767877521449));
#501=CARTESIAN_POINT('',(-0.052734449367245,9.32560873658221E-5,-0.000376940405799529));
#502=CARTESIAN_POINT('',(-0.0523282816433283,0.00201901793774737,0.00298958688651132));
#503=CARTESIAN_POINT('',(-0.0533615521816522,0.00182635860942018,0.00134601041646088));
#504=CARTESIAN_POINT('',(-0.0527010225366989,0.00151400929060473,-0.000468779867928794));
#505=CARTESIAN_POINT('',(-0.052148638361117,0.004288786821232,0.00249182263183081));
#506=CARTESIAN_POINT('',(-0.0531961356215573,0.00390606869931852,0.000891532152796276));
#507=CARTESIAN_POINT('',(-0.0525612154301962,0.00328602687974883,-0.000852896736124348));
#508=CARTESIAN_POINT('',(-0.0517781272574975,0.00677849880317335,0.00146773314637379));
#509=CARTESIAN_POINT('',(-0.0528527712205999,0.00620214043030104,-5.1853785478952E-5));
#510=CARTESIAN_POINT('',(-0.0522655180231864,0.00526907156084613,-0.00166531868487521));
#511=CARTESIAN_POINT('',(-0.0512652192921242,0.00905583274784992,5.39992713602291E-5));
#512=CARTESIAN_POINT('',(-0.0523775842323542,0.00830426553137105,-0.00135741930570256));
#513=CARTESIAN_POINT('',(-0.0518540998954639,0.00708819815080715,-0.00279568070074669));
#514=CARTESIAN_POINT('',(-0.0506046344424104,0.0110576939309714,-0.00176264107060021));
#515=CARTESIAN_POINT('',(-0.051773783664579,0.0101313452572513,-0.00301634773151879));
#516=CARTESIAN_POINT('',(-0.0513431884312412,0.00863273786017094,-0.00419939841203921));
#517=CARTESIAN_POINT('',(-0.0497980149666475,0.0126502517454545,-0.00397722901919517));
#518=CARTESIAN_POINT('',(-0.0510391015956043,0.0115828776197979,-0.00503487012650504));
#519=CARTESIAN_POINT('',(-0.050724011449175,0.00985572199315019,-0.00590057318891228));
#520=CARTESIAN_POINT('',(-0.0489062326279875,0.0137123155788099,-0.00642522677549404));
#521=CARTESIAN_POINT('',(-0.0502264162234156,0.0125516037661317,-0.0072677048357145));
#522=CARTESIAN_POINT('',(-0.0500381261542533,0.0106728846522605,-0.00778502754904525));
#523=CARTESIAN_POINT('',(-0.0479580110989896,0.0142260696563052,-0.00903173552783035));
#524=CARTESIAN_POINT('',(-0.0493613274137607,0.0130200821429797,-0.00964451680606434));
#525=CARTESIAN_POINT('',(-0.0493082339085709,0.0110684448523485,-0.00979039001269302));
#526=CARTESIAN_POINT('',(-0.0469933943794337,0.0141529113051187,-0.0116881349529221));
#527=CARTESIAN_POINT('',(-0.0484786351154058,0.0129536900513371,-0.0120696939641207));
#528=CARTESIAN_POINT('',(-0.0485612048782157,0.011014616288244,-0.0118428354052708));
#529=CARTESIAN_POINT('',(-0.0460831624639919,0.0135658024505544,-0.014197529465395));
#530=CARTESIAN_POINT('',(-0.047638681648057,0.0124139648529866,-0.0143774471490544));
#531=CARTESIAN_POINT('',(-0.0478390806970904,0.0105536513490074,-0.0138268552869549));
#532=CARTESIAN_POINT('',(-0.0452134599184321,0.0124925842103396,-0.0165962110033574));
#533=CARTESIAN_POINT('',(-0.0468365813665442,0.0114270053797128,-0.0165811995606486));
#534=CARTESIAN_POINT('',(-0.0471505471970201,0.00970815046077499,-0.0157185855309359));
#535=CARTESIAN_POINT('',(-0.0445579987783565,0.0112193217271756,-0.0184029137572934));
#536=CARTESIAN_POINT('',(-0.0462351106493331,0.0102606090443022,-0.0182337267746496));
#537=CARTESIAN_POINT('',(-0.0466389125530246,0.00871543004985891,-0.0171242901623245));
#538=CARTESIAN_POINT('',(-0.0440758824663977,0.00991839591266719,-0.019730411338049));
#539=CARTESIAN_POINT('',(-0.0457966916574434,0.00907973106387085,-0.0194382730551266));
#540=CARTESIAN_POINT('',(-0.0462722431171726,0.00772860380416775,-0.018131706157732));
#541=CARTESIAN_POINT('',(-0.0436595226950425,0.00852626097051123,-0.0208755686426553));
#542=CARTESIAN_POINT('',(-0.0454161539624269,0.00780904566182585,-0.0204837917794357));
#543=CARTESIAN_POINT('',(-0.0459499589018609,0.00665377334993454,-0.0190171747619474));
#544=CARTESIAN_POINT('',(-0.0432300134632768,0.00658331761941471,-0.022054731316502));
#545=CARTESIAN_POINT('',(-0.0450217930968132,0.0060246415463756,-0.0215672893528258));
#546=CARTESIAN_POINT('',(-0.0456118325142087,0.00512469299563741,-0.0199461693769434));
#547=CARTESIAN_POINT('',(-0.042873956645365,0.00405747227627509,-0.0230301401143671));
#548=CARTESIAN_POINT('',(-0.0446951645169424,0.00370178083889314,-0.0224646940005697));
#549=CARTESIAN_POINT('',(-0.045331383199705,0.00312862994611963,-0.0207166975358442));
#550=CARTESIAN_POINT('',(-0.0426764092264071,0.00131199179137272,-0.0235705273876952));
#551=CARTESIAN_POINT('',(-0.0445154815500654,0.00118733982759651,-0.0229583688947247));
#552=CARTESIAN_POINT('',(-0.0451794723772881,0.000986419598574945,-0.0211340690902054));
#553=CARTESIAN_POINT('',(-0.0426883758514043,-0.00159055831524609,-0.0235378071855845));
#554=CARTESIAN_POINT('',(-0.0445262755431086,-0.00144081178422307,-0.0229287126425727));
#555=CARTESIAN_POINT('',(-0.0451884437626384,-0.00119944739371101,-0.0211094204115342));
#556=CARTESIAN_POINT('',(-0.0428981555678084,-0.00427836457665424,-0.0229639092379894));
#557=CARTESIAN_POINT('',(-0.0447173431396621,-0.0039050000461465,-0.0224037587354523));
#558=CARTESIAN_POINT('',(-0.0453504163178441,-0.00330338785122399,-0.0206644044735352));
#559=CARTESIAN_POINT('',(-0.0432710154695367,-0.00680741042245267,-0.0219422763582975));
#560=CARTESIAN_POINT('',(-0.0450593342537866,-0.00623049642202261,-0.0214641458717415));
#561=CARTESIAN_POINT('',(-0.0456438844834773,-0.00530119035534372,-0.0198581073151292));
#562=CARTESIAN_POINT('',(-0.0437962878722844,-0.00910532125437492,-0.0204999784318797));
#563=CARTESIAN_POINT('',(-0.0455420970273664,-0.00834112802847234,-0.0201377660523776));
#564=CARTESIAN_POINT('',(-0.0460585435341041,-0.00711020261014416,-0.0187188409367597));
#565=CARTESIAN_POINT('',(-0.0444839384026104,-0.0111007181018954,-0.0186071680798289));
#566=CARTESIAN_POINT('',(-0.0461671976374314,-0.0101519848500728,-0.0184203162413367));
#567=CARTESIAN_POINT('',(-0.0465812452088754,-0.00862300884967336,-0.0172827298882142));
#568=CARTESIAN_POINT('',(-0.0452890597755158,-0.012608658134157,-0.0163877211706483));
#569=CARTESIAN_POINT('',(-0.0469061144487837,-0.0115334836492785,-0.0163901589872908));
#570=CARTESIAN_POINT('',(-0.0472099204993969,-0.00979896503557398,-0.0155554587233374));
#571=CARTESIAN_POINT('',(-0.0461529940067475,-0.0136285441814916,-0.0140049469234589));
#572=CARTESIAN_POINT('',(-0.0477031989440683,-0.0124717728974393,-0.0142001873350989));
#573=CARTESIAN_POINT('',(-0.0478946601849943,-0.0106033106275772,-0.0136741518989539));
#574=CARTESIAN_POINT('',(-0.0470751867776156,-0.014181069169561,-0.0114627546439204));
#575=CARTESIAN_POINT('',(-0.0485538539492822,-0.0129794363596258,-0.0118630319165277));
#576=CARTESIAN_POINT('',(-0.0486254617244015,-0.0110362899972917,-0.01166629117133));
#577=CARTESIAN_POINT('',(-0.0480286061231171,-0.0142062439668024,-0.00883752187270321));
#578=CARTESIAN_POINT('',(-0.0494257075133878,-0.0130019781055038,-0.00946763393607645));
#579=CARTESIAN_POINT('',(-0.0493624257323704,-0.0110530589997719,-0.00964149920048456));
#580=CARTESIAN_POINT('',(-0.0489762638093807,-0.0136523478411896,-0.00623289310354956));
#581=CARTESIAN_POINT('',(-0.0502902797537076,-0.0124969389692673,-0.00709224122831056));
#582=CARTESIAN_POINT('',(-0.0500920499867032,-0.0106268198312859,-0.00763687303701891));
#583=CARTESIAN_POINT('',(-0.0498652334572396,-0.0125416682494356,-0.00379274815679654));
#584=CARTESIAN_POINT('',(-0.0511003566796853,-0.0114837617265474,-0.00486657316616584));
#585=CARTESIAN_POINT('',(-0.0507757297828248,-0.0097719728156457,-0.0057584782350377));
#586=CARTESIAN_POINT('',(-0.050655532780225,-0.0109316443344383,-0.00162279641070871));
#587=CARTESIAN_POINT('',(-0.0518200767358072,-0.0100167979012907,-0.00288915856364218));
#588=CARTESIAN_POINT('',(-0.0513820276797743,-0.00853680290500928,-0.0040926884537059));
#589=CARTESIAN_POINT('',(-0.0513145691154125,-0.00887228890738627,0.000189863696921355));
#590=CARTESIAN_POINT('',(-0.0524231159781721,-0.00813545794445291,-0.00123232186219952));
#591=CARTESIAN_POINT('',(-0.0518932880740772,-0.0069431964251833,-0.00268801206489717));
#592=CARTESIAN_POINT('',(-0.0518116294252834,-0.00659432542772067,0.00156022901167267));
#593=CARTESIAN_POINT('',(-0.052883855062176,-0.0060319106097152,3.35483673614287E-5));
#594=CARTESIAN_POINT('',(-0.0522924159043054,-0.00512136560350559,-0.00159141736386921));
#595=CARTESIAN_POINT('',(-0.0521720496848056,-0.00407425637049536,0.00255662405904484));
#596=CARTESIAN_POINT('',(-0.0532177900536984,-0.00370897567363478,0.00095102721613474));
#597=CARTESIAN_POINT('',(-0.0525797318645925,-0.00311714992291526,-0.000802023250731716));
#598=CARTESIAN_POINT('',(-0.052306268383031,-0.00226861572433331,0.00292859979585917));
#599=CARTESIAN_POINT('',(-0.0533412399968031,-0.00205524439106645,0.00129020314724837));
#600=CARTESIAN_POINT('',(-0.0526837788206846,-0.00170931274380859,-0.000516156588305408));
#601=CARTESIAN_POINT('',(-0.0523396741563135,-0.00131962688912213,0.00302121356059356));
#602=CARTESIAN_POINT('',(-0.0533718473012373,-0.00119432245911396,0.00137429602505149));
#603=CARTESIAN_POINT('',(-0.0527093395825457,-0.000991136701824896,-0.000445928972267923));
#604=CARTESIAN_POINT('',(-0.0452454131702466,0.00217845574033376,-0.0209528982505309));
#605=CARTESIAN_POINT('',(-0.0451346246643111,-0.000732336052287706,-0.0212572871689234));
#606=CARTESIAN_POINT('',(-0.045406817239691,-0.00430125423104173,-0.0205094442143245));
#607=CARTESIAN_POINT('',(-0.0462263007597892,-0.00800187294269084,-0.0182579317472392));
#608=CARTESIAN_POINT('',(-0.0474872462375245,-0.0103907036909627,-0.0147935125199982));
#609=CARTESIAN_POINT('',(-0.0489558687064727,-0.0113143405909879,-0.0107585054488592));
#610=CARTESIAN_POINT('',(-0.0504373186819774,-0.0105064156753303,-0.00668825509310841));
#611=CARTESIAN_POINT('',(-0.0516806232416451,-0.00800567033372784,-0.00327230388991661));
#612=CARTESIAN_POINT('',(-0.052362060401021,-0.00490142605973621,-0.0014000706817538));
#613=CARTESIAN_POINT('',(-0.0526675460827826,-0.00217900658921764,-0.000560755669147467));
#614=CARTESIAN_POINT('',(-0.0527859288283018,0.000720934612168606,-0.000235501748980097));
#615=CARTESIAN_POINT('',(-0.0524989767294832,0.00427464428071048,-0.0010238961609495));
#616=CARTESIAN_POINT('',(-0.0516897545313204,0.00797148803107325,-0.00324721587772319));
#617=CARTESIAN_POINT('',(-0.050453421201979,0.0104864794865934,-0.00664401378300784));
#618=CARTESIAN_POINT('',(-0.0489708555620927,0.0113201835402202,-0.0107173294014546));
#619=CARTESIAN_POINT('',(-0.0477369483855324,0.0105455237818074,-0.014107461506757));
#620=CARTESIAN_POINT('',(-0.046865149310984,0.00921790979354171,-0.0165027097783803));
#621=CARTESIAN_POINT('',(-0.0460896862977703,0.00738621681790879,-0.018633276896807));
#622=CARTESIAN_POINT('',(-0.0455450868529263,0.00492656874689377,-0.0201295515741632));
#623=CARTESIAN_POINT('',(-0.0452454131702466,0.00217845574033376,-0.0209528982505309));
#624=CARTESIAN_POINT('',(-0.0451346246643111,-0.000732336052287706,-0.0212572871689234));
#625=CARTESIAN_POINT('',(-0.045406817239691,-0.00430125423104173,-0.0205094442143245));
#626=CARTESIAN_POINT('',(-0.0451897003379816,2.51537548969713E-15,-0.0211059679991526));
#627=CARTESIAN_POINT('',(-0.0518972492502029,-0.00675675261938453,0.00170857777730728));
#628=CARTESIAN_POINT('',(-0.0523972660848271,-0.00225559929946016,0.00308236273978441));
#629=CARTESIAN_POINT('',(-0.0523912639696202,0.00146077887304035,0.00306587206378451));
#630=CARTESIAN_POINT('',(-0.0521100511901546,0.00510249411126028,0.00229324630214073));
#631=CARTESIAN_POINT('',(-0.0513496007867942,0.00923494462821186,0.000203925990292804));
#632=CARTESIAN_POINT('',(-0.0498746304451403,0.0128746639341655,-0.00384852171776645));
#633=CARTESIAN_POINT('',(-0.0480166013539747,0.0144801533135361,-0.00895341469043393));
#634=CARTESIAN_POINT('',(-0.0464108568347516,0.0139186921650842,-0.0133651614984123));
#635=CARTESIAN_POINT('',(-0.0452434560150017,0.01249364523623,-0.016572568890128));
#636=CARTESIAN_POINT('',(-0.0441781340323834,0.010431721306995,-0.0194995169818201));
#637=CARTESIAN_POINT('',(-0.0431825825645609,0.00675516110973376,-0.0222347721595676));
#638=CARTESIAN_POINT('',(-0.0426031050755968,0.00135857180416648,-0.0238268734755787));
#639=CARTESIAN_POINT('',(-0.0427808717063609,-0.00331401473114106,-0.0233384636716218));
#640=CARTESIAN_POINT('',(-0.0432816684411617,-0.00675261557180118,-0.0219625359510199));
#641=CARTESIAN_POINT('',(-0.0438046011010941,-0.00905688237294081,-0.0205257902759603));
#642=CARTESIAN_POINT('',(-0.0444839933281506,-0.0110394359545442,-0.0186591754731697));
#643=CARTESIAN_POINT('',(-0.0455428023625345,-0.0130497776697677,-0.0157501215596854));
#644=CARTESIAN_POINT('',(-0.0467852352664346,-0.0141517644137371,-0.0123365652110322));
#645=CARTESIAN_POINT('',(-0.0480438121378573,-0.0141851357350105,-0.00887865367615062));
#646=CARTESIAN_POINT('',(-0.048986453037601,-0.0136407449985526,-0.00628876908945057));
#647=CARTESIAN_POINT('',(-0.0498579019696025,-0.0125681140352668,-0.00389448282656847));
#648=CARTESIAN_POINT('',(-0.0509119430124067,-0.0104526128250706,-0.000998528862285629));
#649=CARTESIAN_POINT('',(-0.0518972492502029,-0.00675675261938453,0.00170857777730728));
#650=CARTESIAN_POINT('',(-0.0523972660848271,-0.00225559929946016,0.00308236273978441));
#651=CARTESIAN_POINT('',(-0.0523912639696202,0.00146077887304035,0.00306587206378451));
#652=CARTESIAN_POINT('',(-0.0523619309241165,-0.00131688346328828,0.0029852801836193));
#653=CARTESIAN_POINT('',(-0.0508402053097486,0.,-0.011428941981033));
#654=CARTESIAN_POINT('',(-0.0528141631010255,-0.00581314786020411,-0.00600553752254324));
#655=CARTESIAN_POINT('',(-0.0531769302449975,-0.00475248768842429,-0.00500884298596023));
#656=CARTESIAN_POINT('',(-0.0488377357723849,0.00581314786020411,-0.0169306818180857));
#657=CARTESIAN_POINT('',(-0.0484749686284129,0.00475248768842429,-0.0179273763546687));
#658=CARTESIAN_POINT('',(-0.0497375457673041,1.3010426069826E-18,-0.0144584741752454));
#659=CARTESIAN_POINT('',(-0.0497375457673041,-0.0015,-0.0144584741752454));
#660=CARTESIAN_POINT('',(-0.0508259494367052,-0.00318227943774842,-0.0114681096703144));
#661=CARTESIAN_POINT('',(-0.0513389796516937,-0.00318227943774842,-0.0100585707391356));
#662=CARTESIAN_POINT('',(-0.0508259494367052,0.0082210325439808,-0.0114681096703144));
#663=CARTESIAN_POINT('',(-0.0503129192217167,0.0082210325439808,-0.0128776486014933));
#664=CARTESIAN_POINT('',(-0.0528141631010255,0.00581314786020412,-0.00600553752254324));
#665=CARTESIAN_POINT('',(-0.0524513959570535,0.00687380803198394,-0.00700223205912625));
#666=CARTESIAN_POINT('',(-0.0508259494367052,0.00318227943774843,-0.0114681096703144));
#667=CARTESIAN_POINT('',(-0.0503129192217167,0.00318227943774842,-0.0128776486014933));
#668=CARTESIAN_POINT('',(-0.0519143531061062,1.7347234759768E-18,-0.00847774516538352));
#669=CARTESIAN_POINT('',(-0.0519143531061062,0.0015,-0.00847774516538352));
#670=CARTESIAN_POINT('',(-0.0508259494367052,-0.00822103254398079,-0.0114681096703144));
#671=CARTESIAN_POINT('',(-0.0513389796516937,-0.00822103254398079,-0.0100585707391356));
#672=CARTESIAN_POINT('',(-0.0488377357723849,-0.00581314786020411,-0.0169306818180857));
#673=CARTESIAN_POINT('',(-0.0492005029163569,-0.00687380803198393,-0.0159339872815026));
#674=CARTESIAN_POINT('',(-0.0480141907077279,6.50521303491303E-19,-0.019193353287134));
#675=CARTESIAN_POINT('',(-0.0480141907077279,-0.0015,-0.019193353287134));
#676=CARTESIAN_POINT('',(-0.0536377081656825,1.7347234759768E-18,-0.00374286605349488));
#677=CARTESIAN_POINT('',(-0.0536377081656825,0.0015,-0.00374286605349488));
#678=CARTESIAN_POINT('',(-0.0545469992324579,-0.00217824734787706,-0.0012446093798179));
#679=CARTESIAN_POINT('',(-0.0546657647823225,0.000731596658413093,-0.00091830371335556));
#680=CARTESIAN_POINT('',(-0.0543739878885801,0.00430686681343684,-0.00171995414043132));
#681=CARTESIAN_POINT('',(-0.0535628371118596,0.0079898982445158,-0.00394857258324427));
#682=CARTESIAN_POINT('',(-0.0523242219719968,0.0104972648413333,-0.00735163971141159));
#683=CARTESIAN_POINT('',(-0.0508412306700506,0.0113194172710587,-0.0114261248267568));
#684=CARTESIAN_POINT('',(-0.0496081052160366,0.0105371907974623,-0.0148141091670147));
#685=CARTESIAN_POINT('',(-0.0487375387682843,0.00920463224441928,-0.017205970824349));
#686=CARTESIAN_POINT('',(-0.0479636587384267,0.00736761008347772,-0.0193321887317497));
#687=CARTESIAN_POINT('',(-0.0474209515157626,0.00490555506461986,-0.0208232645713942));
#688=CARTESIAN_POINT('',(-0.0471231017996208,0.00215575280272412,-0.0216415999408848));
#689=CARTESIAN_POINT('',(-0.0470146532423577,-0.000755504706285159,-0.0219395599031373));
#690=CARTESIAN_POINT('',(-0.0472890316992493,-0.00431958591352345,-0.0211857112884432));
#691=CARTESIAN_POINT('',(-0.0481099571251935,-0.00801412967074486,-0.0189302372176053));
#692=CARTESIAN_POINT('',(-0.049371398160809,-0.0103959109770006,-0.0154644564562782));
#693=CARTESIAN_POINT('',(-0.0508393756075557,-0.0113143351646887,-0.0114312215690732));
#694=CARTESIAN_POINT('',(-0.0523196641275468,-0.0105023371922903,-0.00736416228611948));
#695=CARTESIAN_POINT('',(-0.0535614958220453,-0.00800079237301649,-0.0039522577467219));
#696=CARTESIAN_POINT('',(-0.0542421219014511,-0.00489636362371581,-0.0020822529624624));
#697=CARTESIAN_POINT('',(-0.0545469992324579,-0.00217824734787706,-0.0012446093798179));
#698=CARTESIAN_POINT('',(-0.0546657647823225,0.000731596658413093,-0.00091830371335556));
#699=CARTESIAN_POINT('',(-0.0543739878885801,0.00430686681343684,-0.00171995414043132));
#700=CARTESIAN_POINT('',(-0.0546067244727848,-1.53777887204919E-14,-0.00108051563064805));
#701=CARTESIAN_POINT('',(-0.0509555565712308,-0.00161705874710434,0.00654249383536917));
#702=CARTESIAN_POINT('',(-0.0566426832748155,-0.00162106914105679,0.00451323520487129));
#703=CARTESIAN_POINT('',(-0.0545887248241175,-0.000991136701824896,-0.00112996925891926));
#704=CARTESIAN_POINT('',(-0.0509755677596748,-0.00103816934628623,0.00659883535404635));
#705=CARTESIAN_POINT('',(-0.0566633421360073,-0.00104079615957472,0.00456999495950732));
#706=CARTESIAN_POINT('',(-0.054601514887073,-0.000632119826262775,-0.00109482884975575));
#707=CARTESIAN_POINT('',(-0.0509957079067788,0.000156747387250341,0.00665562731724523));
#708=CARTESIAN_POINT('',(-0.0566841770734496,0.000157164714965131,0.00462723847966579));
#709=CARTESIAN_POINT('',(-0.0546138804246505,9.2919423577818E-5,-0.00106085481448223));
#710=CARTESIAN_POINT('',(-0.0509548927187446,0.00189932939391743,0.0065405613587689));
#711=CARTESIAN_POINT('',(-0.0566419688102365,0.00190404156089269,0.0045112722295734));
#712=CARTESIAN_POINT('',(-0.0545885896074518,0.00116010603119758,-0.00113034076365523));
#713=CARTESIAN_POINT('',(-0.050857068370637,0.00355480203801617,0.00626538991546596));
#714=CARTESIAN_POINT('',(-0.0565411155006091,0.00356282971384825,0.0042341800386947));
#715=CARTESIAN_POINT('',(-0.0545251386336576,0.00221801282444007,-0.00130467088139733));
#716=CARTESIAN_POINT('',(-0.0506554164898697,0.0056954702026741,0.00569970389498412));
#717=CARTESIAN_POINT('',(-0.0563339996622548,0.00570649115544869,0.00366513394960518));
#718=CARTESIAN_POINT('',(-0.0543909235998084,0.00361936019932251,-0.00167342365624927));
#719=CARTESIAN_POINT('',(-0.0502946683363711,0.00814390371495813,0.00469191930250028));
#720=CARTESIAN_POINT('',(-0.0559655454475513,0.00815638841026487,0.00265281431460399));
#721=CARTESIAN_POINT('',(-0.0541451823119399,0.00526765621544047,-0.00234859229569573));
#722=CARTESIAN_POINT('',(-0.0497894299276659,0.0103996716524231,0.00329138653772831));
#723=CARTESIAN_POINT('',(-0.0554543980836395,0.0104129592540567,0.00124844847424286));
#724=CARTESIAN_POINT('',(-0.0538016118542355,0.00678643054930649,-0.00329254437023013));
#725=CARTESIAN_POINT('',(-0.0492976067262787,0.0120407186395941,0.00193492375487561));
#726=CARTESIAN_POINT('',(-0.0549598279671737,0.0120548949488262,-0.000110371753083968));
#727=CARTESIAN_POINT('',(-0.0534787709428452,0.00785819478028306,-0.00417954248435122));
#728=CARTESIAN_POINT('',(-0.0488732149810255,0.0131990092803712,0.00076744733658558));
#729=CARTESIAN_POINT('',(-0.0545343220176877,0.0132142461159155,-0.00127943974114041));
#730=CARTESIAN_POINT('',(-0.0532095156110943,0.00859166859398138,-0.00491931542840451));
#731=CARTESIAN_POINT('',(-0.0484024919651768,0.0142335903612932,-0.000524687687831304));
#732=CARTESIAN_POINT('',(-0.054063481870382,0.0142504102763398,-0.00257306241403536));
#733=CARTESIAN_POINT('',(-0.0529103431318121,0.00925000242843255,-0.00574128505975456));
#734=CARTESIAN_POINT('',(-0.0477408369548584,0.0153958049260613,-0.00233869251784558));
#735=CARTESIAN_POINT('',(-0.0534024545509014,0.0154152696697163,-0.00438922004795102));
#736=CARTESIAN_POINT('',(-0.0524906078567921,0.00998858297383588,-0.00689449825002071));
#737=CARTESIAN_POINT('',(-0.0468375039031604,0.0164728479438727,-0.00481475840187503));
#738=CARTESIAN_POINT('',(-0.0525000090229285,0.0164956480937065,-0.00686866875834417));
#739=CARTESIAN_POINT('',(-0.0519169932088737,0.0106740173058948,-0.00847049154264478));
#740=CARTESIAN_POINT('',(-0.0456927820450143,0.0170921339546127,-0.00796406605570236));
#741=CARTESIAN_POINT('',(-0.0513523031166601,0.0171143428338372,-0.0100219648199918));
#742=CARTESIAN_POINT('',(-0.0511877578023196,0.0110681401235374,-0.0104740493556193));
#743=CARTESIAN_POINT('',(-0.0445328495470713,0.0170052122504708,-0.0111710567263255));
#744=CARTESIAN_POINT('',(-0.0501847032575832,0.0170204279032277,-0.0132299190677635));
#745=CARTESIAN_POINT('',(-0.0504405536980316,0.0110147025498542,-0.0125269757598741));
#746=CARTESIAN_POINT('',(-0.0434550220766802,0.016307415769645,-0.0141603910072532));
#747=CARTESIAN_POINT('',(-0.0490979564722047,0.0163128739565707,-0.0162157313212561));
#748=CARTESIAN_POINT('',(-0.049718472973509,0.0105536110313777,-0.0145108762455235));
#749=CARTESIAN_POINT('',(-0.0424237110080678,0.0150312608132848,-0.0170240492921511));
#750=CARTESIAN_POINT('',(-0.0480582768749744,0.0150272051722518,-0.0190722275381139));
#751=CARTESIAN_POINT('',(-0.0490299407209607,0.00970822546968384,-0.0164026030619661));
#752=CARTESIAN_POINT('',(-0.0416390553050976,0.0135042838019902,-0.0191990319626137));
#753=CARTESIAN_POINT('',(-0.0472689850524565,0.0134953554351937,-0.0212407889978419));
#754=CARTESIAN_POINT('',(-0.048518265704723,0.00871522611967235,-0.0178084186151783));
#755=CARTESIAN_POINT('',(-0.041052643943646,0.0119185736575151,-0.0208196914173086));
#756=CARTESIAN_POINT('',(-0.0466807157589238,0.0119084699619825,-0.0228570455983816));
#757=CARTESIAN_POINT('',(-0.0481516844640427,0.00772895587672178,-0.018815592296343));
#758=CARTESIAN_POINT('',(-0.0406757647983139,0.0106549652713413,-0.0218581420859044));
#759=CARTESIAN_POINT('',(-0.0463034745033415,0.010645320424013,-0.0238935074297807));
#760=CARTESIAN_POINT('',(-0.0479097008171477,0.00692113760277813,-0.0194804369020644));
#761=CARTESIAN_POINT('',(-0.0403467025453926,0.00931543264276965,-0.0227621086804654));
#762=CARTESIAN_POINT('',(-0.0459747327311523,0.00930700342025344,-0.0247967180257022));
#763=CARTESIAN_POINT('',(-0.0476948950035254,0.00604716257852052,-0.0200706110245592));
#764=CARTESIAN_POINT('',(-0.0399656778154022,0.00740954922756796,-0.0238055458748452));
#765=CARTESIAN_POINT('',(-0.0455947748045413,0.00740326851372392,-0.0258406438494085));
#766=CARTESIAN_POINT('',(-0.0474440135061087,0.00478911673122059,-0.0207599022736707));
#767=CARTESIAN_POINT('',(-0.039611815022358,0.00490682414849068,-0.0247700180798225));
#768=CARTESIAN_POINT('',(-0.0452428161255454,0.00490327700199655,-0.0268076423725309));
#769=CARTESIAN_POINT('',(-0.0472109256408008,0.00312961490007019,-0.0214003059203531));
#770=CARTESIAN_POINT('',(-0.0393716447232855,0.00160869379456086,-0.0254220888235668));
#771=CARTESIAN_POINT('',(-0.0450044146865102,0.00160772185888477,-0.0274626449430457));
#772=CARTESIAN_POINT('',(-0.0470588154973744,0.000986155680959473,-0.021818225104687));
#773=CARTESIAN_POINT('',(-0.0393864757260223,-0.00194735583625455,-0.0253818623538174));
#774=CARTESIAN_POINT('',(-0.0450191298801223,-0.00194616691991669,-0.0274222152808734));
#775=CARTESIAN_POINT('',(-0.0470678402906283,-0.00119937667719968,-0.0217934296890066));
#776=CARTESIAN_POINT('',(-0.0396405310232976,-0.00516845765027252,-0.0246919491321667));
#777=CARTESIAN_POINT('',(-0.0452713392764138,-0.00516465202567181,-0.0267292756595883));
#778=CARTESIAN_POINT('',(-0.047229798535229,-0.00330340679965385,-0.0213484530690718));
#779=CARTESIAN_POINT('',(-0.0400866649073857,-0.00818305236789415,-0.0234753720290611));
#780=CARTESIAN_POINT('',(-0.0457151694059488,-0.00817575413857444,-0.0255098624006172));
#781=CARTESIAN_POINT('',(-0.0475232705353787,-0.00530118527813564,-0.0205421453754183));
#782=CARTESIAN_POINT('',(-0.0407132010157803,-0.0109276579463674,-0.0217568555506626));
#783=CARTESIAN_POINT('',(-0.0463405304775524,-0.0109174779303046,-0.0237916969773805));
#784=CARTESIAN_POINT('',(-0.0479379285585444,-0.00711020397054663,-0.0194028818199747));
#785=CARTESIAN_POINT('',(-0.0415503184051145,-0.0133623406004424,-0.0194453812530913));
#786=CARTESIAN_POINT('',(-0.0471796968828869,-0.0133528695847505,-0.0214861062275589));
#787=CARTESIAN_POINT('',(-0.0484606305086433,-0.00862300848527155,-0.0179667700149731));
#788=CARTESIAN_POINT('',(-0.0425138083864663,-0.0151698944572534,-0.016773945664598));
#789=CARTESIAN_POINT('',(-0.0481490386475023,-0.0151665843288624,-0.018822861617544));
#790=CARTESIAN_POINT('',(-0.0490893057253157,-0.00979896513277873,-0.016239499052995));
#791=CARTESIAN_POINT('',(-0.0435375341025125,-0.0163817774691978,-0.0139313247189264));
#792=CARTESIAN_POINT('',(-0.0491811743471347,-0.0163880330612441,-0.0159870920889908));
#793=CARTESIAN_POINT('',(-0.049774045430982,-0.01060331060316,-0.0143581921734728));
#794=CARTESIAN_POINT('',(-0.044630367657473,-0.0170387826201062,-0.0109009729026044));
#795=CARTESIAN_POINT('',(-0.0502829697089979,-0.0170547658136991,-0.0129599342114119));
#796=CARTESIAN_POINT('',(-0.0505048469639629,-0.0110362899977557,-0.012350331463505));
#797=CARTESIAN_POINT('',(-0.0457779197516492,-0.0170686618988764,-0.00772931970453471));
#798=CARTESIAN_POINT('',(-0.0514378282865064,-0.0170911266612307,-0.00978698634704383));
#799=CARTESIAN_POINT('',(-0.0512418109775682,-0.011053059022333,-0.0103255394771738));
#800=CARTESIAN_POINT('',(-0.0469230818194044,-0.0163983787085311,-0.00457986775997345));
#801=CARTESIAN_POINT('',(-0.0525856240100842,-0.0164209969612637,-0.00663344351436705));
#802=CARTESIAN_POINT('',(-0.0519714352157818,-0.0106268197405773,-0.00832091335799506));
#803=CARTESIAN_POINT('',(-0.0479995856315011,-0.0150565075814315,-0.00162965962580929));
#804=CARTESIAN_POINT('',(-0.0536608201739238,-0.0150749799142705,-0.0036793663327338));
#805=CARTESIAN_POINT('',(-0.0526551150707435,-0.00977197315591889,-0.00644251839435192));
#806=CARTESIAN_POINT('',(-0.0489576974660913,-0.0131066959008368,0.000998219200468417));
#807=CARTESIAN_POINT('',(-0.0546183770269281,-0.0131214574514818,-0.00104850050126039));
#808=CARTESIAN_POINT('',(-0.0532614127484517,-0.00853680163462509,-0.00477672921538091));
#809=CARTESIAN_POINT('',(-0.0497497802044661,-0.0106238156767243,0.00318090827833503));
#810=CARTESIAN_POINT('',(-0.0554140792476051,-0.0106369796277617,0.00113767338265956));
#811=CARTESIAN_POINT('',(-0.05377267396088,-0.00694320116644688,-0.00337205057879094));
#812=CARTESIAN_POINT('',(-0.050332939043167,-0.00793063108207276,0.00479852038748856));
#813=CARTESIAN_POINT('',(-0.0560044889687492,-0.007943051619487,0.00275981075972953));
#814=CARTESIAN_POINT('',(-0.0541717987378478,-0.00512134790883545,-0.00227546426652715));
#815=CARTESIAN_POINT('',(-0.0507559605214308,-0.00494184342441154,0.00598088042668413));
#816=CARTESIAN_POINT('',(-0.0564368781520643,-0.00495195089229705,0.00394779027730417));
#817=CARTESIAN_POINT('',(-0.0544591260930513,-0.00311721596033221,-0.00148603884611423));
#818=CARTESIAN_POINT('',(-0.0509155341943428,-0.00277483754874054,0.0064298107980148));
#819=CARTESIAN_POINT('',(-0.0566013703918829,-0.00278147917190759,0.00439972899188157));
#820=CARTESIAN_POINT('',(-0.0545631446982066,-0.00170917045294913,-0.00120025007724627));
#821=CARTESIAN_POINT('',(-0.0509555565712308,-0.00161705874710434,0.00654249383536917));
#822=CARTESIAN_POINT('',(-0.0566426832748155,-0.00162106914105679,0.00451323520487129));
#823=CARTESIAN_POINT('',(-0.0545887248241175,-0.000991136701824896,-0.00112996925891926));
#824=CARTESIAN_POINT('',(-0.0394687065974621,-0.00332490572563872,-0.0251588058946339));
#825=CARTESIAN_POINT('',(-0.0393461560234715,-8.98011264769067E-6,-0.0254911457488465));
#826=CARTESIAN_POINT('',(-0.039471326079587,0.00336778387922169,-0.0251516795252004));
#827=CARTESIAN_POINT('',(-0.0398153985271206,0.00655213049399738,-0.0242159132222858));
#828=CARTESIAN_POINT('',(-0.0403628992480155,0.00953018472377376,-0.0227191172434578));
#829=CARTESIAN_POINT('',(-0.0410771590390311,0.0121111911595144,-0.0207535117590906));
#830=CARTESIAN_POINT('',(-0.0419697152384588,0.0142435838653014,-0.018283496103444));
#831=CARTESIAN_POINT('',(-0.0433003499181133,0.0163078898287105,-0.0145902021979462));
#832=CARTESIAN_POINT('',(-0.0448188662468626,0.0172404306476769,-0.0103757152252908));
#833=CARTESIAN_POINT('',(-0.0463282262773073,0.0168320602355438,-0.00621405078016158));
#834=CARTESIAN_POINT('',(-0.0474356786346386,0.0158496796809306,-0.00317440807718));
#835=CARTESIAN_POINT('',(-0.0484367689058908,0.0142675980936399,-0.00043158079812641));
#836=CARTESIAN_POINT('',(-0.0493201313013941,0.0120940764740194,0.00199547345582955));
#837=CARTESIAN_POINT('',(-0.0500241255399563,0.00949382427702303,0.0039402336773263));
#838=CARTESIAN_POINT('',(-0.0507403827313478,0.00553620100217646,0.00593423216386905));
#839=CARTESIAN_POINT('',(-0.0510680603970994,0.00110504615593691,0.00685988476845739));
#840=CARTESIAN_POINT('',(-0.0508981235919491,-0.0033872702553583,0.00638041124408031));
#841=CARTESIAN_POINT('',(-0.0504428963159968,-0.0076111574118594,0.00510321448365297));
#842=CARTESIAN_POINT('',(-0.0495931685254745,-0.0114363034622524,0.00274512376573427));
#843=CARTESIAN_POINT('',(-0.0484264509959379,-0.014289270072907,-0.000459783764491268));
#844=CARTESIAN_POINT('',(-0.047405406431068,-0.0158861232535379,-0.00325743128265993));
#845=CARTESIAN_POINT('',(-0.0463170093088457,-0.016837511144146,-0.00624487699060314));
#846=CARTESIAN_POINT('',(-0.0451700814003757,-0.0171376100368213,-0.00940756600964826));
#847=CARTESIAN_POINT('',(-0.0440480561400809,-0.0167679577482488,-0.0125147659696339));
#848=CARTESIAN_POINT('',(-0.0429586990475678,-0.0157829784160165,-0.0155385791693651));
#849=CARTESIAN_POINT('',(-0.041949783464254,-0.014202915401955,-0.0183387056828271));
#850=CARTESIAN_POINT('',(-0.0410766600657249,-0.0121089777932721,-0.0207548852439757));
#851=CARTESIAN_POINT('',(-0.040351795447508,-0.00948231737025836,-0.022749600631648));
#852=CARTESIAN_POINT('',(-0.0398142001273796,-0.00654267154799431,-0.024219140129535));
#853=CARTESIAN_POINT('',(-0.0394687065974621,-0.00332490572563872,-0.0251588058946339));
#854=CARTESIAN_POINT('',(-0.0393461560234715,-8.98011264769067E-6,-0.0254911457488465));
#855=CARTESIAN_POINT('',(-0.039471326079587,0.00336778387922169,-0.0251516795252004));
#856=CARTESIAN_POINT('',(-0.0393874423720825,1.15962275735668E-6,-0.0253791792173617));
#857=CARTESIAN_POINT('',(-0.0393161803620794,0.0172426667267799,-0.0255725577123222));
#858=CARTESIAN_POINT('',(-0.0393161803620794,-0.0172446103834914,-0.0255725577123222));
#859=CARTESIAN_POINT('',(-0.04128969469073,0.0172426667267799,-0.0202171764840806));
#860=CARTESIAN_POINT('',(-0.04128969469073,-0.0172446103834914,-0.0202171764840806));
#861=CARTESIAN_POINT('',(-0.0451117441967529,0.0172426667267799,-0.00946091100256893));
#862=CARTESIAN_POINT('',(-0.0451117441967529,-0.0172446103834914,-0.00946091100256893));
#863=CARTESIAN_POINT('',(-0.0490746526693517,0.0172426667267799,0.00124438611641269));
#864=CARTESIAN_POINT('',(-0.0490746526693517,-0.0172446103834914,0.00124438611641269));
#865=CARTESIAN_POINT('',(-0.050984114252751,0.0172426667267799,0.00662293925930356));
#866=CARTESIAN_POINT('',(-0.050984114252751,-0.0172446103834914,0.00662293925930356));
#867=CARTESIAN_POINT('',(-0.0502698863582265,0.00299289662484376,0.00462373542415871));
#868=CARTESIAN_POINT('',(-0.0503699690201353,-7.49263970339329E-6,0.00490265304889972));
#869=CARTESIAN_POINT('',(-0.0502716115039312,-0.00296292606603019,0.0046284785137151));
#870=CARTESIAN_POINT('',(-0.0499762598821113,-0.00583709947392556,0.00380759490664133));
#871=CARTESIAN_POINT('',(-0.0495018359434901,-0.00844865990641085,0.0024954628976658));
#872=CARTESIAN_POINT('',(-0.0488503415729933,-0.0107739958872766,0.000703137708499467));
#873=CARTESIAN_POINT('',(-0.0480643648422777,-0.0126548501177828,-0.00145153610221902));
#874=CARTESIAN_POINT('',(-0.0468585962914186,-0.0145402600158164,-0.00475844718737571));
#875=CARTESIAN_POINT('',(-0.0451705205840753,-0.015522256480251,-0.00939988503956478));
#876=CARTESIAN_POINT('',(-0.0431566156162839,-0.0143473147993107,-0.0149891061824692));
#877=CARTESIAN_POINT('',(-0.0414478486905166,-0.0109841037174872,-0.0197324632219348));
#878=CARTESIAN_POINT('',(-0.0402971599292939,-0.00594341736444912,-0.0228999089946846));
#879=CARTESIAN_POINT('',(-0.0398904723326244,-5.01999226022696E-6,-0.0240092492359735));
#880=CARTESIAN_POINT('',(-0.0402958366225455,0.00593149484116758,-0.0229035151479215));
#881=CARTESIAN_POINT('',(-0.0414424357464454,0.0109662707438571,-0.0197474277814283));
#882=CARTESIAN_POINT('',(-0.0431471886934898,0.0143352059508494,-0.0150152900106157));
#883=CARTESIAN_POINT('',(-0.0451614031956921,0.0155246610817111,-0.00942517612133171));
#884=CARTESIAN_POINT('',(-0.0471942971285412,0.0143463189175813,-0.00383488968620422));
#885=CARTESIAN_POINT('',(-0.0489222278117074,0.0109863241179208,0.000897003787800384));
#886=CARTESIAN_POINT('',(-0.0498776765884378,0.00679221832549749,0.00353328334153159));
#887=CARTESIAN_POINT('',(-0.0502698863582265,0.00299289662484376,0.00462373542415871));
#888=CARTESIAN_POINT('',(-0.0503699690201353,-7.49263970339329E-6,0.00490265304889972));
#889=CARTESIAN_POINT('',(-0.0502716115039312,-0.00296292606603019,0.0046284785137151));
#890=CARTESIAN_POINT('',(-0.0503368956571165,-3.46944695195361E-18,0.00481047102224545));
#891=CARTESIAN_POINT('',(-0.0489608200681768,0.,-0.0107449016943816));
#892=CARTESIAN_POINT('',(-0.0509347778594537,-0.00581314786020411,-0.00532149723589191));
#893=CARTESIAN_POINT('',(-0.0504217476444652,-0.00581314786020411,-0.00673103616707077));
#894=CARTESIAN_POINT('',(-0.046958350530813,0.00581314786020411,-0.0162466415314343));
#895=CARTESIAN_POINT('',(-0.0464453203158245,0.00581314786020411,-0.0176561804626132));
#896=CARTESIAN_POINT('',(-0.0478581605257323,1.3010426069826E-18,-0.013774433888594));
#897=CARTESIAN_POINT('',(-0.0473451303107438,1.3010426069826E-18,-0.0151839728197729));
#898=CARTESIAN_POINT('',(-0.0489465641951334,-0.00318227943774842,-0.0107840693836631));
#899=CARTESIAN_POINT('',(-0.0484335339801449,-0.00318227943774842,-0.012193608314842));
#900=CARTESIAN_POINT('',(-0.0489465641951334,0.0082210325439808,-0.0107840693836631));
#901=CARTESIAN_POINT('',(-0.0484335339801449,0.0082210325439808,-0.012193608314842));
#902=CARTESIAN_POINT('',(-0.0509347778594537,0.00581314786020412,-0.00532149723589191));
#903=CARTESIAN_POINT('',(-0.0504217476444652,0.00581314786020412,-0.00673103616707077));
#904=CARTESIAN_POINT('',(-0.0489465641951334,0.00318227943774843,-0.0107840693836631));
#905=CARTESIAN_POINT('',(-0.0484335339801449,0.00318227943774843,-0.012193608314842));
#906=CARTESIAN_POINT('',(-0.0500349678645344,1.7347234759768E-18,-0.00779370487873218));
#907=CARTESIAN_POINT('',(-0.0495219376495459,1.7347234759768E-18,-0.00920324380991104));
#908=CARTESIAN_POINT('',(-0.0489465641951334,-0.00822103254398079,-0.0107840693836631));
#909=CARTESIAN_POINT('',(-0.0484335339801449,-0.00822103254398079,-0.012193608314842));
#910=CARTESIAN_POINT('',(-0.046958350530813,-0.00581314786020411,-0.0162466415314343));
#911=CARTESIAN_POINT('',(-0.0464453203158245,-0.00581314786020411,-0.0176561804626132));
#912=CARTESIAN_POINT('',(-0.0461348054661561,6.50521303491303E-19,-0.0185093130004826));
#913=CARTESIAN_POINT('',(-0.0456217752511676,6.50521303491303E-19,-0.0199188519316615));
#914=CARTESIAN_POINT('',(-0.0517583229241107,1.7347234759768E-18,-0.00305882576684355));
#915=CARTESIAN_POINT('',(-0.0512452927091222,1.7347234759768E-18,-0.00446836469802241));
#916=CARTESIAN_POINT('',(-0.0301453926460348,1.7347234759768E-18,0.00480763752964684));
#917=CARTESIAN_POINT('',(-0.0245218751880802,6.50521303491303E-19,-0.0106428497039923));
#918=CARTESIAN_POINT('',(-0.0253454202527372,-0.00581314786020411,-0.00838017823494392));
#919=CARTESIAN_POINT('',(-0.0273336339170575,-0.00822103254398079,-0.00291760608717272));
#920=CARTESIAN_POINT('',(-0.0284220375864585,1.7347234759768E-18,7.27584177582005E-5));
#921=CARTESIAN_POINT('',(-0.0273336339170575,0.00318227943774843,-0.00291760608717272));
#922=CARTESIAN_POINT('',(-0.0293218475813778,0.00581314786020412,0.00254496606059848));
#923=CARTESIAN_POINT('',(-0.0273336339170575,0.0082210325439808,-0.00291760608717272));
#924=CARTESIAN_POINT('',(-0.0273336339170575,-0.00318227943774842,-0.00291760608717272));
#925=CARTESIAN_POINT('',(-0.0262452302476564,1.3010426069826E-18,-0.00590797059210364));
#926=CARTESIAN_POINT('',(-0.0253454202527372,0.00581314786020411,-0.00838017823494392));
#927=CARTESIAN_POINT('',(-0.0293218475813778,-0.00581314786020411,0.00254496606059848));
#928=CARTESIAN_POINT('',(-0.0475370252639545,0.,-0.0102710391686746));
#929=CARTESIAN_POINT('',(-0.0475370252639545,1.7347234759768E-18,-0.0102710391686746));
#930=CARTESIAN_POINT('',(-0.0427528608024725,1.7347234759768E-18,-0.0234154229975535));
#931=CARTESIAN_POINT('',(-0.0428385621600249,1.7347234759768E-18,-0.00856093845204626));
#932=CARTESIAN_POINT('',(-0.0428385621600249,1.7347234759768E-18,-0.00856093845204626));
#933=CARTESIAN_POINT('',(-0.0379647751176342,1.7347234759768E-18,-0.0219515582982455));
#934=CARTESIAN_POINT('',(-0.0428385621600249,1.7347234759768E-18,-0.00856093845204626));
#935=CARTESIAN_POINT('',(-0.0428385621600249,1.7347234759768E-18,-0.00856093845204626));
#936=CARTESIAN_POINT('',(-0.0377082600101399,1.7347234759768E-18,-0.0226563277638349));
#937=CARTESIAN_POINT('',(-0.0428385621600249,0.,-0.00856093845204626));
#938=MECHANICAL_DESIGN_GEOMETRIC_PRESENTATION_REPRESENTATION('',(#343),
#939);
#939=(
GEOMETRIC_REPRESENTATION_CONTEXT(3)
GLOBAL_UNCERTAINTY_ASSIGNED_CONTEXT((#940))
GLOBAL_UNIT_ASSIGNED_CONTEXT((#943,#942,#941))
REPRESENTATION_CONTEXT('Enclosure Rear','TOP_LEVEL_ASSEMBLY_PART')
);
#940=UNCERTAINTY_MEASURE_WITH_UNIT(LENGTH_MEASURE(2.1E-5),#943,
'DISTANCE_ACCURACY_VALUE','Maximum Tolerance applied to model');
#941=(
NAMED_UNIT(*)
SI_UNIT($,.STERADIAN.)
SOLID_ANGLE_UNIT()
);
#942=(
NAMED_UNIT(*)
PLANE_ANGLE_UNIT()
SI_UNIT($,.RADIAN.)
);
#943=(
LENGTH_UNIT()
NAMED_UNIT(*)
SI_UNIT($,.METRE.)
);
#944=PRODUCT_DEFINITION_SHAPE('','',#945);
#945=PRODUCT_DEFINITION('','',#947,#946);
#946=PRODUCT_DEFINITION_CONTEXT('',#953,'design');
#947=PRODUCT_DEFINITION_FORMATION_WITH_SPECIFIED_SOURCE('','',#949,
 .NOT_KNOWN.);
#948=PRODUCT_RELATED_PRODUCT_CATEGORY('','',(#949));
#949=PRODUCT('Enclosure Rear','Enclosure Rear','Enclosure Rear',(#951));
#950=PRODUCT_CATEGORY('','');
#951=PRODUCT_CONTEXT('',#953,'mechanical');
#952=APPLICATION_PROTOCOL_DEFINITION('international standard',
'ap242_managed_model_based_3d_engineering',2020,#953);
#953=APPLICATION_CONTEXT('managed model based 3d engineering');
ENDSEC;
END-ISO-10303-21;
